<svg width="22" height="23" viewBox="0 0 22 23" fill="none" xmlns="http://www.w3.org/2000/svg">
<path fill-rule="evenodd" clip-rule="evenodd" d="M10.1792 0.0119428C10.0963 0.0215866 9.84442 0.0504751 9.61947 0.0761777C8.43306 0.211665 7.13984 0.604652 6.02456 1.16869C4.86428 1.7555 3.72691 2.62297 2.85186 3.58856C1.30347 5.2972 0.379037 7.29473 0.0556673 9.63065C-0.0185558 10.1668 -0.0185558 11.8499 0.0556673 12.386C0.334822 14.4025 1.06091 16.1621 2.25799 17.7229C3.84371 19.7905 6.1721 21.2603 8.69383 21.7856C9.56466 21.967 9.97616 22.0065 10.9972 22.0065C12.0182 22.0065 12.4297 21.967 13.3005 21.7856C14.8846 21.4556 16.3937 20.7584 17.7117 19.7475C18.1772 19.3905 18.744 18.8678 19.1425 18.4281C20.6908 16.7195 21.6153 14.722 21.9387 12.386C22.0129 11.8499 22.0129 10.1668 21.9387 9.63065C21.6595 7.61414 20.9334 5.85461 19.7363 4.29381C19.1902 3.58172 18.4238 2.81529 17.7117 2.26916C16.184 1.09748 14.4728 0.378538 12.5255 0.0902129C12.114 0.02925 10.495 -0.0247383 10.1792 0.0119428ZM12.4179 1.38684C13.7702 1.5897 15.1905 2.13161 16.3122 2.87276C16.9208 3.27484 17.3651 3.63657 17.8671 4.13843C18.3689 4.64034 18.7307 5.08469 19.1327 5.69325C19.882 6.8273 20.4129 8.22652 20.6266 9.63065C20.7177 10.2297 20.7277 11.6007 20.6455 12.2138C20.5374 13.0188 20.3286 13.8314 20.0386 14.5755C19.7716 15.2608 19.404 15.9416 18.9485 16.5946L18.7307 16.9068L18.4684 16.4008C18.0536 15.6006 17.6627 15.0545 17.0471 14.4151C16.4009 13.7441 15.5797 13.1312 14.7983 12.7367C14.5708 12.6219 13.9711 12.366 13.7399 12.2852C13.6772 12.2632 13.7194 12.2094 13.9652 11.9978C14.2981 11.7113 14.6424 11.2987 14.8808 10.9007C15.3322 10.1469 15.5577 9.21519 15.5038 8.32636C15.4351 7.19446 14.998 6.23347 14.1795 5.41499C13.553 4.78845 12.8871 4.41005 12.0304 4.19371C11.7342 4.11889 11.5373 4.10128 10.9972 4.10128C10.457 4.10128 10.2601 4.11889 9.96389 4.19371C9.10718 4.41005 8.44133 4.78845 7.81478 5.41499C6.9963 6.23347 6.55919 7.19446 6.49052 8.32636C6.40635 9.71357 6.98816 11.1019 8.0291 11.9978C8.27493 12.2094 8.31712 12.2632 8.25439 12.2852C8.02324 12.366 7.42352 12.6219 7.19602 12.7367C6.41462 13.1312 5.59338 13.7441 4.94724 14.4151C4.33159 15.0545 3.94071 15.6006 3.5259 16.4008L3.26362 16.9068L3.04582 16.5946C2.27272 15.4863 1.77477 14.341 1.48743 13.0103C1.34222 12.3378 1.294 11.83 1.29318 10.9653C1.29227 9.99897 1.36034 9.45392 1.5942 8.55433C1.93484 7.24397 2.55669 6.00529 3.42055 4.91636C3.77057 4.47515 4.46398 3.78174 4.90518 3.43172C6.44962 2.20648 8.25753 1.48913 10.2653 1.30491C10.6475 1.26982 11.9746 1.32036 12.4179 1.38684ZM11.7936 5.47342C11.9357 5.51066 12.236 5.63138 12.461 5.74172C12.8059 5.91088 12.9313 6.00357 13.2611 6.33344C13.5907 6.66305 13.6838 6.7889 13.853 7.13358C14.1313 7.70046 14.2021 7.99735 14.2021 8.59738C14.2021 9.19741 14.1313 9.4943 13.853 10.0612C13.6838 10.4059 13.5907 10.5317 13.2611 10.8613C12.9315 11.191 12.8056 11.2841 12.461 11.4532C11.8941 11.7315 11.5972 11.8024 10.9972 11.8024C10.3971 11.8024 10.1002 11.7315 9.53336 11.4532C9.18868 11.2841 9.06284 11.191 8.73323 10.8613C8.40357 10.5317 8.31049 10.4059 8.14129 10.0612C7.863 9.4943 7.79218 9.19741 7.79218 8.59738C7.79218 7.99735 7.863 7.70046 8.14129 7.13358C8.31122 6.78744 8.40219 6.66482 8.73323 6.33572C9.01001 6.06057 9.21486 5.89981 9.43395 5.78581C9.81058 5.58983 10.0282 5.50941 10.3944 5.43084C10.7379 5.35713 11.4306 5.37823 11.7936 5.47342ZM11.686 13.1618C12.5741 13.2538 13.3658 13.4824 14.1514 13.8736C15.7538 14.6713 17.0143 16.0644 17.6414 17.7305L17.7472 18.0118L17.3967 18.3132C16.9631 18.6859 16.4754 19.0466 16.0389 19.3173C14.9948 19.9649 13.6967 20.4318 12.3688 20.6375C11.6941 20.742 10.3002 20.742 9.6255 20.6375C8.29762 20.4318 6.99953 19.9649 5.95541 19.3173C5.5189 19.0466 5.03124 18.6859 4.59766 18.3132L4.24708 18.0118L4.3529 17.7305C4.64187 16.9629 5.13474 16.1453 5.68013 15.5289C6.84626 14.211 8.51374 13.3481 10.2476 13.1653C10.7332 13.1141 11.2144 13.1129 11.686 13.1618Z" fill="#96A3AE"/>
</svg>
