<svg width="15" height="15" viewBox="0 0 15 15" fill="none" xmlns="http://www.w3.org/2000/svg">
<rect width="15" height="15" rx="2" fill="#00947A"/>
<path fill-rule="evenodd" clip-rule="evenodd" d="M8.59327 6.18819C7.37651 7.31628 6.34498 8.27406 6.30094 8.31658L6.22089 8.39389L5.25759 7.36522C4.72777 6.79947 4.28781 6.33656 4.27988 6.33656C4.27197 6.33656 3.98075 6.60314 3.63274 6.92895L3 7.52135L3.03923 7.56797C3.0608 7.59359 3.76558 8.34775 4.60541 9.24386L6.13235 10.8731L6.22151 10.787C6.27055 10.7396 7.56049 9.54382 9.08803 8.12973C10.6156 6.71562 11.8951 5.52983 11.9313 5.49464L11.9973 5.43069L11.4065 4.78939C11.0816 4.43667 10.8134 4.14561 10.8106 4.14259C10.8078 4.13956 9.81003 5.06009 8.59327 6.18819Z" fill="white"/>
</svg>
