<svg width="10" height="10" viewBox="0 0 10 10" fill="none" xmlns="http://www.w3.org/2000/svg">
<rect width="10" height="10" rx="2" fill="#00947A"/>
<path fill-rule="evenodd" clip-rule="evenodd" d="M5.72885 4.12546C4.91768 4.87752 4.22998 5.51604 4.20063 5.54439L4.14726 5.59593L3.50506 4.91015C3.15185 4.53298 2.85854 4.22438 2.85325 4.22438C2.84798 4.22438 2.65384 4.40209 2.42183 4.6193L2 5.01423L2.02616 5.04531C2.04054 5.0624 2.51039 5.56517 3.07027 6.16258L4.08823 7.24876L4.14767 7.19132C4.18037 7.15974 5.04032 6.36254 6.05868 5.41982C7.07704 4.47708 7.93004 3.68656 7.95423 3.66309L7.9982 3.62046L7.60434 3.19293C7.38772 2.95778 7.20895 2.76374 7.20709 2.76172C7.20522 2.75971 6.54002 3.3734 5.72885 4.12546Z" fill="white"/>
</svg>
