<svg width="25" height="24" viewBox="0 0 25 24" fill="none" xmlns="http://www.w3.org/2000/svg">
<path fill-rule="evenodd" clip-rule="evenodd" d="M0.36249 1.53312C0.277715 1.57492 0.161472 1.67481 0.104172 1.75513C0.026912 1.86348 0 1.96793 0 2.15951C0 2.35151 0.026912 2.45554 0.104736 2.56469C0.317026 2.86223 0.33074 2.86401 2.43255 2.86401H4.33424L4.36049 2.96969C4.37491 3.02778 4.93832 5.55873 5.61253 8.59395C6.28674 11.6292 6.84874 14.1548 6.86143 14.2065C6.87965 14.2806 6.83047 14.3327 6.62856 14.4531C6.03133 14.8094 5.61474 15.5355 5.6131 16.223C5.61234 16.5318 5.7338 17.0007 5.88508 17.273C6.04237 17.5562 6.41937 17.9332 6.70254 18.0905C7.06644 18.2926 7.44658 18.3627 8.19871 18.3662L8.87672 18.3693L8.59492 18.4484C8.19721 18.5599 7.93466 18.7117 7.65723 18.9905C7.3627 19.2864 7.19475 19.5806 7.0964 19.9726C7.00186 20.3497 7.00186 20.6034 7.0964 20.9804C7.19456 21.3719 7.36294 21.6672 7.65366 21.9579C7.94439 22.2486 8.23971 22.417 8.63113 22.5152C9.00818 22.6097 9.2619 22.6097 9.63895 22.5152C10.0304 22.417 10.3257 22.2486 10.6164 21.9579C10.9071 21.6672 11.0755 21.3719 11.1737 20.9804C11.2682 20.6034 11.2682 20.3497 11.1737 19.9726C11.0753 19.5806 10.9074 19.2864 10.6129 18.9905C10.3354 18.7117 10.0729 18.5599 9.67516 18.4484C9.40627 18.373 9.60964 18.3693 14.1135 18.3693C18.6174 18.3693 18.8208 18.373 18.5519 18.4484C18.3969 18.4919 18.1766 18.5773 18.0623 18.6382C17.7961 18.7801 17.4086 19.1694 17.251 19.453C17.1049 19.7161 16.9785 20.1909 16.9785 20.4765C16.9785 20.7622 17.1049 21.237 17.251 21.5C17.4083 21.7832 17.7853 22.1602 18.0685 22.3175C18.3315 22.4636 18.8063 22.59 19.092 22.59C19.3777 22.59 19.8525 22.4636 20.1155 22.3175C20.3987 22.1602 20.7757 21.7832 20.933 21.5C21.0791 21.237 21.2055 20.7622 21.2055 20.4765C21.2055 20.1909 21.0791 19.7161 20.933 19.453C20.7754 19.1694 20.3879 18.7801 20.1217 18.6382C20.0074 18.5773 19.7871 18.4919 19.6321 18.4484L19.3503 18.3693L20.0008 18.3662C20.7299 18.3627 20.8976 18.3155 21.0773 18.0637C21.1551 17.9546 21.182 17.8505 21.182 17.6585C21.182 17.4665 21.1551 17.3625 21.0773 17.2533C21.0197 17.1726 20.9002 17.0722 20.8119 17.0303C20.666 16.9611 20.0497 16.954 14.133 16.954C7.64737 16.954 7.61379 16.9536 7.41493 16.8573C7.2698 16.787 7.18855 16.7058 7.11829 16.5606C7.06507 16.4507 7.02154 16.3107 7.02154 16.2495C7.02154 16.1883 7.06507 16.0483 7.11829 15.9384C7.18855 15.7933 7.2698 15.712 7.41493 15.6418C7.61379 15.5455 7.64741 15.545 14.1302 15.545C20.4348 15.545 20.6513 15.5422 20.8203 15.4559C20.9218 15.4041 21.0368 15.2911 21.0949 15.1859C21.1499 15.0864 21.8338 12.7668 22.6145 10.0313C23.727 6.13355 24.0288 5.01894 24.01 4.87888C23.9793 4.64926 23.8332 4.44571 23.6299 4.34924C23.4834 4.27978 22.7001 4.27301 14.785 4.27301H6.1007L5.85164 3.13407C5.68834 2.3873 5.5643 1.92834 5.49145 1.80115C5.2917 1.45243 5.31086 1.45487 2.75836 1.45609C0.789559 1.45703 0.497848 1.46638 0.36249 1.53312ZM22.3675 5.74072C22.3553 5.77304 21.8096 7.67519 21.155 9.96773L19.9648 14.136H14.1323H8.29983L8.27358 14.0304C8.25916 13.9722 7.84402 12.1071 7.35101 9.88554C6.85804 7.66401 6.44342 5.80944 6.42966 5.76421C6.40589 5.68615 6.80699 5.68202 14.3972 5.68202C20.7718 5.68202 22.3852 5.6939 22.3675 5.74072ZM9.44615 19.8688C9.59128 19.939 9.67253 20.0203 9.74279 20.1654C9.796 20.2753 9.83954 20.4153 9.83954 20.4765C9.83954 20.5377 9.796 20.6777 9.74279 20.7876C9.67253 20.9328 9.59128 21.014 9.44615 21.0843C9.33625 21.1375 9.19624 21.181 9.13504 21.181C9.07384 21.181 8.93384 21.1375 8.82393 21.0843C8.67881 21.014 8.59755 20.9328 8.52729 20.7876C8.47408 20.6777 8.43054 20.5377 8.43054 20.4765C8.43054 20.4153 8.47389 20.2758 8.52687 20.1663C8.59563 20.0242 8.67956 19.9394 8.82041 19.8697C8.92886 19.816 9.06905 19.7721 9.13194 19.7721C9.19483 19.772 9.33625 19.8156 9.44615 19.8688ZM19.4031 19.8688C19.5482 19.939 19.6295 20.0203 19.6998 20.1654C19.753 20.2753 19.7965 20.4153 19.7965 20.4765C19.7965 20.5377 19.753 20.6777 19.6998 20.7876C19.6295 20.9328 19.5482 21.014 19.4031 21.0843C19.2932 21.1375 19.1532 21.181 19.092 21.181C19.0308 21.181 18.8908 21.1375 18.7809 21.0843C18.6358 21.014 18.5545 20.9328 18.4843 20.7876C18.431 20.6777 18.3875 20.5377 18.3875 20.4765C18.3875 20.4153 18.4308 20.2758 18.4838 20.1663C18.5526 20.0242 18.6365 19.9394 18.7774 19.8697C18.8858 19.816 19.026 19.7721 19.0889 19.7721C19.1518 19.772 19.2932 19.8156 19.4031 19.8688Z" fill="#96A3AE"/>
</svg>
