<svg width="370" height="83" viewBox="0 0 370 83" fill="none" xmlns="http://www.w3.org/2000/svg">
<g opacity="0.1">
<path d="M0 23.0556H9.19255V83H0V23.0556Z" fill="#96A3AE"/>
<path d="M29.8758 43.8056H39.0683V83H29.8758V43.8056Z" fill="#96A3AE"/>
<path d="M59.7516 43.8056H68.9441V83H59.7516V43.8056Z" fill="#96A3AE"/>
<path d="M114.907 59.9444H124.099V83H114.907V59.9444Z" fill="#96A3AE"/>
<path d="M360.807 59.9444H370V83H360.807V59.9444Z" fill="#96A3AE"/>
<path d="M216.025 23.0556V32.2778H193.043V23.0556H216.025Z" fill="#96A3AE"/>
<path d="M135.59 32.2778H144.783V83H135.59V32.2778Z" fill="#96A3AE"/>
<path d="M298.758 32.2778H307.95V83H298.758V32.2778Z" fill="#96A3AE"/>
<path d="M167.764 29.9722H176.957V83H167.764V29.9722Z" fill="#96A3AE"/>
<path d="M197.64 16.1389H206.832V83H197.64V16.1389Z" fill="#96A3AE"/>
<path d="M227.516 11.5278H236.708V83H227.516V11.5278Z" fill="#96A3AE"/>
<path d="M39.0683 44.9583C39.0683 39.7608 37.0103 34.7762 33.3469 31.101C29.6835 27.4258 24.7149 25.3611 19.5342 25.3611C14.3534 25.3611 9.38479 27.4258 5.72143 31.101C2.05806 34.7762 7.82276e-07 39.7608 0 44.9583H9.08383C9.08383 42.1778 10.1848 39.5111 12.1447 37.545C14.1045 35.5788 16.7626 34.4743 19.5342 34.4743C22.3058 34.4743 24.9638 35.5788 26.9237 37.545C28.8835 39.5111 29.9845 42.1778 29.9845 44.9583H39.0683Z" fill="#96A3AE"/>
<path d="M68.9441 44.9583C68.9441 39.7608 66.886 34.7762 63.2227 31.101C59.5593 27.4258 54.5907 25.3611 49.4099 25.3611C44.2292 25.3611 39.2606 27.4258 35.5972 31.101C31.9338 34.7762 29.8758 39.7608 29.8758 44.9583H38.9592C38.9592 42.1777 40.0602 39.5109 42.0201 37.5447C43.98 35.5784 46.6382 34.4738 49.4099 34.4738C52.1817 34.4738 54.8399 35.5784 56.7998 37.5447C58.7597 39.5109 59.8607 42.1777 59.8607 44.9583H68.9441Z" fill="#96A3AE"/>
<path d="M160.548 33.4967C157.639 32.3798 154.496 32.0224 151.412 32.4579C148.329 32.8933 145.406 34.1075 142.918 35.9864C140.43 37.8653 138.459 40.3474 137.189 43.1999C135.919 46.0524 135.392 49.1818 135.657 52.2946L144.175 51.5634C144.033 49.8981 144.315 48.2239 144.994 46.6978C145.674 45.1717 146.729 43.8438 148.06 42.8386C149.391 41.8333 150.954 41.1838 152.604 40.9508C154.254 40.7178 155.936 40.909 157.492 41.5066L160.548 33.4967Z" fill="#96A3AE"/>
<path d="M323.715 33.4967C320.807 32.3798 317.664 32.0224 314.58 32.4579C311.496 32.8933 308.574 34.1075 306.086 35.9864C303.598 37.8653 301.626 40.3474 300.356 43.1999C299.086 46.0524 298.559 49.1818 298.825 52.2946L307.343 51.5634C307.201 49.8981 307.483 48.2239 308.162 46.6978C308.842 45.1717 309.896 43.8438 311.227 42.8386C312.558 41.8333 314.122 41.1838 315.772 40.9508C317.422 40.7178 319.103 40.909 320.659 41.5066L323.715 33.4967Z" fill="#96A3AE"/>
<path d="M217.077 0.0302217C214.667 -0.108377 212.253 0.230679 209.973 1.02803C207.693 1.82539 205.592 3.06542 203.79 4.67733C201.988 6.28925 200.52 8.24148 199.47 10.4226C198.42 12.6036 197.808 14.9708 197.67 17.389L206.629 17.9042C206.7 16.6664 207.013 15.4546 207.551 14.3382C208.088 13.2217 208.84 12.2224 209.762 11.3973C210.685 10.5722 211.76 9.93745 212.927 9.5293C214.094 9.12115 215.33 8.94759 216.564 9.01853L217.077 0.0302217Z" fill="#96A3AE"/>
<path fill-rule="evenodd" clip-rule="evenodd" d="M101.118 73.7778C108.733 73.7778 114.907 67.5844 114.907 59.9444C114.907 52.3045 108.733 46.1111 101.118 46.1111C93.5027 46.1111 87.3292 52.3045 87.3292 59.9444C87.3292 67.5844 93.5027 73.7778 101.118 73.7778ZM101.118 83C113.81 83 124.099 72.6777 124.099 59.9444C124.099 47.2112 113.81 36.8889 101.118 36.8889C88.4258 36.8889 78.1367 47.2112 78.1367 59.9444C78.1367 72.6777 88.4258 83 101.118 83Z" fill="#96A3AE"/>
<path fill-rule="evenodd" clip-rule="evenodd" d="M347.019 73.7778C354.634 73.7778 360.807 67.5844 360.807 59.9444C360.807 52.3045 354.634 46.1111 347.019 46.1111C339.403 46.1111 333.23 52.3045 333.23 59.9444C333.23 67.5844 339.403 73.7778 347.019 73.7778ZM347.019 83C359.711 83 370 72.6777 370 59.9444C370 47.2112 359.711 36.8889 347.019 36.8889C334.326 36.8889 324.037 47.2112 324.037 59.9444C324.037 72.6777 334.326 83 347.019 83Z" fill="#96A3AE"/>
<path fill-rule="evenodd" clip-rule="evenodd" d="M268.882 73.7778C276.497 73.7778 282.671 67.5844 282.671 59.9444C282.671 52.3045 276.497 46.1111 268.882 46.1111C261.267 46.1111 255.093 52.3045 255.093 59.9444C255.093 67.5844 261.267 73.7778 268.882 73.7778ZM268.882 83C281.574 83 291.863 72.6777 291.863 59.9444C291.863 47.2112 281.574 36.8889 268.882 36.8889C256.19 36.8889 245.901 47.2112 245.901 59.9444C245.901 72.6777 256.19 83 268.882 83Z" fill="#96A3AE"/>
<path d="M176.957 13.8333C176.957 16.38 174.899 18.4444 172.36 18.4444C169.822 18.4444 167.764 16.38 167.764 13.8333C167.764 11.2867 169.822 9.22222 172.36 9.22222C174.899 9.22222 176.957 11.2867 176.957 13.8333Z" fill="#96A3AE"/>
</g>
</svg>
