<svg width="10" height="9" viewBox="0 0 10 9" fill="none" xmlns="http://www.w3.org/2000/svg">
<path fill-rule="evenodd" clip-rule="evenodd" d="M1.23556 2.34331L1.47103 2.10672L5.00012 5.6634L8.52947 2.10648L9.01069 2.59149L7.00542 4.61254L5.00014 6.63359L3.00014 4.61793C1.90012 3.50931 1.00012 2.5972 1.00012 2.59106C1.00012 2.58489 1.10607 2.47341 1.23556 2.34331Z" fill="#96A3AE"/>
<path fill-rule="evenodd" clip-rule="evenodd" d="M1.47103 2.10672L1.23556 2.34331C1.10607 2.47341 1.00012 2.58489 1.00012 2.59106C1.00012 2.5972 1.90012 3.50931 3.00014 4.61793L5.00014 6.63359L7.00542 4.61254L9.01069 2.59149L8.52947 2.10648L5.00012 5.6634L1.47103 2.10672ZM5.00012 5.32133L8.52947 1.7644L9.3501 2.59149L7.17513 4.78358L5.00014 6.97567L2.83044 4.78898C2.83044 4.78898 2.83044 4.78898 2.83044 4.78898C2.28032 4.23456 1.78015 3.72921 1.41745 3.36164C1.23613 3.17788 1.08901 3.0284 0.987131 2.92438C0.936254 2.87244 0.89634 2.8315 0.868998 2.8032C0.855441 2.78917 0.844351 2.7776 0.836378 2.76913C0.832596 2.76511 0.828339 2.76055 0.82454 2.7563C0.822965 2.75454 0.819363 2.7505 0.815358 2.74559C0.813758 2.74363 0.808932 2.73769 0.803442 2.72976C0.800982 2.7262 0.794971 2.71738 0.788595 2.70538C0.785415 2.69918 0.778384 2.68364 0.774733 2.67419C0.769834 2.6592 0.761573 2.61766 0.760119 2.59106C0.760119 2.52723 0.786371 2.48057 0.787511 2.47854C0.787508 2.47855 0.787533 2.4785 0.787511 2.47854C0.794085 2.46582 0.800478 2.4562 0.803408 2.45189C0.809795 2.44251 0.815861 2.4349 0.818939 2.4311C0.825907 2.42249 0.833716 2.41359 0.840531 2.40598C0.854843 2.38999 0.874032 2.36942 0.895958 2.34634C0.940241 2.29975 1.00045 2.23798 1.06612 2.172C1.06612 2.172 1.06612 2.172 1.06612 2.172L1.47129 1.7649L5.00012 5.32133Z" fill="#96A3AE"/>
</svg>
