<svg width="19" height="15" viewBox="0 0 19 15" fill="none" xmlns="http://www.w3.org/2000/svg">
<path d="M18.9992 2.50008C18.9992 2.27907 18.9122 2.06711 18.7573 1.91083C18.6024 1.75455 18.3923 1.66675 18.1732 1.66675H9.49964C9.28055 1.66675 9.07044 1.75455 8.91553 1.91083C8.76061 2.06711 8.67358 2.27907 8.67358 2.50008C8.67358 2.7211 8.76061 2.93306 8.91553 3.08934C9.07044 3.24562 9.28055 3.33341 9.49964 3.33341H18.1732C18.3923 3.33341 18.6024 3.24562 18.7573 3.08934C18.9122 2.93306 18.9992 2.7211 18.9992 2.50008Z" fill="black"/>
<path d="M0.826052 3.33334H3.03574C3.2306 3.88935 3.61403 4.35797 4.11827 4.65636C4.6225 4.95476 5.21506 5.06373 5.79123 4.964C6.3674 4.86428 6.89007 4.56228 7.26686 4.11139C7.64366 3.6605 7.85032 3.08974 7.85032 2.50001C7.85032 1.91027 7.64366 1.33951 7.26686 0.888622C6.89007 0.437731 6.3674 0.135735 5.79123 0.0360088C5.21506 -0.0637173 4.6225 0.0452479 4.11827 0.343646C3.61403 0.642043 3.2306 1.11066 3.03574 1.66667H0.826052C0.606969 1.66667 0.39686 1.75447 0.241945 1.91075C0.0870302 2.06703 0 2.27899 0 2.50001C0 2.72102 0.0870302 2.93298 0.241945 3.08926C0.39686 3.24554 0.606969 3.33334 0.826052 3.33334ZM5.36934 1.66667C5.53271 1.66667 5.69242 1.71555 5.82827 1.80711C5.96411 1.89868 6.06999 2.02883 6.13251 2.1811C6.19503 2.33337 6.21139 2.50093 6.17952 2.66258C6.14764 2.82423 6.06897 2.97272 5.95344 3.08926C5.83792 3.2058 5.69073 3.28517 5.53049 3.31733C5.37025 3.34948 5.20416 3.33298 5.05322 3.26991C4.90228 3.20683 4.77327 3.10002 4.6825 2.96298C4.59173 2.82594 4.54328 2.66482 4.54328 2.50001C4.54328 2.27899 4.63032 2.06703 4.78523 1.91075C4.94015 1.75447 5.15025 1.66667 5.36934 1.66667Z" fill="black"/>
<path d="M18.1733 6.66667H15.1376C14.9427 6.11066 14.5593 5.64204 14.0551 5.34365C13.5508 5.04525 12.9583 4.93628 12.3821 5.03601C11.8059 5.13573 11.2833 5.43773 10.9065 5.88862C10.5297 6.33951 10.323 6.91027 10.323 7.5C10.323 8.08974 10.5297 8.6605 10.9065 9.11139C11.2833 9.56228 11.8059 9.86427 12.3821 9.964C12.9583 10.0637 13.5508 9.95476 14.0551 9.65636C14.5593 9.35796 14.9427 8.88935 15.1376 8.33334H18.1733C18.3924 8.33334 18.6025 8.24554 18.7574 8.08926C18.9123 7.93298 18.9994 7.72102 18.9994 7.5C18.9994 7.27899 18.9123 7.06703 18.7574 6.91075C18.6025 6.75447 18.3924 6.66667 18.1733 6.66667ZM12.804 8.33334C12.6406 8.33334 12.4809 8.28446 12.3451 8.1929C12.2092 8.10133 12.1033 7.97118 12.0408 7.81891C11.9783 7.66664 11.9619 7.49908 11.9938 7.33743C12.0257 7.17578 12.1044 7.02729 12.2199 6.91075C12.3354 6.79421 12.4826 6.71484 12.6428 6.68268C12.8031 6.65053 12.9692 6.66703 13.1201 6.7301C13.271 6.79318 13.4001 6.89999 13.4908 7.03703C13.5816 7.17407 13.63 7.33519 13.63 7.5C13.63 7.72102 13.543 7.93298 13.3881 8.08926C13.2332 8.24554 13.0231 8.33334 12.804 8.33334Z" fill="black"/>
<path d="M8.67354 6.66675H0.826052C0.606969 6.66675 0.39686 6.75455 0.241945 6.91083C0.0870302 7.06711 0 7.27907 0 7.50008C0 7.7211 0.0870302 7.93306 0.241945 8.08934C0.39686 8.24562 0.606969 8.33342 0.826052 8.33342H8.67354C8.89263 8.33342 9.10274 8.24562 9.25765 8.08934C9.41257 7.93306 9.4996 7.7211 9.4996 7.50008C9.4996 7.27907 9.41257 7.06711 9.25765 6.91083C9.10274 6.75455 8.89263 6.66675 8.67354 6.66675Z" fill="black"/>
<path d="M18.1744 11.6667H11.153C10.9339 11.6667 10.7238 11.7545 10.5688 11.9108C10.4139 12.0671 10.3269 12.2791 10.3269 12.5001C10.3269 12.7211 10.4139 12.9331 10.5688 13.0893C10.7238 13.2456 10.9339 13.3334 11.153 13.3334H18.1744C18.3935 13.3334 18.6036 13.2456 18.7585 13.0893C18.9134 12.9331 19.0004 12.7211 19.0004 12.5001C19.0004 12.2791 18.9134 12.0671 18.7585 11.9108C18.6036 11.7545 18.3935 11.6667 18.1744 11.6667Z" fill="black"/>
<path d="M7.02144 10C6.50946 10.0006 6.01022 10.1611 5.59235 10.4596C5.17449 10.758 4.85851 11.1797 4.68784 11.6667H0.826052C0.606969 11.6667 0.39686 11.7545 0.241945 11.9107C0.0870302 12.067 0 12.279 0 12.5C0 12.721 0.0870302 12.933 0.241945 13.0893C0.39686 13.2455 0.606969 13.3333 0.826052 13.3333H4.68784C4.83933 13.7656 5.10571 14.1475 5.45785 14.4372C5.81 14.727 6.23436 14.9135 6.68451 14.9764C7.13467 15.0392 7.59328 14.976 8.01022 14.7936C8.42715 14.6112 8.78633 14.3167 9.04849 13.9422C9.31066 13.5677 9.4657 13.1277 9.49667 12.6704C9.52763 12.213 9.43334 11.7558 9.22408 11.3488C9.01483 10.9419 8.69867 10.6008 8.3102 10.3629C7.92172 10.125 7.47589 9.99948 7.02144 10ZM7.02144 13.3333C6.85806 13.3333 6.69835 13.2845 6.56251 13.1929C6.42667 13.1013 6.32079 12.9712 6.25827 12.8189C6.19575 12.6666 6.17939 12.4991 6.21126 12.3374C6.24313 12.1758 6.32181 12.0273 6.43733 11.9107C6.55286 11.7942 6.70005 11.7148 6.86029 11.6827C7.02052 11.6505 7.18662 11.667 7.33756 11.7301C7.4885 11.7932 7.61751 11.9 7.70828 12.037C7.79905 12.1741 7.84749 12.3352 7.84749 12.5C7.84749 12.721 7.76046 12.933 7.60555 13.0893C7.45063 13.2455 7.24052 13.3333 7.02144 13.3333Z" fill="black"/>
</svg>
