<svg width="21" height="21" viewBox="0 0 21 21" fill="none" xmlns="http://www.w3.org/2000/svg">
<path fill-rule="evenodd" clip-rule="evenodd" d="M10.5 12.5C11.6046 12.5 12.5 11.6046 12.5 10.5C12.5 9.39543 11.6046 8.5 10.5 8.5C9.39543 8.5 8.5 9.39543 8.5 10.5C8.5 11.6046 9.39543 12.5 10.5 12.5ZM10.5 14C12.433 14 14 12.433 14 10.5C14 8.567 12.433 7 10.5 7C8.567 7 7 8.567 7 10.5C7 12.433 8.567 14 10.5 14Z" fill="#CBD1D7"/>
<path fill-rule="evenodd" clip-rule="evenodd" d="M6.72652 7.38224C5.5825 8.18644 4.63869 9.18073 4.01754 9.92024C3.80789 10.1698 3.70631 10.294 3.64569 10.3944C3.60693 10.4586 3.60698 10.4766 3.60705 10.4974C3.60705 10.4983 3.60706 10.4991 3.60706 10.5C3.60706 10.5009 3.60705 10.5017 3.60705 10.5026C3.60698 10.5234 3.60693 10.5414 3.64569 10.6056C3.70631 10.706 3.80789 10.8302 4.01754 11.0798C4.63869 11.8193 5.5825 12.8136 6.72652 13.6178C7.87559 14.4255 9.16717 15 10.4999 15C11.8327 15 13.1243 14.4255 14.2734 13.6178C15.4174 12.8136 16.3612 11.8193 16.9823 11.0798C17.192 10.8302 17.2936 10.706 17.3542 10.6056C17.393 10.5414 17.3929 10.5234 17.3928 10.5026C17.3928 10.5017 17.3928 10.5009 17.3928 10.5C17.3928 10.4991 17.3928 10.4983 17.3928 10.4974C17.3929 10.4766 17.393 10.4586 17.3542 10.3944C17.2936 10.294 17.192 10.1698 16.9823 9.92024C16.3612 9.18073 15.4174 8.18644 14.2734 7.38224C13.1243 6.57449 11.8327 6 10.4999 6C9.16717 6 7.87559 6.57449 6.72652 7.38224ZM5.86388 6.1551C7.14798 5.25243 8.74049 4.5 10.4999 4.5C12.2594 4.5 13.8519 5.25243 15.136 6.1551C16.4251 7.06132 17.4636 8.16097 18.1309 8.95548C18.1533 8.98214 18.1761 9.00902 18.1991 9.03617C18.5227 9.4181 18.8928 9.85489 18.8928 10.5C18.8928 11.1451 18.5227 11.5819 18.1991 11.9638C18.1761 11.991 18.1533 12.0179 18.1309 12.0445C17.4636 12.839 16.4251 13.9387 15.136 14.8449C13.8519 15.7476 12.2594 16.5 10.4999 16.5C8.74049 16.5 7.14798 15.7476 5.86388 14.8449C4.57474 13.9387 3.53631 12.839 2.86896 12.0445C2.84656 12.0179 2.82379 11.991 2.80078 11.9638C2.47716 11.5819 2.10706 11.1451 2.10706 10.5C2.10706 9.8549 2.47716 9.41811 2.80078 9.03618C2.82379 9.00902 2.84656 8.98214 2.86895 8.95548C3.53631 8.16097 4.57474 7.06133 5.86388 6.1551Z" fill="#CBD1D7"/>
</svg>
