<svg width="21" height="21" viewBox="0 0 21 21" fill="none" xmlns="http://www.w3.org/2000/svg">
<path fill-rule="evenodd" clip-rule="evenodd" d="M13.9684 10.972C13.9893 10.8177 14 10.6601 14 10.5C14 8.567 12.433 7 10.5 7C10.3399 7 10.1823 7.01075 10.028 7.03156L13.9684 10.972ZM7.48133 8.72757C7.17544 9.24741 7 9.85322 7 10.5C7 12.433 8.567 14 10.5 14C11.1468 14 11.7526 13.8246 12.2724 13.5187L11.1468 12.3931C10.944 12.4624 10.7264 12.5 10.5 12.5C9.39543 12.5 8.5 11.6046 8.5 10.5C8.5 10.2736 8.53761 10.056 8.60692 9.85316L7.48133 8.72757Z" fill="#CBD1D7"/>
<path fill-rule="evenodd" clip-rule="evenodd" d="M16.2545 13.9652C17.0308 13.289 17.6696 12.5938 18.131 12.0445C18.1533 12.0179 18.176 11.9911 18.199 11.964L18.1992 11.9638C18.5228 11.5819 18.8929 11.1451 18.8929 10.5C18.8929 9.85489 18.5228 9.4181 18.1992 9.03617L18.1983 9.03519C18.1756 9.00837 18.1531 8.98182 18.131 8.95548C17.4636 8.16097 16.4252 7.06132 15.1361 6.1551C13.852 5.25243 12.2595 4.5 10.5 4.5C9.42508 4.5 8.41246 4.78085 7.49442 5.20522L8.64097 6.35176C9.24415 6.12941 9.86744 6 10.5 6C11.8328 6 13.1244 6.57449 14.2734 7.38224C15.4174 8.18644 16.3613 9.18073 16.9824 9.92024C17.1921 10.1698 17.2936 10.294 17.3543 10.3944C17.393 10.4586 17.393 10.4766 17.3929 10.4974L17.3929 10.5L17.3929 10.5026C17.393 10.5234 17.393 10.5414 17.3543 10.6056C17.2936 10.706 17.1921 10.8302 16.9824 11.0798C16.5365 11.6107 15.9242 12.2729 15.191 12.9018L16.2545 13.9652ZM6.79519 7.33441C6.77226 7.35026 6.74939 7.3662 6.72658 7.38224C5.58256 8.18644 4.63875 9.18073 4.0176 9.92024C3.80795 10.1698 3.70637 10.294 3.64575 10.3944C3.60699 10.4586 3.60705 10.4766 3.60711 10.4974L3.60712 10.5L3.60711 10.5026C3.60705 10.5234 3.60699 10.5414 3.64575 10.6056C3.70637 10.706 3.80795 10.8302 4.0176 11.0798C4.63875 11.8193 5.58256 12.8136 6.72658 13.6178C7.87565 14.4255 9.16723 15 10.5 15C11.558 15 12.59 14.638 13.5454 14.0846L14.6377 15.1769C13.4491 15.9248 12.0384 16.5 10.5 16.5C8.74055 16.5 7.14804 15.7476 5.86395 14.8449C4.5748 13.9387 3.53637 12.839 2.86902 12.0445C2.84664 12.0179 2.82388 11.991 2.80089 11.9639L2.80084 11.9638C2.47722 11.5819 2.10712 11.1451 2.10712 10.5C2.10712 9.8549 2.47722 9.41811 2.80084 9.03618L2.80102 9.03596C2.82397 9.00887 2.84669 8.98207 2.86902 8.95548C3.51121 8.19093 4.49702 7.14382 5.71919 6.25841L6.79519 7.33441Z" fill="#CBD1D7"/>
<path d="M4.375 1.75L18.375 15.75" stroke="#CBD1D7" stroke-width="1.5"/>
</svg>
