<svg width="9" height="9" viewBox="0 0 9 9" fill="none" xmlns="http://www.w3.org/2000/svg">
<path fill-rule="evenodd" clip-rule="evenodd" d="M5.59327 3.18819C4.37651 4.31628 3.34498 5.27406 3.30094 5.31658L3.22089 5.39389L2.25759 4.36522C1.72777 3.79947 1.28781 3.33656 1.27988 3.33656C1.27197 3.33656 0.980754 3.60314 0.632742 3.92895L0 4.52135L0.0392344 4.56797C0.0608027 4.59359 0.76558 5.34775 1.60541 6.24386L3.13235 7.87314L3.22151 7.78698C3.27055 7.7396 4.56049 6.54382 6.08803 5.12973C7.61556 3.71562 8.89506 2.52983 8.93134 2.49464L8.99729 2.43069L8.40651 1.78939C8.08158 1.43667 7.81342 1.14561 7.81063 1.14259C7.80784 1.13956 6.81003 2.06009 5.59327 3.18819Z" fill="white"/>
</svg>
