<svg width="21" height="21" viewBox="0 0 21 21" fill="none" xmlns="http://www.w3.org/2000/svg">
<path d="M14 7V6.125C14 4.192 12.433 2.625 10.5 2.625V2.625C8.567 2.625 7 4.192 7 6.125V7" stroke="#CBD1D7" stroke-width="2" stroke-linecap="round"/>
<path fill-rule="evenodd" clip-rule="evenodd" d="M2.91789 6.41789C2.625 6.71079 2.625 7.18219 2.625 8.125V16.255C2.625 18.1406 2.625 19.0834 3.21079 19.6692C3.79657 20.255 4.73938 20.255 6.625 20.255H14.375C16.2606 20.255 17.2034 20.255 17.7892 19.6692C18.375 19.0834 18.375 18.1406 18.375 16.255V8.125C18.375 7.18219 18.375 6.71079 18.0821 6.41789C17.7892 6.125 17.3178 6.125 16.375 6.125H4.625C3.68219 6.125 3.21079 6.125 2.91789 6.41789ZM10.5 14C11.3284 14 12 13.3284 12 12.5C12 11.6716 11.3284 11 10.5 11C9.67157 11 9 11.6716 9 12.5C9 13.3284 9.67157 14 10.5 14ZM13.5 12.5C13.5 13.8979 12.5439 15.0725 11.25 15.4055V17.5H9.75V15.4055C8.45608 15.0725 7.5 13.8979 7.5 12.5C7.5 10.8431 8.84315 9.5 10.5 9.5C12.1569 9.5 13.5 10.8431 13.5 12.5Z" fill="#CBD1D7"/>
</svg>
