<svg width="15" height="16" viewBox="0 0 15 16" fill="none" xmlns="http://www.w3.org/2000/svg">
<g clip-path="url(#clip0_1361_5263)">
<path d="M12.4219 2.35433H9.84375V1.88189C9.84375 1.10039 9.2129 0.464569 8.4375 0.464569H6.5625C5.7871 0.464569 5.15625 1.10039 5.15625 1.88189V2.35433H2.57812C1.93195 2.35433 1.40625 2.88417 1.40625 3.53543V5.18898C1.40625 5.44988 1.61613 5.66142 1.875 5.66142H2.13117L2.53614 14.2328C2.57191 14.9897 3.18891 15.5827 3.94078 15.5827H11.0592C11.8111 15.5827 12.4281 14.9897 12.4639 14.2328L12.8688 5.66142H13.125C13.3839 5.66142 13.5938 5.44988 13.5938 5.18898V3.53543C13.5938 2.88417 13.068 2.35433 12.4219 2.35433ZM6.09375 1.88189C6.09375 1.6214 6.30404 1.40945 6.5625 1.40945H8.4375C8.69596 1.40945 8.90625 1.6214 8.90625 1.88189V2.35433H6.09375V1.88189ZM2.34375 3.53543C2.34375 3.40519 2.4489 3.29921 2.57812 3.29921H12.4219C12.5511 3.29921 12.6562 3.40519 12.6562 3.53543V4.71654C12.5118 4.71654 2.94237 4.71654 2.34375 4.71654V3.53543ZM11.5274 14.1878C11.5155 14.4401 11.3098 14.6378 11.0592 14.6378H3.94078C3.69015 14.6378 3.48448 14.4401 3.47259 14.1878L3.06973 5.66142H11.9303L11.5274 14.1878Z" fill="#96A3AE"/>
<path d="M7.5 13.6929C7.75887 13.6929 7.96875 13.4814 7.96875 13.2205V7.07873C7.96875 6.81783 7.75887 6.60629 7.5 6.60629C7.24113 6.60629 7.03125 6.81783 7.03125 7.07873V13.2205C7.03125 13.4814 7.2411 13.6929 7.5 13.6929Z" fill="#96A3AE"/>
<path d="M9.84375 13.6929C10.1026 13.6929 10.3125 13.4814 10.3125 13.2205V7.07873C10.3125 6.81783 10.1026 6.60629 9.84375 6.60629C9.58488 6.60629 9.375 6.81783 9.375 7.07873V13.2205C9.375 13.4814 9.58485 13.6929 9.84375 13.6929Z" fill="#96A3AE"/>
<path d="M5.15625 13.6929C5.41512 13.6929 5.625 13.4814 5.625 13.2205V7.07873C5.625 6.81783 5.41512 6.60629 5.15625 6.60629C4.89738 6.60629 4.6875 6.81783 4.6875 7.07873V13.2205C4.6875 13.4814 4.89735 13.6929 5.15625 13.6929Z" fill="#96A3AE"/>
</g>
<defs>
<clipPath id="clip0_1361_5263">
<rect width="15" height="15.1181" fill="white" transform="translate(0 0.464569)"/>
</clipPath>
</defs>
</svg>
