<svg width="100" height="100" viewBox="0 0 100 100" fill="none" xmlns="http://www.w3.org/2000/svg">
<g opacity="0.4">
<path opacity="0.3" d="M36.9407 75.1499L36.1111 83.4993L38.6 87.6739L42.7482 90.1788L52.2889 92.6836L63.4889 93.5185L74.6889 91.8486L82.9852 88.9264L87.1333 85.1691L87.963 80.9944L82.9852 29.6457L81.7407 26.3059L74.6889 22.9662V37.1601L69.2963 37.9951V22.1312L66.3926 21.2963L53.5333 22.1312L44.4074 24.6361L41.5037 27.9758L38.6 55.5288L42.7482 60.9559L44.4074 64.7131V70.9752L42.7482 77.2372L39.8444 79.742L36.9407 75.1499Z" fill="#BF0F80"/>
<path fill-rule="evenodd" clip-rule="evenodd" d="M62.8055 6.52116C62.7517 6.53853 62.3778 6.62903 61.9746 6.72219C61.5714 6.81535 60.9715 7.01451 60.6415 7.16491C60.3115 7.31532 59.7837 7.61682 59.4685 7.83492C59.1533 8.05313 58.7128 8.4245 58.4895 8.66037C58.2663 8.89624 57.9061 9.34814 57.689 9.66454C57.4719 9.98104 57.1569 10.5729 56.9892 10.9799C56.8213 11.3869 56.5912 12.1272 56.4777 12.6251C56.2931 13.435 56.2654 13.9405 56.2149 17.4285L56.1584 21.3268L55.132 21.4498C54.5675 21.5175 53.5117 21.665 52.7859 21.7775C52.0601 21.8901 50.8504 22.1164 50.0978 22.2803C49.3451 22.4443 48.0914 22.7905 47.3118 23.0497C46.5323 23.3089 45.4765 23.7192 44.9658 23.9616C44.455 24.2041 43.7732 24.5734 43.4506 24.7822C43.1281 24.9911 42.6062 25.4094 42.2908 25.7117C41.9755 26.014 41.5981 26.4389 41.4522 26.656C41.3064 26.8732 41.1127 27.2425 41.0219 27.4767C40.9311 27.7108 40.7928 28.488 40.7145 29.2037C40.6363 29.9194 40.3276 32.8365 40.0285 35.6862C39.7296 38.5359 39.3307 42.3774 39.1421 44.2229C38.9536 46.0684 38.6582 48.9551 38.4856 50.6378C38.2728 52.7141 38.1356 53.6972 38.0585 53.6972C37.996 53.6972 37.185 52.7424 36.2563 51.5753C35.3275 50.4083 33.5949 48.2322 32.4061 46.7395C31.2171 45.2468 29.0699 42.5514 27.6344 40.7497C26.1989 38.948 25.0244 37.3943 25.0244 37.2971C25.0244 37.1999 24.0973 35.7148 22.9641 33.997L20.9037 30.8737L21.79 26.4456C22.2775 24.0103 22.8528 20.9551 23.0684 19.6565C23.3024 18.2471 23.4604 16.9716 23.4604 16.4917C23.4604 16.0496 23.394 15.4621 23.3128 15.1862C23.2204 14.872 23.0046 14.5039 22.7356 14.2019C22.4992 13.9365 22.0693 13.6025 21.78 13.4595C21.4906 13.3164 20.8819 13.1232 20.4273 13.0303C19.7823 12.8983 19.3214 12.8738 18.3292 12.919C17.6299 12.9507 16.5518 13.0695 15.9335 13.1828C15.3152 13.2962 14.3214 13.5195 13.725 13.6789C13.1286 13.8383 12.0509 14.1746 11.3301 14.4262C10.6093 14.6779 9.53568 15.1215 8.94428 15.4121C8.35288 15.7026 7.36481 16.2588 6.74858 16.648C6.13226 17.0371 5.28661 17.6086 4.86921 17.9179C4.45181 18.2272 3.69218 18.8491 3.18113 19.3C2.66999 19.7508 1.99814 20.4257 1.68798 20.8C1.37791 21.1741 0.962268 21.7485 0.764321 22.0762C0.566471 22.4041 0.31349 22.9444 0.202248 23.277C0.0910068 23.6096 0 24.1316 0 24.4371C0 24.7425 0.0673509 25.1891 0.149756 25.4295C0.232063 25.6698 0.451906 26.0767 0.638221 26.3337C0.824633 26.5906 1.2219 26.9949 1.52111 27.2319C1.82023 27.469 2.71114 28.0415 3.50078 28.504C4.29042 28.9667 5.72825 29.7603 6.69599 30.2678C7.66373 30.7754 9.95112 31.9095 11.7791 32.7883C14.9238 34.2999 15.1137 34.4063 15.307 34.7646C15.4195 34.973 16.1291 36.2981 16.884 37.7094C17.6389 39.1206 18.3943 40.5529 18.5627 40.8921C18.7738 41.3175 18.9254 41.5089 19.051 41.5089C19.1512 41.5089 19.2782 41.5644 19.3333 41.6323C19.3885 41.7002 20.6522 44.1316 22.1417 47.0356C23.6313 49.9395 25.1927 52.9817 25.6115 53.7959C26.0303 54.6101 27.2844 57.0527 28.3981 59.2238C29.512 61.395 31.7106 65.6806 33.2839 68.7474L36.1443 74.3234L35.7615 78.1724C35.5256 80.5443 35.3949 82.3086 35.4209 82.7699C35.4478 83.2456 35.5679 83.8252 35.7506 84.3605C35.9088 84.8237 36.2443 85.5156 36.4962 85.8981C36.7481 86.2808 37.3101 86.9317 37.7451 87.3448C38.18 87.758 38.9598 88.375 39.4781 88.716C39.9963 89.057 40.7283 89.4964 41.1046 89.6924C41.4809 89.8884 42.2727 90.2475 42.8641 90.4904C43.4555 90.7333 44.4233 91.0888 45.0147 91.2803C45.6061 91.4718 46.6178 91.7621 47.263 91.9255C47.9081 92.0888 48.8099 92.2947 49.2669 92.3829C49.7239 92.4712 50.4497 92.6075 50.8798 92.6859C51.3099 92.7642 52.3436 92.9158 53.1769 93.0229C54.0103 93.1299 55.5938 93.2852 56.696 93.3679C57.7981 93.4507 59.8951 93.5184 61.3558 93.5185C62.8166 93.5186 64.6861 93.4731 65.5103 93.4174C66.3345 93.3618 67.6466 93.2491 68.4262 93.1671C69.2058 93.0851 70.5694 92.9062 71.4565 92.7698C72.3436 92.6334 73.7688 92.3654 74.6237 92.1744C75.4785 91.9834 76.708 91.6716 77.3559 91.4815C78.0039 91.2914 79.02 90.9558 79.614 90.7358C80.208 90.5159 81.2337 90.0777 81.8933 89.7623C82.5529 89.4468 83.5217 88.9048 84.0463 88.5578C84.5709 88.2107 85.241 87.7125 85.5353 87.4505C85.8295 87.1885 86.3237 86.6813 86.6331 86.3235C86.9426 85.9656 87.3677 85.3398 87.5777 84.9327C87.7878 84.5256 88.0337 83.9038 88.1241 83.551C88.2147 83.1982 88.2937 82.5986 88.2997 82.2187C88.3058 81.8387 87.9416 77.6565 87.4903 72.9248L86.6698 64.3219L87.1167 63.2532C87.3626 62.6655 88.2771 60.4747 89.1492 58.385C90.0211 56.2952 91.0772 53.7638 91.496 52.7596C91.9147 51.7555 93.4327 48.1138 94.8693 44.667C96.306 41.2203 97.7443 37.7784 98.0657 37.0185C98.387 36.2586 98.7807 35.2816 98.9406 34.8473C99.1004 34.4131 99.3398 33.6359 99.4725 33.1203C99.6053 32.6046 99.7783 31.7499 99.857 31.2212C99.9356 30.6923 100 29.7756 100 29.1842C100 28.5927 99.9322 27.7376 99.8494 27.2837C99.7665 26.8299 99.6089 26.17 99.4991 25.8172C99.3894 25.4644 99.1477 24.8641 98.9621 24.4834C98.7764 24.1025 98.4074 23.4985 98.1422 23.141C97.8771 22.7835 97.4137 22.2784 97.1125 22.0187C96.8113 21.7589 96.231 21.3542 95.8227 21.1193C95.4144 20.8844 94.7026 20.5529 94.2411 20.3827C93.7795 20.2124 93.0059 19.9893 92.522 19.8871C91.9196 19.7597 91.2416 19.7011 90.3715 19.7014C89.6237 19.7016 88.8195 19.7619 88.4173 19.848C88.0414 19.9283 87.3981 20.107 86.9879 20.2449C86.5775 20.3829 85.8513 20.6981 85.3741 20.9453C84.8969 21.1926 84.1561 21.646 83.7281 21.953C83.2999 22.2599 82.4335 23.0297 81.8027 23.6636L80.6558 24.8161L79.5507 24.2399C78.943 23.9231 78.0499 23.5231 77.566 23.3511C77.0821 23.1791 76.1804 22.8908 75.5621 22.7106L74.4379 22.3828L74.3751 20.3251C74.3405 19.1934 74.2621 17.8233 74.2008 17.2805C74.1396 16.7377 74.0016 15.8495 73.8941 15.3067C73.7866 14.7639 73.5629 13.8979 73.3968 13.3822C73.2308 12.8665 72.9183 12.0894 72.7024 11.6551C72.4865 11.2209 72.137 10.6084 71.9257 10.2941C71.7144 9.97976 71.2914 9.46598 70.9858 9.15254C70.6802 8.839 70.1662 8.40288 69.8436 8.1833C69.521 7.96381 69.0337 7.67011 68.7608 7.53076C68.4878 7.39141 67.9159 7.16531 67.49 7.02833C67.064 6.89134 66.3478 6.71054 65.8983 6.62656C65.447 6.54228 64.5935 6.47734 63.9922 6.48168C63.3933 6.48593 62.8592 6.50369 62.8055 6.52116ZM66.3027 7.78972C66.8284 7.92897 67.6642 8.23847 68.16 8.47749C68.6559 8.71652 69.3338 9.11642 69.6667 9.3662C69.9994 9.61589 70.5151 10.118 70.8125 10.4822C71.11 10.8463 71.5289 11.4848 71.7435 11.9012C71.958 12.3175 72.263 13.0124 72.421 13.4453C72.5791 13.8781 72.8016 14.6662 72.9154 15.1963C73.0291 15.7266 73.1928 16.7011 73.279 17.3619C73.4051 18.3282 73.4447 19.8872 73.481 25.3237C73.51 29.6535 73.4902 32.3461 73.4261 32.8132C73.3496 33.3709 73.2602 33.6261 73.0461 33.8988C72.8922 34.0948 72.5705 34.3542 72.3313 34.4751C72.0921 34.596 71.4579 34.7858 70.9218 34.8967C70.3858 35.0077 69.8935 35.0777 69.8279 35.0522C69.7354 35.0165 69.6998 33.0134 69.6704 26.1926C69.6372 18.5096 69.611 17.2336 69.4648 16.2442C69.3726 15.62 69.2088 14.754 69.1008 14.3198C68.9928 13.8855 68.8193 13.2969 68.7154 13.0118C68.6115 12.7267 68.3892 12.2188 68.2213 11.8831C68.0535 11.5475 67.736 11.0319 67.5158 10.7374C67.2956 10.443 66.8716 10.0005 66.5734 9.75395C66.2753 9.50753 65.7552 9.17464 65.4178 9.01427C65.0804 8.854 64.4865 8.63609 64.0981 8.5302C63.6457 8.40673 62.9091 8.31693 62.0479 8.28011C61.3087 8.24853 60.7038 8.18715 60.7038 8.14363C60.7038 8.1002 60.7573 8.03122 60.8226 7.99046C60.8879 7.9497 61.3167 7.81331 61.7757 7.68728C62.509 7.48586 62.7757 7.46286 63.9785 7.4973C65.0418 7.5277 65.5601 7.59293 66.3027 7.78972ZM62.4389 9.06332C62.5062 9.11799 62.5611 9.30442 62.5611 9.47762C62.5611 9.67165 62.4064 10.0514 62.1578 10.4676C61.936 10.8389 61.6501 11.373 61.5225 11.6544C61.3948 11.936 61.1939 12.5176 61.0762 12.947C60.8794 13.6643 60.8576 14.0242 60.8073 17.3792L60.7527 21.0307L59.9218 21.0943C59.4648 21.1292 58.607 21.1736 58.0156 21.1929L56.9404 21.2281L56.9421 17.5272C56.9439 13.9623 56.9524 13.7936 57.1738 12.9381C57.3003 12.4496 57.5353 11.7861 57.696 11.4637C57.8568 11.1412 58.233 10.6184 58.5322 10.3018C58.867 9.94749 59.309 9.61036 59.6818 9.42502C60.015 9.25952 60.6121 9.06421 61.0089 8.99118C61.4056 8.91805 61.8622 8.88203 62.0235 8.91114C62.1848 8.94015 62.3718 9.00865 62.4389 9.06332ZM65.7692 10.0271C66.0015 10.1335 66.4273 10.4684 66.7155 10.7714C67.0258 11.0972 67.4179 11.672 67.6762 12.1794C67.9162 12.651 68.2251 13.3987 68.3625 13.8409C68.4998 14.2832 68.6795 15.0382 68.7617 15.5187C68.8438 15.9992 68.9587 17.0362 69.0169 17.8233C69.0752 18.6103 69.109 19.7428 69.0922 20.3399L69.0616 21.4255L68.7683 21.4187C68.607 21.415 67.7493 21.3564 66.8622 21.2885C65.9751 21.2206 64.4355 21.1348 63.4409 21.0979L61.6325 21.0307V17.3298C61.6325 13.7218 61.6382 13.6104 61.8619 12.8912C61.9881 12.4855 62.2007 11.9356 62.3344 11.6691C62.4681 11.4028 62.775 10.9717 63.0163 10.7113C63.2577 10.4507 63.6388 10.1459 63.8634 10.0335C64.1294 9.90061 64.4591 9.83024 64.8094 9.83162C65.1305 9.83281 65.517 9.91156 65.7692 10.0271ZM69.5992 10.6624C69.5992 10.7407 69.6481 10.8351 69.7079 10.8724C69.7676 10.9097 69.8549 10.879 69.9019 10.8042C69.9489 10.7294 69.9879 10.635 69.9888 10.5942C69.9895 10.5534 69.9023 10.5202 69.7947 10.5202C69.6872 10.5202 69.5992 10.5841 69.5992 10.6624ZM70.006 10.9203C69.8802 11.024 69.7929 11.1429 69.812 11.1846C69.8311 11.2263 69.9507 11.4294 70.078 11.636C70.2187 11.8644 70.3617 11.9914 70.443 11.9599C70.5165 11.9314 70.5767 11.9473 70.5767 11.9954C70.5767 12.0435 70.5288 12.0989 70.4703 12.1186C70.4004 12.1422 70.423 12.2796 70.5363 12.5194C70.6697 12.802 70.7375 12.86 70.8371 12.7767C70.933 12.6963 70.9808 12.7096 71.0264 12.8295C71.0599 12.9178 71.0354 13.0532 70.9718 13.1304C70.888 13.2325 70.885 13.3248 70.961 13.4681C71.0185 13.5765 71.0655 13.7688 71.0655 13.8953C71.0655 14.0218 71.1542 14.2923 71.2625 14.4964C71.3709 14.7005 71.48 15.0551 71.5051 15.2845C71.5301 15.5138 71.5981 15.9457 71.6562 16.2442C71.7144 16.5428 71.802 17.1867 71.8508 17.6752C71.8998 18.1637 71.9658 18.7521 71.9975 18.9829C72.0291 19.2136 72.0954 19.4023 72.1449 19.4023C72.1952 19.4023 72.2082 19.2067 72.1745 18.9582C72.1368 18.6808 72.1518 18.5141 72.2146 18.5141C72.2697 18.5141 72.34 18.6807 72.3708 18.8842C72.4015 19.0878 72.4613 20.1203 72.5036 21.1787L72.5807 23.1032L72.6336 21.6722L72.6866 20.2412L72.7069 21.5861C72.7229 22.6378 72.7589 22.9575 72.8727 23.0529C72.99 23.1512 73.0292 23.1458 73.075 23.0253C73.1063 22.9431 73.1071 22.2387 73.077 21.4599C73.0468 20.681 73.0111 19.7219 72.9978 19.3283C72.9844 18.9347 72.9359 18.6128 72.89 18.6128C72.8442 18.6128 72.7837 18.7016 72.7556 18.8102C72.7275 18.9187 72.6656 19.0075 72.6181 19.0075C72.5707 19.0075 72.5318 18.8947 72.5318 18.7569C72.5318 18.6189 72.625 18.3788 72.739 18.2231C72.9006 18.0025 72.9331 17.8565 72.8866 17.5609C72.8539 17.3524 72.7984 16.9819 72.7635 16.7377C72.7286 16.4934 72.6201 16.1784 72.5225 16.0377C72.3963 15.8559 72.3751 15.7511 72.4493 15.6762C72.5067 15.6181 72.5193 15.5141 72.477 15.4452C72.4201 15.3522 72.3804 15.369 72.3229 15.5106C72.2703 15.6402 72.2464 15.5431 72.2483 15.208C72.2499 14.9366 72.2022 14.4491 72.1422 14.1247C72.0824 13.8005 71.9696 13.4638 71.8916 13.3769C71.8136 13.2898 71.7498 13.1717 71.7498 13.1144C71.7498 13.057 71.6425 12.9392 71.5113 12.8524C71.3419 12.7404 71.2642 12.5873 71.2425 12.323C71.2221 12.0733 71.164 11.9505 71.0655 11.949C70.9771 11.9476 70.9314 11.8742 70.9503 11.764C70.9766 11.6116 70.9321 11.5887 70.6815 11.6258C70.5164 11.6503 70.3812 11.6518 70.3812 11.6292C70.3812 11.6066 70.4718 11.514 70.5825 11.4236L70.7837 11.2591L70.5092 10.9954C70.2362 10.7333 70.2332 10.7328 70.006 10.9203ZM20.5767 14.0114C20.8456 14.0957 21.2745 14.2986 21.53 14.4623C21.7855 14.6259 22.083 14.905 22.191 15.0825C22.2991 15.2601 22.433 15.5731 22.4886 15.7781C22.558 16.0341 22.5581 16.3229 22.489 16.7002C22.4336 17.0024 22.2535 17.5262 22.0886 17.8644C21.9238 18.2025 21.4854 18.8598 21.1147 19.3249C20.7439 19.7901 19.9968 20.5526 19.4544 21.0194C18.9121 21.4864 17.909 22.2401 17.2254 22.6944C16.5417 23.1487 15.5645 23.7458 15.0538 24.0212C14.543 24.2966 13.5727 24.7645 12.8977 25.0611C12.2226 25.3577 11.1009 25.7842 10.405 26.0089C9.70909 26.2337 8.58993 26.5343 7.91789 26.6769C6.9086 26.8909 6.42375 26.9374 5.13197 26.9441C3.8868 26.9504 3.4522 26.916 3.0002 26.775C2.68798 26.6776 2.2261 26.4683 1.9738 26.31C1.7216 26.1517 1.40626 25.8588 1.27322 25.6591C1.09159 25.3865 1.02239 25.1333 0.995601 24.6437C0.968524 24.1482 1.01124 23.8537 1.17322 23.4186C1.29052 23.1036 1.59873 22.5263 1.85806 22.1356C2.1175 21.745 2.74027 21.0135 3.24203 20.51C3.74389 20.0066 4.5869 19.268 5.11535 18.8687C5.64389 18.4694 6.63392 17.8068 7.31544 17.3962C7.99707 16.9857 8.99423 16.4432 9.53148 16.1907C10.0687 15.9383 10.9262 15.5615 11.437 15.3534C11.9477 15.1453 12.8775 14.8188 13.5031 14.6279C14.1288 14.4369 15.1186 14.191 15.7025 14.0814C16.2866 13.9718 16.8964 13.8622 17.0577 13.838C17.219 13.8136 17.9668 13.8082 18.7195 13.8258C19.5985 13.8464 20.2628 13.9128 20.5767 14.0114ZM17.1655 14.5149C16.956 14.5902 16.7191 14.7181 16.6389 14.7989C16.5588 14.8798 16.5199 15.016 16.5525 15.1016C16.5869 15.1921 16.7263 15.2573 16.8852 15.2573C17.0358 15.2573 17.3231 15.1447 17.5238 15.007C17.7244 14.8694 17.8886 14.7228 17.8886 14.6814C17.8886 14.6399 17.8358 14.5527 17.7713 14.4875C17.7067 14.4224 17.6297 14.3711 17.6002 14.3734C17.5707 14.3758 17.375 14.4395 17.1655 14.5149ZM20.3325 14.9734C20.198 15.0276 19.9923 15.1627 19.8752 15.2738C19.7581 15.3848 19.6857 15.5376 19.7145 15.6132C19.7432 15.6889 19.8749 15.7508 20.0071 15.7508C20.1393 15.7508 20.3435 15.7008 20.461 15.6397C20.5784 15.5787 20.7703 15.4407 20.8874 15.3332C21.0045 15.2256 21.0767 15.0757 21.048 15.0001C21.0193 14.9244 20.9015 14.8654 20.7862 14.8688C20.671 14.8722 20.4668 14.9193 20.3325 14.9734ZM12.9521 15.8769C12.7041 16.02 12.5611 16.1735 12.5611 16.2967C12.5611 16.4549 12.6227 16.488 12.893 16.4749C13.0756 16.466 13.3395 16.3723 13.4795 16.2668C13.6196 16.1612 13.7341 15.9909 13.7341 15.8881C13.7341 15.7755 13.6565 15.6915 13.5386 15.6764C13.4311 15.6625 13.1672 15.7527 12.9521 15.8769ZM15.8847 16.471C15.636 16.6132 15.4936 16.7653 15.4936 16.8889C15.4936 17.0471 15.5552 17.0801 15.8255 17.067C16.0081 17.0581 16.272 16.9649 16.412 16.8597C16.5521 16.7545 16.6807 16.5731 16.6979 16.4564C16.7223 16.2909 16.6793 16.2446 16.5024 16.2458C16.3777 16.2467 16.0997 16.348 15.8847 16.471ZM17.9863 16.8589C17.6856 17.0121 17.5464 17.1456 17.5464 17.2805C17.5464 17.408 17.6217 17.4887 17.7588 17.5083C17.8758 17.5252 18.1534 17.4452 18.376 17.3305C18.6898 17.1689 18.7737 17.0737 18.75 16.9062C18.7332 16.7875 18.6535 16.6778 18.5728 16.6625C18.4922 16.6472 18.2283 16.7355 17.9863 16.8589ZM9.38045 17.3545C9.14057 17.4766 8.93001 17.6544 8.91261 17.7495C8.89521 17.8447 8.95024 17.9494 9.035 17.9823C9.11975 18.0151 9.29687 18.0146 9.42864 17.9813C9.56031 17.9478 9.78974 17.8149 9.93842 17.6858C10.1712 17.4837 10.1905 17.429 10.0777 17.2918C10.0057 17.2042 9.9175 17.1324 9.88162 17.1324C9.84585 17.1324 9.62033 17.2324 9.38045 17.3545ZM12.6073 17.7483C12.4213 17.8747 12.2546 18.0544 12.237 18.1475C12.2116 18.28 12.2752 18.3166 12.5295 18.3163C12.7082 18.3161 13.0003 18.2261 13.1787 18.1164C13.3828 17.9907 13.4912 17.8536 13.4712 17.7466C13.4529 17.6497 13.333 17.564 13.1923 17.5473C13.0542 17.531 12.7965 17.6195 12.6073 17.7483ZM19.5706 17.8892C19.3935 17.9773 19.2097 18.123 19.162 18.213C19.1137 18.3041 19.1122 18.437 19.1585 18.5127C19.2266 18.624 19.3122 18.6274 19.6309 18.531C19.845 18.4662 20.1196 18.3318 20.2414 18.2323C20.3828 18.1167 20.4403 17.9924 20.4006 17.888C20.3665 17.7981 20.2381 17.7256 20.1154 17.7268C19.9929 17.728 19.7476 17.8012 19.5706 17.8892ZM15.6109 18.9181C15.4065 19.027 15.2138 19.1834 15.1825 19.2658C15.1511 19.3482 15.174 19.4645 15.2331 19.5242C15.3114 19.6032 15.443 19.6019 15.7163 19.5193C15.9229 19.4568 16.1928 19.2971 16.3162 19.1646C16.4396 19.0319 16.5113 18.8758 16.4757 18.8175C16.44 18.7591 16.3144 18.7135 16.1966 18.7158C16.0788 18.7183 15.8152 18.8093 15.6109 18.9181ZM6.45513 19.0905C6.27058 19.1905 6.07429 19.3447 6.01896 19.4333C5.94868 19.5457 5.95161 19.6278 6.02874 19.7057C6.09462 19.7722 6.25924 19.7904 6.43734 19.7509C6.60147 19.7145 6.8477 19.5957 6.98465 19.487C7.1216 19.3782 7.23363 19.2037 7.23363 19.099C7.23363 18.9672 7.16569 18.9089 7.01212 18.9089C6.89032 18.9089 6.63969 18.9906 6.45513 19.0905ZM9.18553 19.2289C8.99912 19.3557 8.84653 19.5244 8.84653 19.6036C8.84653 19.6919 8.96149 19.7591 9.14291 19.777C9.3302 19.7956 9.56413 19.7215 9.7783 19.5757C9.96471 19.4489 10.1173 19.2802 10.1173 19.201C10.1173 19.1128 10.0023 19.0455 9.82092 19.0276C9.63363 19.009 9.39971 19.0831 9.18553 19.2289ZM11.9692 19.3108C11.805 19.3588 11.5694 19.5067 11.4457 19.6396C11.3221 19.7724 11.2501 19.9288 11.2858 19.9871C11.3215 20.0455 11.4478 20.0931 11.5665 20.0931C11.685 20.0931 11.9354 20.0101 12.1228 19.9087C12.3599 19.7803 12.4633 19.6555 12.4633 19.4975C12.4633 19.3728 12.4194 19.2601 12.3656 19.2472C12.3118 19.2342 12.1334 19.263 11.9692 19.3108ZM17.0088 20.2748C16.7655 20.408 16.6667 20.5298 16.6667 20.697C16.6667 20.8994 16.7072 20.9276 16.9599 20.8999C17.1212 20.8823 17.3984 20.7773 17.5759 20.6666C17.7685 20.5466 17.8864 20.4005 17.8683 20.304C17.8516 20.2151 17.7284 20.1302 17.5944 20.1152C17.4605 20.1001 17.197 20.1719 17.0088 20.2748ZM12.8907 20.3898C12.6956 20.4938 12.5127 20.6402 12.4843 20.7151C12.4558 20.79 12.467 20.9074 12.5091 20.9762C12.5603 21.0599 12.6871 21.0787 12.8934 21.0329C13.0627 20.9954 13.3299 20.8552 13.4872 20.7216C13.6556 20.5786 13.7509 20.4196 13.7189 20.3352C13.6889 20.2564 13.5701 20.1938 13.4548 20.1962C13.3396 20.1986 13.0857 20.2857 12.8907 20.3898ZM93.0596 20.814C93.5166 20.9523 94.1945 21.2034 94.5662 21.3719C94.9377 21.5404 95.5384 21.8774 95.901 22.1206C96.2634 22.364 96.8049 22.83 97.1041 23.1563C97.4032 23.4826 97.8248 24.0499 98.041 24.4172C98.257 24.7844 98.5053 25.2965 98.5926 25.5551C98.6798 25.8136 98.7322 26.0445 98.7089 26.0679C98.6856 26.0915 98.3486 25.757 97.9599 25.3245C97.5714 24.8921 97.0025 24.3461 96.6961 24.1111C96.3895 23.8761 95.9361 23.5662 95.6882 23.4222C95.4404 23.2782 94.9036 23.0472 94.4954 22.9089C94.0872 22.7705 93.4322 22.6313 93.0399 22.5994C92.5605 22.5605 92.086 22.5925 91.5934 22.6971C91.1901 22.7826 90.5002 23.0319 90.0603 23.2509C89.5089 23.5253 89.0076 23.8842 88.4474 24.4057C88.0002 24.8218 87.1589 25.6316 86.5776 26.2052C85.9964 26.7788 85.0544 27.77 84.4842 28.4078C83.9141 29.0456 83.4179 29.5674 83.3817 29.5674C83.3456 29.5674 83.2666 29.1624 83.2062 28.6674C83.1327 28.0648 83.0035 27.5674 82.8155 27.1623C82.6609 26.8296 82.3073 26.3069 82.0297 26.0007C81.7521 25.6946 81.5249 25.4015 81.5249 25.3495C81.5249 25.2975 81.9539 24.8347 82.478 24.3212C83.0022 23.8077 83.761 23.1433 84.1642 22.8444C84.5675 22.5457 85.1613 22.1416 85.4839 21.9462C85.8065 21.7509 86.4663 21.426 86.9501 21.2239C87.434 21.022 88.2038 20.7742 88.6608 20.6733C89.3128 20.5294 89.7864 20.4977 90.8602 20.5262C91.9723 20.5557 92.3844 20.6097 93.0596 20.814ZM72.079 20.8317C72.0552 20.8942 72.0484 21.4045 72.0638 21.9657C72.0882 22.8494 72.1148 22.9894 72.263 23.0112C72.4176 23.034 72.434 22.925 72.434 21.8773C72.434 20.882 72.412 20.7181 72.2781 20.7181C72.1923 20.7181 72.1027 20.7693 72.079 20.8317ZM7.27713 20.8894C7.1129 20.9376 6.87371 21.0896 6.74565 21.2272C6.57478 21.4109 6.54174 21.5066 6.6216 21.5872C6.68544 21.6517 6.86432 21.6713 7.05523 21.6348C7.23402 21.6006 7.51095 21.4671 7.67067 21.338C7.9217 21.1351 7.94321 21.0818 7.82972 20.9437C7.75748 20.8558 7.67087 20.788 7.63715 20.7929C7.60332 20.7978 7.44135 20.8412 7.27713 20.8894ZM4.10235 21.3069C3.8172 21.4592 3.66569 21.6058 3.66569 21.7295C3.66569 21.8587 3.74438 21.9282 3.91339 21.9481C4.05249 21.9645 4.30978 21.8762 4.4999 21.7468C4.69228 21.6159 4.83871 21.4333 4.83871 21.3242C4.83871 21.2185 4.77126 21.119 4.68886 21.1029C4.60645 21.087 4.34252 21.1787 4.10235 21.3069ZM9.7263 21.7016C9.47762 21.8438 9.33529 21.9959 9.33529 22.1195C9.33529 22.2777 9.39687 22.3107 9.66716 22.2976C9.84976 22.2887 10.1137 22.1954 10.2537 22.0902C10.3937 21.9851 10.5224 21.8036 10.5396 21.687C10.5639 21.5215 10.5209 21.4752 10.3441 21.4764C10.2194 21.4773 9.94135 21.5786 9.7263 21.7016ZM21.2885 21.7709C21.3757 21.9368 21.4024 22.2344 21.3701 22.6795C21.3436 23.0436 21.0521 24.7723 20.7224 26.5211C20.3927 28.27 20.0555 29.904 19.9732 30.1522C19.8909 30.4006 19.6712 30.8986 19.4849 31.2592C19.2986 31.6197 18.9158 32.1529 18.6342 32.4441C18.3527 32.7353 17.8607 33.1141 17.5411 33.2861C17.2214 33.458 16.7504 33.6519 16.4943 33.7169C16.038 33.8328 16.0153 33.8274 15.3543 33.4409C14.9832 33.224 13.5076 32.4636 12.0753 31.7511C10.6428 31.0386 9.452 30.4556 9.42894 30.4556C9.40596 30.4556 8.91359 30.2288 8.3348 29.9517C7.75601 29.6745 6.99658 29.3142 6.64712 29.151C6.29765 28.9878 5.64888 28.6845 5.20528 28.4771C4.76178 28.2696 4.39883 28.0599 4.39883 28.0111C4.39883 27.9622 4.95963 27.8674 5.64516 27.8004C6.33069 27.7333 7.2434 27.6126 7.67351 27.5323C8.10362 27.4519 8.74145 27.3177 9.09091 27.2342C9.44037 27.1506 10.1662 26.9484 10.7038 26.7849C11.2414 26.6214 12.1872 26.2875 12.8055 26.043C13.4238 25.7985 14.4355 25.3436 15.0538 25.032C15.672 24.7205 16.4858 24.2755 16.8622 24.0432C17.2385 23.8109 17.7884 23.4614 18.0841 23.2668C18.3798 23.0721 18.9076 22.6832 19.2571 22.4026C19.6066 22.122 20.0464 21.7974 20.2346 21.6815C20.4307 21.5605 20.701 21.4819 20.8677 21.4973C21.062 21.5152 21.202 21.6063 21.2885 21.7709ZM91.129 22.0405C90.9006 22.0613 90.7103 22.1091 90.7061 22.1466C90.702 22.1842 90.6846 22.2883 90.6674 22.3779C90.6405 22.5175 90.6801 22.5267 90.9436 22.4431C91.1128 22.3893 91.6655 22.3381 92.1718 22.3295C92.7431 22.3197 93.1059 22.2723 93.1282 22.2047C93.1504 22.1372 92.9341 22.0715 92.5599 22.032C92.2276 21.997 91.8632 21.9761 91.7501 21.9855C91.637 21.995 91.3575 22.0198 91.129 22.0405ZM20.1737 22.2933C20.0059 22.4131 19.5769 22.7522 19.2206 23.0468C18.7954 23.3986 18.5738 23.6529 18.5758 23.787C18.5773 23.8994 18.6442 24.6132 18.7242 25.3731C18.8043 26.133 18.8968 27.6652 18.9296 28.7779C18.9625 29.8906 19.0235 30.8657 19.0651 30.9447C19.1152 31.0401 19.2262 30.8056 19.3945 30.2486C19.534 29.7866 19.7367 29.0114 19.8447 28.5258C19.9527 28.0403 20.1696 27.0434 20.3266 26.3106C20.4837 25.5779 20.6631 24.6008 20.7254 24.1394C20.7878 23.6781 20.8238 23.0345 20.8055 22.7094C20.7811 22.277 20.7328 22.1125 20.6256 22.0969C20.545 22.0853 20.3416 22.1736 20.1737 22.2933ZM93.3529 22.2643C93.3529 22.3186 93.4409 22.363 93.5484 22.363C93.6559 22.363 93.7439 22.3186 93.7439 22.2643C93.7439 22.21 93.6559 22.1656 93.5484 22.1656C93.4409 22.1656 93.3529 22.21 93.3529 22.2643ZM13.7341 22.3576C13.6266 22.4021 13.4539 22.5336 13.3503 22.6498C13.2132 22.8037 13.1913 22.8907 13.2697 22.9699C13.3332 23.034 13.5108 23.0524 13.7023 23.0148C13.8811 22.9796 14.1332 22.8687 14.2626 22.7682C14.4136 22.651 14.476 22.5281 14.4367 22.425C14.4031 22.3367 14.2753 22.2672 14.1526 22.2705C14.03 22.274 13.8416 22.3132 13.7341 22.3576ZM64.565 22.362C65.6403 22.4137 67.0259 22.5071 67.6442 22.5694C68.2625 22.6317 68.8234 22.7272 68.8905 22.7817C68.9578 22.836 69.0127 22.9614 69.0127 23.0601C69.0127 23.1589 68.9744 23.2635 68.9275 23.2928C68.8805 23.322 68.1878 23.2707 67.3879 23.1786C66.2636 23.0491 65.0459 23.0104 62.0235 23.0079C59.4614 23.0057 57.6922 23.0491 56.8915 23.1339C56.2195 23.2051 54.9421 23.3676 54.0531 23.495C53.164 23.6223 51.7355 23.891 50.8785 24.092C50.0215 24.2929 48.7914 24.6331 48.1451 24.8478C47.4986 25.0627 46.5258 25.4575 45.9832 25.7251C45.4406 25.9927 44.6865 26.4316 44.3074 26.7005C43.9284 26.9692 43.4651 27.38 43.2778 27.6134C43.0905 27.8467 42.856 28.1931 42.7567 28.3831C42.6306 28.6241 42.5761 28.9374 42.5763 29.4194C42.5766 29.9365 42.6293 30.2095 42.7861 30.505C42.9014 30.7221 43.274 31.1724 43.6142 31.5056C43.9544 31.8389 44.4306 32.2352 44.6725 32.3864C44.9145 32.5375 45.4643 32.8373 45.8944 33.0526C46.3245 33.2677 47.1406 33.6114 47.7079 33.8162C48.2752 34.0211 49.2429 34.3216 49.8585 34.4842C50.4739 34.6466 51.4394 34.8692 52.0039 34.9788C52.5684 35.0884 53.3162 35.2268 53.6657 35.2863C54.0152 35.3459 54.8617 35.4589 55.5468 35.5375C56.232 35.6161 57.5956 35.7321 58.5771 35.7953C59.6738 35.8657 61.4355 35.8876 63.1476 35.8519C64.6799 35.8199 66.5896 35.7237 67.3916 35.6379C68.437 35.5262 68.8796 35.5123 68.9553 35.5888C69.0238 35.6579 69.0505 36.161 69.0312 37.0138C69.0148 37.7389 69.0372 38.3545 69.0811 38.3819C69.125 38.4093 69.7105 38.3505 70.3821 38.2513C71.0537 38.152 72.1729 37.954 72.8694 37.8114C73.5659 37.6687 74.1916 37.5052 74.2599 37.448C74.3478 37.3743 74.3919 36.9109 74.4109 35.8598L74.4379 34.3756L75.6012 33.9952C76.241 33.786 77.2144 33.3978 77.7644 33.1325C78.3145 32.8672 79.0297 32.4683 79.354 32.2461C79.6781 32.0238 80.1382 31.6396 80.3764 31.3922C80.6145 31.1449 80.9138 30.733 81.0416 30.477C81.2074 30.145 81.275 29.8417 81.2773 29.4194C81.2797 28.9943 81.2165 28.696 81.0537 28.3621C80.9288 28.1063 80.6052 27.6722 80.3344 27.3973C80.0635 27.1225 79.6598 26.7718 79.4371 26.6181C79.2145 26.4645 78.7463 26.1847 78.3969 25.9966C78.0474 25.8084 77.3656 25.4962 76.8817 25.3027C76.3979 25.1093 75.694 24.8513 75.3177 24.7295C74.9414 24.6076 74.5785 24.464 74.5112 24.4102C74.4441 24.3566 74.3891 24.207 74.3891 24.0781C74.3891 23.9001 74.4422 23.8437 74.609 23.8447C74.7299 23.8453 75.0929 23.9303 75.4155 24.0334C75.738 24.1367 76.3608 24.3555 76.7993 24.5198C77.2378 24.6841 77.9196 24.9825 78.3145 25.1828C78.7093 25.3831 79.2302 25.6826 79.4721 25.8481C79.7141 26.0137 80.1428 26.3462 80.4248 26.587C80.7069 26.8278 81.1126 27.2893 81.3265 27.6126C81.5403 27.9359 81.7616 28.3637 81.8182 28.5631C81.8748 28.7627 82.0548 30.1694 82.2183 31.6892C82.4133 33.5019 82.4972 34.6957 82.4621 35.159C82.4327 35.5474 82.3167 36.1135 82.2043 36.4169C82.081 36.7496 81.804 37.1848 81.5064 37.5137C81.2349 37.8136 80.66 38.3241 80.2287 38.6482C79.7975 38.9724 78.9339 39.4993 78.3098 39.8193C77.6856 40.1392 76.7427 40.5635 76.2144 40.762C75.686 40.9606 74.7183 41.2787 74.0638 41.469C73.4094 41.6591 72.478 41.9 71.9941 42.0042C71.5103 42.1083 70.6085 42.2807 69.9902 42.3873C69.3719 42.4939 68.2722 42.6496 67.5464 42.7334C66.8206 42.8172 65.325 42.9364 64.2229 42.9983C63.038 43.0648 61.3599 43.084 60.1173 43.0451C58.9614 43.0091 57.3778 42.9139 56.5982 42.8337C55.8187 42.7534 54.4771 42.5776 53.6171 42.4429C52.7571 42.3083 51.3275 42.0171 50.4402 41.7958C49.5529 41.5746 48.2772 41.1923 47.6054 40.9464C46.9335 40.7006 45.9438 40.2774 45.406 40.0061C44.8681 39.7347 44.1243 39.3098 43.753 39.0619C43.3816 38.814 42.804 38.3525 42.4694 38.0365C42.1348 37.7205 41.6844 37.229 41.4684 36.9442L41.0758 36.4264L41.4535 32.7748C41.6612 30.7665 41.8816 28.9099 41.9432 28.6491C42.0049 28.3883 42.2265 27.9161 42.4357 27.5998C42.6449 27.2835 43.0467 26.826 43.3288 26.5831C43.6109 26.3401 44.1033 25.9726 44.4233 25.7663C44.7431 25.56 45.3589 25.2243 45.7918 25.0205C46.2245 24.8167 47.0371 24.4894 47.5975 24.2934C48.1578 24.0973 49.0533 23.825 49.5876 23.6883C50.1219 23.5515 50.9796 23.3523 51.4937 23.2455C52.0077 23.1387 53.2236 22.9435 54.1956 22.8117C55.1675 22.6799 56.6667 22.5239 57.5269 22.4651C58.3871 22.4061 59.3768 22.3455 59.7263 22.3302C60.0758 22.3149 60.8675 22.2946 61.4858 22.2852C62.1041 22.2757 63.4897 22.3102 64.565 22.362ZM6.74487 22.5829C6.44418 22.7362 6.30499 22.8696 6.30499 23.0045C6.30499 23.1423 6.37977 23.2107 6.55269 23.2311C6.69179 23.2475 6.94907 23.1592 7.1392 23.0298C7.33157 22.8989 7.47801 22.7162 7.47801 22.6072C7.47801 22.5015 7.41202 22.4024 7.33138 22.3868C7.25073 22.3713 6.9868 22.4595 6.74487 22.5829ZM89.8522 22.5238C89.8031 22.6122 89.702 22.6622 89.6274 22.6348C89.5528 22.6075 89.3377 22.6763 89.1496 22.7877C88.9614 22.899 88.7414 23.0487 88.6608 23.1202C88.5802 23.1917 88.3734 23.3635 88.2014 23.5021C88.0125 23.6541 87.9101 23.8109 87.9429 23.8974C87.9752 23.9822 87.9395 24.0408 87.8554 24.0408C87.7772 24.0408 87.5746 24.1106 87.4051 24.196C87.2356 24.2814 87.0711 24.4552 87.0395 24.5822C87.0061 24.7167 86.8841 24.838 86.7474 24.8726C86.6184 24.9054 86.4387 25.0462 86.3482 25.1857C86.21 25.3986 86.2054 25.4529 86.3196 25.5242C86.3945 25.5708 86.425 25.64 86.3876 25.6778C86.3502 25.7156 86.2534 25.6912 86.1725 25.6235C86.0493 25.5202 85.9327 25.5982 85.4469 26.1087C85.1286 26.4433 84.8467 26.8003 84.8203 26.9022C84.7915 27.0133 84.8333 27.111 84.9248 27.1464C85.0086 27.1789 85.1027 27.1663 85.1339 27.1183C85.1651 27.0702 85.2896 26.9784 85.4106 26.9141C85.5315 26.8498 85.6305 26.7343 85.6305 26.6575C85.6305 26.5806 85.69 26.4824 85.7629 26.4389C85.8357 26.3955 85.9472 26.2601 86.0107 26.1379C86.0742 26.0157 86.1884 25.9159 86.2644 25.9159C86.3406 25.9159 86.4379 25.8588 86.4809 25.7892C86.524 25.7194 86.79 25.4936 87.0723 25.2872C87.5 24.9747 87.5855 24.8615 87.5855 24.608C87.5855 24.4407 87.614 24.3327 87.6489 24.3678C87.6837 24.403 87.8811 24.3358 88.0877 24.2187C88.2942 24.1015 88.4851 23.9357 88.5119 23.8504C88.5388 23.765 88.6933 23.636 88.8551 23.5636C89.0171 23.4912 89.1496 23.3692 89.1496 23.2923C89.1496 23.2071 89.2501 23.1525 89.4068 23.1525C89.5484 23.1525 89.815 23.0584 89.9993 22.9434C90.214 22.8095 90.3148 22.6823 90.2797 22.5899C90.2496 22.5106 90.2248 22.427 90.2248 22.4043C90.2248 22.3816 90.161 22.363 90.0831 22.363C90.0051 22.363 89.9012 22.4354 89.8522 22.5238ZM94.5304 23.8586C94.8286 23.9969 95.2336 24.2529 95.4307 24.4276C95.6277 24.6022 95.9074 24.9898 96.0523 25.2888C96.2382 25.6724 96.329 26.0414 96.3609 26.5423C96.3901 27.0025 96.3527 27.4623 96.2544 27.8498C96.171 28.1785 95.7517 29.3323 95.3228 30.4138C94.8938 31.4952 94.1153 33.3793 93.5927 34.6006C93.07 35.8219 92.4993 37.1542 92.3244 37.5613C92.1497 37.9684 91.4119 39.6338 90.6851 41.2622C89.9583 42.8906 88.5641 45.9771 87.587 48.1212C86.6099 50.2652 85.7706 52.0609 85.7221 52.1115C85.6735 52.1623 85.6096 52.1792 85.58 52.1493C85.5503 52.1195 85.3501 50.235 85.1348 47.9616C84.9197 45.6882 84.5037 41.43 84.2106 38.4989C83.9175 35.5678 83.6278 32.6923 83.5669 32.109L83.456 31.0483L83.8337 30.5793C84.0415 30.3213 84.6077 29.6661 85.0921 29.1233C85.5763 28.5805 86.5665 27.5404 87.2923 26.8119C88.0181 26.0834 88.9419 25.2395 89.3454 24.9366C89.7487 24.6336 90.3455 24.2649 90.6714 24.1171C90.9974 23.9695 91.5031 23.7812 91.7953 23.6989C92.1333 23.6036 92.6285 23.5596 93.1574 23.5781C93.798 23.6005 94.1124 23.6647 94.5304 23.8586ZM3.27468 23.8989C3.11339 23.9831 2.92121 24.1118 2.8477 24.1849C2.7741 24.2581 2.7437 24.3665 2.78016 24.426C2.81652 24.4855 2.96471 24.534 3.10938 24.5338C3.25406 24.5336 3.51535 24.4455 3.69013 24.3379C3.87937 24.2215 4.00782 24.062 4.00782 23.9435C4.00782 23.8029 3.9434 23.7449 3.78788 23.7453C3.66696 23.7457 3.43597 23.8148 3.27468 23.8989ZM67.4787 23.9817C68.2209 24.0658 68.8698 24.1606 68.9205 24.1922C68.9763 24.2271 69.0127 26.286 69.0127 29.4194C69.0127 33.0407 68.9808 34.6089 68.9063 34.6554C68.8452 34.6935 66.5537 32.4413 63.5251 29.3664C60.6241 26.4209 58.2856 23.9762 58.3285 23.9338C58.3715 23.8913 58.5826 23.8359 58.7977 23.8106C59.0127 23.7853 60.7502 23.7791 62.6588 23.7968C64.9427 23.8178 66.5904 23.8811 67.4787 23.9817ZM72.7762 23.8434C72.7418 23.8994 72.6728 23.9198 72.6228 23.8885C72.569 23.8549 72.5318 24.2203 72.5318 24.7809C72.5318 25.3145 72.5701 25.7062 72.6193 25.6756C72.6674 25.6455 72.7306 25.6836 72.7597 25.7601C72.7888 25.8366 72.7991 26.1361 72.7827 26.4257C72.7664 26.7153 72.7717 26.7856 72.7946 26.582C72.8175 26.3785 72.8777 26.2119 72.9284 26.2119C72.9809 26.2119 73.0205 25.7054 73.0205 25.0335C73.0205 24.3853 72.9796 23.8295 72.9295 23.7983C72.8795 23.767 72.8105 23.7873 72.7762 23.8434ZM10.2115 23.9103C10.1022 23.9323 9.88583 24.0523 9.73079 24.1771C9.53089 24.338 9.46843 24.4551 9.51584 24.5798C9.56852 24.7185 9.64966 24.7424 9.89883 24.6931C10.0727 24.6588 10.325 24.5489 10.4594 24.4491C10.5938 24.3494 10.7179 24.1722 10.7351 24.0556C10.7578 23.9011 10.7179 23.847 10.5885 23.8568C10.4906 23.8642 10.321 23.8883 10.2115 23.9103ZM6.10948 24.7714C5.94819 24.8432 5.74145 24.9868 5.65015 25.0904C5.54731 25.207 5.51476 25.3291 5.56461 25.4106C5.62004 25.5012 5.74115 25.5209 5.95298 25.4739C6.12229 25.4364 6.38954 25.2963 6.54682 25.1627C6.71525 25.0197 6.81056 24.8607 6.77849 24.7763C6.74849 24.6974 6.65171 24.6347 6.56334 24.6367C6.47498 24.6389 6.27077 24.6994 6.10948 24.7714ZM75.8703 25.677C76.4266 25.8713 77.2945 26.2486 77.7991 26.5154C78.3037 26.7823 78.9284 27.1637 79.1873 27.3631C79.4463 27.5624 79.786 27.9068 79.9422 28.1283C80.0985 28.3499 80.2809 28.7006 80.3477 28.9077C80.4185 29.1273 80.4413 29.4339 80.4024 29.6433C80.3656 29.8408 80.2549 30.1598 80.1563 30.3523C80.0577 30.5448 79.7864 30.8848 79.5536 31.1078C79.3206 31.3308 78.9215 31.6546 78.6667 31.8274C78.4118 32.0001 77.8301 32.3147 77.374 32.5264C76.9179 32.7382 76.1401 33.0472 75.6456 33.2132C75.1509 33.3792 74.6659 33.515 74.5676 33.515C74.3976 33.515 74.3891 33.3201 74.3891 29.4194V25.3237H74.624C74.7532 25.3237 75.314 25.4827 75.8703 25.677ZM72.5584 26.6067C72.5584 26.851 72.5774 26.9509 72.6008 26.8288C72.624 26.7066 72.624 26.5068 72.6008 26.3846C72.5774 26.2625 72.5584 26.3624 72.5584 26.6067ZM85.013 27.02C84.9818 27.0987 84.9586 27.0753 84.954 26.9603C84.9498 26.8563 84.9728 26.7981 85.0053 26.8308C85.0377 26.8636 85.0413 26.9488 85.013 27.02ZM98.1938 27.4116C98.3631 27.5287 98.6147 27.8285 98.753 28.0778C98.8913 28.3272 99.0589 28.8118 99.1253 29.1548C99.1987 29.534 99.2231 30.0948 99.1873 30.5858C99.1549 31.0299 99.036 31.7485 98.9229 32.1827C98.8098 32.6169 98.5604 33.4151 98.3685 33.9566C98.1767 34.4979 97.6344 35.8524 97.1633 36.9666C96.6923 38.0807 96.0117 39.7029 95.651 40.5714C95.2903 41.4398 94.9168 42.3281 94.821 42.5452C94.7251 42.7623 94.417 43.4951 94.1363 44.1736C93.8555 44.8521 93.4376 45.8513 93.2076 46.3941C92.9776 46.9369 92.4289 48.247 91.9883 49.3055C91.5476 50.3639 90.9884 51.6962 90.7455 52.2662C90.5025 52.8361 90.1942 53.5689 90.0603 53.8946C89.9263 54.2202 89.759 54.6199 89.6886 54.7828C89.6181 54.9456 89.4244 55.4043 89.2583 55.8022C89.0921 56.2001 88.719 56.8884 88.429 57.3319C88.1391 57.7754 87.6989 58.3483 87.4509 58.605C87.2029 58.8617 86.8861 59.1007 86.7468 59.1359C86.5815 59.1778 86.4433 59.1492 86.3486 59.0535C86.2495 58.9534 86.159 58.4561 86.0636 57.4864C85.9868 56.7051 85.8978 55.6438 85.8656 55.1282L85.8072 54.1906L86.5351 52.6116C86.9354 51.7431 87.3755 50.7883 87.513 50.4897C87.6504 50.1912 87.9154 49.6139 88.1017 49.2068C88.2879 48.7997 89.1885 46.8012 90.1029 44.7657C91.0174 42.7302 91.9512 40.6429 92.1781 40.1273C92.4049 39.6116 92.6695 39.0121 92.7661 38.7949C92.8627 38.5778 93.2321 37.7441 93.5871 36.9421C93.9421 36.1402 94.2327 35.4649 94.2327 35.4416C94.2327 35.4182 94.3618 35.1194 94.5196 34.7778C94.6776 34.4361 95.1577 33.3127 95.5867 32.2814C96.0156 31.2501 96.4983 30.0709 96.6594 29.6611C96.8204 29.2513 97.0062 28.6388 97.0722 28.3001C97.1382 27.9614 97.2773 27.575 97.3813 27.4415C97.4853 27.3081 97.6414 27.1988 97.7283 27.1988C97.8152 27.1988 98.0246 27.2946 98.1938 27.4116ZM72.5318 27.5443C72.5318 27.7065 72.5818 27.7661 72.7028 27.7482C72.7969 27.7342 72.8739 27.6425 72.8739 27.5443C72.8739 27.4461 72.7969 27.3543 72.7028 27.3404C72.5818 27.3224 72.5318 27.382 72.5318 27.5443ZM84.1581 27.4656C84.0796 27.5631 83.9335 27.7924 83.8333 27.9749C83.6823 28.2502 83.6742 28.3216 83.7855 28.3929C83.8594 28.4402 83.9546 28.4794 83.9971 28.4803C84.0396 28.4811 84.2487 28.2931 84.4618 28.0624C84.6748 27.8316 84.8376 27.5763 84.8236 27.4949C84.8095 27.4135 84.686 27.3337 84.5493 27.3176C84.4 27.2999 84.2437 27.359 84.1581 27.4656ZM72.5318 29.0411C72.5318 29.2516 72.4878 29.3611 72.4096 29.3454C72.3316 29.3296 72.297 29.4148 72.3138 29.5807C72.3298 29.7393 72.2834 29.8629 72.1947 29.8972C72.0789 29.9421 72.0507 30.1505 72.0567 30.9201C72.0608 31.4517 72.0844 31.9644 72.109 32.0593C72.1337 32.1543 72.214 32.232 72.2874 32.232C72.3608 32.232 72.4499 32.1398 72.4853 32.0269C72.5208 31.9141 72.5696 31.592 72.5937 31.3114C72.6179 31.0307 72.6547 30.6456 72.6756 30.4556C72.6964 30.2656 72.7437 29.988 72.7806 29.8388C72.8239 29.6643 72.8089 29.5674 72.7387 29.5674C72.6786 29.5674 72.6295 29.4315 72.6295 29.2655C72.6295 29.0894 72.6703 28.989 72.7273 29.0246C72.781 29.0582 72.825 29.0015 72.825 28.8989C72.825 28.7961 72.759 28.7121 72.6784 28.7121C72.5774 28.7121 72.5318 28.8144 72.5318 29.0411ZM97.5196 28.8952C97.4388 29.0207 97.2452 29.4564 97.0893 29.8635C96.9334 30.2706 96.6388 31.0034 96.4345 31.4919C96.2302 31.9804 95.9591 32.6105 95.8322 32.8921C95.7051 33.1737 95.6012 33.4258 95.6012 33.4524C95.6012 33.4789 95.4472 33.8371 95.259 34.2484C95.0709 34.6597 94.9169 35.0181 94.9169 35.0449C94.9169 35.0717 94.7903 35.3712 94.6355 35.7106C94.4807 36.05 93.9046 37.3491 93.355 38.5976C92.8056 39.846 92.2283 41.1452 92.0724 41.4846C91.9164 41.824 91.7889 42.122 91.7889 42.147C91.7889 42.1719 91.5249 42.7544 91.2023 43.4415C90.8798 44.1285 90.6158 44.7073 90.6158 44.7277C90.6158 44.7481 90.4572 45.1093 90.2633 45.5302C90.0693 45.9511 89.5687 47.0504 89.151 47.9731C88.7332 48.8959 88.3014 49.8507 88.1914 50.095C88.0815 50.3392 87.6111 51.3607 87.1462 52.3649L86.301 54.1906L86.3619 55.4736C86.3953 56.1792 86.4464 56.881 86.4754 57.0332C86.5044 57.1854 86.5695 57.2959 86.6202 57.2788C86.6709 57.2618 86.9535 56.6932 87.2481 56.0153C87.5428 55.3374 87.8911 54.5385 88.0222 54.24C88.1533 53.9414 88.6538 52.7646 89.1344 51.6247C89.615 50.4848 90.2596 48.9304 90.567 48.1705C90.8743 47.4106 91.4459 46.0339 91.8372 45.1111C92.2285 44.1884 92.7921 42.8339 93.0897 42.1011C93.3874 41.3683 93.9232 40.0582 94.2803 39.1897C94.6374 38.3212 95.452 36.3175 96.0904 34.737C96.7288 33.1565 97.4143 31.4467 97.6136 30.9374C97.8906 30.2298 97.9784 29.8609 97.9861 29.3728C97.9943 28.8476 97.9668 28.7281 97.8312 28.7006C97.74 28.6821 97.6007 28.7691 97.5196 28.8952ZM20.647 32.158C20.7791 32.3345 21.4277 33.4018 22.0884 34.53C23.002 36.0899 23.3015 36.6863 23.3387 37.0203C23.3661 37.2656 23.3338 37.5906 23.2657 37.7569C23.1985 37.9206 22.8654 38.3171 22.5254 38.6382C22.1854 38.9593 21.7066 39.3613 21.4614 39.5318C21.2161 39.7021 20.6832 40.0008 20.277 40.1956C19.8515 40.3996 19.5032 40.5124 19.4553 40.4618C19.4095 40.4135 18.6903 39.0156 17.8571 37.3554C17.0239 35.6952 16.3712 34.2941 16.4066 34.2418C16.4421 34.1896 16.7351 34.0469 17.0577 33.9248C17.3803 33.8026 17.9388 33.5267 18.2988 33.3114C18.6589 33.0963 19.2308 32.6778 19.5696 32.3815C19.9085 32.0852 20.2355 31.8415 20.2963 31.84C20.3572 31.8386 20.515 31.9816 20.647 32.158ZM19.9403 32.6079L19.7118 32.7946L19.9263 33.145C20.0443 33.3378 20.2095 33.522 20.2935 33.5546C20.3774 33.5871 20.5745 33.6137 20.7314 33.6137C20.8883 33.6137 21.0166 33.5693 21.0166 33.515C21.0166 33.4607 20.9726 33.4163 20.9189 33.4163C20.8651 33.4163 20.8211 33.3297 20.8211 33.2239C20.8211 33.118 20.76 32.9959 20.6853 32.9525C20.6108 32.9091 20.5332 32.7852 20.5132 32.6772C20.4932 32.5694 20.4074 32.4675 20.3227 32.451C20.2379 32.4347 20.0659 32.5051 19.9403 32.6079ZM72.0756 33.1861C72.1114 33.2222 72.1701 33.2222 72.206 33.1861C72.2417 33.1499 72.2124 33.1203 72.1408 33.1203C72.0691 33.1203 72.0398 33.1499 72.0756 33.1861ZM20.4301 33.8943C20.4301 33.94 20.5951 34.0621 20.7967 34.1657C20.9983 34.2692 21.1851 34.3686 21.2119 34.3867C21.2388 34.4046 21.1836 34.4764 21.0892 34.5459C20.9314 34.6625 20.9295 34.701 21.0663 35.0313C21.1479 35.2287 21.3022 35.4452 21.4089 35.5125C21.5157 35.5799 21.6031 35.6821 21.6031 35.7396C21.6031 35.7971 21.6582 35.9641 21.7253 36.1107C21.8008 36.2751 21.9007 36.3569 21.9863 36.3244C22.0627 36.2954 22.1572 36.324 22.1964 36.3881C22.2356 36.4521 22.3368 36.4777 22.4212 36.445C22.5572 36.3923 22.5588 36.3484 22.436 36.0605C22.3596 35.8818 22.2456 35.7485 22.1825 35.7643C22.1153 35.781 22.0918 35.7301 22.1256 35.6411C22.1574 35.5576 22.0924 35.3338 21.9813 35.1436C21.8702 34.9535 21.7397 34.798 21.6912 34.798C21.6428 34.798 21.6031 34.6856 21.6031 34.5482C21.6031 34.4107 21.5388 34.2735 21.4602 34.243C21.3816 34.2126 21.2907 34.1029 21.2582 33.9994C21.2131 33.8562 21.1068 33.8111 20.8146 33.8111C20.6031 33.8111 20.4301 33.8485 20.4301 33.8943ZM73.451 35.5135C73.4176 35.7441 73.3182 36.0884 73.2299 36.2783C73.1204 36.514 72.9296 36.6929 72.6295 36.8415C72.3572 36.9762 71.7519 37.1193 71.0407 37.2171C70.4087 37.3039 69.8478 37.3478 69.7943 37.3143C69.7408 37.2809 69.697 36.9 69.697 36.4678C69.697 35.746 69.7149 35.6745 69.9169 35.5896C70.0378 35.5388 70.7074 35.4263 71.4049 35.3395C72.1023 35.2528 72.6925 35.1621 72.7164 35.138C72.7403 35.1138 72.929 35.0941 73.1357 35.0941H73.5116L73.451 35.5135ZM22.3461 36.8017C22.1878 36.9186 22.1861 36.942 22.3275 37.0605C22.4309 37.1472 22.4829 37.1537 22.4829 37.0799C22.4829 37.019 22.5489 36.9692 22.6295 36.9692C22.7102 36.9692 22.7761 36.9026 22.7761 36.8211C22.7761 36.7397 22.7186 36.6731 22.6482 36.6731C22.5778 36.6731 22.4419 36.7309 22.3461 36.8017ZM41.6352 37.7601C41.8707 38.0866 42.3535 38.6047 42.7081 38.9115C43.0628 39.2182 43.7268 39.7141 44.1838 40.0133C44.6408 40.3125 45.502 40.7916 46.0976 41.078C46.6932 41.3643 47.8369 41.8195 48.6391 42.0894C49.4414 42.3594 50.5376 42.6916 51.0753 42.8277C51.6129 42.9637 52.6246 43.1866 53.3236 43.323C54.0225 43.4593 55.2981 43.6605 56.1584 43.77C57.0186 43.8796 58.3382 44.015 59.0909 44.071C59.8436 44.127 61.5614 44.173 62.9081 44.1732C64.2549 44.1734 65.9485 44.1274 66.6716 44.071C67.3947 44.0146 68.5142 43.9021 69.1593 43.8209C69.8045 43.7399 70.8382 43.5832 71.4565 43.4727C72.0748 43.3622 73.0205 43.162 73.5582 43.0278C74.0958 42.8936 75.0196 42.6247 75.611 42.4304C76.2023 42.2361 77.0601 41.9174 77.5171 41.7223C77.9741 41.5272 78.6946 41.1745 79.1182 40.9385C79.5418 40.7025 80.1357 40.3268 80.4378 40.1037C80.7401 39.8804 81.2845 39.3948 81.6477 39.0243C82.0109 38.6539 82.3723 38.3508 82.4507 38.3508C82.5291 38.3508 82.6388 38.4367 82.6945 38.5417C82.7502 38.6467 82.7953 38.9465 82.7947 39.2079C82.7941 39.5083 82.702 39.8829 82.5442 40.226C82.4068 40.5245 82.1109 40.9908 81.8864 41.2622C81.662 41.5336 81.2639 41.9555 81.0019 42.1998C80.7399 42.444 80.2555 42.8356 79.9255 43.07C79.5955 43.3044 78.967 43.6942 78.5287 43.9362C78.0905 44.1783 77.2987 44.5546 76.7692 44.7725C76.2397 44.9904 75.2566 45.3425 74.5846 45.5548C73.9125 45.7672 72.9888 46.0295 72.5318 46.1379C72.0748 46.2462 71.239 46.4239 70.6745 46.533C70.11 46.6419 69.1642 46.7983 68.5728 46.8806C67.9814 46.9629 67.0557 47.0769 66.5157 47.1343C65.9758 47.1915 64.5901 47.2762 63.4366 47.3223C62.283 47.3685 60.4154 47.3695 59.2864 47.3245C58.1574 47.2795 56.7937 47.1963 56.2561 47.1394C55.7185 47.0826 55.0806 47.0101 54.8387 46.9784C54.5968 46.9467 53.849 46.833 53.1769 46.7257C52.5049 46.6183 51.4053 46.3984 50.7333 46.237C50.0615 46.0755 49.0718 45.8077 48.5339 45.6418C47.9962 45.476 47.0745 45.1364 46.4856 44.8873C45.8969 44.6382 45.0614 44.2368 44.629 43.9953C44.1967 43.7539 43.5318 43.3199 43.1514 43.0309C42.7711 42.7419 42.256 42.2854 42.0068 42.0164C41.7577 41.7475 41.3967 41.2796 41.2048 40.9767C41.0129 40.6737 40.8299 40.2949 40.7982 40.135C40.7665 39.9749 40.7923 39.2971 40.8555 38.6287C40.9188 37.9602 40.9884 37.3578 41.0101 37.2899C41.0318 37.2221 41.085 37.1666 41.1283 37.1666C41.1717 37.1666 41.3997 37.4336 41.6352 37.7601ZM22.6587 37.4296C22.6289 37.5443 22.6409 37.6973 22.685 37.7696C22.7293 37.8419 22.7945 37.8718 22.8299 37.8361C22.8653 37.8003 22.8534 37.6473 22.8034 37.496C22.7197 37.2421 22.7085 37.237 22.6587 37.4296ZM28.0633 43.2854C30.0663 45.8094 33.9785 50.739 36.7571 54.2402C39.5357 57.7413 41.8985 60.7834 42.0079 61.0005C42.1173 61.2175 42.3467 61.7947 42.5176 62.2832C42.6886 62.7718 42.9135 63.5875 43.0175 64.0961C43.1215 64.6046 43.2725 65.5582 43.3531 66.215C43.4345 66.8794 43.4995 68.2073 43.4995 69.2082C43.4995 70.2368 43.437 71.4892 43.3534 72.1325C43.273 72.7514 43.0982 73.6916 42.965 74.2221C42.8318 74.7525 42.5495 75.5477 42.3377 75.9894C42.1259 76.4312 41.7723 76.9993 41.552 77.2521C41.3316 77.5049 40.9232 77.8265 40.6445 77.9667C40.3657 78.1069 39.999 78.2217 39.8298 78.2217C39.6578 78.2217 39.4572 78.1455 39.3752 78.049C39.2943 77.954 38.6657 76.7882 37.978 75.4584C37.2904 74.1285 36.442 72.4853 36.0929 71.8068C35.7436 71.1283 35.2493 70.1735 34.9943 69.685C34.7394 69.1965 34.2109 68.175 33.82 67.4151C33.4291 66.6552 32.9893 65.8114 32.8427 65.54C32.6962 65.2686 32.1908 64.2916 31.7197 63.3688C31.2486 62.4461 30.655 61.2914 30.4007 60.8029C30.1463 60.3144 29.3771 58.8266 28.6913 57.4968C28.0055 56.1669 27.1803 54.5681 26.8576 53.9439C26.5348 53.3197 26.1503 52.5869 26.0032 52.3155C25.856 52.0441 25.3281 51.0227 24.8298 50.0456C24.3317 49.0686 23.7157 47.8695 23.4611 47.381C23.2065 46.8925 22.7009 45.9155 22.3374 45.2098C21.9741 44.5042 21.3963 43.3891 21.0535 42.7319C20.7107 42.0747 20.4301 41.4716 20.4301 41.3918C20.4301 41.3119 20.6603 41.139 20.9416 41.0077C21.223 40.8762 21.8279 40.5195 22.2857 40.2148C22.7436 39.9101 23.3602 39.4337 23.6559 39.156C23.9516 38.8782 24.2449 38.6612 24.3075 38.6737C24.3703 38.6861 26.0604 40.7614 28.0633 43.2854ZM23.7807 39.6729C23.6688 39.803 23.5015 39.9521 23.4089 40.0044C23.2602 40.0884 23.2548 40.1441 23.3626 40.4834C23.4296 40.6946 23.5605 40.9563 23.6534 41.0648C23.7462 41.1734 23.8456 41.3296 23.874 41.4121C23.9024 41.4945 24.1399 41.828 24.4018 42.1532C24.6635 42.4783 24.9218 42.8178 24.9756 42.9075C25.0293 42.9973 25.2823 43.3744 25.5378 43.7455C25.7933 44.1166 26.1578 44.6423 26.3478 44.9137C26.5378 45.1851 26.8018 45.505 26.9342 45.6245C27.0666 45.744 27.175 45.8902 27.175 45.9493C27.175 46.0083 27.2538 46.177 27.35 46.324C27.4462 46.4712 27.5792 46.6803 27.6455 46.7889C27.7117 46.8974 27.8573 47.1305 27.9689 47.307C28.0805 47.4834 28.2328 47.6277 28.3074 47.6277C28.3821 47.6277 28.5074 47.7832 28.586 47.9731C28.6647 48.163 28.8454 48.4725 28.9876 48.6608C29.1299 48.8491 29.2918 48.9935 29.3474 48.9816C29.403 48.9697 29.4575 49.0604 29.4685 49.1832C29.4795 49.3059 29.6278 49.5723 29.798 49.7753C29.9683 49.9782 30.1965 50.3109 30.3051 50.5144C30.4137 50.718 30.5457 50.8845 30.5982 50.8845C30.6509 50.8845 30.727 50.8889 30.7674 50.8943C30.8077 50.8996 30.9177 50.9456 31.0117 50.9964C31.1058 51.0472 31.1828 51.1539 31.1828 51.2334C31.1828 51.3129 31.1388 51.378 31.085 51.378C31.0313 51.378 30.9873 51.4208 30.9873 51.4732C30.9873 51.5256 31.1133 51.7144 31.2674 51.8926C31.4214 52.071 31.5783 52.3167 31.616 52.4389C31.6539 52.5611 31.7234 52.6609 31.7706 52.6609C31.8178 52.6609 31.9138 52.7673 31.9839 52.8973C32.0541 53.0274 32.3181 53.4381 32.5707 53.8102C32.8234 54.1822 33.2213 54.7532 33.455 55.0788C33.7236 55.4529 33.9504 55.6712 34.0711 55.6716C34.1943 55.672 34.2642 55.7419 34.2682 55.869C34.2717 55.9772 34.3167 56.1546 34.3683 56.2631C34.4199 56.3717 34.5644 56.6271 34.6894 56.8306C34.8963 57.1674 34.9553 57.2007 35.3469 57.2007C35.5835 57.2007 35.7771 57.2451 35.7771 57.2994C35.7771 57.3537 35.6415 57.3981 35.4758 57.3981C35.2817 57.3981 35.1885 57.441 35.2142 57.5187C35.2361 57.5851 35.3575 57.664 35.4839 57.6941C35.6103 57.7242 35.7317 57.8032 35.7536 57.8696C35.7755 57.9359 35.7421 57.9902 35.6796 57.9902C35.6115 57.9902 35.6539 58.1393 35.7845 58.3603C35.9049 58.5639 36.1283 58.8657 36.2812 59.0312C36.4341 59.1966 36.5591 59.3849 36.5591 59.4497C36.5591 59.5146 36.6471 59.623 36.7546 59.6908C36.8622 59.7586 36.9501 59.8719 36.9501 59.9426C36.9501 60.0133 37.1302 60.3172 37.3503 60.618C37.6909 61.0835 37.7856 61.1561 37.9857 61.1055C38.1452 61.0651 38.2209 61.0878 38.2209 61.176C38.2209 61.2476 38.1717 61.3559 38.1114 61.4167C38.0307 61.4982 38.0862 61.6457 38.3236 61.9793C38.5004 62.2279 38.6846 62.4313 38.7328 62.4313C38.7811 62.4313 38.791 62.3372 38.7548 62.2222C38.7073 62.0709 38.7257 62.0258 38.8216 62.0588C38.8957 62.0844 38.9579 62.2526 38.9627 62.4405C38.9674 62.6254 38.9783 62.8534 38.9871 62.947C38.9958 63.0407 39.1569 63.2588 39.3451 63.4316C39.5332 63.6045 39.689 63.7944 39.6912 63.8535C39.6934 63.9126 39.8216 64.1103 39.9762 64.2927C40.1308 64.4751 40.3049 64.5947 40.3632 64.5582C40.4283 64.5176 40.4692 64.5853 40.4692 64.734C40.4692 64.9097 40.5361 64.9928 40.7136 65.0378C40.848 65.0718 40.958 65.14 40.958 65.1893C40.958 65.2385 40.8872 65.2932 40.8007 65.3108C40.6788 65.3354 40.7212 65.4257 40.9896 65.7127C41.18 65.9162 41.3621 66.1605 41.3942 66.2555C41.4265 66.3505 41.5591 66.5593 41.6891 66.7196C41.921 67.0055 41.9291 67.0074 42.1259 66.8276C42.3244 66.6462 42.3265 66.6478 42.325 66.9804C42.3239 67.2336 42.3002 67.28 42.2287 67.1684C42.1587 67.059 42.1336 67.0544 42.1325 67.1508C42.1317 67.2226 42.2452 67.4779 42.3847 67.7183C42.5241 67.9586 42.6781 68.1553 42.7268 68.1553C42.7755 68.1553 42.8153 68.0701 42.8153 67.966C42.8153 67.8619 42.8387 67.715 42.8674 67.6395C42.8961 67.5641 42.8367 67.4058 42.7353 67.2878C42.6339 67.1698 42.5225 67.1021 42.4876 67.1373C42.4528 67.1725 42.4242 67.1314 42.4242 67.046C42.4242 66.9397 42.4854 66.907 42.6186 66.9421C42.7404 66.9743 42.8349 66.9355 42.8718 66.8383C42.9043 66.7529 42.8852 66.5369 42.8294 66.3583C42.7737 66.1796 42.7023 65.878 42.6708 65.688C42.6393 65.4981 42.5723 65.0984 42.522 64.7998C42.4718 64.5013 42.3904 64.1016 42.3414 63.9116C42.2924 63.7216 42.1815 63.433 42.0949 63.2701C42.0084 63.1073 41.8615 62.974 41.7683 62.9739C41.6281 62.9737 41.5975 62.8742 41.5897 62.3936C41.5825 61.947 41.538 61.7824 41.3965 61.6779C41.2953 61.6033 41.136 61.5666 41.0423 61.5966C40.9341 61.6314 40.8341 61.5796 40.7677 61.4543C40.6851 61.2984 40.698 61.238 40.8299 61.1634C40.9864 61.0751 40.9859 61.0459 40.8229 60.6807C40.7275 60.467 40.5539 60.1742 40.437 60.03C40.3203 59.8859 40.0709 59.5238 39.8827 59.2252C39.6945 58.9268 39.4903 58.6822 39.4289 58.6818C39.3676 58.6814 39.2897 58.7921 39.256 58.9278C39.2164 59.0871 39.1261 59.1745 39.0011 59.1745C38.8945 59.1745 38.8074 59.115 38.8074 59.0423C38.8074 58.9696 38.9174 58.8595 39.0518 58.7977C39.2154 58.7224 39.2962 58.6055 39.2962 58.4441C39.2962 58.2849 39.1633 58.0882 38.9052 57.8651C38.6901 57.6792 38.5142 57.471 38.5142 57.4023C38.5142 57.3336 38.3382 57.0653 38.1232 56.8059C37.9081 56.5466 37.7322 56.2874 37.7322 56.2299C37.7322 56.1723 37.6246 56.0081 37.4933 55.865C37.3219 55.6784 37.1976 55.623 37.0534 55.6692C36.8762 55.726 36.8524 55.6919 36.8524 55.3815C36.8524 55.1879 36.7847 54.9517 36.702 54.8568C36.6192 54.7619 36.3106 54.3732 36.016 53.9933C35.7215 53.6133 35.3771 53.1914 35.2507 53.0557C35.1243 52.92 34.9601 52.692 34.8858 52.5491C34.8115 52.4062 34.5831 52.1033 34.3781 51.8759C34.0555 51.518 33.9843 51.4801 33.8466 51.593C33.7103 51.7049 33.6965 51.6998 33.7495 51.557C33.7852 51.4606 33.7313 51.2881 33.6211 51.1466C33.5166 51.0125 33.4311 50.8596 33.4311 50.807C33.4311 50.7543 33.3619 50.6533 33.2773 50.5824C33.1928 50.5116 33.0356 50.2795 32.9281 50.0668C32.7633 49.7408 32.694 49.6874 32.4871 49.7274C32.2839 49.7665 32.2499 49.7425 32.2899 49.5877C32.3218 49.4648 32.1886 49.215 31.9019 48.8596C31.6618 48.562 31.4234 48.3186 31.3721 48.3186C31.3209 48.3186 31.2086 48.1409 31.1225 47.9238C31.0365 47.7067 30.9298 47.529 30.8854 47.529C30.8411 47.529 30.7905 47.6512 30.7731 47.8004C30.7422 48.0661 30.739 48.0674 30.6223 47.8605C30.5567 47.7443 30.4826 47.4826 30.4576 47.279C30.4285 47.0426 30.3039 46.7961 30.1132 46.5974C29.9488 46.4261 29.8143 46.2336 29.8143 46.1696C29.8143 46.1056 29.7003 45.9778 29.561 45.8856C29.4217 45.7935 29.2688 45.6148 29.2213 45.4886C29.1737 45.3624 29.0693 45.2592 28.9892 45.2592C28.9092 45.2592 28.7966 45.1703 28.739 45.0618C28.6814 44.9532 28.5699 44.8644 28.4912 44.8644C28.4031 44.8644 28.348 44.7682 28.348 44.6146C28.348 44.4771 28.282 44.3392 28.2014 44.308C28.1207 44.2767 28.0547 44.1991 28.0547 44.1357C28.0547 44.0721 27.8549 43.7993 27.6107 43.5294C27.2558 43.1373 27.1801 43.0881 27.2337 43.2846C27.2937 43.5044 27.2838 43.5162 27.1402 43.3959C27.0518 43.3218 26.9795 43.154 26.9795 43.023C26.9795 42.8921 26.9047 42.6644 26.8133 42.5171C26.7219 42.3697 26.4689 42.0463 26.2512 41.7983C26.0334 41.5504 25.7721 41.2285 25.6706 41.0828C25.5689 40.9372 25.4075 40.8181 25.3117 40.8181C25.198 40.8181 25.1155 40.716 25.0736 40.5231C25.0383 40.361 24.9604 40.1976 24.9005 40.1602C24.8406 40.1229 24.7743 40.1446 24.7533 40.2085C24.7322 40.2723 24.6526 40.3246 24.5764 40.3246C24.5002 40.3246 24.4379 40.2406 24.4379 40.1378C24.4379 40.0351 24.3752 39.9267 24.2984 39.8969C24.2217 39.8672 24.1136 39.8981 24.0582 39.9655C24.0027 40.033 23.9826 40.1858 24.0135 40.3051C24.0445 40.4244 24.0316 40.5206 23.985 40.519C23.9384 40.5172 23.8247 40.4109 23.7325 40.2827C23.5679 40.054 23.5712 40.0451 23.9028 39.817C24.0889 39.6891 24.2414 39.5512 24.2417 39.5105C24.2421 39.4697 24.1844 39.4364 24.1134 39.4364C24.0425 39.4364 23.8928 39.5428 23.7807 39.6729ZM41.303 41.6676C41.5703 42.0806 42.0785 42.6947 42.4326 43.0322C42.7866 43.3697 43.4591 43.9032 43.9272 44.2175C44.3951 44.5319 45.2052 45.0001 45.7272 45.258C46.2493 45.5159 47.0943 45.8846 47.6051 46.0774C48.1158 46.2702 49.0616 46.5899 49.7067 46.7879C50.3519 46.9857 51.0557 47.1844 51.2708 47.2293C51.4858 47.2742 52.2188 47.426 52.8996 47.5666C53.5804 47.7073 54.5701 47.8878 55.099 47.9678C55.6279 48.0479 56.7424 48.1837 57.5758 48.2696C58.4091 48.3557 60.2126 48.4526 61.5836 48.485C63.1287 48.5216 64.7636 48.499 65.8847 48.4255C66.8793 48.3603 68.3749 48.2198 69.2082 48.113C70.0415 48.0063 71.3832 47.7851 72.1896 47.6214C72.9961 47.4577 74.1178 47.1901 74.6823 47.0269C75.2468 46.8636 76.1486 46.5678 76.6862 46.3695C77.2239 46.1713 78.1157 45.7773 78.6682 45.494C79.2206 45.2108 80.0299 44.7201 80.4667 44.4036C80.9033 44.0871 81.6162 43.4396 82.0508 42.9646C82.4855 42.4897 82.8953 42.1011 82.9616 42.1011C83.0279 42.1011 83.1239 42.1799 83.175 42.2763C83.2261 42.3729 83.3374 43.1389 83.4224 43.9788C83.5072 44.8187 83.6862 46.6828 83.8201 48.1212C83.954 49.5596 84.1316 51.4915 84.2147 52.4142C84.2979 53.337 84.5201 55.7573 84.7086 57.7928C84.8971 59.8283 85.0942 61.9822 85.1468 62.5793C85.1994 63.1764 85.351 64.8439 85.4837 66.2851C85.6163 67.7262 85.819 69.8801 85.9341 71.0716C86.0492 72.263 86.1489 73.7486 86.1557 74.3728C86.1658 75.2965 86.1278 75.6363 85.951 76.1986C85.8317 76.5785 85.547 77.1767 85.3185 77.5278C85.0899 77.8789 84.5499 78.525 84.1182 78.9636C83.6865 79.4021 82.9173 80.0406 82.4088 80.3823C81.9003 80.7242 81.0425 81.2278 80.5026 81.5016C79.9628 81.7754 78.9712 82.2198 78.2991 82.4892C77.6271 82.7585 76.3954 83.1752 75.5621 83.4151C74.7287 83.6549 73.2991 84.0048 72.3851 84.1926C71.4712 84.3804 70.1295 84.6214 69.4037 84.7282C68.6779 84.8348 67.3143 85.0012 66.3734 85.0979C65.0282 85.236 63.8171 85.2727 60.7038 85.2696C57.2332 85.2661 56.5097 85.238 54.8387 85.0421C53.7903 84.9191 52.2947 84.7096 51.5152 84.5766C50.7356 84.4435 49.3848 84.1578 48.5135 83.9416C47.6421 83.7254 46.4325 83.3767 45.8253 83.1668C45.2182 82.9569 44.4913 82.6919 44.21 82.578C43.9287 82.4642 43.3826 82.2103 42.9963 82.0139C42.61 81.8175 41.9163 81.4204 41.4548 81.1313C40.9934 80.8423 40.4288 80.4434 40.2004 80.245C39.9719 80.0465 39.7849 79.8501 39.7849 79.8087C39.7849 79.7672 39.955 79.6818 40.1629 79.619C40.3707 79.5561 40.6592 79.5047 40.804 79.5047C40.9614 79.5047 41.042 79.5459 41.0044 79.6073C40.9699 79.6638 41.0626 79.8082 41.2105 79.9281C41.3584 80.0481 41.5687 80.1969 41.678 80.2589C41.7873 80.3209 41.9366 80.3484 42.0097 80.3201C42.0894 80.2892 42.1649 80.3546 42.1983 80.4836C42.2327 80.6159 42.4463 80.7959 42.7545 80.9518C43.0299 81.091 43.3211 81.2628 43.4018 81.3335C43.4824 81.4042 43.7903 81.5546 44.086 81.6676C44.3817 81.7807 44.734 81.8732 44.8689 81.8732C45.0045 81.8733 45.1665 81.9576 45.2309 82.0618C45.295 82.1655 45.4926 82.2816 45.6698 82.3199C45.8471 82.3582 46.0469 82.434 46.1138 82.4884C46.1807 82.5428 46.337 82.5677 46.4611 82.5438C46.5852 82.5198 46.744 82.562 46.8139 82.6375C46.8837 82.713 47.0023 82.7496 47.0775 82.7188C47.1526 82.6879 47.2801 82.6358 47.3607 82.6029C47.4518 82.5657 47.5073 82.5984 47.5073 82.6895C47.5073 82.7701 47.5711 82.8894 47.6489 82.9546C47.7267 83.0198 48.0237 83.1104 48.3087 83.1559C48.5937 83.2015 49.015 83.2924 49.2446 83.358C49.6316 83.4687 49.6761 83.4613 49.8504 83.2584C49.954 83.1379 50.0546 82.9906 50.0743 82.9312C50.0942 82.8709 50.2148 82.9289 50.3468 83.0623C50.4771 83.1938 50.5706 83.3799 50.5545 83.4756C50.5335 83.6011 50.5897 83.6497 50.7563 83.6497C50.8834 83.6497 51.0291 83.6895 51.0802 83.7382C51.1313 83.7869 51.356 83.8567 51.5797 83.8934C51.9135 83.9481 52.0051 83.9279 52.0916 83.7802C52.1912 83.6102 52.2067 83.6128 52.3733 83.8272C52.4905 83.978 52.606 84.0322 52.7179 83.9889C52.8105 83.9531 52.9437 83.9719 53.0141 84.0308C53.0844 84.0897 53.2708 84.139 53.4282 84.1404C53.5857 84.1416 53.8245 84.1474 53.9589 84.1532C54.0934 84.1589 54.2913 84.1579 54.3988 84.151C54.5064 84.1441 54.7293 84.1541 54.8942 84.1732C55.0591 84.1923 55.2467 84.2408 55.3111 84.281C55.3755 84.3212 55.6145 84.3712 55.8421 84.3921C56.0698 84.4131 56.4101 84.4552 56.5982 84.4855C56.7864 84.5158 57.0682 84.5046 57.2244 84.4606C57.3887 84.4143 57.5744 84.2575 57.6643 84.0891C57.7959 83.843 57.8705 83.8026 58.1438 83.8291L58.4675 83.8605L58.3206 83.5739C58.1939 83.3266 58.1297 83.2935 57.8503 83.3325C57.6724 83.3574 57.4547 83.4412 57.3667 83.5191C57.2254 83.6437 57.1749 83.631 56.9418 83.413C56.7848 83.266 56.5125 83.1436 56.2713 83.1116C56.0479 83.082 55.1915 83.0133 54.3681 82.959C53.5449 82.9048 52.7851 82.8139 52.68 82.757C52.5747 82.7002 52.4438 82.6816 52.389 82.7159C52.3341 82.7501 52.3111 82.8521 52.3379 82.9425C52.3647 83.0329 52.2984 83.2143 52.1907 83.3455C52.0205 83.5529 51.9764 83.5656 51.8545 83.4425C51.7327 83.3194 51.746 83.2634 51.9568 83.0158C52.0902 82.8591 52.1994 82.7106 52.1994 82.6861C52.1994 82.6615 52.094 82.6681 51.9652 82.7007C51.8066 82.7409 51.7129 82.7125 51.6751 82.6127C51.6443 82.5317 51.5385 82.4654 51.44 82.4654C51.3415 82.4654 51.2064 82.5206 51.1396 82.588C51.0456 82.6829 51.0019 82.6838 50.9456 82.5917C50.9056 82.5265 50.7094 82.4041 50.5096 82.3198C50.3098 82.2355 49.8935 82.1248 49.5844 82.0738C49.2754 82.0228 48.7586 81.9294 48.436 81.8663C48.1134 81.8032 47.7823 81.6923 47.7003 81.6197C47.6183 81.5472 47.3564 81.4565 47.1185 81.418C46.8805 81.3796 46.4643 81.2665 46.1937 81.1666C45.9231 81.0668 45.63 80.985 45.5424 80.985C45.4548 80.985 45.2758 80.8998 45.1445 80.7955C45.0131 80.6911 44.8422 80.6123 44.7647 80.6202C44.6871 80.628 44.4037 80.5293 44.1349 80.4007C43.8661 80.2722 43.4744 80.078 43.2644 79.969C43.0545 79.8601 42.6068 79.7186 42.2695 79.6546C41.9036 79.5852 41.5942 79.5733 41.5026 79.6251C41.4059 79.6797 41.349 79.6734 41.349 79.6083C41.349 79.5513 41.3819 79.504 41.4223 79.5032C41.4627 79.5023 41.5546 79.4639 41.6268 79.4177C41.7339 79.3492 41.7352 79.2968 41.6337 79.1329C41.5218 78.9519 41.5671 78.8684 42.0891 78.2911C42.4078 77.9386 42.8152 77.4044 42.9942 77.1038C43.1732 76.8033 43.4677 76.2103 43.6487 75.7859C43.8296 75.3615 44.0851 74.6368 44.2166 74.1754C44.348 73.714 44.5255 72.9146 44.611 72.399C44.6964 71.8833 44.8172 70.9285 44.8795 70.2771C44.9461 69.5784 44.9679 68.4859 44.9327 67.6125C44.8997 66.7983 44.8077 65.7103 44.7284 65.1946C44.6489 64.6789 44.4763 63.8319 44.345 63.3122C44.2136 62.7926 43.966 62.0278 43.7948 61.6127C43.6238 61.1977 43.3187 60.6004 43.117 60.2853C42.9153 59.9702 42.1159 58.9141 41.3408 57.9384C40.5656 56.9627 39.7817 55.9719 39.599 55.7367L39.2667 55.3089L39.4323 53.5162C39.5234 52.5301 39.7283 50.3689 39.8877 48.7133C40.0471 47.0578 40.2666 44.7706 40.3756 43.6308C40.4845 42.4909 40.5961 41.414 40.6236 41.2375C40.651 41.0611 40.7059 40.9168 40.7455 40.9168C40.7849 40.9168 41.0359 41.2547 41.303 41.6676ZM25.7087 43.236C25.7087 43.3717 25.6647 43.4827 25.6109 43.4827C25.5572 43.4827 25.5132 43.442 25.5132 43.3921C25.5132 43.3423 25.4865 43.2313 25.4539 43.1454C25.415 43.043 25.4485 42.9893 25.5516 42.9893C25.654 42.9893 25.7087 43.0751 25.7087 43.236ZM27.6637 46.3012C27.6637 46.3858 27.6197 46.4277 27.566 46.3941C27.5122 46.3605 27.4682 46.2914 27.4682 46.2402C27.4682 46.1891 27.5122 46.1474 27.566 46.1474C27.6197 46.1474 27.6637 46.2167 27.6637 46.3012ZM80.1564 46.9044C80.1564 47.158 80.2163 47.4356 80.2896 47.5212C80.3629 47.607 80.4489 47.8167 80.4807 47.9875C80.5277 48.2403 80.503 48.3073 80.3474 48.3484C80.1686 48.3955 80.1564 48.4933 80.1564 49.8763C80.1564 51.0693 80.1847 51.3775 80.303 51.4767C80.3837 51.5443 80.4497 51.7251 80.4497 51.8786C80.4497 52.0321 80.3816 52.1961 80.2985 52.2431C80.1678 52.3169 80.1593 52.4749 80.2356 53.4076C80.2841 54.0011 80.3248 54.6866 80.3263 54.9308C80.3277 55.1751 80.3525 55.8412 80.3815 56.4112C80.4106 56.9811 80.4619 58.0429 80.4957 58.7707C80.5294 59.4984 80.6036 60.1816 80.6605 60.289C80.7361 60.4315 80.7842 60.451 80.8389 60.3615C80.8888 60.2801 80.9352 60.2736 80.9771 60.3422C81.0118 60.3989 80.9666 60.487 80.8765 60.5378C80.7354 60.6176 80.7224 60.7372 80.7819 61.4075C80.8198 61.8349 80.8728 62.4732 80.8995 62.826C80.9262 63.1788 80.9665 63.5228 80.9889 63.5903C81.0205 63.6858 81.0849 63.6876 81.2799 63.5979C81.4824 63.5047 81.5951 63.5141 81.8714 63.647C82.2115 63.8109 82.2123 63.8107 82.1566 63.5862C82.1258 63.4624 82.1476 63.2363 82.2051 63.0836C82.2626 62.931 82.3951 62.7329 82.4997 62.6434C82.6646 62.5021 82.6801 62.4087 82.6161 61.9378C82.5699 61.5967 82.4987 61.4042 82.4247 61.4197C82.3599 61.4332 82.3069 61.3582 82.3069 61.2528C82.3069 61.1474 82.3509 61.0338 82.4047 61.0003C82.4585 60.9667 82.5024 60.8582 82.5024 60.7593C82.5024 60.6602 82.4145 60.556 82.3069 60.5275C82.1994 60.4992 82.1114 60.4052 82.1114 60.3187C82.1114 60.2249 82.1939 60.1614 82.3155 60.1614C82.4957 60.1614 82.5134 60.1181 82.4661 59.7913C82.4367 59.5878 82.3646 58.9549 82.306 58.385C82.2473 57.815 82.1602 56.9268 82.1124 56.4112C82.0645 55.8955 81.9401 54.8741 81.8357 54.1413C81.7314 53.4085 81.569 52.276 81.4748 51.6247C81.3787 50.9593 81.241 50.3677 81.1607 50.2743C81.0675 50.1659 81.0393 50.0093 81.0797 49.8238C81.1245 49.6172 81.0862 49.4682 80.9396 49.28C80.7903 49.0885 80.7392 48.8839 80.7439 48.497C80.7474 48.2088 80.7129 47.8399 80.6674 47.6771C80.6217 47.5142 80.5229 47.1701 80.4478 46.9122C80.3728 46.6543 80.2765 46.4434 80.2339 46.4434C80.1913 46.4434 80.1564 46.6509 80.1564 46.9044ZM33.0075 51.2464C32.9717 51.2825 32.913 51.2825 32.8771 51.2464C32.8414 51.2102 32.8707 51.1806 32.9423 51.1806C33.014 51.1806 33.0433 51.2102 33.0075 51.2464ZM31.9648 51.9701C31.9648 52.0244 31.9455 52.0688 31.9217 52.0688C31.8979 52.0688 31.8514 52.0244 31.8182 51.9701C31.7849 51.9158 31.8044 51.8714 31.8613 51.8714C31.9182 51.8714 31.9648 51.9158 31.9648 51.9701ZM81.6227 53.9497C81.6227 54.1259 81.5819 54.2263 81.5249 54.1906C81.4712 54.1571 81.4272 54.0213 81.4272 53.8887C81.4272 53.7562 81.4712 53.6478 81.5249 53.6478C81.5787 53.6478 81.6227 53.7837 81.6227 53.9497ZM35.1417 56.5592C35.1417 56.6587 35.0868 56.7587 35.0196 56.7813C34.9421 56.8073 34.8974 56.7259 34.8974 56.5592C34.8974 56.3925 34.9421 56.3111 35.0196 56.3371C35.0868 56.3597 35.1417 56.4597 35.1417 56.5592ZM38.1232 59.8653C38.1232 59.9196 38.0792 59.964 38.0254 59.964C37.9717 59.964 37.9277 59.9196 37.9277 59.8653C37.9277 59.811 37.9717 59.7666 38.0254 59.7666C38.0792 59.7666 38.1232 59.811 38.1232 59.8653ZM81.1339 61.2035C81.1339 61.288 81.0892 61.3294 81.0346 61.2953C80.98 61.2612 80.9605 61.192 80.9915 61.1415C81.0224 61.091 81.0671 61.0496 81.0908 61.0496C81.1146 61.0496 81.1339 61.1189 81.1339 61.2035ZM82.5024 63.3195C82.5024 63.3738 82.5464 63.4182 82.6002 63.4182C82.654 63.4182 82.698 63.3738 82.698 63.3195C82.698 63.2652 82.654 63.2208 82.6002 63.2208C82.5464 63.2208 82.5024 63.2652 82.5024 63.3195ZM81.4272 64.1358C81.4272 64.2049 81.5584 64.4221 81.7188 64.6186C81.9711 64.9275 81.9908 64.9922 81.8654 65.0973C81.7543 65.1904 81.6882 65.1917 81.5825 65.1032C81.5067 65.0396 81.4213 65.0256 81.3929 65.0721C81.3644 65.1186 81.3137 65.3761 81.2802 65.6443C81.2467 65.9127 81.2689 66.443 81.3296 66.823C81.3904 67.2029 81.4647 67.7248 81.4949 67.9826C81.5251 68.2404 81.5882 68.4514 81.6351 68.4514C81.682 68.4514 81.7204 68.3848 81.7204 68.3033C81.7204 68.2219 81.7644 68.1553 81.8182 68.1553C81.8719 68.1553 81.9159 68.2352 81.9159 68.3329C81.9159 68.4306 81.9614 68.5565 82.0169 68.6125C82.0724 68.6686 82.0892 68.7898 82.0542 68.882C82.0152 68.9847 81.9259 69.0287 81.8234 68.9959C81.6848 68.9514 81.6621 68.9972 81.691 69.2643C81.7103 69.4414 81.7901 70.0526 81.8687 70.6226C81.9472 71.1925 82.0568 71.9475 82.1123 72.3003C82.1677 72.6531 82.2764 73.2749 82.3539 73.682C82.4313 74.0891 82.4964 74.5636 82.4985 74.7365C82.5007 74.9094 82.549 75.1743 82.6058 75.3253C82.6886 75.545 82.7273 75.5709 82.7998 75.455C82.8497 75.3755 82.8911 75.1016 82.892 74.8465C82.893 74.5256 82.8459 74.3557 82.7393 74.2955C82.6023 74.2181 82.6087 74.166 82.7972 73.8273C83.0082 73.4481 83.0089 73.4258 82.9519 69.2134C82.8967 65.1378 82.8871 64.9708 82.6936 64.7225C82.5831 64.5806 82.3145 64.3624 82.0966 64.2375C81.8787 64.1126 81.639 64.0103 81.5638 64.0103C81.4887 64.0103 81.4272 64.0668 81.4272 64.1358ZM41.2512 65.5458C41.2512 65.6304 41.2072 65.6723 41.1535 65.6387C41.0997 65.6051 41.0557 65.536 41.0557 65.4848C41.0557 65.4337 41.0997 65.392 41.1535 65.392C41.2072 65.392 41.2512 65.4613 41.2512 65.5458ZM38.1761 78.3218C38.5692 79.1054 38.9491 79.7652 39.0202 79.7881C39.0914 79.8109 39.4718 80.137 39.8657 80.5128C40.2595 80.8886 40.8754 81.3873 41.2342 81.621C41.5931 81.8547 42.3042 82.2573 42.8146 82.5154C43.3249 82.7737 44.2267 83.1736 44.8185 83.4042C45.4103 83.6349 46.4443 83.9804 47.1163 84.1721C47.7884 84.3637 48.7153 84.6121 49.1762 84.724C49.6371 84.836 50.7817 85.06 51.7197 85.2218C52.6578 85.3837 54.0622 85.5825 54.8407 85.6637C55.6192 85.7449 56.8939 85.8633 57.6735 85.9269C58.4531 85.9904 60.4106 86.0411 62.0235 86.0397C63.6364 86.0382 65.6378 85.9874 66.4712 85.9268C67.3045 85.8661 68.6922 85.7296 69.5549 85.6233C70.4176 85.5171 71.8252 85.2999 72.683 85.1406C73.5407 84.9814 74.7043 84.7339 75.2688 84.5907C75.8333 84.4474 76.8011 84.1726 77.4194 83.9801C78.0376 83.7876 79.0274 83.4299 79.6188 83.1852C80.2102 82.9407 81.0239 82.5605 81.4272 82.3406C81.8304 82.1206 82.4242 81.7622 82.7468 81.5442C83.0694 81.3263 83.6523 80.8833 84.042 80.5598C84.4318 80.2363 84.751 79.9443 84.7513 79.9108C84.7516 79.8774 85.0282 79.5503 85.3659 79.1839C85.8261 78.6846 86.0448 78.5178 86.2393 78.5178C86.382 78.5178 86.5274 78.5646 86.5624 78.6218C86.5975 78.679 86.6867 79.3091 86.7607 80.0219C86.8568 80.9467 86.8686 81.5086 86.8021 81.9827C86.7506 82.3483 86.6369 82.8617 86.5492 83.1239C86.4615 83.3859 86.3016 83.778 86.1937 83.9951C86.0859 84.2122 85.8085 84.6595 85.5773 84.9889C85.346 85.3184 84.8846 85.8426 84.5517 86.1537C84.2189 86.4648 83.7206 86.8862 83.4445 87.0901C83.1682 87.2941 82.6747 87.6236 82.3475 87.8224C82.0203 88.0213 81.3385 88.3908 80.8324 88.6436C80.3262 88.8963 79.3622 89.3126 78.6901 89.5686C78.0181 89.8245 77.1603 90.1272 76.784 90.2411C76.4076 90.355 75.5577 90.5866 74.8951 90.7558C74.2327 90.9249 73.001 91.1907 72.1581 91.3463C71.3153 91.502 69.8998 91.72 69.0127 91.8309C68.1256 91.9418 66.806 92.0765 66.0802 92.1302C65.3544 92.1839 63.8807 92.2569 62.8055 92.2922C61.6867 92.329 59.8888 92.3077 58.6022 92.2423C57.3656 92.1797 55.738 92.0619 54.9853 91.9808C54.2327 91.8996 52.891 91.7214 52.0039 91.5846C51.1168 91.4478 49.8192 91.2012 49.1202 91.0366C48.4213 90.8721 47.261 90.5613 46.5416 90.3459C45.8224 90.1305 44.7988 89.7791 44.2671 89.5653C43.7353 89.3514 42.8941 88.9713 42.3979 88.7205C41.9017 88.4698 41.1344 88.0278 40.693 87.7383C40.2516 87.4489 39.5348 86.869 39.1001 86.4497C38.6654 86.0305 38.0959 85.3645 37.8344 84.97C37.573 84.5753 37.2673 84.0048 37.1551 83.7021C37.043 83.3994 36.9042 82.8458 36.8468 82.472C36.7626 81.9242 36.7822 81.3551 36.9479 79.5382C37.061 78.2985 37.1754 77.1811 37.2021 77.0551C37.2287 76.9291 37.298 76.842 37.3559 76.8615C37.4139 76.881 37.7829 77.5381 38.1761 78.3218ZM41.2187 79.3731C41.1828 79.4093 41.1241 79.4093 41.0883 79.3731C41.0525 79.3369 41.0818 79.3073 41.1535 79.3073C41.2251 79.3073 41.2544 79.3369 41.2187 79.3731ZM41.8377 79.9981C41.8953 80.1067 41.9078 80.1948 41.8656 80.194C41.8234 80.1931 41.7283 80.1538 41.6542 80.1063C41.5801 80.0589 41.5497 79.9708 41.5866 79.9105C41.6236 79.8501 41.6717 79.8008 41.6935 79.8008C41.7152 79.8008 41.7802 79.8896 41.8377 79.9981ZM43.4995 80.396C43.4995 80.452 43.4317 80.5241 43.3487 80.5562C43.2657 80.5884 43.1733 80.5899 43.1434 80.5597C43.1134 80.5295 43.1179 80.4573 43.1534 80.3995C43.1888 80.3416 43.2811 80.2942 43.3587 80.2942C43.4362 80.2942 43.4995 80.34 43.4995 80.396ZM81.0464 80.5987C80.9176 80.6507 80.834 80.7151 80.8605 80.742C80.8871 80.7687 81.0585 80.7251 81.2413 80.645C81.4241 80.5649 81.5078 80.5004 81.4272 80.5018C81.3465 80.503 81.1752 80.5467 81.0464 80.5987ZM80.3936 80.7645C80.336 80.8043 80.2585 80.9197 80.2214 81.0209C80.1689 81.1643 80.1244 81.1799 80.0192 81.0916C79.9162 81.0054 79.6095 81.0396 78.7251 81.2362C78.0876 81.378 77.478 81.5317 77.3705 81.5778C77.263 81.624 76.9998 81.691 76.7857 81.7269C76.5718 81.7627 76.3159 81.8357 76.2174 81.8888C76.0753 81.9657 76.0621 82.0148 76.1538 82.1263C76.2174 82.2037 76.2463 82.3559 76.2182 82.4648C76.19 82.5736 76.2135 82.6916 76.2704 82.7271C76.3272 82.7626 76.4264 82.7189 76.4908 82.63C76.5551 82.5412 76.6343 82.4953 76.6669 82.5281C76.6993 82.5608 77.0468 82.5098 77.4392 82.4147C77.8315 82.3196 78.2219 82.1811 78.3068 82.1069C78.3917 82.0326 78.5127 81.9719 78.5757 81.9719C78.6386 81.9719 78.6901 81.9275 78.6901 81.8733C78.6901 81.819 78.6461 81.7746 78.5924 81.7746C78.5386 81.7746 78.4946 81.7138 78.4946 81.6395C78.4946 81.5601 78.644 81.4799 78.8567 81.445C79.112 81.4032 79.2679 81.4305 79.3854 81.5379C79.5361 81.6756 79.5824 81.6729 79.8666 81.5104C80.0395 81.4114 80.2854 81.2725 80.4131 81.2017C80.5408 81.1309 80.6452 80.9865 80.6452 80.8809C80.6452 80.7753 80.6122 80.6897 80.5719 80.6905C80.5315 80.6913 80.4513 80.7246 80.3936 80.7645ZM45.0687 81.4291C45.0659 81.4834 45.0122 81.5278 44.9495 81.5278C44.8868 81.5278 44.8157 81.4681 44.7916 81.395C44.7642 81.312 44.8089 81.2751 44.9109 81.2963C45.0005 81.3152 45.0716 81.3749 45.0687 81.4291ZM86.2414 81.6894C86.1743 81.758 86.1193 81.8495 86.1193 81.8928C86.1193 81.936 85.972 82.1825 85.792 82.4405C85.612 82.6984 85.4374 82.9873 85.4041 83.0822C85.3707 83.1771 85.279 83.2549 85.2003 83.2549C85.1216 83.2549 85.0292 83.3437 84.9951 83.4523C84.961 83.5609 84.8755 83.6497 84.805 83.6497C84.7345 83.6497 84.6172 83.7223 84.5442 83.8111C84.4712 83.9 84.2388 84.0887 84.0279 84.2306C83.8169 84.3725 83.5452 84.5552 83.424 84.6366C83.3029 84.718 82.9691 84.9235 82.6821 85.0933C82.3951 85.2631 82.0765 85.4962 81.9741 85.6114C81.8717 85.7266 81.7152 85.8209 81.6262 85.8209C81.5373 85.8209 81.3808 85.8826 81.2785 85.9582C81.1204 86.0749 81.112 86.1194 81.2229 86.2543C81.2978 86.3454 81.3101 86.413 81.2518 86.413C81.1959 86.413 81.1332 86.3616 81.1125 86.2987C81.0894 86.2289 80.9817 86.2094 80.8355 86.2485C80.7039 86.2837 80.5303 86.3573 80.4497 86.4121C80.3486 86.4808 80.3365 86.5347 80.4106 86.5857C80.4697 86.6265 80.5681 86.7557 80.6292 86.8728C80.7037 87.0157 80.7127 87.2353 80.6565 87.539C80.5955 87.8685 80.604 87.9921 80.6877 87.9921C80.7509 87.9921 80.9517 87.881 81.1339 87.7453C81.3161 87.6096 81.521 87.4986 81.5893 87.4986C81.6577 87.4986 81.7608 87.4094 81.8187 87.3003C81.8959 87.1546 81.9854 87.1177 82.1563 87.161C82.3347 87.2062 82.427 87.1613 82.5522 86.9683C82.6419 86.83 82.8105 86.6875 82.9266 86.6515C83.0428 86.6156 83.3358 86.4307 83.5777 86.2404C83.8196 86.0501 84.3366 85.557 84.7263 85.1444C85.1803 84.6639 85.435 84.3138 85.435 84.1701C85.435 84.0467 85.4774 83.9457 85.5292 83.9457C85.581 83.9457 85.7357 83.7793 85.8727 83.5757C86.09 83.2531 86.103 83.1915 85.974 83.096C85.8926 83.0357 85.826 82.963 85.826 82.9343C85.826 82.9055 85.899 82.8883 85.9884 82.8958C86.1046 82.9057 86.1879 82.7695 86.2815 82.416C86.3535 82.1447 86.4015 81.8421 86.388 81.7437C86.3684 81.5999 86.3397 81.5892 86.2414 81.6894ZM76.9066 81.9966C76.8846 82.0645 76.762 82.1354 76.6344 82.1541C76.4318 82.1839 76.4188 82.1683 76.5318 82.0308C76.603 81.9441 76.7255 81.8733 76.8041 81.8733C76.8826 81.8733 76.9287 81.9288 76.9066 81.9966ZM75.5483 82.0187C75.5228 82.0445 75.0663 82.1145 74.5337 82.1746C74.0012 82.2345 73.4759 82.3335 73.3663 82.3946C73.2568 82.4557 72.9788 82.5299 72.7485 82.5595C72.5183 82.5891 72.3332 82.6578 72.3373 82.7121C72.3414 82.7664 72.1779 82.8394 71.9739 82.8745C71.77 82.9095 71.5591 82.9022 71.5054 82.8583C71.4516 82.8144 71.1657 82.799 70.87 82.8241C70.5743 82.8492 70.1124 82.8819 69.8436 82.8965C69.5748 82.9112 68.893 82.959 68.3284 83.003C67.4388 83.0722 67.276 83.1128 67.1066 83.3073C66.9909 83.4402 66.7513 83.5549 66.52 83.5884C66.305 83.6196 66.1959 83.6128 66.2777 83.5733C66.3595 83.5339 66.4244 83.435 66.422 83.3536C66.4187 83.2458 66.3257 83.2132 66.0798 83.2337C65.8939 83.2492 65.7059 83.3269 65.6618 83.4064C65.6178 83.4859 65.5013 83.551 65.403 83.551C65.3047 83.551 65.1678 83.4822 65.0987 83.3982C65.0296 83.3141 64.8813 83.2597 64.7691 83.2771C64.6568 83.2947 64.5746 83.3591 64.5863 83.4205C64.598 83.4819 64.5443 83.5851 64.4669 83.65C64.3556 83.7432 64.2921 83.7337 64.1641 83.6045C64.0751 83.5146 63.9382 83.4657 63.8601 83.4959C63.782 83.5262 63.4688 83.5585 63.164 83.5676L62.61 83.5841L63.1965 83.6497L63.783 83.7152L63.1835 83.7318C62.6737 83.7459 62.5763 83.7779 62.5328 83.9457C62.4855 84.1281 62.3994 84.1431 61.3973 84.1431C60.786 84.1431 60.3128 84.1836 60.3128 84.2358C60.3128 84.2868 60.8077 84.3521 61.4125 84.3808C62.0174 84.4095 62.8635 84.4604 63.293 84.4941C63.7774 84.532 64.216 84.512 64.4487 84.4417C64.7279 84.3573 64.8577 84.3568 64.9569 84.4399C65.0516 84.5192 65.1456 84.5216 65.2816 84.4481C65.3905 84.3893 65.7913 84.364 66.2107 84.3896C66.8805 84.4303 66.9539 84.4166 67.0096 84.2395C67.0433 84.1322 67.1338 84.0378 67.2109 84.0296C67.2879 84.0215 67.406 84.0104 67.4731 84.005C67.5404 83.9995 67.5953 84.0469 67.5953 84.1103C67.5953 84.1735 67.6263 84.2566 67.664 84.2948C67.7019 84.333 67.8466 84.3354 67.9857 84.3001C68.1248 84.2649 68.2153 84.1979 68.1869 84.1514C68.1584 84.1048 68.5854 84.0419 69.136 84.0115C69.6864 83.9811 70.5287 83.9311 71.0078 83.9007C71.4868 83.8701 71.9351 83.7978 72.0039 83.7402C72.0728 83.6824 72.1051 83.5719 72.0757 83.4944C72.0461 83.417 72.062 83.3536 72.1108 83.3536C72.1595 83.3536 72.2475 83.4022 72.3063 83.4615C72.3835 83.5394 72.4717 83.5376 72.6253 83.4546C72.7743 83.3741 72.8744 83.3708 72.9611 83.4434C73.0412 83.5105 73.1925 83.5158 73.3915 83.4581C73.5603 83.4092 73.7515 83.3361 73.8163 83.2957C73.8811 83.2552 74.0475 83.2121 74.186 83.1999C74.3246 83.1876 74.6572 83.149 74.9251 83.1143C75.2921 83.0666 75.477 82.9794 75.6748 82.7609C75.905 82.5064 75.9232 82.4403 75.823 82.2221C75.7601 82.0853 75.683 81.9731 75.6517 81.9727C75.6203 81.9723 75.5738 81.993 75.5483 82.0187ZM49.8534 82.7063C49.8534 82.7303 49.8094 82.7773 49.7556 82.8108C49.7019 82.8444 49.6579 82.8247 49.6579 82.7673C49.6579 82.7099 49.7019 82.6628 49.7556 82.6628C49.8094 82.6628 49.8534 82.6823 49.8534 82.7063ZM74.7577 82.8417C74.779 82.9061 74.7267 82.9588 74.6415 82.9588C74.5564 82.9588 74.4868 82.8886 74.4868 82.8026C74.4868 82.7167 74.539 82.6639 74.6029 82.6854C74.6668 82.7069 74.7364 82.7772 74.7577 82.8417ZM72.9739 82.9964C73.0888 83.1123 73.0621 83.1287 72.7959 83.1059C72.6238 83.0912 72.3949 83.0699 72.2874 83.0585C72.1194 83.0408 72.1262 83.0267 72.3363 82.9588C72.4707 82.9154 72.6388 82.8755 72.7098 82.87C72.7808 82.8646 72.8997 82.9214 72.9739 82.9964ZM59.0958 83.4443C59.0613 83.5008 59.079 83.6337 59.1352 83.7398C59.1915 83.8459 59.3585 83.9466 59.5064 83.9639C59.6664 83.9825 59.7752 84.055 59.7752 84.1431C59.7752 84.2328 59.6645 84.3039 59.4944 84.3235C59.3401 84.3414 59.1663 84.308 59.1083 84.2495C59.0503 84.191 58.9687 84.1431 58.9268 84.1431C58.8849 84.1431 58.9008 84.2542 58.9621 84.3899C59.0434 84.5701 59.1495 84.6366 59.3556 84.6366C59.5353 84.6366 59.725 84.5416 59.8776 84.3755C60.0094 84.2318 60.1173 84.0764 60.1173 84.03C60.1173 83.9837 60.2933 83.9457 60.5083 83.9457C60.7234 83.9457 60.8993 83.9068 60.8993 83.8591C60.8993 83.8115 60.8344 83.7182 60.7551 83.6517C60.639 83.5544 60.5593 83.5689 60.3461 83.7257C60.1024 83.9049 60.0534 83.909 59.7327 83.7774C59.5411 83.6986 59.3334 83.5685 59.2714 83.488C59.1992 83.3946 59.1359 83.3788 59.0958 83.4443ZM60.9353 83.5034C60.9693 83.5927 60.9971 83.6844 60.9971 83.7071C60.9971 83.7298 61.1691 83.7484 61.3795 83.7484C61.6878 83.7484 61.757 83.7149 61.7371 83.5757C61.719 83.4478 61.6037 83.395 61.2931 83.372C60.9371 83.3457 60.883 83.3655 60.9353 83.5034ZM85.6738 83.5757C85.6367 83.6977 85.5926 83.8133 85.576 83.8323C85.5593 83.8513 85.496 83.8358 85.4351 83.7978C85.3578 83.7495 85.3751 83.6724 85.4927 83.5412C85.5851 83.438 85.679 83.3536 85.7011 83.3536C85.7233 83.3536 85.7111 83.4536 85.6738 83.5757ZM58.5533 83.8292C58.5533 83.8868 58.6002 83.9634 58.6576 83.9991C58.7149 84.035 58.7819 84.0438 58.8066 84.0191C58.8311 83.9942 58.7842 83.9177 58.7022 83.849C58.6094 83.7712 58.5533 83.7637 58.5533 83.8292ZM57.0605 83.9067C57.0281 83.9394 56.9437 83.943 56.8732 83.9145C56.7952 83.883 56.8184 83.8596 56.9323 83.8549C57.0353 83.8506 57.093 83.8739 57.0605 83.9067ZM64.2881 83.9129C64.2522 83.949 64.1936 83.949 64.1577 83.9129C64.1219 83.8767 64.1512 83.8471 64.2229 83.8471C64.2945 83.8471 64.3239 83.8767 64.2881 83.9129ZM58.26 84.4392C58.26 84.4935 58.304 84.5379 58.3578 84.5379C58.4115 84.5379 58.4555 84.4935 58.4555 84.4392C58.4555 84.3849 58.4115 84.3405 58.3578 84.3405C58.304 84.3405 58.26 84.3849 58.26 84.4392ZM38.8074 84.5925C38.8074 84.6226 38.9284 84.8002 39.0762 84.9872C39.224 85.1743 39.4221 85.3274 39.5161 85.3274C39.6102 85.3274 39.6872 85.2631 39.6872 85.1844C39.6872 85.1058 39.5401 84.9281 39.3603 84.7896C39.1805 84.6512 38.9825 84.5379 38.9204 84.5379C38.8583 84.5379 38.8074 84.5625 38.8074 84.5925ZM39.8501 85.3932C39.8143 85.4294 39.7852 85.5071 39.7856 85.5659C39.786 85.6248 39.9481 85.7839 40.1459 85.9196C40.3437 86.0553 40.5964 86.2595 40.7073 86.3735C40.8183 86.4875 41.2502 86.7921 41.6673 87.0502C42.2551 87.4143 42.4818 87.5054 42.6769 87.456C42.8943 87.4009 42.9203 87.4185 42.8679 87.5852C42.8346 87.6912 42.8572 87.8092 42.9181 87.8472C42.9791 87.8853 43.1926 87.9141 43.3925 87.9113C43.6671 87.9075 43.7997 87.965 43.9347 88.1465C44.0329 88.2786 44.1462 88.3868 44.1864 88.3868C44.2265 88.3868 44.2789 88.2522 44.3028 88.0876C44.3428 87.8125 44.307 87.7684 43.8594 87.5414C43.5917 87.4056 43.3284 87.3094 43.2744 87.3277C43.2204 87.3458 43.0696 87.2531 42.9393 87.1214C42.7677 86.9482 42.6729 86.912 42.5954 86.9902C42.5179 87.0685 42.4593 87.0401 42.383 86.8873C42.325 86.7713 42.1441 86.6282 41.9808 86.5693C41.8176 86.5105 41.5757 86.3835 41.4432 86.2872C41.3108 86.1908 40.9328 85.9354 40.6035 85.7197C40.2742 85.504 39.9846 85.3274 39.96 85.3274C39.9354 85.3274 39.8859 85.357 39.8501 85.3932ZM83.9687 85.519C83.9687 85.5701 83.9247 85.6393 83.871 85.6728C83.8172 85.7064 83.7732 85.6645 83.7732 85.58C83.7732 85.4954 83.8172 85.4261 83.871 85.4261C83.9247 85.4261 83.9687 85.4678 83.9687 85.519ZM79.7286 87.0582C79.6952 87.1462 79.7347 87.2347 79.8225 87.2688C79.9059 87.301 80.02 87.281 80.0762 87.2242C80.1325 87.1675 80.1489 87.0727 80.1128 87.0137C80.0766 86.9547 79.9885 86.9065 79.9167 86.9065C79.845 86.9065 79.7603 86.9748 79.7286 87.0582ZM78.7228 87.2272C78.6806 87.2951 78.6588 87.4283 78.6743 87.5233C78.6927 87.6361 78.6393 87.696 78.5203 87.696C78.4201 87.696 78.2904 87.7442 78.232 87.8033C78.1554 87.8805 78.1062 87.8787 78.0559 87.7966C78.014 87.7281 78.0679 87.6611 78.1915 87.6285C78.3045 87.5987 78.3969 87.535 78.3969 87.4871C78.3969 87.4392 78.3639 87.4006 78.3236 87.4014C78.2832 87.4022 78.0743 87.4646 77.8592 87.5399C77.6442 87.6153 77.4541 87.7479 77.4367 87.8345C77.4193 87.9212 77.3642 87.9921 77.3145 87.9921C77.2646 87.9921 77.2239 87.9476 77.2239 87.8934C77.2239 87.8391 77.1632 87.7947 77.0892 87.7947C77.0152 87.7947 76.9035 87.8567 76.8413 87.9325C76.7789 88.0083 76.6512 88.0501 76.5576 88.0254C76.4638 88.0006 76.1685 88.0757 75.9013 88.1922C75.6341 88.3086 75.2175 88.4397 74.9756 88.4834C74.7336 88.5272 74.1866 88.6568 73.76 88.7716C73.3333 88.8864 72.8715 89.0558 72.7336 89.1481C72.547 89.273 72.318 89.3087 71.8381 89.2874C71.3746 89.2667 71.1535 89.299 71.0515 89.4018C70.9736 89.4806 70.8019 89.5798 70.6699 89.6223C70.538 89.6647 70.2102 89.696 69.9414 89.6918C69.6725 89.6876 69.3518 89.7044 69.2286 89.7292C69.1055 89.754 69.0311 89.8173 69.0633 89.87C69.0956 89.9227 69.0842 89.9659 69.038 89.9659C68.9919 89.9659 68.9035 89.9148 68.8417 89.8525C68.7572 89.7671 68.6738 89.776 68.504 89.8883C68.3434 89.9946 68.0841 90.0284 67.6026 90.0061C67.2309 89.989 66.8793 90.0061 66.8211 90.0444C66.7631 90.0826 66.5616 90.1202 66.3734 90.1278C66.1852 90.1355 65.6625 90.1756 65.2118 90.2168C64.5336 90.279 64.3842 90.3234 64.3451 90.4743C64.3191 90.5746 64.2643 90.6567 64.2234 90.6567C64.1825 90.6567 64.0887 90.5676 64.0149 90.4586C63.8923 90.2775 63.8311 90.2688 63.3018 90.3576C62.9834 90.4109 62.6252 90.4298 62.5059 90.3995C62.3865 90.3693 62.1544 90.4148 61.9899 90.5007C61.7871 90.6066 61.4275 90.6567 60.8709 90.6567C60.4197 90.6567 59.8352 90.5913 59.5719 90.5112C59.2849 90.424 58.9363 90.3897 58.7011 90.4257C58.4853 90.4586 58.24 90.5458 58.1558 90.6193C58.0717 90.6928 57.8517 90.7762 57.6671 90.8045C57.3407 90.8546 57.3388 90.853 57.6002 90.7481C57.7481 90.6888 57.869 90.5773 57.869 90.5005C57.869 90.4179 57.771 90.3606 57.6295 90.3606C57.4978 90.3606 57.3413 90.4384 57.2817 90.5333C57.2043 90.6568 57.1588 90.6709 57.1221 90.5829C57.0894 90.5043 56.98 90.4827 56.8199 90.5233C56.6477 90.5669 56.5902 90.5523 56.6366 90.4766C56.6769 90.4107 56.606 90.3416 56.4598 90.3046C56.3255 90.2705 56.1626 90.2605 56.0978 90.2824C56.0329 90.3042 55.969 90.3973 55.9556 90.4893C55.9354 90.6288 56.0179 90.6567 56.4498 90.6567C56.8047 90.6567 56.985 90.7004 57.021 90.7952C57.05 90.8713 57.0511 91.0206 57.0237 91.1267C56.9816 91.289 57.0387 91.3303 57.3819 91.3857C57.6064 91.4219 57.9508 91.4232 58.1472 91.3885C58.3437 91.3537 58.5993 91.2654 58.7154 91.1921C58.8887 91.0826 58.9453 91.0817 59.0323 91.1875C59.0904 91.2584 59.1102 91.3446 59.0761 91.3789C59.0419 91.4133 59.0927 91.4721 59.1888 91.5093C59.3031 91.5536 59.4089 91.5144 59.4945 91.3962C59.6155 91.2291 59.6387 91.2275 59.8003 91.3752C59.9499 91.5118 60.1547 91.5263 61.2196 91.4755C62.0839 91.4343 62.4975 91.3755 62.5734 91.2832C62.6336 91.21 62.8043 91.1501 62.9528 91.1501C63.133 91.1501 63.2762 91.068 63.383 90.9034C63.4711 90.7677 63.6056 90.6567 63.6819 90.6567C63.7729 90.6567 63.8062 90.7326 63.7785 90.8775C63.7553 90.9988 63.6419 91.1702 63.5265 91.2581C63.3849 91.3659 63.3529 91.4407 63.4282 91.4877C63.4897 91.526 63.5664 91.488 63.5986 91.4031C63.6309 91.3183 63.7379 91.2488 63.8366 91.2488C63.9352 91.2488 64.043 91.2932 64.0762 91.3475C64.1095 91.4018 64.376 91.4462 64.6685 91.4462C64.9611 91.4462 65.2004 91.4018 65.2004 91.3475C65.2004 91.2932 65.2796 91.2488 65.3763 91.2488C65.4731 91.2488 65.6016 91.2986 65.6617 91.3593C65.7424 91.4408 65.8952 91.4397 66.2442 91.3551C66.5044 91.2922 66.8929 91.2456 67.1074 91.2518C67.322 91.2579 67.7395 91.2417 68.0352 91.2157C68.3309 91.1896 68.9687 91.1273 69.4526 91.0773C69.9365 91.0273 70.4423 90.9232 70.5767 90.8462C70.7111 90.7691 70.9311 90.6085 71.0655 90.4894C71.2793 90.2999 71.3895 90.2791 71.9453 90.3228C72.2947 90.3504 72.8006 90.3742 73.0694 90.376C73.3382 90.3778 73.7286 90.3474 73.937 90.3083C74.1838 90.2621 74.3323 90.1745 74.3628 90.0568C74.3885 89.9576 74.5149 89.8067 74.6436 89.7215C74.7724 89.6362 74.8778 89.5973 74.8778 89.635C74.8778 89.6727 74.8015 89.7888 74.7081 89.8929C74.5428 90.0773 74.5486 90.0804 74.9281 90.0137C75.1423 89.9761 75.6256 89.8596 76.002 89.7548C76.3783 89.6499 76.9197 89.496 77.2051 89.4127C77.4904 89.3295 77.7491 89.1953 77.7798 89.1145C77.8105 89.0337 77.8972 88.9915 77.9725 89.0207C78.0478 89.0498 78.2731 89.0124 78.4731 88.9375C78.6731 88.8625 79.0347 88.7492 79.2766 88.6856C79.5186 88.6221 79.8265 88.478 79.9609 88.3655C80.1205 88.2318 80.163 88.1458 80.0831 88.1176C80.0159 88.0938 79.9609 88.0327 79.9609 87.982C79.9609 87.9312 80.0766 87.9189 80.218 87.9548C80.4126 88.0041 80.4642 87.9865 80.4302 87.8826C80.3998 87.7897 80.1903 87.7359 79.7822 87.7159C79.2259 87.6889 79.1675 87.664 79.0298 87.3952C78.9478 87.235 78.8624 87.1038 78.84 87.1038C78.8177 87.1038 78.7649 87.1594 78.7228 87.2272ZM81.4761 87.3012C81.5093 87.3555 81.4678 87.3999 81.3841 87.3999C81.3003 87.3999 81.2317 87.3555 81.2317 87.3012C81.2317 87.2469 81.273 87.2025 81.3237 87.2025C81.3743 87.2025 81.4428 87.2469 81.4761 87.3012ZM44.5685 87.918C44.5651 87.9316 44.5482 88.087 44.531 88.2635C44.5138 88.4399 44.5099 88.5842 44.5223 88.5842C44.5346 88.5842 44.6835 88.5143 44.853 88.429C45.0226 88.3435 45.1613 88.234 45.1613 88.1857C45.1613 88.1373 45.0762 88.0518 44.9722 87.9955C44.8682 87.9393 44.7363 87.8934 44.679 87.8934C44.6217 87.8934 44.5719 87.9044 44.5685 87.918ZM45.1808 88.3079C45.1163 88.373 45.0635 88.4847 45.0635 88.5562C45.0635 88.6276 45.2285 88.7569 45.4301 88.8435C45.6318 88.93 45.9372 89.0682 46.109 89.1506C46.2808 89.2329 46.4897 89.2738 46.5733 89.2414C46.6569 89.209 46.7253 89.1353 46.7253 89.0775C46.7253 89.0198 46.6264 88.9354 46.5054 88.89C46.3844 88.8446 46.2254 88.8306 46.152 88.8588C46.055 88.8961 46.036 88.8545 46.0824 88.707C46.1329 88.5461 46.0811 88.4709 45.8342 88.3465C45.6627 88.2602 45.4718 88.1894 45.4102 88.1894C45.3486 88.1894 45.2454 88.2427 45.1808 88.3079ZM45.6501 88.4855C45.6501 88.5398 45.6034 88.5842 45.5465 88.5842C45.4896 88.5842 45.4702 88.5398 45.5034 88.4855C45.5367 88.4312 45.5832 88.3868 45.6069 88.3868C45.6307 88.3868 45.6501 88.4312 45.6501 88.4855ZM46.3832 88.5842C46.35 88.6385 46.3939 88.6829 46.4809 88.6829C46.5679 88.6829 46.6119 88.6385 46.5787 88.5842C46.5455 88.5299 46.5015 88.4855 46.4809 88.4855C46.4604 88.4855 46.4164 88.5299 46.3832 88.5842ZM46.7253 88.6655C46.7253 88.7229 46.7695 88.7975 46.8235 88.8311C46.8774 88.8648 46.8954 88.9974 46.8634 89.1259C46.8165 89.315 46.862 89.389 47.1026 89.5146C47.2661 89.5999 47.5086 89.6698 47.6414 89.6698C47.7744 89.6698 48.2711 89.803 48.7453 89.9659C49.2195 90.1287 49.6378 90.2619 49.675 90.2619C49.7121 90.2619 49.7704 90.1731 49.8045 90.0645C49.8386 89.956 49.9311 89.8672 50.0101 89.8672C50.1236 89.8672 50.1315 89.9086 50.0481 90.066C49.9637 90.2251 49.9755 90.2775 50.1065 90.3283C50.1966 90.3632 50.3518 90.3404 50.4515 90.2775C50.5512 90.2147 50.7386 90.1632 50.8679 90.1632C50.9974 90.1632 51.1301 90.0926 51.1629 90.0063C51.1957 89.92 51.1994 89.8115 51.1711 89.7653C51.1427 89.719 50.9116 89.6508 50.6576 89.6137C50.4034 89.5765 50.1515 89.5115 50.0978 89.469C50.044 89.4266 49.7379 89.3432 49.4176 89.2837C48.9156 89.1904 48.8234 89.197 48.7492 89.3308C48.6719 89.47 48.6501 89.4684 48.5387 89.3146C48.4704 89.2202 48.1113 89.038 47.741 88.9098C47.3705 88.7815 46.9904 88.6505 46.8964 88.6188C46.8023 88.5872 46.7253 88.6082 46.7253 88.6655ZM77.041 89.0057C76.982 89.0652 76.9049 89.0845 76.8694 89.0487C76.834 89.013 76.8646 88.9111 76.9375 88.8225C77.0291 88.711 77.0821 88.6977 77.1091 88.7794C77.1305 88.8443 77.0999 88.9462 77.041 89.0057ZM51.6781 89.933C51.6422 89.9691 51.6129 90.0532 51.6129 90.1198C51.6129 90.1863 51.6845 90.2685 51.7719 90.3024C51.8593 90.3363 51.9913 90.3134 52.0652 90.2516C52.139 90.1897 52.1994 90.0779 52.1994 90.0032C52.1994 89.9265 52.0999 89.8672 51.9714 89.8672C51.8458 89.8672 51.7139 89.8968 51.6781 89.933ZM52.5529 90.3029C52.454 90.4882 52.4014 90.6861 52.436 90.7426C52.4706 90.7992 52.564 90.8202 52.6437 90.7893C52.7233 90.7585 52.8453 90.7809 52.9147 90.8391C52.9842 90.8973 53.4032 90.9755 53.8459 91.0127C54.4106 91.0602 54.7671 91.0418 55.0399 90.9509C55.3807 90.8373 55.4437 90.8409 55.5492 90.9808C55.6438 91.1061 55.7428 91.1223 56.0117 91.0566L56.3539 90.973L56.0606 90.9488C55.7922 90.9268 55.8005 90.9187 56.1584 90.8541L56.5494 90.7834L56.1458 90.7694C55.9216 90.7616 55.6884 90.6897 55.6207 90.6073C55.5538 90.5259 55.4431 90.4593 55.3749 90.4593C55.3065 90.4593 55.228 90.3996 55.2002 90.3267C55.1659 90.2364 54.7941 90.1576 54.0355 90.0799C53.4226 90.0172 52.8787 89.9659 52.8269 89.9659C52.7751 89.9659 52.6517 90.1175 52.5529 90.3029ZM55.0831 90.4593C55.0499 90.5136 54.9813 90.558 54.9307 90.558C54.8801 90.558 54.8387 90.5136 54.8387 90.4593C54.8387 90.405 54.9073 90.3606 54.9911 90.3606C55.0749 90.3606 55.1163 90.405 55.0831 90.4593ZM58.9544 90.8833C58.8969 90.9414 58.8227 90.9615 58.7895 90.9281C58.7563 90.8946 58.7587 90.8191 58.7946 90.7603C58.8306 90.7016 58.9048 90.6815 58.9595 90.7156C59.0263 90.7572 59.0246 90.8124 58.9544 90.8833ZM57.5432 91.0186C57.5073 91.0547 57.4487 91.0547 57.4128 91.0186C57.377 90.9824 57.4064 90.9528 57.478 90.9528C57.5497 90.9528 57.579 90.9824 57.5432 91.0186ZM65.5649 91.1111C65.5325 91.1438 65.4481 91.1474 65.3776 91.1189C65.2996 91.0874 65.3228 91.064 65.4367 91.0592C65.5397 91.055 65.5974 91.0783 65.5649 91.1111Z" fill="#BF0F80"/>
</g>
</svg>
