<svg width="100" height="103" viewBox="0 0 100 103" fill="none" xmlns="http://www.w3.org/2000/svg">
<g opacity="0.4">
<path opacity="0.3" d="M31.6033 73.8084L34.1207 75.4854L40.3321 69.4582L41.4514 67.7836L43.131 61.6417L44.3636 51.8139L45.3714 47.4028L49.7352 48.8576L54.3785 51.7087L57.511 55.7316L56.4477 56.9594L53.314 60.1964L49.061 65.108L45.2556 70.0757L43.8549 81.2437L45.6452 81.4682L49.2272 74.6575L52.8645 71.03L55.7181 70.0266L60.5862 67.4609L64.6151 64.3363L67.9169 59.7591L69.4284 54.9575L69.3176 48.5911L67.3044 42.8936L64.284 37.9773L60.2003 34.2889L54.4377 33.1125L46.6607 33.4983L41.4011 35.5611L37.6517 40.0821L35.133 45.665L34.4046 51.4723L34.963 57.8948L35.6895 62.9772L34.8497 66.0481L31.8834 71.5748L31.6033 73.8084Z" fill="#BF0F80"/>
<path fill-rule="evenodd" clip-rule="evenodd" d="M82.157 15.7515C81.8792 15.7598 81.8118 15.7991 81.7439 15.9928C81.695 16.1322 81.4345 16.4251 81.0888 16.7294C80.7731 17.0072 80.3237 17.3703 80.09 17.5362C79.8564 17.702 79.4081 18.0703 79.0938 18.3544C78.7796 18.6386 78.3859 19.0393 78.2189 19.2448C78.0519 19.4503 77.7528 19.7749 77.5542 19.9662C77.3556 20.1575 76.9273 20.483 76.6025 20.6895C76.2776 20.8959 75.8632 21.2424 75.6814 21.4595C75.4996 21.6765 75.1807 21.9497 74.9728 22.0665C74.7648 22.1833 74.5598 22.3366 74.5172 22.4071C74.4745 22.4777 74.218 22.6879 73.9469 22.8741C73.6759 23.0604 73.2975 23.3464 73.1059 23.5095C72.9143 23.6727 72.6084 23.9442 72.4262 24.1129C72.2265 24.2979 71.7681 24.9259 71.2723 25.6938C70.8199 26.3945 70.3825 27.0815 70.3002 27.2205C70.2054 27.3803 70.1797 27.5405 70.23 27.6572C70.2736 27.7585 70.3552 27.8687 70.4112 27.902C70.4672 27.9352 70.7674 27.8984 71.0785 27.8201C71.3896 27.7417 71.7402 27.5988 71.8577 27.5024C71.9751 27.406 72.1808 27.2304 72.3147 27.1121C72.4486 26.9938 72.5854 26.8515 72.6185 26.7956C72.6517 26.7398 72.8262 26.5974 73.0062 26.4791C73.1862 26.3608 73.5194 26.1025 73.7466 25.9051C73.9739 25.7078 74.3436 25.396 74.5683 25.2123C74.7929 25.0286 75.0559 24.7451 75.1527 24.5822C75.2495 24.4193 75.4054 24.2274 75.499 24.1559C75.5926 24.0843 75.8928 23.8185 76.1659 23.5653C76.439 23.3121 76.7666 23.0307 76.8937 22.9401C77.0209 22.8494 77.2031 22.6966 77.2987 22.6006C77.3942 22.5044 77.5133 22.4253 77.5634 22.4246C77.6135 22.4239 77.7153 22.3209 77.7897 22.1957C77.8641 22.0706 78.065 21.8414 78.2363 21.6863C78.4075 21.5313 78.7884 21.1624 79.0829 20.8665C79.3774 20.5705 79.737 20.1949 79.8822 20.0319C80.0274 19.8688 80.3495 19.5616 80.598 19.3492C80.8465 19.1367 81.0957 18.9448 81.1517 18.9227C81.2077 18.9006 81.3395 18.7855 81.4446 18.6669C81.5496 18.5484 81.8304 18.3173 82.0687 18.1535C82.3881 17.9338 82.5763 17.7303 82.7853 17.3787C82.9411 17.1165 83.0866 16.7976 83.1085 16.6699C83.1321 16.5329 83.0638 16.325 82.9415 16.1612C82.8278 16.009 82.6793 15.8522 82.6118 15.813C82.5442 15.7737 82.3395 15.746 82.157 15.7515ZM54.3722 0.162278C54.3121 0.209421 54.2446 0.444079 54.222 0.683829C54.1995 0.923506 54.2055 1.18736 54.2352 1.27011C54.265 1.35282 54.2602 1.4697 54.2244 1.52993C54.1886 1.59008 54.1762 1.76466 54.1969 1.9178C54.2176 2.071 54.2173 2.22527 54.1962 2.2607C54.1752 2.29614 54.0756 2.27612 53.9748 2.21622C53.874 2.15632 53.7506 2.12859 53.7003 2.15453C53.6501 2.18059 53.6105 2.56695 53.6122 3.01325C53.614 3.45947 53.6704 4.10209 53.7376 4.44133C53.8048 4.78048 53.8744 5.30036 53.8922 5.5967C53.9099 5.89292 53.9125 6.15532 53.898 6.17974C53.8836 6.20408 53.8817 6.41381 53.8939 6.64563C53.9061 6.87751 53.9952 7.36355 54.0919 7.72575C54.1886 8.08796 54.2885 8.62337 54.3141 8.9156C54.3397 9.20783 54.3596 9.71091 54.3584 10.0335C54.3573 10.3561 54.3574 10.6962 54.3586 10.7892C54.3599 10.8822 54.3611 11.185 54.3612 11.4621C54.3612 11.7391 54.3885 12.2882 54.4217 12.6822C54.455 13.0761 54.4684 13.424 54.4515 13.4554C54.4346 13.4867 54.4877 13.824 54.5693 14.205C54.6509 14.586 54.7342 15.1114 54.7543 15.3727C54.7744 15.634 54.856 16.1851 54.9356 16.5973C55.0152 17.0096 55.0649 17.373 55.0459 17.4051C55.0268 17.4371 55.0424 17.6464 55.0803 17.8702C55.1183 18.0941 55.2092 18.5753 55.2824 18.9398C55.412 19.5853 55.424 19.6057 55.7448 19.7317C55.926 19.8029 56.1516 19.8655 56.2461 19.8708C56.3439 19.8762 56.4687 19.7953 56.5353 19.6832C56.5998 19.5748 56.6637 19.2942 56.6773 19.0599C56.6909 18.8255 56.7133 18.4505 56.727 18.2265C56.7499 17.8531 56.7709 17.8089 56.9799 17.6937C57.1951 17.5751 57.2054 17.5426 57.1642 17.1082C57.1402 16.8551 57.1549 16.5903 57.197 16.5195C57.2391 16.4488 57.2482 16.3209 57.2175 16.2355C57.1866 16.15 57.1813 15.994 57.2058 15.8888C57.2301 15.7836 57.2321 15.5467 57.2102 15.3622C57.1882 15.1776 57.1939 14.9869 57.2228 14.9384C57.2517 14.8898 57.1218 14.2955 56.9341 13.6178C56.7465 12.9401 56.455 11.8687 56.2863 11.2368C56.1111 10.5803 56.0034 9.95518 56.0351 9.77791C56.0656 9.60734 56.1032 9.33925 56.1187 9.18221C56.134 9.02512 56.1421 8.71257 56.1364 8.4876C56.1309 8.26268 56.1392 7.95031 56.1551 7.79354C56.171 7.63672 56.1543 7.06013 56.118 6.51221C56.0817 5.96428 56.04 5.33825 56.0251 5.1211C56.0103 4.90388 55.9566 4.42438 55.9057 4.05535C55.8549 3.68643 55.7679 3.13718 55.7125 2.83479C55.6571 2.53248 55.585 2.0275 55.5521 1.7127C55.5193 1.39787 55.4422 1.03843 55.3809 0.913918C55.3194 0.78943 55.0919 0.550063 54.8752 0.382081C54.558 0.136013 54.4601 0.0932543 54.3722 0.162278ZM96.5294 35.3467C96.175 35.2852 95.6124 35.2447 95.279 35.2568C94.9457 35.269 93.8045 35.4974 92.7431 35.7645C91.6818 36.0316 90.5993 36.3412 90.3376 36.4525C90.0759 36.5638 89.3639 36.8207 88.7554 37.0232C88.1468 37.2258 87.323 37.497 86.9247 37.6259C86.5263 37.7548 86.0863 37.9013 85.9469 37.9514C85.8074 38.0015 85.3169 38.1815 84.8568 38.3513C84.3967 38.5211 83.4255 38.8452 82.6986 39.0716C81.9717 39.298 80.8043 39.6922 80.1046 39.9476C79.4048 40.203 78.6187 40.4682 78.3579 40.5369C78.0971 40.6057 77.8708 40.6836 77.855 40.7102C77.8392 40.7367 77.5434 40.8883 77.1977 41.0471C76.8521 41.2058 76.5531 41.3629 76.5333 41.3961C76.5135 41.4293 76.6168 41.6263 76.7627 41.8337C76.9086 42.0411 77.1062 42.2573 77.2019 42.3142C77.326 42.3879 77.9555 42.278 79.3964 41.931C80.5077 41.6635 81.7166 41.3681 82.0829 41.2746C82.4492 41.1812 83.347 40.944 84.0782 40.7475C84.8093 40.5511 85.7008 40.3382 86.0591 40.2744C86.4175 40.2105 86.735 40.1184 86.7648 40.0696C86.7945 40.0207 86.8835 39.9827 86.9626 39.985C87.0416 39.9873 87.5113 39.9082 88.0064 39.8092C88.5014 39.7102 89.1385 39.5849 89.4221 39.5306C89.7057 39.4763 90.3482 39.4333 90.8499 39.435C91.5349 39.4372 92.084 39.3537 93.0548 39.0998C93.7657 38.9139 94.3685 38.7262 94.3944 38.6826C94.4203 38.6391 94.6134 38.5424 94.8235 38.4678C95.0542 38.3859 95.3019 38.2147 95.4489 38.0358C95.5827 37.8728 95.7909 37.7075 95.9117 37.6684C96.0324 37.6293 96.2041 37.5501 96.2933 37.4923C96.3825 37.4345 96.6234 37.1982 96.8287 36.9671C97.034 36.7362 97.3273 36.4638 97.4805 36.3621C97.7522 36.1815 97.7568 36.1711 97.6671 35.9311C97.6164 35.7959 97.4848 35.6342 97.3745 35.5718C97.2641 35.5096 96.8838 35.4082 96.5294 35.3467ZM23.0812 8.39387C23.0315 8.38349 22.4564 8.12702 21.8031 7.82388C21.1498 7.52081 20.5919 7.27875 20.5631 7.28594C20.5344 7.29313 20.5227 7.43591 20.5372 7.60328C20.5517 7.77057 20.6683 8.06329 20.7964 8.25375C20.9243 8.44425 21.2071 8.76193 21.4247 8.95973C21.6422 9.15754 21.9932 9.45682 22.2047 9.62472C22.4162 9.79262 22.6409 10.015 22.7041 10.1189C22.7673 10.2229 23.0268 10.4726 23.2808 10.6739C23.5348 10.8753 23.8649 11.1418 24.0144 11.2662C24.1639 11.3906 24.3052 11.5372 24.3284 11.5921C24.3517 11.6469 24.4737 11.7826 24.5995 11.8936C24.7254 12.0046 24.8552 12.1706 24.8879 12.2627C24.9206 12.3548 25.0606 12.5473 25.1989 12.6905C25.3373 12.8336 25.6574 13.1407 25.9103 13.373C26.1633 13.6052 26.522 13.9628 26.7075 14.1676C26.8929 14.3724 27.2882 14.7453 27.586 14.9962C27.8836 15.2471 28.2749 15.5883 28.4555 15.7544C28.636 15.9205 29.0536 16.2858 29.3835 16.5662C29.7132 16.8466 30.0006 17.1095 30.0222 17.1504C30.0437 17.1912 30.2562 17.3805 30.4944 17.5709C30.7326 17.7614 31.1882 18.1666 31.5068 18.4715C31.8255 18.7764 32.2231 19.107 32.3903 19.2062C32.5999 19.3304 32.8653 19.3862 33.2428 19.3854C33.5443 19.3848 33.8632 19.3478 33.9512 19.3032C34.067 19.2446 34.1103 19.1725 34.1071 19.0433C34.1048 18.9449 33.8978 18.626 33.6472 18.3346C33.3966 18.0432 33.1663 17.7459 33.1355 17.6738C33.1046 17.6018 32.9145 17.3591 32.7129 17.1344C32.5113 16.9097 32.3266 16.6823 32.3025 16.6288C32.2784 16.5755 32.1202 16.4187 31.9511 16.2803C31.782 16.142 31.5587 15.941 31.455 15.8337C31.3512 15.7263 30.9736 15.362 30.616 15.024C30.2584 14.6859 29.947 14.3641 29.9239 14.3089C29.9009 14.2537 29.6256 13.9612 29.3121 13.6589C28.9985 13.3567 28.5896 13.0188 28.4032 12.908C28.2168 12.7973 27.8644 12.4928 27.62 12.2315C27.3757 11.9702 27.0761 11.6166 26.9543 11.4456C26.8325 11.2746 26.3195 10.7922 25.8144 10.3735C25.3092 9.95481 24.687 9.46392 24.4317 9.28258C24.1764 9.10132 23.7884 8.83143 23.5695 8.68289C23.3506 8.53435 23.1308 8.40434 23.0812 8.39387ZM59.4399 34.0185C59.1575 33.9298 58.8024 33.7862 58.6508 33.6998C58.4992 33.6132 58.1632 33.4864 57.9043 33.4181C57.6452 33.3498 57.2478 33.2496 57.0212 33.1955C56.7945 33.1413 56.5512 33.0627 56.4806 33.0208C56.4099 32.9788 56.2352 32.937 56.0923 32.9279C55.9495 32.9188 55.2088 32.8462 54.4464 32.7663C53.6839 32.6866 52.9714 32.6167 52.8631 32.6109C52.7548 32.6052 52.4001 32.5869 52.0749 32.5702C51.7498 32.5534 51.1898 32.5344 50.8307 32.5278C50.4716 32.5212 49.9477 32.5349 49.6665 32.5582C49.3853 32.5816 48.9712 32.5612 48.7462 32.5129C48.5212 32.4646 48.1089 32.4499 47.83 32.4801C47.551 32.5103 46.6574 32.7129 45.844 32.9301C45.0307 33.1474 44.3492 33.3523 44.3294 33.3854C44.3098 33.4185 44.1155 33.5113 43.8979 33.5917C43.6802 33.6721 43.368 33.8125 43.204 33.9038C43.0401 33.995 42.8172 34.1303 42.7086 34.2043C42.6001 34.2783 42.1795 34.5723 41.774 34.8577C41.3684 35.143 40.8838 35.5123 40.697 35.6783C40.5102 35.8443 40.1842 36.1492 39.9726 36.3559C39.761 36.5626 39.2336 37.1784 38.8005 37.7244C38.2547 38.4127 37.7544 39.1525 37.1693 40.1364C36.7052 40.917 36.2511 41.7578 36.1604 42.0048C36.0695 42.2519 35.8182 42.8249 35.6018 43.278C35.3853 43.7311 35.1428 44.2896 35.0628 44.5192C34.9829 44.7487 34.8412 45.2311 34.748 45.5913C34.6548 45.9514 34.5028 46.5864 34.4103 47.0024C34.3178 47.4184 34.186 47.981 34.1175 48.2526C34.0488 48.5242 34.0033 48.8372 34.0162 48.948C34.0292 49.0588 33.9949 49.2274 33.94 49.3226C33.8853 49.4178 33.821 49.7626 33.7974 50.0887C33.7737 50.415 33.7976 50.9366 33.8504 51.248C33.9034 51.5594 33.9589 52.0391 33.9739 52.3139C33.9888 52.5887 33.9905 52.8313 33.9778 52.8528C33.965 52.8743 33.99 53.1782 34.0334 53.528C34.0769 53.8778 34.0965 54.1921 34.0772 54.2263C34.0578 54.2606 34.0666 54.4574 34.0965 54.6636C34.1265 54.87 34.214 55.4134 34.2908 55.8714C34.3677 56.3295 34.4112 56.7367 34.3877 56.7764C34.364 56.8162 34.4369 57.252 34.5497 57.7448C34.6623 58.2377 34.8015 58.9182 34.8587 59.2569C34.916 59.5957 34.9669 60.102 34.9718 60.3819C34.9768 60.6619 34.9623 61.1293 34.9396 61.4205C34.917 61.7118 34.9098 62.092 34.9239 62.2654C34.9378 62.4388 34.9487 62.6719 34.9481 62.7834C34.9473 62.895 34.9284 63.2538 34.9058 63.5807C34.8832 63.9077 34.8244 64.2431 34.7751 64.326C34.7258 64.409 34.61 64.719 34.5178 65.015C34.4256 65.311 34.2905 65.7443 34.2177 65.9781C34.1448 66.2118 34.0142 66.5422 33.9273 66.7122C33.8406 66.8822 33.4232 67.6461 33.0001 68.4097C32.5769 69.1733 32.2315 69.8397 32.2326 69.8907C32.2337 69.9417 32.157 70.0298 32.0622 70.0866C31.9674 70.1434 31.8907 70.2248 31.8916 70.2676C31.8925 70.3104 31.7667 70.4816 31.6121 70.6482C31.3739 70.9051 31.3232 71.0181 31.2794 71.3918C31.251 71.6342 31.1942 71.8888 31.1533 71.9577C31.1123 72.0265 31.0898 72.1773 31.1031 72.2928C31.1166 72.4083 31.0603 72.6183 30.9782 72.7593C30.8654 72.9533 30.8579 73.0971 30.9476 73.3483C31.0498 73.6345 31.0375 73.7264 30.86 74.0088C30.7465 74.1892 30.462 74.6536 30.2278 75.041C29.8874 75.6038 29.7897 75.8389 29.7412 76.2125C29.7079 76.4695 29.7071 76.7983 29.7395 76.9429C29.7819 77.132 29.7345 77.3303 29.5709 77.6487C29.4458 77.8922 29.1577 78.3433 28.9307 78.6513L28.5178 79.2112L28.1569 79.1751C27.9584 79.1553 27.6894 79.1657 27.5592 79.1983C27.4289 79.2309 27.3025 79.291 27.2782 79.332C27.2538 79.3729 27.3142 79.4541 27.4124 79.5125C27.5104 79.5708 27.6029 79.6937 27.6178 79.7857C27.6327 79.8776 27.703 79.9874 27.7741 80.0297C27.8452 80.072 27.9238 80.2055 27.9487 80.3264C27.9903 80.528 27.9754 80.5554 27.7703 80.6546C27.5747 80.7493 27.4945 80.8753 27.1336 81.6541C26.7853 82.4055 26.6978 82.5457 26.576 82.5479C26.4965 82.5493 26.2243 82.4572 25.971 82.343C25.7176 82.2288 25.4986 82.1566 25.4843 82.1824C25.4699 82.2083 25.5225 82.408 25.6012 82.6264C25.68 82.8447 25.844 83.1439 25.9658 83.2914C26.1745 83.5442 26.1765 83.5795 26.0004 83.9068C25.8976 84.0978 25.7582 84.3344 25.6905 84.4327C25.6229 84.531 25.4882 84.7324 25.3913 84.8802C25.2428 85.1064 25.1506 85.1517 24.808 85.167C24.5841 85.177 24.2975 85.1669 24.171 85.1445C23.9879 85.112 23.9397 85.1389 23.934 85.277C23.9292 85.392 24.078 85.5835 24.3764 85.8465C24.6237 86.0644 24.8443 86.2773 24.8666 86.3197C24.8889 86.3621 24.8626 86.4718 24.808 86.5636C24.7535 86.6554 24.7236 86.7876 24.7417 86.8575C24.7598 86.9272 24.6537 87.2019 24.5059 87.4678L24.2372 87.9512L23.7014 87.9129C23.4067 87.8918 23.139 87.897 23.1066 87.9243C23.0741 87.9516 23.0971 88.0282 23.1576 88.0947C23.2182 88.1611 23.4263 88.4099 23.6202 88.6476C23.8141 88.8852 23.9969 89.143 24.0266 89.2203C24.0563 89.2976 24.0648 89.4529 24.0454 89.5656C24.0261 89.6781 24.0696 89.8851 24.1422 90.0255C24.2148 90.166 24.3321 90.4562 24.4028 90.6705C24.4735 90.8848 24.664 91.1987 24.8262 91.368C25.0885 91.642 25.1198 91.7378 25.1105 92.2358C25.1048 92.5438 25.1919 93.1305 25.3042 93.5396C25.4164 93.9487 25.6195 94.4507 25.7556 94.6553C25.8916 94.8598 26.125 95.1368 26.2743 95.271C26.4236 95.4052 27.1113 95.8782 27.8025 96.3221C28.8476 96.9932 29.0887 97.1219 29.2334 97.0857C29.329 97.0618 29.6224 97.1371 29.8853 97.2531C30.2875 97.4305 30.4661 97.4508 31.0109 97.3811C31.367 97.3355 31.7344 97.2526 31.8271 97.1969C31.9199 97.1413 32.1102 97.0409 32.2501 96.9738C32.3899 96.9068 32.5325 96.8045 32.567 96.7464C32.6015 96.6884 32.7052 96.6293 32.7974 96.6151C32.9116 96.5976 33.0479 96.4499 33.2251 96.1518C33.416 95.8305 33.5125 95.7305 33.5882 95.7755C33.6448 95.8091 33.8907 95.8614 34.1344 95.8914C34.3847 95.9223 34.9552 95.8557 35.445 95.7385C35.9536 95.6168 36.4564 95.4289 36.6605 95.2845C36.8903 95.1217 37.1719 94.7983 37.4896 94.3327C37.9411 93.671 37.9896 93.6251 38.2742 93.5904C38.4411 93.5701 38.757 93.5012 38.9761 93.4374C39.1953 93.3736 39.4042 93.2709 39.4403 93.2092C39.4763 93.1476 39.5035 93.0277 39.5006 92.9429C39.4967 92.8288 39.3527 92.7039 38.949 92.4639L38.4026 92.1392L38.7707 91.5199L39.1388 90.9006L39.6355 91.0046C39.9087 91.0618 40.2038 91.1497 40.2913 91.1999C40.3788 91.2501 40.5787 91.3176 40.7354 91.3499C40.9393 91.3919 41.0481 91.3618 41.1183 91.2437C41.1721 91.153 41.1756 90.9357 41.1259 90.7609C41.0762 90.586 40.9647 90.3544 40.8779 90.2462C40.7911 90.138 40.5343 89.9667 40.3072 89.8655C40.006 89.7312 39.8935 89.6444 39.8915 89.5447C39.8899 89.4694 40.0272 89.2016 40.1967 88.9496C40.3662 88.6974 40.574 88.4669 40.6586 88.4372C40.743 88.4075 40.8692 88.4171 40.939 88.4586C41.0087 88.5 41.2496 88.5504 41.4744 88.5706C41.699 88.5907 41.9328 88.568 41.9937 88.5202C42.0546 88.4724 42.115 88.3339 42.1278 88.2125C42.1472 88.0298 42.0781 87.9359 41.7268 87.6684C41.4934 87.4906 41.3015 87.3006 41.3003 87.2462C41.2992 87.1918 41.3982 86.9378 41.5204 86.6816L41.7426 86.2159L42.2714 86.1188C42.5621 86.0654 42.8248 85.9802 42.8551 85.9294C42.8852 85.8786 42.8743 85.724 42.8307 85.5859C42.7872 85.4478 42.7046 85.2789 42.6475 85.2107C42.5651 85.1126 42.5952 84.9997 42.7911 84.6701C42.9273 84.4409 43.1219 84.2038 43.2236 84.1432C43.3252 84.0826 43.5033 83.9307 43.6192 83.8057C43.7352 83.6807 43.9774 83.462 44.1573 83.3196C44.3372 83.1772 44.6634 82.8154 44.882 82.5155C45.1359 82.1674 45.3536 81.9478 45.4839 81.9082C45.6363 81.8619 45.7744 81.7009 46.0281 81.2741C46.2151 80.9594 46.366 80.6193 46.3634 80.5181C46.3598 80.3765 46.4176 80.2976 46.6139 80.1762C46.8239 80.0463 46.963 79.8438 47.3968 79.0359C47.687 78.4955 48.0339 77.8465 48.1676 77.5935C48.3012 77.3405 48.6514 76.71 48.9456 76.1922C49.2399 75.6746 49.6981 74.9723 49.9639 74.6316C50.2298 74.2909 50.637 73.8077 50.869 73.5577C51.1009 73.3078 51.3404 73.0194 51.4014 72.9169C51.4622 72.8144 51.8112 72.4496 52.1768 72.1063C52.5424 71.763 52.955 71.4271 53.0937 71.36C53.2324 71.2928 53.4559 71.1751 53.5903 71.0982C53.7247 71.0215 54.0177 70.8701 54.2415 70.7619C54.4652 70.6538 54.8061 70.5232 54.9991 70.4717C55.1921 70.4202 55.5391 70.3091 55.77 70.2247C56.001 70.1403 56.2829 70.0184 56.3964 69.9536C56.51 69.8888 56.7428 69.7552 56.9138 69.6566C57.0847 69.5581 57.2776 69.4581 57.3425 69.4345C57.4073 69.4109 58.0862 68.9984 58.8513 68.518C59.6163 68.0375 60.321 67.6196 60.4172 67.5892C60.5134 67.5589 60.6116 67.5014 60.6353 67.4615C60.6591 67.4214 60.8318 67.3248 61.019 67.2468C61.2063 67.1687 61.4787 66.9931 61.6243 66.8565C61.77 66.72 61.8988 66.5762 61.9107 66.5369C61.9225 66.4977 62.0985 66.4124 62.3017 66.3473C62.5421 66.2702 62.7913 66.0979 63.0151 65.8541C63.2044 65.6479 63.4174 65.4431 63.4886 65.3991C63.5598 65.355 63.7443 65.2284 63.8985 65.1177C64.0527 65.0071 64.236 64.8214 64.3058 64.705C64.3756 64.5887 64.5921 64.3389 64.7869 64.1499C64.9817 63.9609 65.215 63.6829 65.3052 63.532C65.3956 63.3812 65.5106 63.2572 65.561 63.2565C65.6114 63.2558 65.7451 63.14 65.8582 62.9991C65.9713 62.8582 66.3447 62.3885 66.6879 61.9553C67.0313 61.5222 67.5621 60.7497 67.8676 60.2387C68.2216 59.6465 68.4711 59.1372 68.5555 58.8343C68.6284 58.5729 68.796 58.1765 68.9279 57.9535C69.0598 57.7304 69.2514 57.323 69.3536 57.048C69.4559 56.773 69.578 56.3442 69.6249 56.0951C69.6718 55.8459 69.7528 55.4407 69.8048 55.1946C69.8568 54.9485 69.9047 54.63 69.9113 54.4868C69.9178 54.3436 69.9555 54.1721 69.995 54.1056C70.0345 54.0392 70.0833 53.5992 70.1035 53.128C70.1237 52.6566 70.0974 51.9736 70.0451 51.61C69.9927 51.2465 69.9188 50.7719 69.8809 50.5554C69.843 50.339 69.7575 49.8575 69.6909 49.4855C69.6243 49.1135 69.3974 48.1644 69.1867 47.3765C68.9759 46.5886 68.7615 45.8491 68.7101 45.7333C68.6586 45.6173 68.4759 45.1175 68.304 44.6224C68.132 44.1273 67.8492 43.4152 67.6754 43.04C67.5016 42.6647 67.2409 42.1038 67.096 41.7937C66.951 41.4834 66.5911 40.8668 66.2961 40.4234C66.0012 39.9799 65.7006 39.5245 65.6283 39.4112C65.5559 39.298 65.2558 38.8983 64.9613 38.5231C64.6668 38.1478 64.1479 37.5216 63.8082 37.1314C63.4685 36.7412 62.9922 36.2555 62.7499 36.0519C62.5075 35.8483 61.7791 35.3439 61.1312 34.9309C60.2572 34.3737 59.8208 34.1383 59.4399 34.0185ZM61.1151 35.984C61.41 36.1686 62.0358 36.6983 62.5678 37.2135C63.0818 37.7113 63.5491 38.2103 63.6061 38.3225C63.6632 38.4346 63.7701 38.5622 63.8437 38.6062C63.9173 38.6501 64.1423 38.9425 64.3438 39.256C64.5452 39.5694 64.7585 39.8548 64.8177 39.8899C64.8769 39.9251 65.0943 40.2173 65.3008 40.5393C65.5073 40.8613 65.7282 41.2129 65.7919 41.3209C65.8555 41.4288 65.9419 41.6344 65.9838 41.7779C66.0257 41.9213 66.1136 42.0705 66.179 42.1094C66.2444 42.1483 66.3981 42.4209 66.5205 42.7153C66.6429 43.0097 66.7688 43.2658 66.8003 43.2846C66.8318 43.3033 66.9643 43.6206 67.0948 43.9898C67.2251 44.3589 67.39 44.7755 67.4609 44.9156C67.5319 45.0558 67.7807 45.8673 68.0139 46.719C68.2472 47.5708 68.4833 48.5758 68.5387 48.9525C68.5941 49.3291 68.6793 49.8715 68.728 50.1578C68.7767 50.4442 68.8223 50.9084 68.8292 51.1896C68.8362 51.4708 68.8122 51.9325 68.7758 52.2156C68.7395 52.4988 68.6861 52.9431 68.6573 53.2029C68.6284 53.4628 68.5418 54.0687 68.4649 54.5494C68.388 55.03 68.2499 55.6959 68.1581 56.0292C68.0661 56.3624 67.8537 56.9388 67.686 57.3101C67.5182 57.6813 67.2746 58.2392 67.1447 58.5498C67.0148 58.8604 66.6082 59.5935 66.2413 60.1788C65.8744 60.7641 65.417 61.4216 65.2249 61.6399C65.0328 61.8581 64.53 62.4206 64.1077 62.8899C63.6853 63.3592 63.1927 63.9277 63.013 64.1533C62.8333 64.379 62.5721 64.6317 62.4326 64.715C62.293 64.7983 62.1448 64.9234 62.1031 64.993C62.0614 65.0626 61.9514 65.1786 61.8588 65.2507C61.7661 65.3229 61.5594 65.4855 61.3994 65.6121C61.2394 65.7386 60.6057 66.2006 59.9913 66.6389C59.2882 67.1403 58.4953 67.6134 57.8519 67.9153C57.2898 68.1792 56.7131 68.4813 56.5704 68.5867C56.4277 68.692 55.9583 68.853 55.5273 68.9446C55.0964 69.0361 54.4909 69.1753 54.1817 69.2539C53.8726 69.3325 53.5018 69.4755 53.3577 69.5716C53.2136 69.6678 52.9678 69.7742 52.8115 69.8082C52.6552 69.8421 52.3847 69.9754 52.2105 70.1043C52.0364 70.2332 51.8246 70.3882 51.74 70.4487C51.6554 70.5093 51.403 70.7446 51.179 70.9716C50.9551 71.1987 50.5741 71.6069 50.3323 71.8787C50.0905 72.1506 49.7509 72.538 49.5776 72.7398C49.4044 72.9416 49.0408 73.3994 48.7696 73.7572C48.436 74.1972 48.2202 74.5577 48.1023 74.8716C48.0065 75.1269 47.7689 75.6037 47.5742 75.9312C47.3796 76.2588 47.0293 76.98 46.7957 77.5337C46.5622 78.0875 46.2196 78.7906 46.0344 79.096C45.8492 79.4015 45.5755 79.8282 45.4262 80.0442L45.1547 80.4369L44.6988 80.1965C44.4481 80.0645 44.2294 79.9041 44.2129 79.8404C44.1964 79.7766 44.2314 79.5795 44.2906 79.4025C44.3498 79.2255 44.4586 78.8898 44.5323 78.6566C44.606 78.4233 44.6551 78.1827 44.6412 78.1219C44.6274 78.0611 44.6538 77.9478 44.7 77.8701C44.7461 77.7926 44.7907 77.6128 44.7992 77.4707C44.8076 77.3286 44.8417 77.07 44.8752 76.896C44.9087 76.7219 44.9805 76.4699 45.0348 76.336C45.089 76.202 45.1455 76.0089 45.1602 75.9069C45.175 75.8048 45.2266 75.4158 45.2748 75.0422C45.3231 74.6688 45.3833 74.3284 45.4086 74.2858C45.4339 74.2432 45.4681 74.026 45.4845 73.803C45.5009 73.5799 45.5759 73.1009 45.651 72.7386C45.7261 72.3762 45.8017 71.8719 45.8189 71.6179C45.836 71.3638 45.8227 71.08 45.7892 70.987C45.7558 70.8941 45.7383 70.6396 45.7504 70.4215C45.7691 70.0833 45.8581 69.8753 46.3541 69.0106C46.674 68.4527 47.0853 67.8132 47.2682 67.5895C47.4511 67.3657 47.7557 66.9575 47.9453 66.6823C48.1348 66.407 48.3702 66.0936 48.4684 65.9858C48.5666 65.8779 48.8261 65.5562 49.0451 65.2708C49.2641 64.9854 49.5653 64.6204 49.7144 64.4597C49.8636 64.299 50.1545 63.996 50.361 63.7862C50.5675 63.5765 50.8735 63.2265 51.041 63.0083C51.2086 62.7902 51.3824 62.6112 51.4274 62.6106C51.4724 62.61 51.6303 62.4564 51.7782 62.2693C51.9262 62.0822 52.1626 61.844 52.3036 61.7399C52.4446 61.6358 52.6865 61.3906 52.8412 61.195C52.9959 60.9994 53.1625 60.8388 53.2114 60.8382C53.2603 60.8374 53.3579 60.74 53.4283 60.6215C53.4988 60.5029 53.632 60.3468 53.7244 60.2745C53.8169 60.2022 54.0688 59.9788 54.2844 59.7782C54.4999 59.5776 54.8998 59.1126 55.1731 58.7449C55.4463 58.3773 55.8721 57.7251 56.1192 57.2955L56.5685 56.5145L56.6846 56.75C56.7485 56.8796 56.8655 57.0241 56.9446 57.0711C57.0237 57.1181 57.2452 57.0941 57.4368 57.0178C57.6527 56.9318 57.8406 56.7848 57.9309 56.6315C58.0109 56.4953 58.0743 56.3178 58.0718 56.237C58.0692 56.1563 58.0116 56.0453 57.9436 55.9901C57.8756 55.9352 57.8126 55.8152 57.8035 55.7235C57.7944 55.632 57.7123 55.3993 57.6211 55.2066C57.5299 55.0138 57.4336 54.8433 57.4071 54.8275C57.3806 54.8118 57.3258 54.6854 57.2853 54.5468C57.2315 54.3628 57.0954 54.2176 56.7821 54.0098C56.5459 53.8531 56.2744 53.6001 56.1786 53.4475C56.059 53.2571 55.9144 53.137 55.7175 53.0646C55.5596 53.0066 55.2617 52.8059 55.0554 52.6187C54.8491 52.4315 54.6614 52.2334 54.6382 52.1784C54.615 52.1234 54.3778 51.869 54.1111 51.6129C53.8444 51.3569 53.4373 50.9263 53.2064 50.6559C52.8274 50.2123 52.6985 50.1174 51.8797 49.6789C51.1787 49.3034 50.8898 49.1891 50.6072 49.1757C50.4061 49.1662 50.1751 49.1189 50.0941 49.0707C50.0014 49.0156 49.9576 49.0249 49.9763 49.0955C49.9925 49.1573 50.1902 49.3208 50.4154 49.4587C50.6406 49.5966 51.0843 49.8496 51.4014 50.021C51.7184 50.1924 52.0539 50.3406 52.1468 50.3504C52.2416 50.3604 52.4399 50.4912 52.5985 50.6485C52.7541 50.8027 52.986 50.991 53.114 51.0671C53.2421 51.1432 53.5417 51.3931 53.7799 51.6225C54.0181 51.8519 54.2641 52.1073 54.3266 52.1901C54.3891 52.273 54.492 52.3993 54.5552 52.471C54.6184 52.5427 54.8904 52.7771 55.1595 52.9921C55.4286 53.2069 55.8258 53.5847 56.0422 53.8315C56.2586 54.0783 56.4983 54.3786 56.575 54.4991C56.6517 54.6195 56.7645 54.7478 56.8255 54.7841C56.8867 54.8204 56.9439 54.9791 56.9527 55.1367C56.9623 55.3072 56.8841 55.5742 56.7598 55.7961C56.6449 56.0013 56.4546 56.2281 56.3369 56.3003C56.2192 56.3725 56.0652 56.5283 55.9946 56.6464C55.9241 56.7646 55.5577 57.2228 55.1805 57.6647C54.8033 58.1067 54.4273 58.5086 54.345 58.5579C54.2627 58.6072 54.1477 58.7277 54.0895 58.8256C54.0313 58.9234 53.7593 59.191 53.485 59.4202C53.2107 59.6492 52.8778 59.9693 52.7452 60.1313C52.6125 60.2933 52.2518 60.6613 51.9435 60.9491C51.6353 61.2368 51.2346 61.6164 51.0532 61.7925C50.8717 61.9687 50.3857 62.4052 49.9732 62.7625C49.5511 63.1282 49.0292 63.6712 48.7795 64.0048C48.5353 64.3306 48.0443 64.9681 47.6883 65.4214C47.3323 65.8747 46.8782 66.4434 46.6792 66.6853C46.4802 66.9272 46.1524 67.401 45.9508 67.7383L45.5843 68.3516L45.3193 68.1941C45.1735 68.1074 45.0642 67.9859 45.0763 67.9238C45.0885 67.8618 45.4535 67.138 45.8874 66.3155C46.3213 65.4929 46.7579 64.5737 46.8577 64.2729C46.9574 63.972 47.1275 63.5247 47.2357 63.2789L47.4324 62.832L47.7953 62.9566C48.0835 63.0556 48.1845 63.0485 48.2861 62.9224C48.3565 62.835 48.3948 62.6699 48.3712 62.5554C48.3476 62.441 48.2341 62.2605 48.119 62.1544C48.0039 62.0483 47.6664 61.8212 47.3689 61.6497C46.8955 61.3768 46.8141 61.298 46.715 61.0168C46.6527 60.8402 46.5318 60.6541 46.4464 60.6033C46.3609 60.5525 46.2184 60.5544 46.1297 60.6075C46.0324 60.6658 45.8376 60.6533 45.6378 60.5758C45.456 60.5052 45.2597 60.4719 45.2018 60.5019C45.1438 60.5319 45.0466 60.6628 44.9856 60.7928C44.9247 60.9229 44.8919 61.1 44.9127 61.1866C44.9444 61.3178 44.9872 61.3433 45.1717 61.3405C45.3549 61.3376 45.3933 61.3603 45.3961 61.4723C45.3979 61.5467 45.1832 62.0233 44.9191 62.5315C44.655 63.0397 44.3614 63.6998 44.267 63.9983C44.1725 64.2969 43.9162 64.8778 43.6976 65.2891C43.479 65.7004 43.2035 66.3071 43.0854 66.6371C42.9252 67.0854 42.8339 67.2506 42.725 67.2897C42.6448 67.3185 42.463 67.3475 42.3208 67.3543C42.1788 67.361 42.0374 67.3517 42.0068 67.3335C41.9761 67.3152 41.9547 67.2005 41.9591 67.0785C41.9635 66.9564 42.023 66.7085 42.0913 66.5274C42.1596 66.3464 42.2942 65.8597 42.3903 65.4459C42.4864 65.032 42.5914 64.6184 42.6234 64.5267C42.6555 64.4349 42.7485 64.1729 42.83 63.9443C42.9116 63.7157 43.0412 63.3033 43.1181 63.0276C43.195 62.752 43.2919 62.4693 43.3335 62.3994C43.3751 62.3295 43.4432 61.8395 43.4849 61.3106C43.5266 60.7817 43.5828 60.1581 43.6096 59.9247C43.6366 59.6914 43.7223 59.2663 43.8001 58.9801C43.878 58.694 43.9677 58.294 43.9996 58.0913C44.0315 57.8887 44.0699 57.6394 44.0848 57.5375C44.0997 57.4356 44.1382 57.2545 44.1705 57.1351C44.2026 57.0157 44.2227 56.801 44.2151 56.6579C44.2074 56.5149 44.2425 56.1504 44.293 55.848C44.3435 55.5455 44.4005 55.1645 44.4195 55.0013C44.4386 54.838 44.4879 54.6476 44.5292 54.5783C44.5704 54.5089 44.6099 54.3352 44.617 54.1923C44.6241 54.0495 44.6675 53.6377 44.7135 53.2772C44.7595 52.9167 44.8231 52.5238 44.8548 52.4041C44.8864 52.2844 44.9575 51.6467 45.0129 50.987C45.0682 50.3272 45.1065 49.67 45.098 49.5265C45.0896 49.383 45.1164 49.0793 45.1576 48.8517C45.2284 48.4604 45.2572 48.4133 45.6885 47.9832C46.1182 47.5547 46.1412 47.5174 46.0849 47.3374C46.0487 47.2215 45.9453 47.1214 45.8223 47.0832C45.6961 47.0439 45.5607 46.9086 45.4642 46.7257C45.3789 46.5637 45.3393 46.3805 45.3762 46.3185C45.413 46.2565 45.3979 46.1788 45.3425 46.1459C45.2871 46.113 45.1257 46.1923 44.9838 46.3222C44.842 46.452 44.6281 46.7229 44.5086 46.924C44.3744 47.1497 44.299 47.3895 44.3115 47.5506C44.3227 47.6943 44.3768 47.9402 44.4319 48.0971C44.487 48.2541 44.506 48.696 44.4739 49.0791C44.4419 49.4623 44.3816 50.1182 44.34 50.5367C44.2984 50.9552 44.2503 51.4253 44.2332 51.5813C44.2161 51.7374 44.1404 52.1004 44.0651 52.3881C43.9897 52.6757 43.9244 52.9996 43.9201 53.1078C43.9156 53.216 43.8569 53.4984 43.7896 53.7354C43.7223 53.9725 43.6357 54.261 43.5971 54.3766C43.5586 54.4922 43.5101 54.7354 43.4893 54.917C43.4685 55.0985 43.4239 55.5928 43.39 56.0152C43.3561 56.4377 43.2764 56.9863 43.2128 57.2343C43.1491 57.4824 43.0816 57.8711 43.0627 58.0983C43.0438 58.3254 42.9768 58.7451 42.9139 59.0309C42.851 59.3168 42.7683 60.0179 42.7303 60.5891C42.6922 61.1602 42.627 61.7403 42.5856 61.8782C42.5441 62.0161 42.5043 62.2418 42.4971 62.3796C42.4899 62.5176 42.4577 62.6752 42.4256 62.7299C42.3934 62.7846 42.3003 63.1373 42.2187 63.5137C42.1371 63.89 42.0674 64.2642 42.064 64.3453C42.0606 64.4263 41.9336 64.8722 41.7819 65.3361C41.6303 65.8001 41.4127 66.4867 41.2985 66.8621C41.1842 67.2374 41.0089 67.6811 40.9091 67.8479C40.8091 68.0147 40.6917 68.1601 40.6481 68.171C40.6046 68.1819 40.3992 68.3281 40.1917 68.4958C39.9842 68.6635 39.636 68.9894 39.418 69.22C39.2 69.4505 38.8997 69.7707 38.7508 69.9316C38.6018 70.0923 38.3309 70.43 38.1485 70.6817C37.9663 70.9336 37.6697 71.3239 37.4894 71.5492C37.3091 71.7745 37.0482 72.0728 36.9096 72.212C36.771 72.3513 36.4531 72.6837 36.2033 72.9508C35.9536 73.2179 35.511 73.6802 35.2199 73.9781C34.9287 74.276 34.5674 74.6393 34.4169 74.7853C34.1747 75.0202 34.1164 75.0364 33.9107 74.9256C33.7828 74.8567 33.5714 74.7493 33.4409 74.6869C33.3105 74.6244 33.0625 74.4266 32.8899 74.2471C32.7173 74.0677 32.4642 73.8424 32.3276 73.7466C32.1011 73.5875 32.0827 73.5188 32.1175 72.9673C32.1385 72.6346 32.1894 72.2568 32.2304 72.1278C32.2715 71.9987 32.5002 71.5784 32.7387 71.1938C32.9772 70.8092 33.5473 69.8684 34.0056 69.1032C34.6064 68.1003 34.8285 67.6713 34.8013 67.5664C34.7806 67.4863 34.8445 67.2852 34.9432 67.1195C35.042 66.9538 35.2373 66.501 35.3774 66.1133C35.5175 65.7256 35.7117 65.0866 35.8091 64.6934C35.9065 64.3001 36.0038 63.6453 36.0253 63.2383C36.0469 62.8313 36.0842 62.4652 36.1082 62.4248C36.1321 62.3845 36.1441 62.1748 36.1346 61.9589C36.1251 61.7431 36.1063 61.448 36.0928 61.3032C36.0793 61.1583 36.0789 60.8459 36.0921 60.6089C36.1054 60.3718 36.0889 59.9381 36.0557 59.6451C36.0224 59.352 35.8778 58.5466 35.7343 57.8553C35.5908 57.164 35.4752 56.4298 35.4772 56.2237C35.4792 56.0176 35.4659 55.6219 35.4476 55.3443C35.4292 55.0669 35.3326 54.4655 35.2329 54.0079C35.1331 53.5503 35.0738 52.9173 35.101 52.601C35.1282 52.2847 35.1373 51.9501 35.1211 51.8574C35.105 51.7647 35.1288 51.4616 35.1741 51.1837C35.2193 50.9059 35.2061 50.4674 35.1447 50.2092C35.0718 49.903 35.0751 49.5747 35.1543 49.2647C35.221 49.0035 35.3572 48.6523 35.457 48.4843C35.5568 48.3164 35.7252 47.764 35.8312 47.2567C35.9372 46.7494 36.0571 46.2782 36.0976 46.2095C36.1381 46.1407 36.1777 45.9586 36.1858 45.8047C36.1939 45.6507 36.2453 45.4494 36.3001 45.3572C36.3549 45.2649 36.4338 44.9883 36.4754 44.7425C36.517 44.4967 36.6012 44.1213 36.6625 43.9085C36.7238 43.6955 36.8957 43.2084 37.0445 42.8259C37.2439 42.3136 37.642 41.5954 38.5566 40.0979C39.3894 38.7344 39.9793 37.8476 40.3488 37.4035C40.6519 37.0396 40.9546 36.7208 41.0216 36.6952C41.0885 36.6696 41.2233 36.5666 41.3212 36.4663C41.4191 36.3659 41.6619 36.1703 41.8608 36.0315C42.0597 35.8926 42.3761 35.674 42.5639 35.5457C42.7517 35.4174 42.97 35.3285 43.049 35.3481C43.1279 35.3678 43.3231 35.4011 43.4826 35.4222C43.6852 35.449 43.9116 35.373 44.2329 35.1703C44.486 35.0106 44.715 34.893 44.7418 34.909C44.7688 34.925 44.9168 34.8543 45.0709 34.7518C45.2251 34.6494 45.7644 34.4363 46.2694 34.2782C46.7743 34.12 47.2755 33.938 47.3829 33.8735C47.4905 33.8091 47.7756 33.6963 48.0167 33.6229C48.2578 33.5494 48.4934 33.5118 48.5403 33.5394C48.5873 33.5669 48.7369 33.5946 48.8728 33.6007C49.0088 33.6069 49.3446 33.6186 49.6191 33.6267C49.8936 33.6347 50.3265 33.6474 50.5811 33.6546C50.8357 33.662 51.2588 33.671 51.5213 33.6747C51.7838 33.6784 52.0298 33.6999 52.0678 33.7225C52.1059 33.7451 52.4007 33.7504 52.723 33.7341C53.0453 33.7179 53.5194 33.7047 53.7764 33.7049C54.0335 33.705 54.3054 33.7169 54.3805 33.7314C54.4558 33.7458 54.6417 33.7659 54.7938 33.7761C54.9459 33.7862 55.2044 33.8741 55.3682 33.9715C55.532 34.0688 55.8067 34.1578 55.9787 34.1693C56.1506 34.1807 56.4858 34.1746 56.7235 34.1557C56.974 34.1358 57.3456 34.1931 57.6073 34.292C57.8556 34.3859 58.4423 34.6248 58.911 34.8228C59.3798 35.0208 59.9057 35.2509 60.0797 35.3341C60.2537 35.4172 60.4413 35.5245 60.4965 35.5724C60.5518 35.6204 60.8302 35.8056 61.1151 35.984ZM95.3027 61.9298C95.0984 61.8505 94.6098 61.6731 94.2168 61.5356C93.8237 61.3981 93.2255 61.2128 92.8874 61.1238C92.5493 61.0349 91.9586 60.8878 91.5747 60.7969C91.1907 60.7061 90.2353 60.5451 89.4517 60.4391C88.6679 60.3332 87.7951 60.1963 87.5122 60.1351C87.2292 60.0736 86.962 60.0023 86.9183 59.9763C86.8746 59.9503 86.4582 59.8988 85.993 59.8618C85.5277 59.8249 84.9705 59.7841 84.7547 59.7713C84.539 59.7584 83.5995 59.6859 82.6671 59.6102C81.7347 59.5344 80.6913 59.4739 80.3486 59.4757C80.0058 59.4775 79.5052 59.4841 79.2363 59.4905C78.9674 59.4969 78.5221 59.544 78.2468 59.5952C77.9714 59.6464 77.7089 59.751 77.6633 59.8277C77.6134 59.9117 77.6335 59.9986 77.7138 60.0464C77.7872 60.09 77.894 60.2284 77.9512 60.354C78.0266 60.5195 78.1934 60.6586 78.5574 60.8595C78.8337 61.0119 79.2727 61.2045 79.533 61.2875C79.7934 61.3705 80.3505 61.4746 80.7712 61.5187C81.1918 61.5627 81.7796 61.6503 82.0773 61.7131C82.3751 61.776 82.694 61.8161 82.786 61.8022C82.878 61.7883 83.182 61.8842 83.4615 62.0152C83.7409 62.1462 84.0231 62.248 84.0886 62.2415C84.1541 62.235 84.3864 62.2748 84.6049 62.33C84.8234 62.3853 85.1547 62.443 85.3411 62.4583C85.5275 62.4735 85.9545 62.5241 86.2899 62.5705C86.6253 62.617 87.1131 62.6806 87.3738 62.7117C87.6346 62.7429 87.9695 62.7944 88.1182 62.8262C88.2668 62.8581 88.5725 62.9382 88.7975 63.0043C89.0224 63.0704 89.2724 63.1013 89.353 63.073C89.4336 63.0447 89.5588 63.0568 89.6312 63.0998C89.7036 63.1428 89.8348 63.1528 89.9227 63.1219C90.0106 63.0911 90.117 63.0863 90.159 63.1113C90.2011 63.1363 90.6343 63.1476 91.1217 63.1365C91.6091 63.1254 92.2104 63.16 92.4579 63.2135C92.7053 63.267 93.1019 63.2728 93.3391 63.2264C93.5762 63.1801 93.8033 63.1617 93.8436 63.1857C93.8839 63.2096 94.0655 63.1362 94.247 63.0225C94.4286 62.9087 94.6212 62.8419 94.6751 62.8739C94.729 62.906 94.8944 62.8977 95.0428 62.8556C95.1912 62.8135 95.4771 62.8159 95.6781 62.8608C95.8976 62.9099 96.1158 62.8926 96.2246 62.8176C96.3241 62.7489 96.3967 62.6584 96.3858 62.6164C96.3749 62.5745 96.2104 62.4353 96.02 62.3071C95.8297 62.1788 95.5069 62.009 95.3027 61.9298ZM47.9607 47.706C47.7509 47.69 47.5261 47.6453 47.4612 47.6067C47.3963 47.5683 47.1954 47.5622 47.0146 47.5931C46.8339 47.6242 46.6238 47.6126 46.5476 47.5673C46.4715 47.5221 46.392 47.5141 46.3708 47.5497C46.3497 47.5852 46.4666 47.6769 46.6305 47.7536C46.7944 47.8303 47.17 47.9978 47.4653 48.126C47.804 48.2732 48.1261 48.3493 48.3383 48.3325C48.6594 48.3072 48.6727 48.296 48.63 48.0888C48.6054 47.9694 48.5305 47.841 48.4638 47.8035C48.397 47.7661 48.1706 47.7222 47.9607 47.706ZM49.2704 48.4804C49.2461 48.5214 49.26 48.575 49.3012 48.5995C49.3425 48.624 49.3962 48.6106 49.4205 48.5696C49.4449 48.5287 49.431 48.4751 49.3897 48.4506C49.3485 48.4261 49.2948 48.4395 49.2704 48.4804ZM58.097 55.842C58.0645 55.8965 58.0738 55.9322 58.1175 55.9214C58.1612 55.9104 58.1877 55.8657 58.1765 55.822C58.1652 55.7784 58.1294 55.7874 58.097 55.842ZM21.175 37.2308C20.7011 36.9943 20.0886 36.7178 19.8137 36.6164C19.5389 36.5149 19.1412 36.3767 18.93 36.3093C18.7187 36.2419 18.3272 36.0932 18.06 35.9789C17.7928 35.8647 17.2817 35.6482 16.9241 35.498C16.5666 35.3477 15.9306 35.1107 15.5108 34.9713C15.0909 34.8319 14.5332 34.6554 14.2714 34.5791C14.0096 34.5026 13.3829 34.29 12.8787 34.1064C12.3746 33.9228 11.6669 33.691 11.3061 33.5914C10.9454 33.4916 10.5096 33.3598 10.3376 33.2983C10.1657 33.2369 9.96219 33.1949 9.88535 33.205C9.80853 33.2151 9.53473 33.1554 9.27697 33.0722C9.01917 32.9891 8.53983 32.8729 8.21173 32.8141C7.88363 32.7553 7.53133 32.6945 7.42892 32.6789C7.32646 32.6633 7.16676 32.6332 7.07407 32.6119C6.91077 32.5745 6.90695 32.5806 6.95308 32.8046C6.97937 32.9317 7.05031 33.1202 7.11084 33.2236C7.17133 33.3269 7.32024 33.5809 7.44185 33.7881C7.60007 34.0577 7.77532 34.2301 8.05834 34.395C8.27572 34.5217 8.68903 34.7105 8.97678 34.8147C9.26446 34.9188 9.71501 35.0647 9.97799 35.1391C10.241 35.2135 10.5943 35.311 10.7631 35.3559C10.932 35.4007 11.375 35.5779 11.7477 35.7496C12.1204 35.9214 12.6385 36.1261 12.8991 36.2046C13.1597 36.2829 13.4365 36.3554 13.5142 36.3656C13.592 36.3758 13.8796 36.4686 14.1533 36.5718C14.4271 36.675 14.8738 36.8461 15.1459 36.9521C15.4181 37.0581 15.8354 37.24 16.0734 37.3566C16.3113 37.4731 16.5697 37.5766 16.6476 37.5865C16.7254 37.5965 17.0958 37.7038 17.4706 37.825C17.8454 37.9462 18.5612 38.2225 19.0612 38.4391C19.5611 38.6557 20.1667 38.9056 20.4068 38.9944C20.6469 39.0831 21.0535 39.184 21.3104 39.2185C21.5674 39.2529 21.9792 39.252 22.2257 39.2163C22.4721 39.1807 22.8704 39.1475 23.1107 39.1425C23.351 39.1375 23.5749 39.0877 23.6081 39.0318C23.6413 38.9759 23.6418 38.856 23.6091 38.7653C23.5709 38.6591 23.2807 38.4334 22.7931 38.1306C22.3769 37.8722 21.6488 37.4673 21.175 37.2308ZM74.3929 77.1199C74.2688 77.0938 74.0291 77.0167 73.8602 76.9482C73.6914 76.8799 73.538 76.8498 73.5192 76.8813C73.5005 76.9127 73.5705 77.0769 73.6747 77.2462C73.7789 77.4153 73.9434 77.6819 74.0401 77.8384C74.1368 77.9949 74.3695 78.2635 74.5571 78.4352C74.7446 78.6069 75.0526 78.8719 75.2414 79.0242C75.4301 79.1765 75.6567 79.3962 75.7448 79.5124C75.833 79.6286 75.9721 79.7636 76.0539 79.8122C76.1358 79.8608 76.3027 80.0507 76.4249 80.2342C76.5471 80.4176 76.7063 80.6029 76.7787 80.6459C76.851 80.6889 76.911 80.7619 76.912 80.8082C76.913 80.8546 77.1589 81.1181 77.4585 81.3939C77.7581 81.6696 78.2215 82.1375 78.4883 82.4336C78.7551 82.7297 79.0581 83.1042 79.1616 83.2658C79.265 83.4274 79.4532 83.6547 79.5797 83.7707C79.7062 83.8868 79.8289 84.0265 79.8522 84.0812C79.8755 84.1359 80.0988 84.3754 80.3483 84.6134C80.5979 84.8513 80.9524 85.1775 81.1362 85.338C81.3201 85.4986 81.6264 85.7905 81.8169 85.9868C82.0075 86.1831 82.301 86.4581 82.4693 86.5978C82.6376 86.7376 82.9157 87.0386 83.0873 87.2667C83.2589 87.4948 83.6389 87.8551 83.9316 88.0673C84.2244 88.2796 84.5496 88.5539 84.6543 88.6769C84.8008 88.8491 84.885 88.8945 85.0196 88.8738C85.1159 88.859 85.2302 88.7871 85.2737 88.714C85.3171 88.641 85.2695 88.3174 85.1679 87.9949C85.0663 87.6725 84.921 87.276 84.845 87.1137C84.769 86.9514 84.5569 86.5111 84.3736 86.135C84.1903 85.7589 83.9704 85.3667 83.885 85.2633C83.7996 85.1598 83.6671 84.9884 83.5906 84.8822C83.514 84.776 83.4145 84.6325 83.3693 84.5634C83.3242 84.4943 83.0592 84.2097 82.7805 83.9309C82.5018 83.6521 82.1177 83.3022 81.927 83.1533C81.7363 83.0043 81.4462 82.762 81.2823 82.6147C81.1185 82.4674 80.762 82.1446 80.4901 81.8973C80.2182 81.6499 79.7884 81.2583 79.5349 81.0269C79.2815 80.7955 78.7517 80.3413 78.3577 80.0175C77.9637 79.6936 77.5418 79.327 77.4202 79.2027C77.2986 79.0784 76.8904 78.7271 76.5131 78.4222C76.1358 78.1173 75.5552 77.7101 75.2229 77.5175C74.8906 77.3249 74.517 77.146 74.3929 77.1199ZM46.4447 63.3259C46.1627 63.8529 45.9331 64.3406 45.9346 64.4098C45.936 64.479 45.6832 65.0297 45.3727 65.6337C45.0622 66.2377 44.7173 66.9384 44.6062 67.191L44.4043 67.6502L44.0957 67.4668C43.8299 67.3089 43.7894 67.2436 43.8032 66.9958C43.812 66.8376 43.9115 66.5528 44.0243 66.363C44.1371 66.1732 44.3069 65.7618 44.4015 65.4489C44.4961 65.1359 44.6129 64.717 44.6612 64.518C44.7167 64.2888 44.9569 63.823 45.3175 63.2459C45.6303 62.7453 45.9371 62.2592 45.9992 62.166C46.0615 62.0727 46.1511 61.9764 46.1986 61.9519C46.246 61.9274 46.4361 62.0109 46.6211 62.1375L46.9574 62.3678L46.4447 63.3259ZM43.8377 68.7274C43.772 68.8379 43.802 68.9041 43.9606 68.9984C44.1062 69.0849 44.2056 69.2659 44.285 69.5884L44.3995 70.0536L43.783 71.1286C43.444 71.7198 42.9206 72.7826 42.62 73.4904C42.3192 74.1982 42.0006 75.0136 41.9119 75.3024C41.8231 75.5911 41.6754 75.9567 41.5837 76.1147C41.492 76.2728 41.3242 76.6643 41.2109 76.9848C41.0976 77.3053 40.9647 77.7018 40.9156 77.866C40.8518 78.0792 40.8724 78.2193 40.9879 78.3567C41.0999 78.49 41.1917 78.5384 41.2872 78.5145C41.3649 78.4951 41.5673 78.2444 41.7513 77.9396C41.9307 77.6423 42.157 77.2197 42.2541 77.0004C42.3513 76.7811 42.5196 76.4051 42.6281 76.1648C42.7366 75.9246 42.9899 75.4172 43.1909 75.0373C43.392 74.6575 43.6077 74.1638 43.6703 73.9403C43.7329 73.7168 43.826 73.5235 43.8771 73.5107C43.9283 73.4978 43.9797 73.5824 43.9912 73.6986C44.0027 73.8148 43.944 74.183 43.8607 74.5168C43.7774 74.8506 43.6808 75.2023 43.646 75.2984C43.6113 75.3945 43.573 75.6032 43.5611 75.7623C43.5492 75.9215 43.5061 76.3411 43.4654 76.6948C43.4248 77.0485 43.371 77.3723 43.346 77.4145C43.3209 77.4566 43.2844 77.6244 43.2648 77.7873C43.2452 77.9502 43.2051 78.2255 43.1757 78.3989C43.1463 78.5724 43.1542 78.8817 43.1932 79.0863C43.2321 79.2909 43.2259 79.4781 43.1792 79.5022C43.1326 79.5263 42.9028 79.4648 42.6687 79.3654C42.4346 79.266 42.1385 79.1684 42.0107 79.1486C41.8828 79.1287 41.1045 78.7468 40.2809 78.2999C39.4574 77.8529 38.4998 77.3497 38.1529 77.1816C37.6506 76.9382 37.5052 76.835 37.4391 76.6748C37.3621 76.4883 37.4129 76.3756 38.1308 75.1374C38.5569 74.4025 39.3402 72.9943 39.8715 72.008C40.4027 71.0216 40.9025 70.0267 40.9822 69.7971C41.0619 69.5674 41.1992 69.2111 41.2875 69.0053C41.4321 68.6679 41.4855 68.6191 41.8302 68.5086C42.0405 68.4413 42.2348 68.3487 42.262 68.303C42.2892 68.2572 42.3621 68.2498 42.424 68.2866C42.486 68.3234 42.5067 68.4038 42.4702 68.4652C42.4337 68.5266 42.4376 68.5969 42.4789 68.6215C42.5202 68.646 42.6006 68.5875 42.6577 68.4915C42.7148 68.3955 42.851 68.3009 42.9605 68.2811C43.0699 68.2614 43.291 68.2541 43.4518 68.2648C43.6524 68.2782 43.7724 68.3309 43.8344 68.4328C43.884 68.5143 43.8855 68.647 43.8377 68.7274ZM21.1621 57.0764C20.839 57.1524 20.536 57.1917 20.4889 57.1637C20.4418 57.1357 20.1832 57.152 19.9144 57.2C19.6455 57.248 19.2254 57.3496 18.9808 57.4258C18.7361 57.5021 18.2737 57.6239 17.9532 57.6966C17.6328 57.7693 17.3429 57.8123 17.3089 57.7922C17.275 57.772 16.7053 57.8815 16.0427 58.0354C15.3803 58.1894 14.6106 58.3552 14.3323 58.404C14.0542 58.4529 13.3415 58.614 12.7486 58.7621C12.1557 58.9102 11.3816 59.0621 11.0283 59.0996C10.675 59.1371 10.1079 59.2455 9.76807 59.3404C9.42832 59.4353 9.0594 59.5506 8.94824 59.5967C8.83713 59.6427 8.25693 59.8033 7.659 59.9537C7.06108 60.104 6.51316 60.2825 6.44137 60.3501C6.36962 60.4179 6.11925 60.6691 5.88499 60.9085L5.45895 61.3437L5.57181 61.7549C5.63384 61.9812 5.71938 62.1868 5.76185 62.2121C5.80433 62.2373 6.09663 62.2299 6.41143 62.1956C6.72611 62.1613 7.01092 62.1492 7.0443 62.1688C7.07763 62.1884 7.37465 62.1884 7.70432 62.1689C8.03396 62.1494 8.43758 62.0946 8.60119 62.0471C8.76483 61.9997 8.93052 61.9798 8.96947 62.003C9.00841 62.0261 9.20422 62.0179 9.40467 61.9846C9.60512 61.9513 9.92202 61.9244 10.1089 61.9247C10.2958 61.9249 10.5247 61.9242 10.6177 61.9229C10.7106 61.9217 11.0287 61.8387 11.3245 61.7386C11.6202 61.6384 12.2349 61.4421 12.6904 61.3024C13.1458 61.1628 13.6945 61.0129 13.9097 60.9693C14.1249 60.9259 14.4883 60.7976 14.7172 60.6843C14.9461 60.5711 15.7449 60.312 16.4922 60.1087C17.2395 59.9054 18.4124 59.5634 19.0985 59.3487C19.7847 59.134 20.6188 58.8901 20.9521 58.8066C21.2854 58.7231 21.6453 58.5708 21.7519 58.4681C21.8584 58.3654 21.9931 58.2189 22.0512 58.1426C22.1091 58.0662 22.1638 57.8901 22.1727 57.7512C22.1815 57.6123 22.1366 57.3929 22.0728 57.2637C22.0091 57.1346 21.9103 57.0085 21.8534 56.9835C21.7964 56.9586 21.4854 57.0004 21.1621 57.0764ZM61.4228 82.2822C61.3849 82.2917 61.184 82.2231 60.9766 82.1298C60.6667 81.9904 60.578 81.9865 60.4798 82.1082C60.3892 82.2206 60.4067 82.3247 60.5528 82.5408C60.6586 82.6972 60.7289 82.8527 60.709 82.8862C60.689 82.9197 60.7352 83.0152 60.8114 83.0984C60.8875 83.1816 61.01 83.3934 61.0834 83.5691C61.1568 83.7447 61.2486 83.9074 61.2877 83.9306C61.3266 83.9538 61.3715 84.0531 61.3874 84.1512C61.4033 84.2494 61.5226 84.5386 61.6526 84.7939C61.7826 85.049 62.0165 85.4662 62.1724 85.7208C62.3283 85.9753 62.5573 86.3973 62.6814 86.6585C62.8054 86.9197 62.9681 87.338 63.0429 87.588C63.1178 87.8379 63.2558 88.2319 63.3497 88.4634C63.4435 88.6948 63.5535 88.904 63.5941 88.9281C63.6347 88.9522 63.6796 89.044 63.6938 89.1319C63.708 89.2198 63.8123 89.4405 63.9257 89.6223C64.0389 89.8041 64.1724 89.9779 64.2223 90.0086C64.2721 90.0393 64.4995 90.3445 64.7275 90.6867C65.0329 91.145 65.2123 91.563 65.4088 92.2743C65.5554 92.8053 65.7586 93.4842 65.8603 93.783C65.9619 94.0818 66.0661 94.3698 66.0915 94.4232C66.1171 94.4764 66.2299 94.7219 66.3423 94.9688C66.4547 95.2158 66.5834 95.4395 66.6282 95.4662C66.673 95.4928 66.907 95.8118 67.1482 96.1751C67.4775 96.6711 67.6235 96.8301 67.7339 96.8131C67.8148 96.8007 67.93 96.708 67.99 96.6071C68.0607 96.4881 68.0511 96.2836 67.9622 96.0238C67.8872 95.8038 67.6664 95.1211 67.4718 94.5068C67.2772 93.8925 66.9688 92.8252 66.7865 92.1351C66.6041 91.4449 66.3699 90.6824 66.2659 90.4407C66.162 90.1989 65.7527 89.5088 65.3563 88.907C64.9599 88.3052 64.4606 87.4538 64.2467 87.0149C64.0328 86.576 63.8511 86.1896 63.8431 86.1562C63.835 86.1228 63.7545 85.9123 63.6641 85.6885C63.5737 85.4646 63.3825 85.0943 63.2393 84.8655C63.0959 84.6368 62.8102 84.1948 62.6044 83.8832C62.3986 83.5718 62.1495 83.1834 62.051 83.0203C61.9525 82.8572 61.7863 82.6205 61.6818 82.4943C61.5773 82.3682 61.4607 82.2727 61.4228 82.2822ZM39.3369 71.1194C39.0968 71.54 38.4785 72.6307 37.9628 73.5432C37.4472 74.4557 36.9178 75.4383 36.7865 75.7267L36.5477 76.2513L36.2687 76.1441C36.1153 76.0851 35.7916 75.9475 35.5493 75.8382C35.3071 75.7289 34.9767 75.574 34.8152 75.4939C34.6396 75.4068 34.5119 75.2878 34.4973 75.1977C34.4784 75.081 34.5524 75.0329 34.8276 74.9827C35.0226 74.9472 35.2248 74.8465 35.277 74.7587C35.3291 74.671 35.4899 74.5542 35.6343 74.4991C35.7787 74.4441 35.9393 74.3278 35.991 74.2407C36.0428 74.1536 36.1778 74.037 36.2911 73.9816C36.4043 73.9262 36.6257 73.6853 36.7829 73.4464C36.9402 73.2074 37.168 72.9348 37.2893 72.8407C37.4105 72.7465 37.6525 72.4823 37.8271 72.2536C38.0017 72.025 38.299 71.6803 38.4879 71.4879C38.6768 71.2954 38.952 70.9871 39.0996 70.8028C39.2471 70.6186 39.449 70.4036 39.5483 70.3252C39.6476 70.2468 39.7388 70.2213 39.751 70.2686C39.7633 70.3158 39.5769 70.6987 39.3369 71.1194ZM44.1559 81.4623C44.1426 81.5415 43.9494 81.8233 43.7265 82.0886C43.5037 82.3539 43.1285 82.6937 42.8927 82.8437C42.6569 82.9937 42.3689 83.1352 42.2528 83.1583C42.1216 83.1842 41.7907 83.0882 41.3787 82.9043C41.0141 82.7417 40.5254 82.5061 40.2927 82.3808C40.06 82.2555 39.6707 82.0647 39.4277 81.9568C39.1845 81.849 38.3322 81.3993 37.5336 80.9575C36.7349 80.5157 35.9335 80.0572 35.7526 79.9387C35.5717 79.8202 35.1899 79.5784 34.9041 79.4013C34.6183 79.2243 34.2516 79.0341 34.089 78.9787C33.9264 78.9233 33.4595 78.7479 33.0512 78.5891C32.6429 78.4302 32.1327 78.1738 31.9173 78.0192C31.702 77.8647 31.3975 77.6191 31.2406 77.4735C31.0837 77.3279 30.9052 77.0901 30.8439 76.9449C30.7825 76.7999 30.7385 76.5759 30.746 76.4472C30.7535 76.3184 30.9089 75.9618 31.0912 75.6546C31.2736 75.3474 31.5206 74.9803 31.6402 74.8386C31.8404 74.6016 31.871 74.5942 32.025 74.7445C32.1171 74.8344 32.3275 75.0268 32.4924 75.1721C32.6574 75.3174 33.1509 75.7035 33.5891 76.03C34.2945 76.5557 34.4089 76.6192 34.5874 76.5839C34.7602 76.5497 35.0455 76.6975 36.5816 77.6164C37.5675 78.2062 38.4412 78.7299 38.523 78.7801C38.6049 78.8303 38.9192 78.9934 39.2216 79.1425C39.5239 79.2917 39.9609 79.56 40.1926 79.7388C40.4243 79.9175 40.8984 80.1962 41.2463 80.358C41.594 80.5199 41.973 80.6941 42.0882 80.7453C42.2035 80.7964 42.4596 80.8359 42.6572 80.8332C42.8549 80.8305 43.1322 80.8938 43.2735 80.9739C43.4148 81.054 43.615 81.1309 43.7185 81.1447C43.822 81.1586 43.9682 81.2034 44.0434 81.2441C44.1186 81.285 44.1693 81.3831 44.1559 81.4623ZM41.2269 83.9561C41.2774 84.0197 41.2824 84.133 41.2379 84.2077C41.1935 84.2825 41.0877 84.3258 41.003 84.304C40.9182 84.2823 40.5833 84.1344 40.2589 83.9754C39.9345 83.8164 39.0999 83.4139 38.4041 83.081C37.7083 82.748 36.8732 82.3846 36.5484 82.2732C36.2236 82.162 35.6027 81.9283 35.1688 81.7541C34.7348 81.5799 34.2825 81.3797 34.1636 81.3095C34.0447 81.2393 33.2498 80.9716 32.3972 80.7146C31.5445 80.4577 30.5918 80.1242 30.2801 79.9736L29.7135 79.6997L30.0998 79.1343C30.3123 78.8234 30.5492 78.4999 30.6263 78.4155C30.751 78.2789 30.7945 78.2849 31.0199 78.4689C31.1592 78.5827 31.5059 78.861 31.7903 79.0873C32.1319 79.3591 32.4494 79.5499 32.7256 79.6495C32.9556 79.7324 33.6526 80.0589 34.2746 80.375C34.8966 80.6912 35.9919 81.2702 36.7087 81.6618C37.4255 82.0535 38.6789 82.7055 39.494 83.111C40.3092 83.5164 41.0034 83.8414 41.0367 83.8331C41.0701 83.8247 41.1058 83.823 41.1162 83.8291C41.1265 83.8353 41.1764 83.8924 41.2269 83.9561ZM40.2688 86.2321C40.1089 86.5549 39.9453 86.8358 39.9052 86.8565C39.8652 86.8773 39.5886 86.7514 39.2908 86.5767C38.993 86.4021 38.2795 86.0884 37.7054 85.8798C37.1312 85.6711 36.2063 85.3436 35.6499 85.152C35.0935 84.9605 34.3798 84.7003 34.0641 84.5738C33.7482 84.4473 33.1459 84.2305 32.7256 84.092C32.3053 83.9534 31.7213 83.7826 31.4279 83.7123C31.1346 83.642 30.7095 83.5499 30.4834 83.5075C30.2572 83.4652 29.6656 83.3211 29.1687 83.1874C28.6719 83.0537 28.2454 82.9062 28.221 82.8598C28.1965 82.8134 28.2684 82.6174 28.3808 82.4243C28.4931 82.2312 28.6445 81.9076 28.717 81.7051C28.7895 81.5027 28.8924 81.3029 28.9455 81.2612C28.9987 81.2195 29.1764 81.2009 29.3405 81.2201C29.5046 81.2391 29.7353 81.28 29.8532 81.3109C29.9711 81.3418 30.3631 81.5279 30.7244 81.7246C31.0857 81.9211 31.6193 82.1815 31.91 82.3033C32.2007 82.425 32.5763 82.5619 32.7446 82.6077C32.9129 82.6534 33.3569 82.7906 33.7313 82.9124C34.1057 83.0343 34.4617 83.1291 34.5223 83.123C34.583 83.117 34.8917 83.2128 35.2082 83.3359C35.5248 83.459 36.0921 83.6561 36.469 83.7739C36.8646 83.8974 37.5085 84.1859 37.9928 84.4564C38.4541 84.714 38.921 84.9289 39.0304 84.9338C39.1397 84.9386 39.3087 85.0128 39.4058 85.0985C39.5028 85.1843 39.6504 85.2565 39.7338 85.259C39.8172 85.2615 40.0371 85.3494 40.2225 85.4545L40.5596 85.6455L40.2688 86.2321ZM39.4122 87.8786C39.4001 87.9407 39.2222 88.2953 39.0168 88.6667L38.6435 89.3419L38.2136 89.2108C37.9772 89.1388 37.2549 88.9316 36.6085 88.7505C35.962 88.5695 35.2171 88.3356 34.9529 88.2308C34.6888 88.1261 34.4188 88.0421 34.353 88.0441C34.2871 88.0463 34.0554 88.0013 33.8381 87.9441C33.6207 87.887 33.2097 87.7711 32.9248 87.6866C32.64 87.602 32.1745 87.4626 31.8905 87.3765C31.6065 87.2905 31.0674 87.1211 30.6925 87.0001C30.3176 86.8792 29.8536 86.7372 29.6614 86.6845C29.4693 86.6319 28.9675 86.4767 28.5463 86.3396C28.1251 86.2025 27.503 85.9963 27.164 85.8813C26.8251 85.7664 26.5416 85.6488 26.5342 85.62C26.5266 85.5911 26.6967 85.2211 26.9118 84.7978C27.2332 84.1654 27.3329 84.0235 27.4701 84.0024C27.5619 83.9882 28.0179 84.1349 28.4834 84.3281C28.9489 84.5214 29.4271 84.6925 29.546 84.7083C29.6648 84.7241 29.8198 84.7714 29.8904 84.8134C29.961 84.8553 30.3833 84.9677 30.8289 85.0632C31.2744 85.1587 31.7573 85.2683 31.902 85.3069C32.0466 85.3454 32.3078 85.4058 32.4823 85.441C32.6569 85.4762 32.8831 85.5186 32.9849 85.5351C33.0868 85.5517 33.3351 85.6337 33.5367 85.7174C33.7383 85.801 34.0115 85.8667 34.1436 85.8632C34.2758 85.8599 34.5853 85.9158 34.8313 85.9877C35.0773 86.0597 35.564 86.239 35.9128 86.3864C36.2616 86.5338 36.6301 86.6584 36.7317 86.6633C36.8333 86.6682 37.057 86.7558 37.2289 86.858C37.4008 86.9601 37.677 87.058 37.8426 87.0754C38.0082 87.0929 38.3197 87.1955 38.5348 87.3035C38.7499 87.4115 39.0403 87.5597 39.18 87.6328C39.3247 87.7085 39.4248 87.8144 39.4122 87.8786ZM38.0999 90.6218C38.1013 90.6903 37.9836 90.9622 37.8383 91.226C37.6081 91.6437 37.5455 91.7061 37.3528 91.7101C37.2312 91.7126 36.5897 91.5501 35.9273 91.3489C35.265 91.1477 34.4966 90.9027 34.2199 90.8044C33.9432 90.7061 33.5163 90.5718 33.2713 90.5059C33.0263 90.44 32.7709 90.3535 32.7037 90.3135C32.6365 90.2736 32.4093 90.2014 32.1987 90.153C31.9881 90.1046 31.443 89.9619 30.9874 89.8358C30.5317 89.7098 29.9891 89.5462 29.7816 89.4725C29.5741 89.3986 28.8577 89.1816 28.1897 88.9899C27.5216 88.7984 26.8418 88.5965 26.6791 88.5414C26.5164 88.4862 26.2106 88.3989 25.9995 88.3471C25.6723 88.2669 25.6151 88.2315 25.6112 88.1061C25.6086 88.0252 25.6584 87.8707 25.7217 87.7628C25.785 87.6548 25.8586 87.4088 25.8853 87.2161C25.9255 86.9261 25.9604 86.86 26.0884 86.8317C26.1735 86.8129 26.4967 86.8755 26.8067 86.9707C27.1167 87.0659 27.4544 87.1937 27.557 87.2546C27.6596 87.3156 27.8037 87.3505 27.8772 87.3321C27.9505 87.3137 28.1754 87.3546 28.3767 87.4228C28.578 87.491 28.8503 87.5965 28.9817 87.6573C29.1132 87.718 29.3999 87.8003 29.6187 87.8403C29.8375 87.8802 30.3485 88.0586 30.754 88.2367C31.1596 88.4148 31.541 88.5502 31.6015 88.5377C31.6619 88.5252 31.7914 88.5625 31.889 88.6205C31.9867 88.6785 32.1608 88.7305 32.276 88.7361C32.3911 88.7416 32.75 88.8824 33.0736 89.0488C33.3971 89.2153 33.7142 89.3438 33.7784 89.3346C33.8425 89.3253 34.059 89.384 34.2595 89.4648C34.46 89.5457 34.7176 89.6061 34.832 89.5991C34.9462 89.5922 35.1516 89.6529 35.2882 89.7341C35.4249 89.8153 35.7516 89.8969 36.0144 89.9155C36.277 89.9341 36.7014 90.0441 36.9573 90.16C37.2133 90.2758 37.5335 90.3766 37.6688 90.3837C37.8042 90.3908 37.956 90.4193 38.0061 90.4469C38.0563 90.4744 38.0985 90.5531 38.0999 90.6218ZM36.8074 93.2C36.7724 93.259 36.6976 93.3079 36.6413 93.3086C36.585 93.3094 36.483 93.4041 36.4148 93.5189C36.3464 93.6339 36.1775 93.7709 36.0393 93.8236C35.9011 93.8763 35.7179 94.0115 35.6322 94.1242C35.5093 94.2856 35.4323 94.3091 35.2675 94.2352C35.1527 94.1837 34.8772 94.1899 34.6554 94.2491C34.4336 94.3084 34.2145 94.3344 34.1684 94.307C34.1223 94.2796 33.9517 94.3125 33.7892 94.3801C33.6043 94.4569 33.3596 94.465 33.1349 94.4015C32.9374 94.3457 32.567 94.2195 32.3117 94.1209C32.0564 94.0224 31.447 93.7698 30.9575 93.5597C30.468 93.3495 29.8332 93.0814 29.5469 92.9639C29.2605 92.8463 28.5621 92.4838 27.9948 92.1581C27.4274 91.8325 26.698 91.4535 26.3738 91.3158C25.8676 91.1008 25.7537 91.0219 25.5667 90.7566C25.4469 90.5867 25.3292 90.3515 25.305 90.234C25.2807 90.1165 25.1976 89.9826 25.1201 89.9366C25.0427 89.8906 24.9901 89.7891 25.0032 89.7112C25.017 89.6293 25.1131 89.5601 25.2307 89.5474C25.3426 89.5352 25.4868 89.5551 25.5511 89.5916C25.6154 89.628 25.8395 89.6695 26.0491 89.6837C26.2587 89.698 26.5632 89.7596 26.7256 89.8205C26.888 89.8814 27.1303 89.9395 27.2639 89.9495C27.3975 89.9596 27.7328 90.0491 28.009 90.1483C28.285 90.2476 28.7067 90.384 28.9459 90.4514C29.1851 90.5188 29.6843 90.6758 30.0554 90.8005C30.4263 90.925 31.1014 91.0963 31.5555 91.1812C32.0095 91.266 32.6647 91.4348 33.0113 91.5564C33.3579 91.678 33.8648 91.8632 34.1377 91.9679C34.4106 92.0726 34.8579 92.2427 35.1318 92.3458C35.4056 92.4489 35.7978 92.6204 36.0033 92.7269C36.2088 92.8335 36.4093 92.9125 36.4489 92.9026C36.4886 92.8927 36.5998 92.9314 36.6961 92.9886C36.7986 93.0495 36.8447 93.1372 36.8074 93.2ZM31.7442 95.3475C31.7336 95.3969 31.541 95.516 31.3163 95.612C31.0915 95.708 30.6159 95.7952 30.2593 95.8058C29.9027 95.8165 29.5567 95.7938 29.4903 95.7556C29.4239 95.7173 29.2328 95.6754 29.0657 95.6626C28.8271 95.6442 28.5838 95.5243 27.9341 95.1054C27.4789 94.8118 26.9805 94.4501 26.8264 94.3016C26.6478 94.1296 26.5013 93.8656 26.4218 93.5729C26.3368 93.2599 26.3358 93.049 26.4184 92.91C26.485 92.7979 26.5751 92.7057 26.6187 92.7051C26.6624 92.7044 27.0983 92.913 27.5873 93.1685C28.0765 93.424 28.8407 93.8278 29.2857 94.0658C29.7308 94.3037 30.4424 94.6442 30.8671 94.8224C31.2918 95.0006 31.6673 95.1714 31.7015 95.202C31.7356 95.2326 31.7548 95.2981 31.7442 95.3475Z" fill="#BF0F80"/>
</g>
</svg>
