<svg width="100" height="100" viewBox="0 0 100 100" fill="none" xmlns="http://www.w3.org/2000/svg">
<g opacity="0.4">
<path opacity="0.3" d="M51.3572 15.9816C53.4236 10.8579 59.2534 8.38066 64.3761 10.4495L68.3697 12.0624C73.7422 14.2322 76.152 20.4994 73.6172 25.7096L43.6167 87.3733C41.2314 92.276 35.2961 94.2792 30.4277 91.8246C25.8905 89.5369 23.863 84.1542 25.7636 79.4417L51.3572 15.9816Z" fill="#BF0F80"/>
<path fill-rule="evenodd" clip-rule="evenodd" d="M59.3286 1.61429C59.3174 1.65832 59.2231 1.72152 59.119 1.7547C59.0149 1.78781 58.702 1.86037 58.4239 1.91582C58.1457 1.97128 57.7774 2.06606 57.6054 2.12633C57.4027 2.19734 57.2424 2.21354 57.1501 2.17237C57.0652 2.13455 56.8691 2.14544 56.6656 2.19923C56.4775 2.24901 56.1271 2.38038 55.8869 2.4912C55.6467 2.60202 55.343 2.80212 55.2119 2.93583C55.0809 3.06947 54.8877 3.18517 54.7825 3.19289C54.6417 3.20323 54.4571 3.38026 54.0793 3.86729C53.7194 4.33145 53.5141 4.53157 53.3883 4.54081C53.2698 4.54951 53.0886 4.70761 52.8525 5.00839C52.6562 5.25828 52.3966 5.67148 52.2755 5.92653C52.1544 6.18157 51.8688 6.66666 51.6408 7.00452C51.4128 7.34238 51.1724 7.65561 51.1065 7.70062C51.0406 7.74563 50.8819 7.78468 50.7539 7.78747C50.5443 7.79204 50.4767 7.86652 50.0716 8.53943C49.8243 8.95017 49.5073 9.48226 49.3671 9.72173C49.2269 9.9612 49.1336 10.2028 49.1597 10.2585C49.1858 10.3142 49.1496 10.4988 49.0791 10.6687C49.0087 10.8386 48.9083 11.182 48.8561 11.4317C48.7939 11.7287 48.7003 11.9325 48.5855 12.0207C48.4698 12.1095 48.0809 12.963 47.4464 14.5203C46.9165 15.8209 46.4004 17.1368 46.2996 17.4444C46.1987 17.7522 46.052 18.0994 45.9735 18.2162C45.887 18.345 45.8394 18.5439 45.8524 18.7218C45.8667 18.9165 45.8182 19.0933 45.7081 19.2473C45.6169 19.3751 45.3481 19.9142 45.1109 20.4454C44.8737 20.9766 44.583 21.6986 44.4649 22.0498C44.3468 22.401 44.1805 22.781 44.0953 22.8943C44.0102 23.0076 43.8993 23.296 43.8491 23.5352C43.7987 23.7743 43.6956 24.0797 43.6197 24.2137C43.544 24.3477 43.4523 24.5121 43.4161 24.579C43.3799 24.6458 43.2442 25.0236 43.1147 25.4185C42.985 25.8133 42.7881 26.2592 42.6768 26.4094C42.5656 26.5595 42.2173 27.3033 41.9028 28.0621C41.5882 28.8209 40.8791 30.5609 40.3268 31.9287C39.7747 33.2966 39.1012 35.0275 38.8303 35.7753C38.5092 36.6616 38.2662 37.2078 38.1321 37.3445C38.019 37.4599 37.8685 37.7197 37.7976 37.922C37.7267 38.1243 37.5323 38.5764 37.3655 38.9268C37.1987 39.2772 37.0667 39.628 37.072 39.7065C37.0775 39.7849 36.9576 40.0579 36.8056 40.3132C36.6536 40.5686 36.5333 40.8322 36.5382 40.8992C36.5431 40.9661 36.4902 41.1085 36.4205 41.2158C36.3509 41.323 36.0996 41.8979 35.862 42.4934C35.6245 43.0888 35.4122 43.6649 35.3901 43.7736C35.3681 43.8822 35.1895 44.3789 34.9934 44.8774C34.7971 45.3758 34.6088 45.9569 34.5748 46.1686C34.5393 46.3894 34.4637 46.5704 34.3974 46.5931C34.3326 46.6153 33.8968 47.6167 33.4067 48.8695C32.9254 50.0998 32.2893 51.7898 31.9931 52.625C31.6969 53.4603 31.4114 54.2344 31.3588 54.3453C31.3061 54.4562 31.1614 54.8053 31.0373 55.1211C30.9132 55.4368 30.6418 56.0588 30.4342 56.5033C30.2267 56.9479 29.991 57.5375 29.9104 57.8137C29.8298 58.0899 29.7527 58.5005 29.739 58.7263C29.7196 59.0452 29.6708 59.1727 29.5197 59.2984C29.3939 59.4032 29.2367 59.7233 29.0735 60.207C28.9349 60.6178 28.7526 61.0741 28.6683 61.221C28.5841 61.3679 28.4431 61.7736 28.355 62.1225C28.2669 62.4714 28.1231 62.8573 28.0354 62.98C27.9476 63.1027 27.6185 63.7299 27.3041 64.3738C26.9897 65.0178 26.5052 66.0342 26.2274 66.6326C25.9497 67.231 25.4962 68.2452 25.2196 68.8863C24.9431 69.5274 24.5451 70.52 24.3354 71.092C24.1255 71.664 23.8494 72.4725 23.7217 72.8886C23.5777 73.3581 23.4131 73.7247 23.2879 73.8546C23.1729 73.974 22.9832 74.3729 22.8469 74.7822C22.7153 75.1772 22.0821 76.7651 21.4399 78.3108C20.7977 79.8565 20.1566 81.5003 20.0154 81.9639C19.8742 82.4273 19.6375 83.2854 19.4894 83.8708C19.3414 84.4561 19.2116 85.123 19.2012 85.3528C19.1874 85.6544 19.2065 85.7604 19.2697 85.734C19.3179 85.7139 19.6867 84.8513 20.0891 83.8173C20.4917 82.7832 21.1584 81.1592 21.5707 80.2084C21.9832 79.2576 22.5769 77.9179 22.8903 77.2312C23.2037 76.5445 23.8835 75.0777 24.4009 73.9715C24.9183 72.8653 25.7071 71.0208 26.1535 69.8726C26.6 68.7245 26.9903 67.7482 27.0209 67.7031C27.0515 67.658 27.5292 66.537 28.0825 65.2119C28.6357 63.8868 29.7022 61.3914 30.4525 59.6665C31.2028 57.9416 32.215 55.6078 32.7019 54.4802C33.1888 53.3527 34.0297 51.3387 34.5707 50.0048C35.2439 48.3448 35.5482 47.498 35.5353 47.3215C35.5248 47.1797 35.5624 46.9922 35.6186 46.905C35.6749 46.8178 35.7176 46.6859 35.7135 46.612C35.7095 46.5381 35.7868 46.3748 35.8855 46.2491C35.9842 46.1233 36.6949 44.4672 37.4649 42.5687C38.235 40.6704 38.8809 39.025 38.9005 38.9125C38.9201 38.8 39.1842 38.0484 39.4875 37.2421C39.7908 36.4359 40.253 35.39 40.5145 34.918C40.7761 34.4459 41.3461 33.2279 41.7812 32.2112C42.2164 31.1945 44.3534 26.0281 46.5301 20.7304C48.7304 15.3755 50.6974 10.7026 50.9599 10.2073C51.2195 9.71726 51.6619 8.95006 51.9428 8.50244C52.2239 8.05482 52.8718 7.19795 53.3827 6.59839C53.8935 5.99874 54.5586 5.3065 54.8607 5.0599C55.1627 4.81336 55.6272 4.48125 55.893 4.32177C56.1587 4.16237 56.6473 3.92043 56.9788 3.78414C57.3103 3.64778 57.886 3.46048 58.2583 3.36782C58.6307 3.27517 59.3562 3.16856 59.8707 3.13094C60.3852 3.09331 61.1401 3.09151 61.5482 3.12686C61.9563 3.1622 62.6193 3.25309 63.0216 3.32873C63.4238 3.40444 63.9885 3.48604 64.2766 3.51011C64.5647 3.53419 65.3876 3.70441 66.1055 3.88843C66.8233 4.07253 67.597 4.2944 67.8248 4.38159C68.0527 4.46878 68.2631 4.53834 68.2924 4.53619C68.3217 4.53404 68.7656 4.76706 69.2788 5.05399C70.0205 5.46862 70.2805 5.57525 70.5462 5.57356C70.8251 5.57177 70.9572 5.63205 71.3431 5.93697C71.5975 6.13797 71.9 6.31793 72.0152 6.33694C72.1306 6.35588 72.3578 6.4263 72.5202 6.49354C72.6827 6.5607 72.8681 6.70668 72.9321 6.81789C72.9961 6.9291 73.2361 7.14828 73.4655 7.30496C73.6949 7.46163 74.2426 7.80862 74.6827 8.07601C75.1229 8.34339 75.8966 8.91713 76.4022 9.35097C77.0156 9.87732 77.5213 10.3976 77.9223 10.9148C78.2528 11.341 78.659 11.9592 78.825 12.2886C78.991 12.618 79.2315 13.2301 79.3594 13.6489C79.4874 14.0676 79.6451 14.6472 79.7099 14.9367C79.7759 15.2314 79.8031 15.5207 79.7717 15.5938C79.7408 15.6657 79.7042 16.1108 79.6903 16.5827C79.6764 17.0547 79.63 17.6712 79.5873 17.9526C79.5446 18.2341 79.4581 18.6082 79.3951 18.7841C79.3322 18.96 79.2327 19.3001 79.1741 19.5399C79.1155 19.7797 78.9285 20.2488 78.7585 20.5824C78.5884 20.916 78.3245 21.4433 78.1721 21.7542C78.0196 22.0651 77.7787 22.5032 77.6369 22.7277C77.495 22.9522 77.3803 23.1708 77.382 23.2135C77.3837 23.2562 77.3107 23.4892 77.2199 23.7314C77.1292 23.9735 76.8745 24.5002 76.6538 24.9017C76.4332 25.3033 75.4225 27.3742 74.408 29.5039C73.3933 31.6335 72.3778 33.7861 72.1513 34.2872C71.9247 34.7884 71.5855 35.5489 71.3975 35.9773C71.2095 36.4057 70.9126 37.0491 70.7377 37.407C70.5629 37.7649 70.0523 38.7483 69.603 39.5922C69.1537 40.4361 68.6008 41.5288 68.3742 42.0204C68.1477 42.512 67.969 43.0048 67.9771 43.1156C67.9853 43.2263 67.9327 43.367 67.8604 43.4282C67.788 43.4895 67.6052 43.8132 67.454 44.1476C67.3029 44.482 66.9108 45.2639 66.5827 45.8853C66.2547 46.5066 65.9528 47.1653 65.912 47.3491C65.8712 47.5328 65.7165 47.8945 65.5683 48.1528C65.4201 48.411 65.0214 49.2382 64.6824 49.991C64.3433 50.7438 63.9622 51.5645 63.8354 51.8149C63.7086 52.0653 63.6104 52.3456 63.6172 52.4379C63.6239 52.5301 63.5051 52.8788 63.3531 53.2127C63.201 53.5465 63.0327 53.8404 62.9791 53.8656C62.9254 53.891 62.6958 54.3165 62.4687 54.8113C62.2416 55.3061 61.8939 56.0058 61.6959 56.3662C61.4979 56.7267 61.2426 57.3177 61.1285 57.6796C61.0144 58.0416 60.8066 58.4996 60.6665 58.6975C60.5264 58.8954 60.2484 59.4266 60.0485 59.878C59.8486 60.3293 59.6875 60.8008 59.6904 60.9257C59.6933 61.0506 59.6098 61.3574 59.5048 61.6075C59.3737 61.9198 59.262 62.0736 59.1482 62.0987C59.0265 62.1255 58.8911 62.3398 58.6389 62.9049C58.4499 63.3282 57.939 64.4057 57.5036 65.2993C57.0683 66.1929 56.5107 67.3656 56.2646 67.9053C56.0185 68.445 55.6989 69.1976 55.5542 69.5776C55.4096 69.9576 55.2445 70.2905 55.1874 70.3174C55.1303 70.3443 54.8613 70.8787 54.5897 71.5048C54.3181 72.1309 53.7287 73.4233 53.2799 74.3768C52.8311 75.3303 52.2133 76.7176 51.907 77.4597C51.6007 78.2017 51.2009 79.0718 51.0186 79.3932C50.8362 79.7146 50.55 80.2503 50.3826 80.5837C50.2152 80.9171 49.9606 81.5346 49.8169 81.956C49.6733 82.3772 49.5276 82.8691 49.4933 83.0489C49.4589 83.2288 49.3252 83.4981 49.1964 83.6474C49.0675 83.7966 48.7205 84.3568 48.4251 84.8922C48.1299 85.4277 47.7705 86.1372 47.6266 86.4689C47.4827 86.8006 47.3257 87.1274 47.2778 87.1951C47.2298 87.2629 47.1249 87.5158 47.0448 87.7571C46.9646 87.9985 46.7506 88.5572 46.5693 88.9987C46.3879 89.4401 46.1259 90.0024 45.9871 90.2481C45.8482 90.4937 45.6734 90.9038 45.5987 91.1593C45.524 91.4147 45.4676 91.6884 45.4734 91.7675C45.4793 91.8482 45.394 91.9626 45.2791 92.0282C45.1318 92.1123 44.9122 92.4847 44.497 93.3549C44.1795 94.0203 43.737 94.9809 43.5136 95.4897C43.2902 95.9985 43.061 96.4496 43.0043 96.4921C42.9332 96.5454 42.6536 96.4648 42.1076 96.2336C41.6712 96.0489 40.5581 95.588 39.6339 95.2095C38.7098 94.8311 37.4505 94.3277 36.8355 94.091C36.2205 93.8543 35.6114 93.6437 35.4818 93.623C35.3522 93.6022 35.1723 93.5306 35.082 93.4637C34.9918 93.3969 34.0887 92.9891 33.0753 92.5576C32.0619 92.1261 31.1067 91.7221 30.9528 91.66C30.7988 91.5977 30.4797 91.5205 30.2435 91.4883C30.0074 91.4561 29.734 91.3645 29.6357 91.2847C29.5049 91.1784 29.2986 91.136 28.8646 91.1264C28.4702 91.1177 28.2247 91.0724 28.1309 90.9911C27.9982 90.8762 28.0048 90.8679 28.2445 90.8503C28.4135 90.8379 28.486 90.7999 28.4603 90.7372C28.439 90.6853 28.085 90.5424 27.6736 90.4199C27.2622 90.2974 26.6721 90.068 26.3622 89.9103C26.0524 89.7526 25.6377 89.5882 25.4408 89.5449C25.2439 89.5017 24.9453 89.3868 24.7773 89.2897C24.6093 89.1925 24.3439 89.0808 24.1876 89.0414C24.0312 89.0021 23.7267 89.0015 23.5106 89.04C23.2556 89.0855 23.0685 89.0791 22.9772 89.0219C22.8998 88.9734 22.8336 88.8942 22.83 88.8456C22.8265 88.7971 22.8652 88.7543 22.9162 88.7505C22.9782 88.746 22.9813 88.7199 22.9256 88.6717C22.8799 88.6321 22.6357 88.5616 22.3831 88.515C22.1305 88.4685 21.9097 88.4468 21.8924 88.4668C21.8751 88.4869 21.9051 88.5731 21.959 88.6584C22.0129 88.7438 22.1053 88.8101 22.1642 88.8058C22.2232 88.8014 22.3756 88.8732 22.503 88.9653C22.6305 89.0574 23.2211 89.336 23.8156 89.5844C24.5686 89.8991 24.9918 90.0326 25.2109 90.0247C25.3839 90.0183 25.7328 90.0907 25.9863 90.1853C26.2552 90.2856 26.4678 90.4171 26.4963 90.5007C26.5231 90.5796 26.6425 90.7034 26.7617 90.7758C26.8808 90.8483 27.1756 90.9795 27.4169 91.0673C27.6581 91.1551 28.0607 91.3262 28.3115 91.4476C28.5624 91.5689 28.8544 91.6619 28.9606 91.6541C29.1069 91.6433 29.1929 91.7075 29.3163 91.9195C29.4581 92.1631 29.5762 92.2341 30.2363 92.4716C30.6528 92.6216 31.245 92.8387 31.5523 92.9542C31.8595 93.0696 32.3423 93.2814 32.6251 93.4246C32.9079 93.5679 33.5367 93.8084 34.0225 93.959C34.5083 94.1097 35.084 94.2835 35.302 94.3453C35.52 94.4071 35.8007 94.5575 35.9259 94.6795C36.0842 94.8338 36.1473 94.9612 36.133 95.0975C36.1162 95.2576 36.1787 95.3353 36.4733 95.5201C36.6718 95.6448 36.8703 95.744 36.9146 95.7407C36.9588 95.7375 36.9933 95.711 36.9911 95.6817C36.989 95.6525 36.9029 95.5507 36.7999 95.4554L36.6125 95.2821L36.9252 95.312C37.0971 95.3284 37.8501 95.5955 38.5985 95.9056C39.3469 96.2156 40.0015 96.5345 40.053 96.6144C40.1119 96.7054 40.4021 96.8251 40.8325 96.9358C41.2096 97.0329 41.7336 97.2021 41.9967 97.312C42.4561 97.5037 42.4779 97.5055 42.5432 97.3583C42.5886 97.2558 42.6646 97.2147 42.7719 97.2346C42.8604 97.251 42.9877 97.3319 43.0549 97.4146C43.1675 97.5531 43.2019 97.5553 43.4951 97.4432C43.709 97.3614 43.9343 97.1748 44.1834 96.8734C44.465 96.5327 44.6075 96.4214 44.778 96.4088C44.9015 96.3998 45.0758 96.3323 45.1655 96.2589C45.2553 96.1855 45.3691 96.0282 45.4184 95.9094C45.4677 95.7907 45.5216 95.566 45.538 95.4101C45.5545 95.2542 45.6354 95.0557 45.718 94.9689C45.8005 94.8822 45.9109 94.7106 45.9632 94.5876C46.0156 94.4647 46.0352 94.3317 46.0067 94.2923C45.9782 94.2529 45.9048 94.2242 45.8436 94.2287C45.7824 94.2332 45.7312 94.2215 45.7298 94.2026C45.7285 94.1838 45.7944 94.0324 45.8764 93.8664C45.9804 93.6556 45.9966 93.5571 45.93 93.5401C45.8776 93.5267 45.8307 93.4577 45.8258 93.3867C45.8211 93.3157 45.9083 93.067 46.0197 92.834C46.1311 92.601 46.2736 92.4067 46.3365 92.4021C46.3993 92.3975 46.4529 92.4238 46.4556 92.4607C46.4583 92.4975 46.3946 92.6258 46.3139 92.7459C46.2325 92.867 46.192 93.0167 46.2229 93.0825C46.2559 93.153 46.3263 93.1784 46.3965 93.1453C46.4614 93.1147 46.5595 93.0863 46.6146 93.0823C46.6697 93.0782 46.7438 92.9765 46.7793 92.8561C46.8149 92.7357 46.8584 92.5365 46.876 92.4134C46.894 92.2877 46.8663 92.146 46.8128 92.0902C46.7418 92.0162 46.7351 91.9205 46.7866 91.7143C46.8325 91.5301 46.9754 91.3372 47.2133 91.1376C47.4101 90.9727 47.6214 90.7468 47.6829 90.6356C47.7444 90.5245 47.7685 90.3972 47.7364 90.3529C47.7044 90.3085 47.7073 90.0934 47.7429 89.8749C47.7952 89.5536 47.7852 89.4422 47.6905 89.2925C47.5916 89.1358 47.589 89.0742 47.6738 88.8925C47.729 88.7744 47.8392 88.6602 47.9187 88.6386C47.9982 88.6172 48.1165 88.6608 48.1815 88.7356C48.2921 88.8627 48.3321 88.831 48.7923 88.2516C49.1456 87.8067 49.2711 87.5892 49.2367 87.4815C49.2083 87.3924 49.2517 87.2535 49.3435 87.1399C49.4446 87.0147 49.4859 86.8671 49.4629 86.7135C49.4392 86.5557 49.5068 86.3285 49.6691 86.0202C49.8667 85.6451 49.949 85.5588 50.1212 85.5462C50.3264 85.5311 50.3316 85.5174 50.3306 84.9889L50.3296 84.4471L50.7002 84.2192C50.969 84.0538 51.0846 83.927 51.1216 83.757C51.1495 83.6282 51.1999 83.4682 51.2336 83.4015C51.2673 83.3348 51.3405 83.1543 51.3965 83.0003C51.4525 82.8464 51.5563 82.6461 51.6273 82.5552C51.6983 82.4644 51.7569 82.2499 51.7577 82.0786C51.7585 81.8899 51.8226 81.686 51.9203 81.5614C52.009 81.4483 52.0781 81.3032 52.0738 81.2388C52.0695 81.1745 52.1396 80.9269 52.2296 80.6886C52.3196 80.4504 52.504 80.1127 52.6394 79.9382C52.7748 79.7638 52.8826 79.5803 52.8789 79.5306C52.8753 79.4808 52.9155 79.3816 52.9685 79.3101C53.0215 79.2386 53.1133 79.013 53.1727 78.8088C53.2514 78.5378 53.3314 78.4207 53.4689 78.3751C53.5909 78.3347 53.6396 78.275 53.6071 78.2057C53.5795 78.1469 53.583 77.9029 53.6151 77.6635C53.6493 77.4069 53.7142 77.2252 53.773 77.2209C53.828 77.2169 53.878 77.2833 53.8843 77.3684C53.8905 77.4536 53.9215 77.52 53.9533 77.5159C53.9851 77.5119 54.1275 77.2698 54.2699 76.978C54.4566 76.5955 54.5037 76.4257 54.4387 76.3694C54.389 76.3264 54.3448 76.2425 54.3405 76.1829C54.3361 76.1233 54.4358 75.9625 54.562 75.8256C54.7537 75.6175 54.795 75.4974 54.8126 75.0967C54.8281 74.7416 54.8748 74.5782 54.9927 74.4671C55.0803 74.3846 55.1254 74.3191 55.0929 74.3215C55.0604 74.3239 55.0925 74.2502 55.1644 74.1578C55.2439 74.0555 55.3034 73.7997 55.3163 73.5049C55.3295 73.2009 55.3052 72.9863 55.2508 72.9296C55.2031 72.8799 55.1796 72.7501 55.1985 72.6411C55.2195 72.5202 55.2877 72.4389 55.3735 72.4326C55.4507 72.4269 55.5472 72.3323 55.5877 72.2223C55.6282 72.1122 55.7009 72.0193 55.7492 72.0158C55.803 72.0118 55.8236 72.0783 55.8022 72.187C55.7831 72.2847 55.7552 72.4971 55.7403 72.6587C55.7237 72.8391 55.7437 72.9503 55.7923 72.9468C55.8358 72.9436 55.9723 72.8382 56.0954 72.7125C56.2187 72.587 56.3167 72.4465 56.3133 72.4004C56.31 72.3543 56.3993 72.1442 56.5119 71.9334C56.6244 71.7226 56.709 71.4475 56.6998 71.3221C56.6906 71.1967 56.7291 70.9485 56.7853 70.7706C56.8592 70.5372 56.9579 70.4114 57.1402 70.3188C57.2791 70.2482 57.389 70.1391 57.3844 70.0763C57.3798 70.0135 57.4505 69.8576 57.5416 69.7299C57.6326 69.6022 57.9509 68.9879 58.2488 68.3647C58.5467 67.7416 59.0258 66.6555 59.3133 65.9512C59.6009 65.2469 59.9164 64.402 60.0144 64.0736C60.1124 63.7453 60.3085 63.3106 60.4504 63.1075C60.5923 62.9044 60.8501 62.4909 61.0233 62.1888C61.1965 61.8866 61.316 61.5919 61.2888 61.5341C61.2606 61.4739 61.393 61.2314 61.598 60.9679C61.7952 60.7144 62.0035 60.372 62.061 60.2068C62.1184 60.0417 62.2315 59.6987 62.3123 59.4446C62.3932 59.1905 62.5581 58.8753 62.679 58.7442C62.8187 58.5926 62.8931 58.43 62.8833 58.2975C62.8749 58.1828 62.931 57.9954 63.008 57.8809C63.0849 57.7664 63.1436 57.6145 63.1384 57.5434C63.1332 57.4724 63.219 57.2455 63.329 57.0395C63.4391 56.8334 63.5981 56.6209 63.6824 56.5674C63.7667 56.5138 63.831 56.4062 63.8252 56.3284C63.8195 56.2504 63.8798 56.09 63.9593 55.9717C64.0387 55.8535 64.2986 55.3498 64.5368 54.8524C64.7749 54.355 64.9677 53.9201 64.9652 53.886C64.9627 53.8519 64.9086 53.8278 64.8449 53.8325C64.7812 53.8371 64.7265 53.8049 64.7232 53.7608C64.72 53.7167 64.7671 53.5906 64.828 53.4807C64.8888 53.3706 64.9836 53.2773 65.0387 53.2733C65.0937 53.2693 65.2185 53.1554 65.3159 53.0203C65.4133 52.8851 65.6426 52.4742 65.8255 52.1071C66.0083 51.7399 66.4335 50.8365 66.7703 50.0993C67.1071 49.3622 67.3787 48.7056 67.3739 48.6403C67.3691 48.5749 67.4392 48.417 67.5297 48.2894C67.6201 48.1617 67.8157 47.8031 67.9643 47.4925C68.1128 47.1818 68.3899 46.5916 68.5801 46.1808C68.8283 45.6445 68.9092 45.3838 68.867 45.256C68.8316 45.1485 68.87 44.8945 68.9642 44.6152C69.0938 44.23 69.1626 44.135 69.3745 44.0487C69.6067 43.9541 69.6734 43.8366 70.135 42.7088C70.4132 42.0288 70.6676 41.4496 70.7003 41.4217C70.733 41.3938 70.8929 41.1652 71.0558 40.9138C71.2187 40.6624 71.3488 40.4147 71.345 40.3633C71.3412 40.312 71.4015 40.1181 71.479 39.9325C71.5565 39.747 71.6794 39.3805 71.7523 39.1183C71.8488 38.7705 71.9393 38.61 72.0864 38.5251C72.2433 38.4346 72.284 38.3539 72.2698 38.1613C72.2559 37.9714 72.3107 37.8591 72.506 37.6778C72.6475 37.5465 72.7551 37.3716 72.7486 37.2835C72.7422 37.1964 72.8465 36.8898 72.9802 36.6021C73.1139 36.3145 73.295 35.9798 73.3826 35.8584C73.4701 35.737 73.5686 35.496 73.6014 35.3228C73.6341 35.1497 73.6734 34.9114 73.6887 34.7933C73.7039 34.6752 73.8113 34.4526 73.9275 34.2984C74.0436 34.1443 74.1357 33.9781 74.1321 33.9291C74.1285 33.8801 74.2003 33.6604 74.2916 33.4411C74.418 33.1374 74.4999 33.0391 74.6348 33.0292C74.7386 33.0216 74.8702 32.9234 74.9529 32.7918C75.0304 32.6684 75.1407 32.3713 75.1982 32.1315C75.2556 31.8919 75.3767 31.6202 75.4674 31.5279C75.5581 31.4356 75.6854 31.2336 75.7505 31.079C75.8155 30.9244 75.9354 30.4792 76.0169 30.0897C76.1389 29.5069 76.1953 29.3719 76.3355 29.3268C76.4302 29.2963 76.565 29.1383 76.6392 28.9706C76.7125 28.8048 76.7701 28.636 76.7671 28.5955C76.7642 28.555 76.9128 28.2879 77.0974 28.0018C77.282 27.7157 77.6557 27.0121 77.9279 26.4382C78.2001 25.8642 78.5357 25.1761 78.6737 24.9091C78.8117 24.6421 78.9395 24.3289 78.9577 24.2131C78.976 24.0973 79.0998 23.8353 79.2329 23.6308C79.3661 23.4263 79.5646 23.0431 79.674 22.7791C79.7834 22.515 79.8492 22.2486 79.8203 22.1869C79.7909 22.1242 79.834 22.0088 79.9184 21.9248C80.0012 21.8424 80.0633 21.6968 80.0563 21.6013C80.0493 21.5058 80.0867 21.2569 80.1393 21.0481C80.192 20.8394 80.2814 20.6126 80.338 20.5443C80.4244 20.4398 80.4526 20.4362 80.5144 20.5218C80.5549 20.5778 80.6224 20.5988 80.6642 20.5683C80.7061 20.5379 80.7945 20.2905 80.8607 20.0185C80.9269 19.7465 81.0357 19.2285 81.1026 18.8674C81.2008 18.3377 81.2043 18.1743 81.1216 18.0226C81.0368 17.8673 81.046 17.721 81.1742 17.1873C81.272 16.78 81.3345 16.1993 81.3427 15.6201C81.3546 14.7878 81.336 14.6369 81.1467 14.0387C81.0317 13.6749 80.9046 13.2221 80.8645 13.0324C80.8242 12.8427 80.6432 12.3319 80.4621 11.8973C80.281 11.4628 79.962 10.8732 79.7531 10.5871C79.5442 10.301 79.2663 9.9448 79.1355 9.79552C79.0048 9.64616 78.7575 9.44269 78.5861 9.34326C78.346 9.20403 78.2812 9.12447 78.3046 8.99734C78.326 8.88072 78.2364 8.73036 77.9989 8.48484C77.8139 8.29376 77.3867 7.95918 77.0493 7.74131C76.7118 7.52345 76.3359 7.30404 76.2138 7.25377C76.0917 7.2035 75.894 7.08396 75.7745 6.98819C75.6545 6.89199 75.5724 6.76326 75.5912 6.70078C75.6144 6.62364 75.3437 6.42679 74.7431 6.084C74.258 5.80707 73.824 5.51214 73.7789 5.42874C73.7271 5.33321 73.491 5.21821 73.1417 5.11829C72.8365 5.03102 72.3308 4.83197 72.0178 4.67598C71.7049 4.52 71.0193 4.21996 70.4943 4.00917C69.9693 3.79838 69.3604 3.56183 69.1412 3.48358C68.9221 3.40532 68.5825 3.29901 68.3866 3.24722C68.1907 3.19544 67.9405 3.1169 67.8305 3.07258C67.7206 3.02834 67.5125 2.91774 67.3682 2.82691C67.2238 2.736 66.9899 2.64131 66.8483 2.61653C66.7067 2.59174 66.3732 2.49814 66.1071 2.40861C65.8411 2.319 65.1829 2.15427 64.6445 2.0424C64.1061 1.93061 63.574 1.78145 63.4621 1.71104C63.3487 1.63958 62.9898 1.56286 62.6507 1.53747C62.3163 1.51252 61.7509 1.51348 61.3943 1.53967C61.0377 1.56586 60.7218 1.55402 60.6925 1.51336C60.6631 1.4727 60.3488 1.46075 59.9939 1.48681C59.6283 1.51366 59.34 1.56885 59.3286 1.61429ZM57.8388 8.09797C57.544 8.15169 57.1691 8.27739 57.0057 8.37728C56.8423 8.47709 56.3545 8.73142 55.9218 8.94232C55.4891 9.15322 55.0036 9.43766 54.8429 9.57441C54.6822 9.71115 54.4186 9.92614 54.2572 10.0523C54.0957 10.1783 53.6563 10.6405 53.2807 11.0795C52.9052 11.5184 52.4498 12.1255 52.2689 12.4286C52.088 12.7317 51.5618 13.9088 51.0996 15.0444C50.6375 16.1801 50.1493 17.415 50.0149 17.7888C49.8804 18.1627 49.6937 18.6318 49.6 18.8313C49.5063 19.0309 49.1932 19.6728 48.9043 20.2579C48.6153 20.843 48.2129 21.7218 48.0101 22.2107C47.8072 22.6996 47.6355 23.2088 47.6286 23.3422C47.6216 23.4756 47.5658 23.6289 47.5045 23.6828C47.4432 23.7368 47.3466 23.9245 47.2898 24.0999C47.2329 24.2753 46.9604 24.8974 46.6842 25.4822C46.408 26.067 46.1467 26.7043 46.1037 26.8983C46.0607 27.0923 45.9509 27.3916 45.8596 27.5634C45.7683 27.7352 45.4238 28.5508 45.0939 29.3756C44.7641 30.2004 44.4996 30.9477 44.5061 31.0363C44.5126 31.1248 44.4285 31.413 44.3192 31.6768C44.2099 31.9404 44.0842 32.1588 44.04 32.1621C43.9957 32.1653 43.8566 32.447 43.731 32.788C43.6053 33.129 43.342 33.7351 43.1459 34.1349C42.9499 34.5347 42.7456 35.0752 42.692 35.336C42.6384 35.5968 42.5067 35.9399 42.3994 36.0984C42.2921 36.257 42.0826 36.6994 41.9341 37.0816C41.7855 37.4638 41.6717 37.8825 41.6812 38.0118C41.6907 38.1413 41.6535 38.3892 41.5986 38.5629C41.5317 38.7745 41.4444 38.8906 41.3341 38.9148C41.2075 38.9426 41.0697 39.1919 40.7378 39.9946C40.5004 40.5686 40.0084 41.7432 39.6445 42.6049C39.2806 43.4665 38.8881 44.4762 38.7723 44.8486C38.6566 45.221 38.5028 45.5826 38.4307 45.6521C38.3585 45.7217 38.2522 45.9221 38.1944 46.0977C38.1365 46.2732 37.6943 47.4002 37.2116 48.6021C36.729 49.8041 36.2181 51.1377 36.0765 51.5658C35.9348 51.9938 35.7839 52.4167 35.7412 52.5055C35.6984 52.5943 35.4717 53.0488 35.2375 53.5156C34.9832 54.0222 34.7413 54.6517 34.6375 55.0776C34.5417 55.47 34.4483 55.8972 34.4298 56.027C34.4113 56.1568 34.3067 56.3747 34.1974 56.5112C34.0881 56.6476 33.7836 57.187 33.5206 57.7097C33.2575 58.2324 33.0103 58.7935 32.9709 58.9566C32.9316 59.1198 32.8578 59.3092 32.807 59.3774C32.756 59.4457 32.6297 59.7973 32.5263 60.1587C32.4228 60.5201 32.2466 61.0407 32.1349 61.3156C32.0232 61.5905 31.8754 61.9246 31.8064 62.0581C31.7375 62.1916 31.6366 62.5383 31.5822 62.8284C31.5149 63.187 31.4409 63.3705 31.3509 63.4013C31.2692 63.4292 31.0061 63.9641 30.6629 64.7999C30.3574 65.5441 29.8815 66.7649 29.6054 67.5127C29.3293 68.2605 29.0326 68.9829 28.9462 69.118C28.8597 69.2531 28.574 69.8875 28.3114 70.5276C28.0487 71.1677 27.7017 72.0164 27.5405 72.4136C27.3792 72.8107 27.1914 73.3149 27.1232 73.5339C27.0551 73.7528 26.9748 73.9689 26.9448 74.0141C26.9148 74.0592 26.7173 74.4941 26.506 74.9806C26.2947 75.4671 26.0036 76.1108 25.859 76.4111C25.7145 76.7114 25.5251 77.1457 25.438 77.3762C25.3509 77.6067 25.2861 77.8886 25.2941 78.0028C25.302 78.1169 25.2581 78.2688 25.1964 78.3406C25.1347 78.4123 25.0602 78.5864 25.0308 78.7275C25.0014 78.8687 24.988 79.1282 25.0009 79.3042C25.0148 79.4943 24.9803 79.667 24.9157 79.7292C24.8229 79.8188 24.8043 79.7978 24.7887 79.5859C24.7767 79.4219 24.7386 79.3511 24.6765 79.377C24.6248 79.3986 24.4988 79.7026 24.3963 80.0528C24.2939 80.4028 24.1089 80.8672 23.9854 81.0847C23.8617 81.3023 23.7312 81.6243 23.6953 81.8002C23.6594 81.9762 23.5887 82.1603 23.5382 82.2094C23.4876 82.2585 23.3981 82.4513 23.3391 82.6376C23.2632 82.8779 23.2533 83.0966 23.3054 83.3899C23.3577 83.684 23.351 83.8302 23.2823 83.8965C23.2156 83.9609 23.1685 83.9657 23.1298 83.9122C23.099 83.8695 23.0445 83.8368 23.0089 83.8394C22.9731 83.842 22.9147 84.0234 22.879 84.2424C22.8434 84.4614 22.8339 84.6576 22.8579 84.6784C22.8819 84.6992 22.9711 84.672 23.0562 84.618C23.1412 84.564 23.2074 84.473 23.2032 84.4158C23.199 84.3586 23.2444 84.2648 23.3041 84.2072C23.3637 84.1497 23.5923 83.6951 23.812 83.1971C24.0909 82.5647 24.2051 82.2062 24.1906 82.0084C24.1791 81.8526 24.2105 81.6029 24.2603 81.4533C24.3132 81.2943 24.4753 81.0891 24.6509 80.959C24.8159 80.8368 24.948 80.6979 24.9445 80.6505C24.941 80.6031 25.0301 80.343 25.1423 80.0726C25.2546 79.8021 25.3885 79.5252 25.4399 79.4572C25.4912 79.3892 25.5372 79.2282 25.542 79.0994C25.5483 78.9297 25.5959 78.8554 25.7146 78.8294C25.8048 78.8097 25.9261 78.7307 25.9842 78.6539C26.0423 78.5771 26.2472 78.0809 26.4396 77.5513C26.6319 77.0217 26.8997 76.389 27.0346 76.1453C27.1695 75.9016 27.4109 75.2547 27.5709 74.7078C27.7442 74.1159 27.9259 73.6542 28.0198 73.5672C28.1066 73.4869 28.2864 73.4124 28.4192 73.4017C28.6027 73.3869 28.7048 73.3147 28.8434 73.1016C28.9439 72.9471 29.0243 72.7971 29.0222 72.7681C29.0201 72.7391 28.9368 72.7779 28.8372 72.8543C28.7377 72.9307 28.6398 72.9945 28.6197 72.996C28.5996 72.9975 28.593 72.8666 28.6049 72.7052C28.6168 72.5438 28.695 72.2665 28.7786 72.0891C28.8622 71.9117 29.0435 71.4955 29.1813 71.1643C29.3191 70.8331 29.5176 70.4682 29.6225 70.3534C29.7274 70.2387 29.8617 69.9486 29.921 69.7088C29.9803 69.4689 30.1155 69.0616 30.2212 68.8036C30.3978 68.3732 30.4024 68.3274 30.2777 68.2494C30.2029 68.2026 30.1497 68.1013 30.1594 68.0244C30.1692 67.9465 30.2984 67.8325 30.451 67.7671C30.6018 67.7026 30.8546 67.4916 31.0127 67.2983C31.2341 67.0277 31.338 66.9558 31.4643 66.986C31.5841 67.0147 31.686 66.9583 31.8423 66.7766C31.981 66.6154 32.0506 66.4493 32.0399 66.3047C32.0309 66.182 32.1017 65.9571 32.1973 65.805C32.2928 65.6529 32.3664 65.4655 32.3607 65.3886C32.3551 65.3118 32.2983 65.2526 32.2347 65.2573C32.171 65.262 32.1168 65.2222 32.1142 65.1688C32.1116 65.1156 32.1556 65.0005 32.2119 64.9133C32.2681 64.826 32.3109 64.7101 32.3069 64.6557C32.3028 64.5996 32.251 64.5798 32.1871 64.6099C32.1252 64.6391 32.0721 64.6288 32.069 64.5871C32.066 64.5453 32.1222 64.3463 32.1939 64.1447C32.2657 63.943 32.3589 63.7531 32.401 63.7225C32.443 63.6919 32.4999 63.6864 32.5273 63.7101C32.5548 63.7339 32.5382 63.8413 32.4905 63.9489C32.4429 64.0565 32.4289 64.1976 32.4593 64.2625C32.4898 64.3274 32.5809 64.3756 32.662 64.3696C32.743 64.3637 32.8447 64.3091 32.8879 64.2483C32.9311 64.1876 32.9805 64.0242 32.9978 63.8853C33.0163 63.7355 32.984 63.5612 32.918 63.4569C32.8562 63.359 32.8226 63.1915 32.8421 63.0789C32.8646 62.9496 32.9823 62.8128 33.1681 62.6997C33.3282 62.6025 33.481 62.4807 33.5077 62.4293C33.5344 62.3779 33.5482 62.0797 33.5384 61.7667C33.5287 61.4537 33.486 61.1795 33.4435 61.1574C33.4011 61.1352 33.3602 61.0332 33.3527 60.9307C33.345 60.826 33.4016 60.7047 33.482 60.6537C33.5606 60.6037 33.6811 60.5799 33.7497 60.6007C33.8183 60.6214 33.8781 60.687 33.8824 60.7463C33.8868 60.8056 33.9162 60.8492 33.9477 60.843C33.9793 60.837 34.1724 60.6129 34.3768 60.3452C34.6104 60.0394 34.7433 59.788 34.7346 59.6687C34.7269 59.5644 34.7557 59.4535 34.7987 59.4224C34.8429 59.3902 34.8487 59.2718 34.8122 59.1488C34.7767 59.0296 34.7812 58.8565 34.8221 58.7642C34.863 58.6718 34.931 58.6143 34.9731 58.6363C35.0153 58.6584 35.0864 58.6497 35.1313 58.6172C35.1881 58.5758 35.1796 58.5403 35.1033 58.5C35.0196 58.4559 35.0117 58.4082 35.0697 58.2981C35.1115 58.2189 35.2285 58.1481 35.3298 58.1406C35.5052 58.1278 35.5113 58.1062 35.4574 57.6829C35.4101 57.3112 35.4231 57.229 35.5368 57.1791C35.6116 57.1462 35.7795 57.0273 35.9099 56.9149C36.0632 56.7828 36.1423 56.6445 36.1334 56.5242C36.1259 56.4217 36.211 56.153 36.3224 55.927C36.4339 55.701 36.5215 55.4673 36.5171 55.4078C36.5127 55.3484 36.4729 55.2807 36.4285 55.2575C36.3841 55.2343 36.3454 55.1826 36.3424 55.1424C36.3395 55.1023 36.4089 54.9861 36.4968 54.884C36.5847 54.7818 36.7066 54.5013 36.7678 54.2607C36.8289 54.0201 36.9527 53.7302 37.0429 53.6165C37.1332 53.5029 37.2652 53.2655 37.3362 53.089C37.4073 52.9125 37.4805 52.6748 37.4991 52.5608C37.5178 52.4461 37.6008 52.3303 37.6851 52.3015C37.8147 52.2571 37.8326 52.185 37.8055 51.8163C37.788 51.578 37.8064 51.3808 37.8464 51.3778C37.8864 51.3749 37.943 51.4058 37.9724 51.4464C38.0018 51.4871 38.0552 51.5182 38.0911 51.5155C38.127 51.5129 38.2394 51.3413 38.3408 51.1341C38.4902 50.8292 38.5066 50.7319 38.4271 50.6229C38.3731 50.5488 38.3253 50.4395 38.3209 50.3799C38.3166 50.3203 38.3995 50.2052 38.5053 50.124C38.6726 49.9955 38.6895 49.9375 38.6353 49.6782C38.592 49.4711 38.608 49.3237 38.6877 49.1951C38.7508 49.0933 38.8402 48.9292 38.8862 48.8303C38.9323 48.7315 38.9561 48.4606 38.939 48.2283C38.922 47.9961 38.8717 47.787 38.8273 47.7638C38.7829 47.7406 38.7418 47.6563 38.7359 47.5765C38.7301 47.4968 38.79 47.4055 38.8691 47.3738C38.9482 47.342 39.0287 47.2637 39.0479 47.1997C39.0672 47.1357 39.1232 47.0804 39.1724 47.0768C39.2352 47.0721 39.2552 47.1868 39.2392 47.4611C39.2221 47.7546 39.2411 47.8497 39.3155 47.843C39.37 47.8381 39.4843 47.7683 39.5697 47.6881C39.6552 47.6078 39.7911 47.3622 39.8719 47.1422C39.9527 46.9222 40.0158 46.5791 40.0121 46.3799C40.0084 46.1807 40.0389 45.942 40.0799 45.8495C40.1245 45.7487 40.2306 45.6757 40.3446 45.6673C40.4493 45.6596 40.5356 45.627 40.5366 45.5948C40.5375 45.5626 40.5459 45.4663 40.5554 45.3808C40.5649 45.2952 40.6098 45.2097 40.6552 45.1907C40.7006 45.1717 40.942 44.6592 41.1916 44.0518C41.4412 43.4444 41.7728 42.5739 41.9286 42.1175C42.0842 41.661 42.2734 41.0203 42.3488 40.6937C42.4242 40.367 42.5385 40.0258 42.6027 39.9355C42.6669 39.8451 42.8475 39.5448 43.004 39.268C43.1606 38.9913 43.2826 38.6824 43.2752 38.5815C43.2675 38.4773 43.3575 38.2925 43.4837 38.1533C43.6057 38.0186 43.7597 37.7807 43.8258 37.6247C43.8918 37.4687 43.9879 37.1428 44.0392 36.9005C44.0906 36.6582 44.2125 36.3726 44.3102 36.2661C44.4079 36.1594 44.4819 35.9907 44.4745 35.8911C44.4672 35.7915 44.4884 35.6471 44.5217 35.5703C44.555 35.4935 44.6285 35.2595 44.6852 35.0501C44.7418 34.8408 44.8676 34.6086 44.9646 34.5341C45.0616 34.4596 45.1374 34.3498 45.133 34.2899C45.1286 34.2301 45.1986 34.0428 45.2884 33.8737C45.3783 33.7046 45.5735 33.2713 45.7222 32.911C45.8709 32.5505 45.9912 32.2375 45.9896 32.2152C45.988 32.193 45.9345 32.1786 45.8708 32.1833C45.8072 32.188 45.7527 32.1598 45.7498 32.1207C45.747 32.0816 45.7616 31.993 45.7825 31.9237C45.8033 31.8545 45.8829 31.7932 45.9595 31.7876C46.0473 31.7811 46.205 31.5774 46.3862 31.2366C46.5443 30.9392 46.9055 30.1083 47.1889 29.3902C47.4723 28.6719 47.701 28.0395 47.6973 27.9846C47.6935 27.9298 47.7541 27.7752 47.8319 27.641C47.9096 27.5069 48.1592 26.9455 48.3864 26.3937C48.7178 25.5889 48.7892 25.3364 48.7471 25.118C48.7183 24.9682 48.7334 24.7263 48.7806 24.5803C48.8412 24.3931 48.9419 24.2834 49.122 24.2085C49.3364 24.1193 49.3939 24.0379 49.4807 23.7003C49.5375 23.4793 49.6166 23.2282 49.6563 23.1425C49.696 23.0568 49.7839 22.8204 49.8517 22.6173C49.9193 22.4141 50.0921 22.0634 50.2355 21.8379C50.3956 21.5862 50.5725 21.128 50.694 20.6501C50.8366 20.0891 50.9442 19.8276 51.0799 19.7122C51.2165 19.5962 51.2531 19.5065 51.2131 19.3855C51.1748 19.2691 51.2135 19.1583 51.3416 19.0186C51.4424 18.9085 51.5215 18.7712 51.5172 18.7133C51.513 18.6554 51.5868 18.4196 51.6813 18.1894C51.7758 17.9591 51.9177 17.6887 51.9966 17.5885C52.0828 17.4792 52.1403 17.2702 52.1405 17.066C52.1407 16.8787 52.1671 16.6373 52.1993 16.5294C52.2313 16.4216 52.3099 16.2828 52.3738 16.2211C52.4378 16.1594 52.4873 16.0708 52.4839 16.0242C52.4804 15.9776 52.5235 15.7861 52.5796 15.5985C52.6595 15.3312 52.7205 15.2548 52.8622 15.2444C52.9652 15.2368 53.0853 15.1526 53.1414 15.0487C53.1955 14.9484 53.2695 14.7071 53.3057 14.5125C53.3419 14.3179 53.4624 14.038 53.5734 13.8906C53.6845 13.7432 53.8137 13.4469 53.8605 13.2321C53.9073 13.0174 53.9767 12.7712 54.0149 12.6851C54.053 12.5989 54.1795 12.5018 54.296 12.4693C54.4244 12.4334 54.5559 12.3125 54.6296 12.1626C54.6966 12.0264 54.8248 11.87 54.9145 11.815C55.0043 11.76 55.4158 11.4639 55.8291 11.1571C56.2422 10.8502 56.801 10.5031 57.0707 10.3858C57.3405 10.2684 57.6068 10.1283 57.6625 10.0746C57.7183 10.0208 58.0681 9.91659 58.4399 9.84297C58.8881 9.75432 59.1424 9.66636 59.195 9.58193C59.2385 9.51194 59.3287 9.47122 59.3954 9.49139C59.4621 9.51156 59.6613 9.46587 59.8381 9.38983C60.015 9.31386 60.2332 9.25674 60.323 9.26291C60.4265 9.2701 60.4905 9.33087 60.4977 9.42905C60.508 9.56989 60.5758 9.58313 61.2457 9.5752C61.6508 9.57036 62.0393 9.58721 62.1091 9.61261C62.1853 9.64033 62.2719 9.60812 62.3261 9.5319C62.3757 9.46201 62.4774 9.40044 62.5519 9.39497C62.6265 9.38949 62.9352 9.48881 63.2378 9.61559C63.5403 9.74245 63.8501 9.8423 63.9261 9.8375C64.0022 9.83277 64.1637 9.89129 64.2849 9.96755C64.4062 10.0439 64.7532 10.1507 65.0559 10.205C65.363 10.2601 65.9088 10.45 66.2904 10.6345C66.6666 10.8164 67.1909 11.0598 67.4554 11.1754C67.72 11.2911 68.0657 11.4481 68.2236 11.5245C68.3815 11.6009 68.6197 11.6791 68.753 11.6984C68.9123 11.7214 69.0142 11.7908 69.0505 11.9011C69.081 11.9934 69.2283 12.1714 69.3779 12.2968C69.5276 12.4222 69.9416 12.6918 70.2981 12.8957C70.8301 13.2002 70.9537 13.3069 70.988 13.4912C71.0111 13.6146 71.17 13.863 71.3413 14.0431C71.5125 14.2232 71.7194 14.4607 71.8009 14.571C71.8825 14.6812 71.9536 14.8323 71.9591 14.9067C71.9646 14.9811 72.1152 15.1727 72.2937 15.3325C72.5505 15.5623 72.7163 15.8373 73.0869 16.6477C73.3445 17.2113 73.6507 17.977 73.7672 18.3493C73.8959 18.7603 73.9685 19.1339 73.9519 19.3006C73.937 19.4516 73.927 19.7676 73.9297 20.0029C73.9323 20.2381 73.9026 20.7529 73.8636 21.1466C73.8244 21.5404 73.7635 21.96 73.7281 22.0791C73.6927 22.1982 73.6038 22.3578 73.5306 22.4338C73.4574 22.5098 73.2766 22.9311 73.129 23.3701C72.9813 23.8091 72.819 24.2239 72.7683 24.2918C72.7175 24.3598 72.629 24.5284 72.5716 24.6667C72.5141 24.8049 72.428 25.0666 72.3801 25.2481C72.3323 25.4297 72.3164 25.6465 72.3448 25.7297C72.3732 25.813 72.3457 25.9463 72.2838 26.0259C72.222 26.1056 72.1103 26.3421 72.0357 26.5516C71.9554 26.7772 71.8306 26.965 71.7296 27.0122C71.6359 27.0561 71.4557 27.2834 71.3291 27.5174C71.2026 27.7514 71.0542 28.1169 70.9993 28.3295C70.9445 28.5423 70.8463 28.7627 70.781 28.8194C70.706 28.8846 70.6444 29.149 70.6136 29.5372C70.5717 30.0667 70.5405 30.1632 70.3883 30.2344C70.2912 30.2799 70.1697 30.4433 70.1183 30.5976C70.0669 30.7519 69.9797 31.1526 69.9245 31.4881C69.8692 31.8236 69.7427 32.2967 69.6434 32.5395C69.5439 32.7822 69.4157 33.044 69.3583 33.1211C69.2889 33.2143 69.1845 33.2526 69.0469 33.2354C68.8534 33.2111 68.8069 33.2749 68.3386 34.2057C68.0629 34.7537 67.8435 35.2542 67.8512 35.3178C67.8589 35.3815 67.7995 35.6486 67.7193 35.9114C67.6391 36.1742 67.5578 36.4549 67.5386 36.5353C67.5195 36.6158 67.4341 36.7054 67.3487 36.7346C67.2482 36.769 67.1013 37.0113 66.9314 37.4232C66.7871 37.7727 66.4848 38.4296 66.2594 38.883C66.0341 39.3364 65.6701 40.1513 65.4506 40.694C65.231 41.2366 65.0238 41.7005 64.9902 41.725C64.9566 41.7493 64.9359 41.8608 64.9441 41.9727C64.9523 42.0845 64.9006 42.2526 64.8294 42.3463C64.758 42.4399 64.5284 42.8444 64.3191 43.2451C64.1098 43.6458 63.8349 44.2395 63.7082 44.5645C63.5814 44.8894 63.4133 45.2081 63.3344 45.2726C63.253 45.3393 63.178 45.5286 63.1609 45.7103C63.1445 45.8865 63.0443 46.148 62.9385 46.2914C62.8326 46.4349 62.6535 46.7994 62.5402 47.1014C62.4271 47.4034 62.213 47.822 62.0646 48.0316C61.9161 48.2411 61.5191 48.9979 61.1823 49.7133C60.8454 50.4288 60.2806 51.6438 59.9273 52.4133C59.5738 53.1829 59.0719 54.3319 58.8116 54.9666C58.5515 55.6013 58.2308 56.2554 58.099 56.4202C57.9672 56.5849 57.7662 56.9193 57.6523 57.1631C57.5385 57.4069 57.3584 57.7495 57.252 57.9243C57.1456 58.099 57.063 58.3016 57.0684 58.3744C57.0737 58.4472 56.968 58.6686 56.8336 58.8665C56.6992 59.0643 56.5916 59.2644 56.5947 59.3111C56.5976 59.3577 56.5353 59.4641 56.456 59.5474C56.3768 59.6307 56.3144 59.7329 56.3175 59.7745C56.3205 59.816 56.1742 60.1629 55.9922 60.5453C55.8103 60.9277 55.6046 61.4332 55.5351 61.6687C55.4656 61.9042 55.3357 62.229 55.2464 62.3905C55.1572 62.552 55.0168 62.8993 54.9345 63.1622C54.8521 63.4252 54.7313 63.6968 54.666 63.7658C54.6007 63.8348 54.2001 64.6699 53.7758 65.6216C53.3515 66.5733 52.7767 67.9117 52.4985 68.5957C52.2202 69.2798 51.902 70.0388 51.7915 70.2824C51.6809 70.526 51.4282 71.035 51.23 71.4135C51.0317 71.792 50.7948 72.2998 50.7033 72.542C50.6073 72.7961 50.5469 73.1223 50.5605 73.3131C50.5804 73.5936 50.5546 73.6601 50.3909 73.7499C50.2644 73.8194 50.1179 74.0512 49.966 74.4217C49.8385 74.7329 49.6888 75.0476 49.6332 75.121C49.5778 75.1944 49.4481 75.5337 49.3451 75.8748C49.2421 76.2158 49.061 76.6235 48.9426 76.7806C48.8242 76.9377 48.38 77.6916 47.9554 78.4559C47.5309 79.2203 46.9705 80.2641 46.7101 80.7756C46.4498 81.2871 46.0539 82.1218 45.8305 82.6306C45.607 83.1394 45.3209 83.861 45.1948 84.2342C45.0686 84.6074 44.8869 84.9886 44.7909 85.0813C44.6949 85.174 44.4272 85.7016 44.196 86.2537C43.9648 86.8059 43.5307 87.7486 43.2314 88.3486C42.932 88.9486 42.5203 89.8195 42.3165 90.2841C42.1127 90.7486 41.7892 91.6371 41.5976 92.2586C41.4061 92.8801 41.2259 93.5414 41.1971 93.7282C41.1684 93.915 41.1523 94.1811 41.1614 94.3196C41.1706 94.458 41.2123 94.5688 41.2542 94.5658C41.2962 94.5627 41.4332 94.3115 41.5588 94.0077C41.6844 93.7039 42.011 92.9705 42.2846 92.378C42.5581 91.7856 42.9385 90.9775 43.1298 90.5823C43.3211 90.1871 43.7623 89.314 44.1103 88.642C44.4583 87.97 45.1227 86.7267 45.5867 85.8791C46.0507 85.0316 46.6088 83.9572 46.827 83.4916C47.0451 83.026 47.4722 82.1014 47.7761 81.4368C48.0799 80.7723 48.7291 79.3975 49.2188 78.3818C49.7085 77.366 50.8492 75.0578 51.7538 73.2524C52.6584 71.4469 53.6646 69.4248 53.99 68.7587C54.3153 68.0925 54.8809 66.8884 55.2468 66.0827C55.6127 65.2771 55.8859 64.5817 55.854 64.5374C55.822 64.4932 55.8596 64.2956 55.9375 64.0984C56.0155 63.9012 56.1213 63.7105 56.1727 63.6746C56.2241 63.6387 56.7944 62.4671 57.4401 61.071C58.0859 59.6749 58.6579 58.4243 58.7112 58.292C58.7645 58.1596 59.0474 57.4557 59.3399 56.7278C59.6897 55.8571 60.0109 55.2014 60.2786 54.8112C60.5024 54.485 61.0027 53.5725 61.3902 52.7834C61.7778 51.9943 62.3563 50.804 62.6759 50.1383C62.9955 49.4726 63.8397 47.6766 64.5518 46.1472C65.2639 44.6178 66.3359 42.3321 66.9338 41.068C67.5318 39.8038 68.4434 37.8452 68.9598 36.7155C69.4761 35.5858 70.4463 33.4477 71.1157 31.9643C71.7852 30.4808 72.4453 29.0136 72.5827 28.7038C72.72 28.394 73.1161 27.4891 73.4628 26.693C73.8095 25.8968 74.3633 24.6126 74.6934 23.8391L75.2936 22.4327L75.345 21.3391C75.3791 20.6131 75.363 20.0123 75.2972 19.5521C75.2427 19.1708 75.1406 18.5652 75.0703 18.2065C75 17.8477 74.884 17.2689 74.8126 16.9203C74.7021 16.3811 74.6479 16.258 74.4494 16.096C74.2784 15.9563 74.1944 15.8019 74.1346 15.5169C74.0897 15.3033 74.0139 15.0656 73.9661 14.9888C73.9183 14.912 73.7531 14.7064 73.5988 14.5319C73.4199 14.3296 73.3287 14.1585 73.3468 14.0598C73.3631 13.9713 73.2575 13.718 73.1002 13.468C72.9489 13.2276 72.5723 12.7832 72.2634 12.4804C71.9545 12.1775 71.4467 11.7313 71.135 11.4887C70.8233 11.2461 70.2714 10.8589 69.9086 10.6284C69.5458 10.3977 68.8859 10.0268 68.4422 9.8041C67.9985 9.58134 67.2326 9.23863 66.7401 9.04258C66.2477 8.84652 65.7949 8.68975 65.734 8.69422C65.6729 8.69871 65.5197 8.65764 65.3934 8.60293C65.2671 8.54829 65.0903 8.50873 65.0005 8.51501C64.9107 8.52137 64.7478 8.46608 64.6386 8.3922C64.5294 8.31833 64.2466 8.21773 64.0103 8.16876C63.7739 8.11971 63.0919 8.02679 62.4946 7.96237C61.6519 7.87136 61.0692 7.86247 59.8918 7.92269C59.0576 7.96535 58.1337 8.04424 57.8388 8.09797ZM62.1525 19.8105C62.1538 19.8284 62.3889 19.9903 62.675 20.1703C62.961 20.3502 63.2362 20.5692 63.2866 20.657C63.337 20.7447 63.4063 20.9484 63.4407 21.1094C63.475 21.2704 63.475 21.4981 63.4404 21.6154C63.406 21.7327 63.2886 21.9403 63.1798 22.0767C63.0708 22.2132 62.8975 22.5061 62.7944 22.7278C62.6914 22.9494 62.5541 23.2573 62.4895 23.4119C62.4248 23.5665 62.3064 23.7396 62.2264 23.7965C62.1464 23.8535 61.9311 24.2722 61.7479 24.7269C61.5648 25.1816 61.3212 25.7415 61.2066 25.9711C61.092 26.2007 60.902 26.6847 60.7844 27.0469C60.6426 27.4831 60.5122 27.7414 60.3981 27.8123C60.3033 27.8711 60.1356 27.9697 60.0255 28.0314C59.8675 28.12 59.7455 28.1298 59.4468 28.0779C59.2387 28.0417 58.9204 27.9398 58.7396 27.8512C58.5588 27.7626 58.2727 27.5576 58.1038 27.3957L57.7967 27.1014L57.937 26.7615C58.0141 26.5745 58.3931 25.7211 58.7792 24.8649C59.1653 24.0088 59.621 22.8718 59.792 22.3384C59.9629 21.805 60.1383 21.1429 60.1817 20.867C60.2252 20.5912 60.2402 20.3478 60.2152 20.3262C60.1901 20.3045 60.1576 20.3022 60.1429 20.3211C60.1281 20.3401 59.8405 20.9888 59.5037 21.7628C59.1669 22.5368 58.5552 23.8692 58.1443 24.7235C57.7335 25.5778 57.3683 26.279 57.3328 26.2816C57.2973 26.2842 57.2422 26.231 57.2104 26.1633C57.1787 26.0955 57.1893 25.9809 57.2341 25.9085C57.2789 25.8361 57.3767 25.6673 57.4515 25.5334C57.5364 25.3812 57.5778 25.1586 57.5619 24.94C57.5443 24.6964 57.4732 24.51 57.3279 24.3261C57.2131 24.1809 56.9947 24.0136 56.8426 23.9544C56.6905 23.8952 56.3941 23.8595 56.1839 23.8749C55.9146 23.8947 55.7301 23.96 55.5593 24.0959C55.426 24.2021 55.257 24.3839 55.1838 24.5001C55.1105 24.6161 55.0436 24.8487 55.0351 25.017C55.0239 25.2392 55.0754 25.4144 55.2237 25.658C55.3678 25.8949 55.5234 26.032 55.7535 26.1251C55.9327 26.1976 56.161 26.2859 56.2609 26.3214C56.3824 26.3645 56.5007 26.5236 56.6178 26.8012C56.7142 27.0296 56.7976 27.2632 56.8032 27.3202C56.8088 27.3772 56.6689 27.7115 56.4925 28.0631C56.316 28.4146 56.1332 28.7051 56.0863 28.7085C56.0394 28.712 55.9329 28.6497 55.8498 28.5702C55.7668 28.4907 55.6563 28.4287 55.6043 28.4326C55.5525 28.4364 55.4629 28.3904 55.4054 28.3304C55.3474 28.27 55.1753 28.2305 55.0194 28.242C54.8434 28.2549 54.6216 28.1953 54.4276 28.0829C54.179 27.939 53.9932 27.9038 53.4924 27.9062C52.9448 27.9087 52.8559 27.9277 52.7739 28.0595C52.7224 28.1422 52.6933 28.3879 52.7093 28.6055C52.7253 28.8231 52.7831 29.0399 52.8378 29.0872C52.8925 29.1346 53.0859 29.1624 53.2676 29.1491C53.4493 29.1357 53.7429 29.171 53.9202 29.2274C54.1391 29.2972 54.3425 29.3064 54.5545 29.2562C54.7782 29.2033 54.9218 29.213 55.0611 29.2905C55.168 29.3501 55.2869 29.3759 55.3255 29.3479C55.364 29.3199 55.4685 29.3295 55.5576 29.3693C55.6469 29.409 55.724 29.4984 55.7291 29.5677C55.7341 29.6371 55.5267 30.1854 55.268 30.786C55.0094 31.3867 54.7581 31.9335 54.7097 32.0013C54.6613 32.0691 54.4356 32.5586 54.2083 33.0891C53.981 33.6195 53.4141 34.8609 52.9487 35.8478C52.4832 36.8347 52.0587 37.6452 52.0054 37.6492C51.9521 37.6531 51.887 37.6265 51.8606 37.59C51.8343 37.5536 51.6613 37.4582 51.4761 37.378C51.2616 37.2852 51.0648 37.253 50.9337 37.2895C50.7949 37.3281 50.6694 37.3027 50.5472 37.2112C50.4476 37.1366 50.2543 37.0484 50.1175 37.0151C49.9807 36.9817 49.6451 36.9785 49.3717 37.008C48.9134 37.0575 48.8715 37.0772 48.8352 37.2592C48.8136 37.3678 48.8028 37.598 48.8112 37.7708C48.8196 37.9436 48.8713 38.1237 48.926 38.1711C48.9807 38.2185 49.1879 38.2453 49.3865 38.2307C49.5851 38.2161 49.8812 38.249 50.0446 38.3037C50.2756 38.3813 50.3926 38.3812 50.5714 38.3035C50.7519 38.2252 50.8412 38.2259 50.9872 38.3073C51.0895 38.3642 51.2624 38.4043 51.3713 38.3963C51.4803 38.3883 51.5897 38.425 51.6145 38.4778C51.6393 38.5306 51.4328 39.0625 51.1558 39.6596C50.8786 40.2569 50.618 40.7597 50.5765 40.7771C50.535 40.7944 50.4983 40.7711 50.4949 40.7252C50.4916 40.6793 50.3369 40.5477 50.1514 40.4325C49.9274 40.2937 49.7204 40.2296 49.5359 40.242C49.3796 40.2525 49.1686 40.2006 49.0538 40.1234C48.8895 40.013 48.7259 39.9949 48.2142 40.0311C47.6175 40.0733 47.5771 40.0868 47.5528 40.2531C47.5385 40.3505 47.5303 40.6051 47.5346 40.8188L47.5424 41.2075L48.0091 41.2209C48.2657 41.2283 48.5717 41.2715 48.6891 41.317C48.8528 41.3803 48.9594 41.3748 49.1466 41.2936C49.343 41.2083 49.4266 41.2077 49.5752 41.2904C49.6767 41.347 49.8047 41.3721 49.8596 41.3462C49.9145 41.3203 50.0317 41.3455 50.1201 41.4023C50.2761 41.5027 50.2667 41.5384 49.7843 42.6733C49.5113 43.3155 49.2483 43.8443 49.1999 43.8484C49.1515 43.8525 49.0848 43.7739 49.0519 43.6738C49.0151 43.5622 48.8643 43.4365 48.6627 43.3492C48.4798 43.2701 48.2707 43.232 48.1923 43.2634C48.1087 43.297 47.9088 43.2498 47.7022 43.148C47.4097 43.0037 47.2686 42.9847 46.8293 43.0301C46.3807 43.0765 46.2986 43.1075 46.2593 43.2456C46.234 43.3344 46.2039 43.5706 46.1924 43.7708C46.1783 44.0147 46.2042 44.1573 46.2709 44.2031C46.3257 44.2408 46.5808 44.2818 46.8378 44.2943C47.0948 44.3067 47.4931 44.2999 47.7228 44.2791C47.9526 44.2582 48.1803 44.2683 48.2289 44.3014C48.2775 44.3345 48.4402 44.3707 48.5904 44.3818C48.7961 44.3969 48.9035 44.3593 49.0255 44.2293C49.1837 44.0606 49.1877 44.0602 49.1985 44.2082C49.2047 44.2916 49.1097 44.545 48.9877 44.7714C48.8655 44.9978 48.6018 45.5672 48.4015 46.0367C48.2012 46.5062 47.994 46.8942 47.941 46.8987C47.888 46.9033 47.8407 46.855 47.8361 46.7913C47.8314 46.7278 47.672 46.5792 47.482 46.4613C47.2336 46.3072 47.0808 46.2623 46.9387 46.3018C46.8054 46.3388 46.6461 46.3017 46.4494 46.1878C46.2094 46.0488 46.0631 46.0258 45.6228 46.0582C45.2868 46.0828 45.0621 46.1355 45.0189 46.1998C44.981 46.2562 44.9426 46.4929 44.9336 46.726C44.9238 46.982 44.9526 47.1866 45.0065 47.2428C45.0617 47.3004 45.1807 47.3122 45.3186 47.2738C45.4501 47.2372 45.6882 47.2559 45.8989 47.3194C46.1849 47.4055 46.3034 47.4065 46.4928 47.3243C46.6822 47.242 46.7674 47.2427 46.9205 47.328C47.0256 47.3865 47.1413 47.4128 47.1776 47.3864C47.214 47.36 47.3449 47.3735 47.4687 47.4165C47.5925 47.4594 47.7052 47.5007 47.7194 47.5082C47.7336 47.5157 47.578 47.893 47.3736 48.3468C47.1692 48.8005 47.0041 49.2004 47.0066 49.2355C47.0092 49.2706 46.8396 49.7245 46.6296 50.2441C46.4198 50.7638 46.049 51.5407 45.8057 51.9705C45.5625 52.4004 45.326 52.8206 45.2804 52.9043C45.2014 53.0491 45.1884 53.0466 45.0181 52.8557C44.9196 52.7452 44.794 52.6581 44.739 52.6621C44.6841 52.6662 44.5921 52.6204 44.5345 52.5604C44.471 52.4942 44.2986 52.4609 44.0966 52.4758C43.9131 52.4892 43.7398 52.4679 43.7112 52.4283C43.6826 52.3887 43.5442 52.3143 43.4035 52.263C43.2627 52.2116 42.8921 52.1724 42.5797 52.1757C42.0554 52.1813 42.008 52.1948 41.9615 52.3508C41.9339 52.4438 41.9299 52.7111 41.9527 52.9448L41.9941 53.3697L42.3045 53.3696C42.4752 53.3695 42.7881 53.412 42.9996 53.464C43.2396 53.5231 43.5058 53.5329 43.7068 53.49C43.9309 53.4423 44.0827 53.4534 44.2049 53.5265C44.3015 53.5843 44.413 53.6081 44.4526 53.5793C44.4923 53.5505 44.5976 53.5595 44.6868 53.5993C44.776 53.639 44.8524 53.7186 44.8566 53.7761C44.8608 53.8336 44.6655 54.3109 44.4226 54.8367C44.1796 55.3625 43.9335 55.8812 43.8756 55.9893L43.7704 56.1858L43.6039 55.912C43.5124 55.7613 43.3904 55.6415 43.333 55.6457C43.2755 55.6499 43.1814 55.6043 43.1238 55.5443C43.0663 55.4843 42.8973 55.4442 42.7483 55.4551C42.5993 55.466 42.3545 55.4108 42.2042 55.3322C42.0074 55.2293 41.7704 55.1939 41.3562 55.2056C40.9793 55.2162 40.7592 55.2549 40.7168 55.3181C40.6813 55.3711 40.6448 55.6051 40.6358 55.8382C40.6257 56.1009 40.6546 56.2986 40.7116 56.3581C40.7623 56.4109 40.9516 56.4433 41.1323 56.4301C41.313 56.4168 41.5935 56.4505 41.7558 56.5049C41.9909 56.5837 42.1024 56.5825 42.3043 56.4988C42.4843 56.4241 42.6039 56.4143 42.7169 56.4647C42.8044 56.5036 42.9566 56.5307 43.0549 56.5249C43.1534 56.519 43.3072 56.562 43.3969 56.6204C43.5566 56.7243 43.5521 56.7444 43.1693 57.6271C42.9545 58.1225 42.7194 58.646 42.6469 58.7905C42.5745 58.935 42.4696 59.0565 42.4141 59.0606C42.3584 59.0647 42.2859 58.9861 42.2529 58.886C42.2169 58.7766 42.0678 58.6497 41.8796 58.5683C41.7041 58.4923 41.4958 58.4569 41.4061 58.4876C41.3048 58.5223 41.1278 58.476 40.9252 58.3619C40.6509 58.2075 40.5209 58.1876 40.0267 58.2239C39.555 58.2585 39.4375 58.2922 39.3871 58.4071C39.3532 58.4845 39.3271 58.7398 39.329 58.9746L39.3326 59.4013L39.8 59.4246C40.0571 59.4375 40.353 59.479 40.4577 59.5169C40.5652 59.5559 40.7931 59.5529 40.9818 59.5103C41.1692 59.4679 41.36 59.4652 41.4169 59.5043C41.4727 59.5425 41.6872 59.5858 41.8936 59.6004C42.0999 59.6151 42.2598 59.6515 42.2488 59.6815C42.2377 59.7114 41.9947 60.2698 41.7086 60.9223C41.4226 61.5749 41.1429 62.1121 41.0869 62.1162C41.0309 62.1203 40.9581 62.0416 40.925 61.9415C40.892 61.8412 40.7358 61.695 40.578 61.6166C40.42 61.5382 40.1681 61.483 40.018 61.4941C39.862 61.5055 39.6561 61.4539 39.5375 61.3737C39.3701 61.2605 39.2129 61.2418 38.7272 61.2775C38.3959 61.3018 38.1105 61.349 38.0932 61.3824C38.0759 61.4158 38.0664 61.6705 38.072 61.9483L38.0822 62.4536L38.5101 62.4673C38.7454 62.4748 39.0415 62.5154 39.1682 62.5576C39.3371 62.6137 39.4631 62.6073 39.6416 62.5332C39.8024 62.4666 39.949 62.4532 40.0738 62.4938C40.1777 62.5276 40.3688 62.573 40.4985 62.5949C40.6281 62.6166 40.7771 62.6241 40.8295 62.6114C40.8819 62.5987 40.9259 62.6033 40.9273 62.6215C40.9286 62.6398 40.6869 63.2023 40.39 63.8715C40.0932 64.5406 39.8206 65.1098 39.7843 65.1362C39.748 65.1626 39.6785 65.0989 39.6299 64.9946C39.5814 64.8902 39.3991 64.7247 39.2247 64.6265C38.9962 64.4978 38.8534 64.466 38.7131 64.5125C38.5698 64.56 38.4458 64.5293 38.2422 64.396C37.9944 64.2338 37.9079 64.2216 37.4068 64.2786C37.0143 64.3232 36.8324 64.3769 36.7964 64.459C36.7681 64.5232 36.7356 64.7556 36.7241 64.9754C36.7095 65.2562 36.734 65.3962 36.8068 65.4464C36.8637 65.4856 37.1205 65.5267 37.3774 65.5378C37.6343 65.5488 38.0364 65.5548 38.2709 65.5511C38.5054 65.5474 38.8537 65.5682 39.0451 65.5972C39.2363 65.6263 39.4373 65.6291 39.4918 65.6034C39.5462 65.5778 39.5925 65.5819 39.5947 65.6127C39.597 65.6433 39.4676 65.9631 39.3072 66.3233C39.1468 66.6833 38.3224 68.6053 37.4752 70.5942C36.628 72.5831 35.6519 74.8617 35.306 75.6578C34.9601 76.4539 34.6285 77.2839 34.5691 77.5023C34.5098 77.7208 34.2799 78.3945 34.0584 78.9995C33.8231 79.6421 33.6112 80.1027 33.5489 80.1073C33.4901 80.1116 33.4392 80.075 33.4356 80.0261C33.432 79.9771 33.5047 79.7477 33.5972 79.5165C33.7252 79.1968 33.7486 79.032 33.6951 78.8295C33.6564 78.683 33.5495 78.4574 33.4576 78.3282C33.3637 78.1962 33.1426 78.0385 32.953 77.9685C32.7675 77.9 32.4964 77.8518 32.3505 77.8616C32.2046 77.8714 31.9419 77.9624 31.7667 78.064C31.5917 78.1655 31.3859 78.3687 31.3098 78.5154C31.222 78.6844 31.181 78.9152 31.1978 79.1448C31.2125 79.3441 31.2834 79.6035 31.3554 79.7212C31.4275 79.8388 31.5975 80.0028 31.7334 80.0855C31.8693 80.1683 32.1411 80.2474 32.3375 80.2614C32.6783 80.2856 32.7021 80.3033 32.8647 80.6532C32.996 80.9361 33.0259 81.0993 32.9959 81.3694C32.9741 81.5646 32.8776 81.8173 32.7775 81.9408C32.6788 82.0625 32.5544 82.2957 32.5011 82.4589C32.4478 82.622 32.2975 82.8795 32.1673 83.031C32.0369 83.1826 31.8556 83.4779 31.7642 83.6872C31.6449 83.9608 31.5345 84.0915 31.3715 84.1517C31.2468 84.1978 30.9662 84.3231 30.7479 84.43C30.5295 84.5369 30.1734 84.7773 29.9564 84.9642C29.6847 85.1982 29.4741 85.4806 29.2799 85.8712C29.1248 86.1832 28.9723 86.457 28.941 86.4797C28.9098 86.5023 28.8618 86.4732 28.8344 86.4148C28.8071 86.3564 28.8001 86.0786 28.8189 85.7974C28.8378 85.5163 28.9084 85.1316 28.9758 84.9426C29.0432 84.7535 29.1641 84.4014 29.2445 84.16C29.3248 83.9186 29.4499 83.6687 29.5224 83.6046C29.5949 83.5405 29.6511 83.4455 29.6472 83.3934C29.6434 83.3413 29.6971 83.2413 29.7667 83.1711C29.8363 83.1009 30.0262 83.013 30.1888 82.9757C30.3515 82.9384 30.5377 82.852 30.6026 82.7837C30.6675 82.7155 30.8829 82.6031 31.0812 82.534C31.2795 82.4648 31.5021 82.3326 31.5758 82.24C31.6495 82.1474 31.7163 82.0012 31.7244 81.9149C31.7354 81.7966 31.7016 81.7661 31.5862 81.7906C31.5021 81.8084 31.1574 81.8656 30.8203 81.9176C30.2659 82.0032 30.1471 82.0537 29.5785 82.4461C29.2328 82.6848 28.7973 83.0614 28.6108 83.283C28.4243 83.5046 28.2754 83.7349 28.2798 83.7946C28.2841 83.8545 28.2157 84.095 28.1278 84.3292C28.0328 84.582 27.9907 84.8242 28.0241 84.9257C28.0603 85.0353 28.0278 85.1747 27.9335 85.315C27.8128 85.4947 27.7945 85.6412 27.831 86.1388C27.8555 86.4716 27.9282 86.9247 27.9927 87.1456C28.0571 87.3665 28.1804 87.6832 28.2665 87.8494C28.3525 88.0156 28.5663 88.3134 28.7414 88.5112C28.9164 88.709 29.2123 89.1251 29.3988 89.436C29.6381 89.8348 29.9031 90.1394 30.2995 90.4709C30.6084 90.7293 31.0785 91.0476 31.3442 91.1782C31.6099 91.3089 31.9982 91.4604 32.207 91.5151C32.4158 91.5697 32.8572 91.6352 33.1878 91.6606C33.6812 91.6984 33.9077 91.6768 34.4521 91.5396C34.9613 91.4113 35.2468 91.2842 35.6809 90.9927C36.0049 90.7752 36.4034 90.4173 36.614 90.1548C36.8462 89.8653 37.0102 89.5666 37.0591 89.3436C37.1017 89.1495 37.173 88.9005 37.2176 88.7902C37.2622 88.6799 37.3296 88.3772 37.3673 88.1175C37.4051 87.8578 37.4625 87.6041 37.495 87.5537C37.5275 87.5033 37.5464 87.0815 37.5371 86.6165C37.5242 85.9766 37.4824 85.6626 37.3653 85.3257C37.2803 85.0808 37.1392 84.7759 37.0519 84.6481C36.9611 84.5151 36.8156 84.4102 36.7118 84.4028C36.5456 84.3911 36.5358 84.4113 36.5955 84.6449C36.6313 84.7852 36.6843 85.0794 36.7134 85.299C36.7627 85.6715 36.7536 85.7015 36.5759 85.7492C36.4701 85.7777 36.2512 85.7437 36.0833 85.6728C35.9171 85.6026 35.7779 85.5013 35.7739 85.4478C35.77 85.3943 35.8149 85.2694 35.8739 85.1704C35.9327 85.0713 36.1 84.7097 36.2457 84.3667C36.3913 84.0238 36.6072 83.5384 36.7253 83.2882C36.8434 83.038 36.9837 82.7737 37.0369 82.7009C37.0901 82.6282 37.1715 82.5659 37.2178 82.5625C37.2641 82.5591 37.462 82.6923 37.6577 82.8585C37.995 83.1451 38.0404 83.1601 38.5356 83.1485C38.9578 83.1386 39.1037 83.1024 39.2977 82.9595C39.4297 82.8623 39.5983 82.6642 39.6725 82.5191C39.7554 82.3573 39.7974 82.118 39.7815 81.8992C39.764 81.6581 39.693 81.4618 39.562 81.2925C39.4555 81.1549 39.2064 80.9732 39.0085 80.8888C38.7212 80.7662 38.5754 80.75 38.2854 80.8083C38.0168 80.8623 37.9203 80.8554 37.9152 80.7818C37.9113 80.7271 38.2106 80.0121 38.5801 79.1929C38.9498 78.3737 39.3601 77.4678 39.4921 77.1798C39.624 76.8918 39.8272 76.439 39.9435 76.1735C40.0598 75.9081 40.2307 75.5277 40.3232 75.3283C40.4157 75.1288 40.6276 74.6578 40.7942 74.2817C40.9607 73.9055 41.1936 73.3805 41.3116 73.1149C41.4297 72.8493 41.6599 72.3245 41.823 71.9486C41.9862 71.5727 42.1439 71.2283 42.1736 71.1833C42.2033 71.1383 42.3871 70.7395 42.5821 70.297C42.7771 69.8545 43.0085 69.3121 43.0963 69.0915C43.1841 68.871 43.3811 68.4362 43.534 68.1253L43.8122 67.5599L43.8906 68.0991L43.969 68.6382L44.4354 68.6487C44.6919 68.6543 45.0076 68.6943 45.1369 68.7375C45.278 68.7846 45.4911 68.7866 45.6701 68.7427C45.834 68.7024 46.0448 68.6976 46.1384 68.7322C46.2321 68.7669 46.4476 68.8291 46.6173 68.8705C46.907 68.9413 46.9337 68.934 47.0531 68.752C47.1231 68.6454 47.179 68.5285 47.1773 68.4922C47.1756 68.456 47.1131 68.3205 47.0385 68.191C46.9639 68.0616 46.7762 67.9037 46.6215 67.8401C46.4668 67.7766 46.2225 67.7332 46.0786 67.7438C45.9348 67.7543 45.7671 67.7196 45.706 67.6667C45.6448 67.6137 45.5165 67.5355 45.421 67.4929C45.3254 67.4503 44.9636 67.4221 44.617 67.4303C44.2704 67.4385 43.965 67.4263 43.9383 67.4032C43.9116 67.3801 43.9399 67.2082 44.0012 67.0213C44.0625 66.8344 44.1391 66.627 44.1714 66.5604C44.2036 66.4939 44.3027 66.2711 44.3917 66.0654C44.4806 65.8598 44.7195 65.3518 44.9224 64.9366C45.1255 64.5214 45.311 64.0927 45.3347 63.9839C45.3584 63.8752 45.405 63.7463 45.4382 63.6975C45.4713 63.6487 45.7677 62.9867 46.0967 62.2264C46.4257 61.4661 46.6905 60.7835 46.6851 60.7097C46.6797 60.6357 46.7823 60.3926 46.9131 60.1695C47.0439 59.9463 47.2459 59.5465 47.3619 59.2811C47.4779 59.0157 47.6894 58.5622 47.832 58.2735C47.9746 57.9847 48.1341 57.5901 48.1864 57.3965C48.2388 57.2029 48.355 56.9316 48.4448 56.7937C48.5345 56.6557 48.7012 56.318 48.815 56.0433C48.9289 55.7686 49.0164 55.4644 49.0094 55.3673C49.0024 55.2702 49.0572 55.0726 49.1312 54.928C49.2052 54.7834 49.296 54.6629 49.3331 54.6602C49.3701 54.6574 49.7476 53.8854 50.1718 52.9443C50.5961 52.0034 51.0934 50.8569 51.2771 50.3968C51.4608 49.9366 51.6551 49.502 51.709 49.4309C51.7628 49.3598 52.3029 48.1093 52.909 46.6519C53.5151 45.1945 54.1578 43.711 54.3369 43.3553C54.5161 42.9996 54.7501 42.4298 54.8568 42.089C54.9636 41.7483 55.048 41.4301 55.0444 41.3818C55.0409 41.3337 55.1579 41.107 55.3044 40.8782C55.451 40.6495 55.6663 40.2801 55.7829 40.0574C55.8995 39.8348 56.0725 39.4543 56.1673 39.2118C56.2621 38.9694 56.3799 38.6805 56.4291 38.5698C56.4782 38.4592 56.728 37.8278 56.9842 37.1668C57.2404 36.5057 57.4791 35.9102 57.5145 35.8434C57.55 35.7765 57.6709 35.5575 57.7831 35.3566C57.8953 35.1557 58.3183 34.1788 58.723 33.1857C59.1277 32.1926 59.5273 31.27 59.6107 31.1354C59.6943 31.0008 59.9352 30.4837 60.146 29.9863C60.3568 29.4888 60.5697 29.0429 60.619 28.9952C60.6684 28.9476 60.8838 28.8747 61.0978 28.8332C61.4866 28.7578 61.4871 28.758 61.8839 29.1216C62.154 29.3692 62.3815 29.5041 62.5956 29.544C62.7897 29.5801 63.0202 29.5688 63.1967 29.5145C63.3541 29.4662 63.5665 29.3624 63.6685 29.2841C63.7706 29.2058 63.9135 29.0253 63.9863 28.8832C64.0667 28.7261 64.1084 28.4849 64.0926 28.2684C64.0752 28.0279 64.004 27.8306 63.8737 27.6617C63.7674 27.524 63.5092 27.3412 63.2997 27.2554C62.9918 27.1294 62.8525 27.1146 62.5729 27.1779C62.3592 27.2263 62.1385 27.3454 61.9953 27.49C61.8679 27.6186 61.6906 27.7694 61.6014 27.825C61.5123 27.8807 61.3479 27.9329 61.2361 27.9411C61.0614 27.954 61.0383 27.9311 61.0721 27.778C61.0937 27.6801 61.1955 27.4362 61.2983 27.236C61.4012 27.0357 61.7047 26.4062 61.973 25.837C62.2411 25.2677 62.4957 24.644 62.5384 24.4509C62.5813 24.2578 62.6642 24.0191 62.7228 23.9206C62.7813 23.8221 62.8197 23.612 62.8081 23.4536C62.7965 23.2952 62.8238 23.1389 62.8689 23.1062C62.9139 23.0734 62.9791 23.0858 63.0135 23.1335C63.0607 23.1989 63.0943 23.1941 63.1485 23.1141C63.1882 23.0557 63.2514 22.8811 63.2888 22.7263C63.3262 22.5713 63.4641 22.2471 63.5953 22.0057C63.7264 21.7643 63.8282 21.4922 63.8215 21.4008C63.8148 21.3095 63.8168 21.0805 63.8259 20.8919C63.8388 20.6271 63.8057 20.5089 63.6807 20.3727C63.571 20.2533 63.4089 20.1899 63.1782 20.1761C62.92 20.1606 62.8349 20.1221 62.8267 20.017C62.8207 19.9408 62.7616 19.8493 62.6953 19.8137C62.6291 19.7783 62.4793 19.7557 62.3625 19.7636C62.2457 19.7716 62.1512 19.7927 62.1525 19.8105ZM58.4259 28.646C58.6513 28.7396 59.0257 28.8435 59.2577 28.877C59.4897 28.9104 59.7089 28.9593 59.7447 28.9857C59.7805 29.0119 59.6856 29.3114 59.5339 29.651C59.3822 29.9907 59.1956 30.3082 59.1194 30.3567C59.0431 30.4052 58.952 30.5946 58.917 30.7777C58.882 30.9608 58.7804 31.2857 58.6914 31.4997C58.5666 31.7994 58.5514 31.9119 58.6254 31.989C58.6783 32.0441 58.7017 32.1271 58.6776 32.1736C58.6535 32.2201 58.568 32.2629 58.4875 32.2688C58.4071 32.2747 58.24 32.4271 58.116 32.6075C57.973 32.8157 57.8269 32.9401 57.7161 32.9482C57.6196 32.9553 57.4769 33.0574 57.3967 33.1768C57.3169 33.2955 57.2555 33.4447 57.2602 33.5085C57.2649 33.5722 57.2031 33.7508 57.1229 33.9053C57.0058 34.1307 56.9984 34.1971 57.0851 34.2425C57.1693 34.2866 57.177 34.3422 57.1201 34.4966C57.08 34.6054 57.0695 34.7595 57.0967 34.8392C57.1246 34.9213 57.0833 35.0711 57.0014 35.1849L56.8569 35.3857L56.8616 35.1993C56.8641 35.0968 56.8258 35.0017 56.7764 34.988C56.7269 34.9743 56.631 35.0276 56.563 35.1066C56.466 35.2194 56.4557 35.3251 56.5147 35.6001C56.5877 35.9401 56.581 35.959 56.2806 36.2585L55.9714 36.5669L56.0159 37.1732L56.0604 37.7795L55.802 37.7985C55.5956 37.8137 55.4956 37.8837 55.3049 38.1464C55.1736 38.3273 55.0699 38.5343 55.0746 38.6063C55.0793 38.6784 55.0499 38.7614 55.0094 38.7909C54.9689 38.8203 54.9429 38.9426 54.9517 39.0627C54.9606 39.1827 54.9188 39.328 54.8591 39.3857C54.7993 39.4435 54.7533 39.5304 54.7568 39.5789C54.7604 39.6275 54.6876 39.7074 54.5952 39.7564C54.4696 39.8231 54.4236 39.9298 54.4128 40.1788C54.4012 40.4511 54.3546 40.5435 54.1588 40.6829C54.027 40.7769 53.9233 40.9153 53.9282 40.9904C53.9332 41.0656 53.862 41.2851 53.77 41.4782C53.6781 41.6713 53.6093 41.9188 53.6173 42.0282C53.6254 42.1376 53.5896 42.2856 53.5379 42.3569C53.4861 42.4284 53.4064 42.6121 53.3607 42.7653C53.3149 42.9185 53.1759 43.2102 53.0519 43.4134C52.9278 43.6167 52.81 43.8767 52.7901 43.9913C52.7702 44.1059 52.692 44.2648 52.6163 44.3443C52.5407 44.4239 52.486 44.5881 52.4949 44.7093C52.5065 44.8671 52.4728 44.9327 52.376 44.9404C52.3018 44.9464 52.175 45.0722 52.0943 45.22C52.0055 45.3826 51.9674 45.5626 51.9977 45.6759C52.0314 45.8014 51.9986 45.915 51.8984 46.0203C51.8025 46.1212 51.756 46.2725 51.7685 46.4435C51.7797 46.5958 51.7259 46.8022 51.6427 46.926C51.5263 47.0992 51.5086 47.2288 51.5542 47.5755C51.5917 47.861 51.5783 48.0548 51.5149 48.144C51.462 48.2184 51.3717 48.2828 51.3143 48.287C51.2384 48.2926 51.2183 48.2272 51.2405 48.0484C51.2641 47.8582 51.247 47.812 51.1654 47.8452C51.1073 47.8688 50.9591 48.0682 50.8362 48.2885C50.7132 48.5087 50.6333 48.7331 50.6586 48.7871C50.6839 48.8411 50.6634 49.0091 50.6131 49.1602C50.5628 49.3114 50.4702 49.4388 50.4075 49.4434C50.3447 49.448 50.2503 49.5513 50.1976 49.6729C50.1449 49.7946 49.9432 50.2385 49.7494 50.6594C49.5557 51.0804 49.2809 51.7311 49.139 52.1055C48.997 52.4799 48.8153 53.0053 48.7353 53.2733C48.6551 53.5411 48.4479 53.9991 48.2749 54.291C48.1017 54.5828 47.964 54.8744 47.9687 54.939C47.9735 55.0036 47.8675 55.2098 47.7334 55.3972C47.5992 55.5847 47.4294 55.9508 47.3559 56.2108C47.2825 56.4707 47.1962 56.6854 47.1641 56.6877C47.1322 56.6901 47.015 56.9774 46.9037 57.3262C46.7924 57.675 46.6561 58.004 46.601 58.0572C46.5458 58.1105 46.4602 58.2497 46.4108 58.3666C46.3613 58.4835 46.2047 58.8305 46.0628 59.1377C45.8884 59.5153 45.8163 59.7773 45.8401 59.9461C45.8667 60.1348 45.8394 60.2103 45.7284 60.2548C45.6476 60.2872 45.4915 60.4852 45.3816 60.6948C45.2717 60.9045 44.9838 61.5378 44.7418 62.1023C44.4997 62.6668 44.3041 63.1613 44.307 63.2012C44.3099 63.241 44.2319 63.4125 44.1335 63.5822C44.0351 63.7519 43.8388 64.1699 43.6973 64.5112C43.5557 64.8524 43.4459 65.2143 43.4533 65.3154C43.4608 65.4164 43.4361 65.6142 43.3984 65.7548C43.3589 65.9031 43.2531 66.0466 43.1469 66.0963C43.0146 66.1581 42.8909 66.3769 42.7017 66.8824C42.5576 67.2676 42.3401 67.7478 42.2183 67.9494C42.0965 68.151 41.9617 68.4184 41.9188 68.5437C41.8519 68.7387 41.8098 68.7664 41.6266 68.7361C41.5088 68.7166 41.3745 68.6588 41.328 68.6077C41.2816 68.5566 41.0883 68.3625 40.8985 68.1763C40.6294 67.9126 40.5367 67.8614 40.4781 67.9439C40.4366 68.0022 40.2518 68.3983 40.0674 68.824C39.8831 69.2498 39.7354 69.6423 39.7394 69.6964C39.7434 69.7504 39.6874 69.8712 39.6151 69.965C39.5427 70.0586 39.2829 70.6054 39.0376 71.1801C38.7922 71.7547 38.5608 72.2387 38.5233 72.2557C38.4858 72.2728 38.4582 72.33 38.4621 72.3828C38.466 72.4357 38.3228 72.8023 38.1439 73.1976C37.965 73.5929 37.5311 74.5505 37.1795 75.3256C36.8281 76.1007 36.5194 76.8064 36.4936 76.894C36.4678 76.9815 36.4048 77.1024 36.3535 77.1627C36.3023 77.223 36.2451 77.3673 36.2265 77.4834C36.2078 77.5995 36.1505 77.7514 36.0989 77.821C36.0474 77.8906 35.9591 78.0722 35.903 78.2247C35.8467 78.377 35.7146 78.6832 35.6094 78.905C35.5043 79.1268 35.3739 79.3991 35.3198 79.5101C35.2657 79.6212 35.0972 79.9943 34.9452 80.3393C34.7932 80.6843 34.6726 81.0183 34.6772 81.0815C34.6819 81.1447 34.6302 81.2226 34.5623 81.2546C34.4876 81.2898 34.3951 81.2611 34.3278 81.1816C34.2335 81.0705 34.2399 80.9942 34.3697 80.6793C34.4539 80.4753 34.5417 80.2192 34.5649 80.1105C34.5882 80.0018 34.6984 79.7768 34.8099 79.6106C34.9214 79.4443 35.0109 79.284 35.0087 79.2542C35.0065 79.2245 35.1704 78.7988 35.373 78.3082C35.5755 77.8177 35.7999 77.3419 35.8716 77.251C35.9433 77.1601 36.0585 76.9064 36.1277 76.6873C36.1969 76.4681 36.3751 76.0065 36.5239 75.6614C36.6725 75.3164 36.7879 74.9479 36.7802 74.8425C36.7724 74.7371 36.8519 74.4441 36.9567 74.1915C37.0616 73.9389 37.2167 73.6593 37.3015 73.5702C37.3864 73.4812 37.5457 73.22 37.6555 72.9899C37.7652 72.7597 37.8513 72.5189 37.8465 72.4547C37.8418 72.3906 37.8816 72.296 37.9349 72.2445C37.9883 72.1931 38.0619 71.9469 38.0987 71.6976C38.138 71.4296 38.231 71.1734 38.3258 71.0711C38.4276 70.9613 38.5324 70.6512 38.6121 70.2237C38.6811 69.8528 38.8167 69.3724 38.9133 69.1562C39.049 68.8522 39.1366 68.754 39.2993 68.723C39.4151 68.701 39.5079 68.6576 39.5056 68.6267C39.5034 68.5958 39.6529 68.2539 39.8379 67.867C40.0229 67.4801 40.1703 67.11 40.1655 67.0446C40.1607 66.9791 40.2157 66.7763 40.2877 66.5937C40.3596 66.4112 40.414 66.2 40.4084 66.1242C40.4028 66.0486 40.4623 65.946 40.5406 65.8963C40.6188 65.8466 40.8402 65.4525 41.0327 65.0206C41.2251 64.5886 41.6003 63.715 41.8665 63.0793C42.1327 62.4435 42.3472 61.8775 42.3431 61.8216C42.339 61.7657 42.4157 61.5812 42.5135 61.4115C42.6114 61.2419 42.8715 60.7046 43.0917 60.2174C43.3118 59.7303 43.5299 59.2414 43.5764 59.1309C43.623 59.0204 43.7228 58.7854 43.7984 58.6086C43.8739 58.4318 44.0271 58.0534 44.1389 57.7678C44.2505 57.4822 44.4046 57.171 44.4811 57.0762C44.5576 56.9814 44.9372 56.1996 45.3246 55.3389C45.7121 54.4782 46.3133 53.0876 46.6607 52.2486C47.008 51.4096 47.3781 50.5942 47.4831 50.4366C47.5881 50.2791 47.7411 49.9876 47.8232 49.7889C47.9052 49.5902 48.0304 49.3304 48.1016 49.2115C48.1726 49.0927 48.2269 48.9425 48.2221 48.8777C48.2174 48.8131 48.2877 48.6557 48.3786 48.528C48.4695 48.4003 48.5857 48.1996 48.6369 48.0821C48.6881 47.9645 48.9039 47.4407 49.1164 46.9181C49.3289 46.3955 49.6029 45.7277 49.7253 45.4342C49.8477 45.1406 49.9439 44.8462 49.939 44.78C49.9342 44.7139 49.9784 44.6278 50.0373 44.5888C50.0963 44.5497 50.653 43.2898 51.2744 41.7889C51.8958 40.288 52.5515 38.7514 52.7316 38.3743C52.9117 37.9971 53.0894 37.5112 53.1264 37.2944C53.1634 37.0776 53.2483 36.8261 53.315 36.7356C53.3817 36.6451 53.5603 36.2816 53.712 35.928C53.8638 35.5743 54.0447 35.1059 54.1141 34.8871C54.1835 34.6684 54.2668 34.4697 54.2991 34.4454C54.3314 34.4212 54.57 34.0006 54.8294 33.5105C55.0887 33.0205 55.5183 32.1795 55.7839 31.6415C56.0495 31.1036 56.4583 30.1978 56.6922 29.6286C56.9261 29.0595 57.1625 28.4564 57.2175 28.2883L57.3174 27.9828L57.6667 28.2293C57.8588 28.3649 58.2004 28.5524 58.4259 28.646ZM51.4931 31.0281C51.4601 31.0749 51.438 31.3405 51.4437 31.6184L51.4543 32.1236L51.9207 32.1344C52.1772 32.1402 52.4698 32.182 52.5707 32.2271C52.688 32.2796 52.8776 32.2814 53.0956 32.232C53.2895 32.1881 53.4808 32.1848 53.5384 32.2243C53.5942 32.2625 53.8 32.3052 53.9959 32.319C54.2871 32.3396 54.3739 32.316 54.472 32.1897C54.5587 32.0783 54.573 31.9663 54.5234 31.7874C54.4717 31.6002 54.3635 31.4914 54.0828 31.3435C53.8452 31.2183 53.6514 31.1672 53.5463 31.2019C53.4463 31.235 53.2455 31.1903 53.0335 31.0877C52.7724 30.9614 52.5434 30.9222 52.1191 30.9312C51.7858 30.9382 51.5284 30.978 51.4931 31.0281ZM58.5105 31.0268C58.4858 31.0742 58.4834 31.1285 58.5052 31.1473C58.5269 31.1661 58.5613 31.1262 58.5816 31.0587C58.6019 30.9911 58.6043 30.9369 58.587 30.9381C58.5695 30.9394 58.5351 30.9793 58.5105 31.0268ZM60.0799 31.2546C60.0314 31.3455 60.0116 31.6085 60.0358 31.8437L60.0794 32.2687L60.5461 32.2822C60.8027 32.2895 61.1087 32.3327 61.2262 32.3782C61.3898 32.4415 61.4964 32.436 61.6836 32.3548C61.8819 32.2687 61.9636 32.2689 62.1201 32.356C62.226 32.415 62.3761 32.4378 62.4536 32.4067C62.5312 32.3756 62.6196 32.3848 62.6502 32.427C62.6808 32.4694 62.755 32.5004 62.8152 32.496C62.8754 32.4915 62.9709 32.4043 63.0274 32.3021C63.1076 32.1572 63.1088 32.0558 63.0325 31.8416C62.9576 31.6312 62.8571 31.5333 62.603 31.4233C62.3963 31.3339 62.2035 31.3022 62.0916 31.3393C61.9681 31.3802 61.8302 31.3459 61.6499 31.2293C61.4361 31.0912 61.2748 31.0627 60.7777 31.0752C60.2318 31.0889 60.1585 31.1077 60.0799 31.2546ZM58.1662 32.0104C58.0921 32.1154 58.091 32.1711 58.1619 32.2325C58.2138 32.2775 58.2757 32.292 58.2991 32.2647C58.3227 32.2374 58.3246 32.1375 58.3035 32.0427C58.2681 31.883 58.2579 31.8807 58.1662 32.0104ZM50.1775 34.1051C50.1449 34.1824 50.1085 34.4179 50.0967 34.6284C50.0835 34.8633 50.1105 35.048 50.1666 35.1066C50.224 35.1664 50.3411 35.1789 50.4811 35.1399C50.612 35.1035 50.8498 35.1218 51.0577 35.1845C51.3572 35.2746 51.4513 35.2731 51.6713 35.1745C51.8564 35.0916 51.9621 35.0797 52.0388 35.133C52.098 35.1742 52.2932 35.2213 52.4726 35.2376C52.7509 35.2628 52.8092 35.2435 52.8703 35.1055C52.9097 35.0166 52.9341 34.8375 52.9245 34.7076C52.9106 34.5179 52.8436 34.4355 52.5849 34.2899C52.3592 34.1628 52.2002 34.1252 52.0542 34.1645C51.9048 34.2047 51.7793 34.1725 51.6115 34.0507C51.4105 33.9048 51.2967 33.8867 50.807 33.9227C50.3417 33.9569 50.2258 33.9904 50.1775 34.1051ZM58.8749 34.3862C58.8415 34.4985 58.8268 34.7623 58.8422 34.9725L58.8703 35.3546L59.1603 35.3333C59.3198 35.3216 59.5745 35.3426 59.7264 35.3802C59.8783 35.4177 60.1942 35.4428 60.4284 35.4359C60.6627 35.4291 61.0133 35.4483 61.2076 35.4784C61.4991 35.5238 61.583 35.5103 61.6871 35.4017C61.7594 35.3262 61.8051 35.1597 61.7942 35.0115C61.7784 34.7964 61.7172 34.717 61.4297 34.5386C61.1825 34.3853 61.0282 34.3397 60.888 34.3787C60.7598 34.4142 60.5822 34.3761 60.3755 34.2688C60.1188 34.1355 59.9529 34.1118 59.4973 34.1432C58.9644 34.1801 58.9324 34.1926 58.8749 34.3862ZM57.3862 37.2472C57.3567 37.3174 57.3258 37.5543 57.3174 37.7739C57.3078 38.0257 57.3369 38.2032 57.3963 38.2546C57.4481 38.2995 57.641 38.3252 57.8249 38.3116C58.0089 38.2981 58.2891 38.3306 58.4476 38.3838C58.6435 38.4494 58.8515 38.4563 59.0964 38.4053C59.3276 38.3571 59.4782 38.3596 59.5163 38.4123C59.549 38.4575 59.6709 38.4875 59.7873 38.4789C59.9037 38.4704 60.042 38.5008 60.0948 38.5465C60.1674 38.6094 60.2188 38.6025 60.3065 38.5179C60.3702 38.4564 60.45 38.3434 60.484 38.2667C60.523 38.1786 60.5091 38.0424 60.4463 37.897C60.3833 37.7514 60.2208 37.6046 60.0039 37.4976C59.7899 37.3922 59.599 37.3498 59.4961 37.385C59.3906 37.4211 59.2221 37.38 59.028 37.2707C58.7853 37.1341 58.5964 37.1019 58.0823 37.1099C57.5483 37.118 57.4307 37.1412 57.3862 37.2472ZM56.3811 40.4228C56.3466 40.5005 56.3206 40.7563 56.3231 40.9914L56.3277 41.4187L56.7556 41.4337C56.991 41.442 57.2937 41.4825 57.4283 41.5236C57.6059 41.578 57.7302 41.5716 57.8821 41.5005C58.0323 41.4303 58.1724 41.4218 58.3781 41.4707C58.5358 41.508 58.7337 41.5682 58.818 41.6042C58.9397 41.6563 58.9973 41.6301 59.0979 41.4768C59.1677 41.3706 59.2179 41.1967 59.2097 41.0903C59.2015 40.9838 59.1409 40.8354 59.0751 40.7604C59.0093 40.6854 58.8592 40.5825 58.7415 40.5318C58.6238 40.4812 58.4084 40.4485 58.2629 40.4592C58.1051 40.4708 57.927 40.421 57.8213 40.3359C57.6756 40.2186 57.5375 40.2011 57.0439 40.2373C56.5504 40.2735 56.4325 40.3065 56.3811 40.4228ZM54.7581 43.3214C54.7089 43.4134 54.689 43.6749 54.7133 43.9115L54.757 44.3365L55.2234 44.3477C55.48 44.3538 55.8093 44.4105 55.9553 44.4735C56.1738 44.568 56.2659 44.5695 56.476 44.4824C56.6726 44.4009 56.7738 44.3965 56.9161 44.463C57.0177 44.5105 57.1708 44.5507 57.2563 44.5523C57.3418 44.5539 57.489 44.5737 57.5834 44.5963C57.7207 44.6291 57.7736 44.5916 57.8471 44.409C57.8975 44.2834 57.9189 44.1121 57.8945 44.0282C57.8702 43.9444 57.7918 43.8187 57.7205 43.7491C57.6491 43.6794 57.5483 43.6255 57.4964 43.6293C57.4445 43.6331 57.3517 43.5837 57.2902 43.5196C57.21 43.436 57.0971 43.42 56.8916 43.4632C56.6947 43.5045 56.5727 43.4901 56.5025 43.4169C56.4463 43.3583 56.3076 43.2709 56.1942 43.2229C56.0809 43.1748 55.7313 43.1401 55.4173 43.1458C54.9081 43.155 54.8369 43.174 54.7581 43.3214ZM53.6345 46.3584C53.6019 46.4072 53.5678 46.638 53.5588 46.8711C53.5487 47.1338 53.5775 47.3314 53.6346 47.391C53.6853 47.4438 53.8746 47.4762 54.0552 47.4629C54.2359 47.4497 54.5165 47.4833 54.6788 47.5377C54.9139 47.6166 55.0254 47.6153 55.2273 47.5316C55.4218 47.451 55.5237 47.4466 55.6655 47.513C55.7671 47.5605 55.9203 47.6015 56.0058 47.604C56.0914 47.6066 56.2293 47.6149 56.3123 47.6225C56.4102 47.6315 56.4995 47.5603 56.5665 47.42C56.6443 47.2571 56.6471 47.1516 56.5779 46.9927C56.5274 46.8767 56.4027 46.7474 56.3006 46.7054C56.1987 46.6635 56.0736 46.5931 56.0227 46.549C55.9718 46.505 55.811 46.4777 55.6653 46.4884C55.5196 46.4991 55.2716 46.4405 55.1143 46.3583C54.8948 46.2436 54.696 46.2158 54.261 46.2391C53.9312 46.2567 53.6691 46.3066 53.6345 46.3584ZM43.3022 49.284C43.2627 49.3405 43.2336 49.5966 43.2375 49.8532L43.2446 50.3197L43.7167 50.3304C43.9764 50.3362 44.2407 50.369 44.3042 50.4033C44.3676 50.4376 44.6109 50.4564 44.8448 50.4451C45.0788 50.4338 45.4291 50.4493 45.6234 50.4795C45.9148 50.5249 45.9988 50.5114 46.1028 50.4028C46.1751 50.3272 46.2209 50.1607 46.21 50.0125C46.1942 49.7974 46.133 49.718 45.8454 49.5396C45.5841 49.3775 45.4476 49.3397 45.2855 49.3848C45.1319 49.4274 44.9867 49.3955 44.7741 49.2724C44.5263 49.1288 44.3862 49.1071 43.9256 49.1409C43.578 49.1665 43.3475 49.2194 43.3022 49.284ZM52.0634 49.315C52.0338 49.3852 51.9995 49.6327 51.9871 49.8651C51.9706 50.1755 51.9926 50.3027 52.0701 50.3444C52.1281 50.3755 52.332 50.3909 52.5232 50.3784C52.7143 50.366 53.0276 50.4137 53.2192 50.4845C53.519 50.5952 53.6088 50.5976 53.8605 50.5013C54.1042 50.4082 54.1774 50.4076 54.2973 50.4983C54.3765 50.5582 54.6061 50.6188 54.8074 50.6329C55.1402 50.6562 55.1836 50.6402 55.2854 50.4563C55.389 50.269 55.3863 50.2348 55.249 49.9922C55.1573 49.8303 54.9798 49.6779 54.7845 49.5934C54.6107 49.5182 54.3457 49.4656 54.1955 49.4766C54.0281 49.4889 53.8224 49.4323 53.6633 49.3301C53.4525 49.1947 53.2838 49.1657 52.7606 49.1755C52.2273 49.1854 52.108 49.2092 52.0634 49.315ZM50.5974 52.5628C50.5691 52.6612 50.5625 52.9157 50.5826 53.1283L50.6192 53.5148L51.0491 53.5295C51.2855 53.5376 51.5607 53.5807 51.6605 53.6252C51.7756 53.6765 51.9671 53.6778 52.1834 53.6289C52.3773 53.585 52.5685 53.5816 52.6262 53.6211C52.682 53.6594 52.8925 53.7023 53.094 53.7166C53.4406 53.7412 53.4653 53.7304 53.5507 53.5177C53.6004 53.394 53.621 53.2243 53.5964 53.1405C53.5719 53.0566 53.5154 52.9492 53.4709 52.9018C53.4264 52.8543 53.2544 52.7568 53.0887 52.6851C52.9229 52.6133 52.7039 52.5771 52.602 52.6045C52.4767 52.6382 52.3376 52.5955 52.1715 52.4723C51.9509 52.3086 51.8621 52.2949 51.2875 52.337C50.6955 52.3804 50.645 52.397 50.5974 52.5628ZM49.3345 55.5083C49.3033 55.5793 49.281 55.8473 49.2847 56.1039L49.2915 56.5705L49.7576 56.577C50.014 56.5807 50.3039 56.6213 50.4019 56.6673C50.5125 56.7193 50.6955 56.7236 50.8848 56.6789C51.0525 56.6392 51.2538 56.6307 51.3323 56.66C51.4107 56.6893 51.5624 56.7148 51.6693 56.7168C51.7761 56.7188 51.9315 56.7267 52.0145 56.7345C52.1125 56.7437 52.2016 56.6728 52.2687 56.5323C52.3458 56.3709 52.349 56.2636 52.2818 56.1099C52.2305 55.9929 52.0527 55.8371 51.8698 55.749C51.6928 55.6638 51.4336 55.601 51.2938 55.6094C51.154 55.6179 50.9405 55.565 50.8195 55.492C50.6637 55.3981 50.4231 55.3623 49.9953 55.3694C49.4969 55.3777 49.3814 55.402 49.3345 55.5083ZM48.1783 58.5789C48.1401 58.6353 48.099 58.8692 48.0868 59.0987C48.0728 59.3657 48.0983 59.5511 48.1579 59.6133C48.219 59.677 48.3424 59.6886 48.5159 59.6471C48.6865 59.6064 48.8907 59.6241 49.0895 59.697C49.3417 59.7894 49.4445 59.791 49.6512 59.7053C49.86 59.6187 49.9792 59.6218 50.3331 59.7229C50.6607 59.8164 50.7856 59.8225 50.862 59.7488C50.917 59.6957 50.9898 59.5895 51.0238 59.5128C51.0627 59.4248 51.049 59.2888 50.9865 59.1441C50.9224 58.9957 50.7758 58.8666 50.5706 58.7777C50.3962 58.7023 50.1385 58.649 49.9977 58.6594C49.84 58.6709 49.684 58.6228 49.5908 58.5335C49.4646 58.4127 49.3417 58.3962 48.8436 58.4327C48.4589 58.461 48.2229 58.5128 48.1783 58.5789ZM46.6203 61.4849C46.5997 61.5248 46.5671 61.7423 46.5481 61.9684C46.5278 62.2099 46.5472 62.4331 46.5953 62.5096C46.6566 62.6071 46.7743 62.6327 47.0642 62.6114C47.2771 62.5958 47.5581 62.6288 47.6887 62.6849C47.858 62.7575 48.0329 62.7645 48.2976 62.7093C48.5381 62.6592 48.6899 62.6608 48.7283 62.714C48.761 62.7593 48.8829 62.7892 48.9993 62.7807C49.1157 62.7721 49.2551 62.8035 49.3092 62.8503C49.3851 62.916 49.4494 62.8899 49.5906 62.7357C49.7385 62.5744 49.7607 62.4915 49.7062 62.304C49.6691 62.1765 49.6026 62.0332 49.5584 61.9857C49.5143 61.9382 49.3328 61.8364 49.155 61.7596C48.9663 61.6778 48.7702 61.6444 48.6835 61.6792C48.5871 61.7179 48.4248 61.6735 48.22 61.5524C47.9523 61.3941 47.8111 61.3695 47.2814 61.3892C46.9385 61.402 46.641 61.445 46.6203 61.4849ZM45.5081 64.6642C45.4784 64.7348 45.4471 64.976 45.4385 65.2002C45.428 65.4749 45.4541 65.6242 45.5186 65.6579C45.5712 65.6854 45.8014 65.7052 46.0301 65.7018C46.2587 65.6984 46.5171 65.7274 46.6044 65.7663C46.6943 65.8064 46.8933 65.8048 47.0646 65.7627C47.2307 65.7219 47.4112 65.7187 47.4658 65.7557C47.5204 65.7926 47.7184 65.835 47.9059 65.8498C48.1816 65.8715 48.2649 65.8488 48.3411 65.7312C48.3928 65.6511 48.4284 65.4777 48.42 65.3458C48.4114 65.2093 48.34 65.0553 48.2543 64.9882C48.1715 64.9235 48.0673 64.8731 48.0228 64.8764C47.9783 64.8797 47.8933 64.8318 47.8341 64.7701C47.7614 64.6942 47.6581 64.678 47.5166 64.7203C47.3658 64.7654 47.2154 64.7341 46.9816 64.609C46.706 64.4616 46.5728 64.4427 46.1091 64.4854C45.6926 64.5238 45.5491 64.5664 45.5081 64.6642ZM35.5139 67.527C35.4598 67.6273 35.4167 67.8845 35.4183 68.0985L35.421 68.4875L35.9277 68.5182C36.2064 68.5351 36.6259 68.5413 36.86 68.5321C37.0941 68.5229 37.3393 68.5326 37.4049 68.5537C37.4704 68.5748 37.6345 68.6028 37.7694 68.616C37.9447 68.6331 38.0473 68.598 38.129 68.4929C38.1919 68.412 38.2353 68.2441 38.2255 68.1197C38.2157 67.9954 38.1754 67.8499 38.1358 67.7965C38.0963 67.7431 37.9643 67.6564 37.8424 67.6039C37.7205 67.5514 37.4912 67.5181 37.3328 67.5297C37.1429 67.5437 36.9934 67.5016 36.8937 67.4063C36.7689 67.2867 36.6446 67.2689 36.1775 67.3032C35.6757 67.34 35.6012 67.3652 35.5139 67.527ZM30.6707 67.8827C30.6658 67.8938 30.6659 68.0429 30.6711 68.2141C30.6762 68.3853 30.5807 68.7952 30.4589 69.125C30.337 69.4547 30.1951 69.7755 30.1435 69.8379C30.0919 69.9003 30.0709 69.9697 30.0968 69.9921C30.1227 70.0146 30.2364 69.9057 30.3494 69.7502C30.4625 69.5948 30.6412 69.162 30.7466 68.7885C30.8533 68.4104 30.9115 68.0524 30.8779 67.9809C30.8448 67.9102 30.7866 67.8547 30.7487 67.8575C30.7108 67.8603 30.6757 67.8716 30.6707 67.8827ZM34.2264 70.5025C34.186 70.5594 34.1569 70.8154 34.1617 71.0717L34.1704 71.5375L34.677 71.5668C34.9556 71.5828 35.3397 71.5811 35.5304 71.5629C35.7212 71.5447 36.0688 71.5544 36.303 71.5844C36.6824 71.6331 36.7385 71.6231 36.82 71.4922C36.8703 71.4115 36.903 71.2305 36.8926 71.0902C36.8771 70.8787 36.819 70.8043 36.5523 70.6541C36.3369 70.5328 36.1728 70.4922 36.0558 70.531C35.9471 70.567 35.7901 70.5379 35.6406 70.4542C35.4589 70.3522 35.2661 70.3292 34.85 70.3593C34.5017 70.3845 34.2729 70.4371 34.2264 70.5025ZM42.6965 70.6099C42.6615 70.6926 42.626 70.94 42.6175 71.1595C42.6079 71.4113 42.637 71.5888 42.6965 71.6402C42.7483 71.6851 42.9598 71.7094 43.1663 71.6943C43.3729 71.6791 43.6209 71.7043 43.7176 71.7503C43.8142 71.7964 44.102 71.8244 44.3573 71.8125C44.6125 71.8008 44.9448 71.8074 45.0957 71.8273C45.2465 71.8471 45.4201 71.898 45.4815 71.9402C45.5665 71.9987 45.6245 71.9716 45.7254 71.826C45.7981 71.721 45.8498 71.5432 45.8401 71.4309C45.8306 71.3186 45.7756 71.1776 45.718 71.1176C45.6605 71.0576 45.4593 70.9391 45.2711 70.8543C45.0595 70.759 44.8704 70.7236 44.776 70.7614C44.6739 70.8024 44.5163 70.7594 44.3005 70.6317C44.0333 70.4736 43.873 70.4424 43.369 70.4501C42.8316 70.4583 42.7528 70.4771 42.6965 70.6099ZM32.9216 73.5745C32.8747 73.664 32.8273 73.9209 32.8163 74.1454C32.7975 74.5261 32.8081 74.5551 32.9749 74.5782C33.0733 74.5918 33.3289 74.6097 33.5429 74.618C33.7569 74.6263 34.1416 74.6329 34.3977 74.6328C34.6538 74.6326 34.9505 74.6308 35.0571 74.6286C35.1636 74.6264 35.3003 74.66 35.3609 74.7032C35.4455 74.7635 35.5014 74.7353 35.6024 74.5813C35.6747 74.471 35.73 74.3175 35.7253 74.2401C35.7205 74.1627 35.6777 74.0376 35.63 73.9622C35.5823 73.8866 35.4162 73.7585 35.261 73.6773C35.0842 73.5849 34.9216 73.5527 34.8257 73.5912C34.7289 73.63 34.5641 73.5959 34.3776 73.4984C34.1488 73.3789 33.9614 73.3518 33.5446 73.3779C33.0857 73.4067 32.9942 73.4356 32.9216 73.5745ZM41.3551 73.6471C41.3289 73.7399 41.318 74.0164 41.3308 74.2617L41.3541 74.7076L41.6629 74.685C41.8326 74.6725 42.1808 74.7163 42.4365 74.7823C42.8118 74.8791 42.9464 74.8827 43.1352 74.8007C43.3194 74.7207 43.4077 74.7208 43.5514 74.8008C43.6518 74.8567 43.8789 74.9162 44.0561 74.933C44.3356 74.9595 44.3926 74.9393 44.4873 74.7801C44.555 74.6662 44.5731 74.5226 44.5349 74.4014C44.5011 74.294 44.4161 74.149 44.3461 74.0792C44.276 74.0095 44.1763 73.9555 44.1243 73.9593C44.0725 73.9631 43.9797 73.9137 43.9181 73.8496C43.8372 73.7652 43.7251 73.75 43.5131 73.7945C43.3005 73.8392 43.1811 73.8228 43.0787 73.7348C43.001 73.6681 42.8476 73.5799 42.7379 73.5387C42.6281 73.4975 42.2828 73.4672 41.9705 73.4712C41.4465 73.478 41.399 73.4915 41.3551 73.6471ZM32.3515 76.3595C32.2254 76.387 32.0943 76.4411 32.0599 76.4798C32.0257 76.5183 31.9762 76.7032 31.95 76.8905C31.9237 77.0778 31.9007 77.3013 31.8987 77.3871C31.8956 77.5222 31.9468 77.5416 32.2824 77.5321C32.4953 77.5261 32.7826 77.5137 32.9206 77.5047C33.0586 77.4956 33.2667 77.474 33.3827 77.4565C33.4988 77.4391 33.7081 77.4439 33.8476 77.4671C34.0835 77.5065 34.109 77.4899 34.2094 77.2315C34.2721 77.0702 34.2918 76.8757 34.2564 76.7684C34.2229 76.6666 34.1031 76.5492 33.9903 76.5072C33.8775 76.4654 33.6801 76.4389 33.5518 76.4483C33.4233 76.4577 33.2623 76.417 33.1939 76.3578C33.1256 76.2986 32.9596 76.2635 32.8251 76.2798C32.6906 76.2961 32.4775 76.3319 32.3515 76.3595ZM40.0365 76.6235C40.0105 76.6735 39.979 76.8905 39.9665 77.1057C39.9539 77.3208 39.9798 77.5556 40.0239 77.6272C40.084 77.725 40.2006 77.7505 40.4911 77.7292C40.704 77.7135 40.9883 77.748 41.1229 77.8058C41.3009 77.8821 41.4688 77.8891 41.7384 77.8316C42.0115 77.7732 42.1553 77.78 42.2843 77.8573C42.3808 77.9149 42.5038 77.9413 42.5577 77.9159C42.6116 77.8904 42.7373 77.906 42.8372 77.9505C42.994 78.0205 43.0358 78.0065 43.1461 77.8473C43.2162 77.7461 43.267 77.5888 43.2589 77.4978C43.2509 77.4069 43.1914 77.272 43.1266 77.1983C43.0619 77.1245 42.8798 77.0065 42.7221 76.936C42.5643 76.8656 42.3325 76.8155 42.2068 76.8247C42.0811 76.8339 41.844 76.7638 41.6798 76.6688C41.5156 76.5738 41.3077 76.4992 41.2179 76.503C41.1281 76.5067 40.8362 76.5149 40.5691 76.5212C40.2686 76.5282 40.0656 76.5673 40.0365 76.6235ZM38.8384 79.4347C38.8037 79.4865 38.7697 79.7493 38.7629 80.0186C38.7507 80.4915 38.7572 80.5104 38.9528 80.569C39.0642 80.6024 39.2735 80.621 39.4177 80.6105C39.562 80.5999 39.8618 80.6481 40.0839 80.7175C40.3701 80.8071 40.5754 80.8232 40.7881 80.7729C41.0057 80.7214 41.1462 80.734 41.2985 80.8188C41.414 80.8831 41.5614 80.9109 41.6259 80.8805C41.6905 80.8501 41.8105 80.8778 41.8929 80.9422C41.9752 81.0066 42.0866 81.0386 42.1404 81.0132C42.1942 80.9878 42.2783 80.8766 42.3272 80.7659C42.4036 80.5934 42.3949 80.5269 42.2655 80.2983C42.1712 80.1319 41.9958 79.9804 41.7984 79.895C41.6247 79.8198 41.3532 79.7671 41.1952 79.7779C41.0068 79.7908 40.7875 79.728 40.5574 79.5951C40.3645 79.4837 40.0605 79.3856 39.8817 79.3772C39.7029 79.3686 39.4093 79.357 39.2291 79.3511C39.0347 79.3449 38.8759 79.3789 38.8384 79.4347ZM34.0309 82.141C34.0615 82.2063 34.0193 82.4284 33.937 82.6345C33.8548 82.8404 33.7483 83.0644 33.7005 83.1321C33.6526 83.1999 33.5945 83.3443 33.5714 83.453C33.5482 83.5617 33.4485 83.8051 33.3499 83.9938C33.2512 84.1825 33.1307 84.3557 33.082 84.3786C33.0334 84.4015 32.954 84.3792 32.9058 84.3288C32.843 84.2633 32.8555 84.1528 32.9495 83.9407C33.0218 83.7775 33.142 83.5732 33.2165 83.4867C33.291 83.4001 33.3688 83.2111 33.3895 83.0667C33.4102 82.9223 33.4689 82.7218 33.5199 82.6211C33.571 82.5204 33.6592 82.347 33.7161 82.2358C33.7729 82.1245 33.8545 82.031 33.8972 82.0278C33.9401 82.0247 34.0002 82.0756 34.0309 82.141ZM22.2646 85.3732C22.2677 85.4157 22.3224 85.4468 22.3861 85.4421C22.4498 85.4374 22.4993 85.3987 22.4962 85.3561C22.4931 85.3136 22.4384 85.2825 22.3747 85.2872C22.311 85.2919 22.2615 85.3306 22.2646 85.3732ZM21.7267 86.5025C21.7308 86.5593 21.7557 86.5808 21.782 86.5504C21.8081 86.5199 21.8047 86.4734 21.7744 86.4471C21.744 86.4208 21.7225 86.4457 21.7267 86.5025ZM20.8656 87.7832C20.8411 87.8117 20.8606 87.8976 20.9089 87.974C20.9572 88.0505 21.0303 88.1106 21.0712 88.1076C21.1122 88.1046 21.1421 88.0541 21.1378 87.9954C21.1335 87.9368 21.0805 87.8534 21.0201 87.8101C20.9596 87.7669 20.8901 87.7548 20.8656 87.7832ZM49.751 86.0793C49.7279 86.1239 49.7458 86.1576 49.7907 86.1543C49.8357 86.151 49.8699 86.1134 49.8668 86.0708C49.8637 86.0282 49.8458 85.9945 49.8271 85.9959C49.8083 85.9973 49.7741 86.0348 49.751 86.0793ZM35.3774 94.844C35.3805 94.8853 35.435 94.9152 35.4987 94.9106C35.5624 94.9059 35.6135 94.8884 35.6123 94.8716C35.6111 94.8549 35.5565 94.825 35.491 94.8051C35.4255 94.7853 35.3744 94.8028 35.3774 94.844ZM40.3534 97.0813C40.3582 97.1467 40.3942 97.1978 40.4334 97.195C40.4726 97.1921 40.609 97.2649 40.7363 97.3567C40.8637 97.4485 41.4078 97.6619 41.9453 97.8309C42.4828 97.9999 42.887 98.1531 42.8434 98.1714C42.7998 98.1896 42.7665 98.2364 42.7694 98.2754C42.7722 98.3145 42.8148 98.3435 42.864 98.3399C42.9131 98.3362 43.2957 98.1958 43.7141 98.0277C44.1489 97.8531 44.4079 97.7145 44.3184 97.7043C44.2323 97.6945 44.1171 97.637 44.0624 97.5765C43.9738 97.4784 43.919 97.4827 43.5608 97.6155C43.3397 97.6976 42.9635 97.7679 42.7249 97.7717C42.4245 97.7765 42.0545 97.6946 41.521 97.5052C41.0974 97.3548 40.7296 97.2025 40.7037 97.1667C40.6779 97.1308 40.5865 97.0703 40.5007 97.032C40.3777 96.9772 40.3466 96.9876 40.3534 97.0813Z" fill="#BF0F80"/>
</g>
</svg>
