<svg width="100" height="100" viewBox="0 0 100 100" fill="none" xmlns="http://www.w3.org/2000/svg">
<g opacity="0.4" clip-path="url(#clip0_1245_7686)">
<path opacity="0.3" d="M61.3151 76.0505L56.1684 81.5987L53.7666 80.2116L50.6786 74.6635L47.5906 63.9139L45.875 53.1644L45.875 40.3343L47.5906 29.9315L51.3648 19.8755L56.1684 11.2065L62.0013 4.27129L66.8049 1.49722L68.1774 3.57778L69.893 17.7949L70.5792 33.7459L67.4912 55.245L61.3151 76.0505Z" fill="#BF0F80"/>
<path fill-rule="evenodd" clip-rule="evenodd" d="M65.0588 0.892189C64.8724 0.996743 64.2459 1.44778 63.6666 1.89431C63.0872 2.34109 61.7979 3.5722 60.8016 4.63058C59.8051 5.68882 58.433 7.24841 57.7522 8.09619C57.0714 8.94398 56.1324 10.168 55.6656 10.8163C55.1988 11.4646 54.3903 12.6826 53.8689 13.5231C53.3476 14.3637 52.2968 16.2501 51.534 17.7152C50.7713 19.1803 49.743 21.4303 49.2493 22.7152C48.7556 24.0003 48.0801 25.989 47.7484 27.1345C47.4167 28.2803 46.8805 30.4406 46.5569 31.9353C46.2334 33.43 45.8156 35.9094 45.6283 37.445C45.441 38.9808 45.2192 41.407 45.1354 42.8369C45.0516 44.2667 45.005 46.6136 45.0319 48.0524C45.0587 49.491 45.1489 51.5642 45.2321 52.6593C45.3154 53.7545 45.5165 55.6249 45.679 56.8158C45.8416 58.0068 46.2388 60.2564 46.5618 61.815C46.8848 63.3736 47.607 66.3039 48.1669 68.3267C48.7285 70.3561 49.5617 72.92 50.0257 74.0469C50.4882 75.17 51.2756 76.7341 51.7752 77.5227C52.2749 78.3111 53.0971 79.3483 53.6021 79.8277L54.5204 80.6995L54.6135 82.4374C54.6646 83.3933 54.803 85.3459 54.9212 86.7766C55.0392 88.2073 55.4241 91.8388 55.7766 94.8463C56.1289 97.8539 56.4278 100.667 56.4409 101.097C56.4539 101.528 56.5592 102.528 56.6752 103.32C56.7911 104.112 56.9349 105.131 56.9946 105.585C57.0545 106.04 57.1025 106.57 57.1015 106.764C57.1004 106.958 57.2708 107.224 57.4796 107.355C57.6887 107.486 58.0147 107.551 58.204 107.498C58.3935 107.446 58.5817 107.225 58.6225 107.008C58.6634 106.791 58.6275 106.151 58.5428 105.586C58.4582 105.021 58.3405 104.235 58.2812 103.839C58.222 103.444 58.029 101.956 57.8521 100.534C57.6753 99.1112 57.3918 96.6376 57.2222 95.0366C57.0525 93.4357 56.7974 90.4727 56.6551 88.4523C56.5128 86.4318 56.3616 84.0901 56.3189 83.2487C56.2761 82.4073 56.3301 81.6941 56.4386 81.6641C56.547 81.6342 57.1392 81.1387 57.7544 80.563C58.3697 79.9874 59.242 79.0088 59.6926 78.3883C60.1432 77.768 60.9573 76.3675 61.5014 75.2763C62.0455 74.1851 62.855 72.3158 63.3002 71.1224C63.7455 69.9291 64.5375 67.6307 65.0602 66.0151C65.5828 64.3995 66.3102 62.08 66.6766 60.8607C67.0431 59.6413 67.5853 57.6137 67.8814 56.355C68.1776 55.0962 68.528 53.4105 68.6599 52.609C68.7918 51.8075 68.9476 51.0289 69.0062 50.8788C69.0647 50.7287 69.3033 49.376 69.5363 47.8732C69.7694 46.3703 70.0933 43.8385 70.2564 42.2469C70.4194 40.6555 70.6331 37.9829 70.731 36.3081C70.8292 34.6332 70.9223 32.0074 70.9379 30.473C70.9536 28.9385 70.9421 26.4861 70.9125 25.023C70.8826 23.56 70.7655 20.896 70.6523 19.1029C70.5391 17.3098 70.3356 14.6215 70.2003 13.1288C70.065 11.636 69.8182 9.29673 69.6521 7.93019C69.4859 6.56371 69.1313 4.65391 68.864 3.6862C68.5352 2.49578 68.2263 1.73859 67.9088 1.345C67.6413 1.01356 67.1422 0.700289 66.7484 0.616657C66.3682 0.536123 65.909 0.522154 65.7276 0.585953C65.5461 0.649753 65.2452 0.787437 65.0588 0.892189ZM65.065 3.1516C64.802 3.72435 64.4509 4.66404 64.2844 5.23967C64.1181 5.81525 63.9182 6.88159 63.8405 7.60925C63.7628 8.33692 63.7023 9.17218 63.7059 9.46541C63.7096 9.75865 63.6657 10.4691 63.6082 11.0439C63.5509 11.6187 63.4468 12.105 63.3771 12.1242C63.3075 12.1434 62.9348 11.3927 62.5491 10.4562C62.1634 9.51951 61.7196 8.28895 61.563 7.72188C61.4064 7.15481 61.33 6.39268 61.3935 6.02868C61.4633 5.62696 61.825 5.055 62.3129 4.57463C62.7553 4.13896 63.5104 3.45256 63.991 3.04911C64.4716 2.64567 65.0174 2.26936 65.2038 2.21276C65.4754 2.13047 65.4476 2.31768 65.065 3.1516ZM66.9052 2.47687C66.9537 2.87201 66.8535 3.66087 66.6823 4.2299C66.5112 4.79887 65.9684 5.96356 65.4764 6.81806C64.9841 7.67262 64.5308 8.29172 64.4688 8.19394C64.4067 8.09616 64.4808 7.32841 64.6333 6.48808C64.7857 5.64755 65.2125 4.27459 65.5818 3.43688C65.9509 2.59941 66.38 1.87893 66.5351 1.8361C66.7553 1.77528 66.8363 1.91554 66.9052 2.47687ZM68.3185 6.63616C68.3869 7.29609 68.3553 8.09511 68.248 8.41171C68.1409 8.72827 67.8932 9.21313 67.6975 9.48908C67.5019 9.76503 66.6292 10.4118 65.7582 10.9267C64.8871 11.4414 64.136 11.8395 64.089 11.8112C64.042 11.7829 64.0944 11.3958 64.2057 10.9512C64.3169 10.5064 64.9925 9.09384 65.7071 7.81234C66.4217 6.53065 67.1335 5.06163 67.2891 4.54767L67.5717 3.61318L67.883 4.52467C68.0541 5.02589 68.2501 5.97604 68.3185 6.63616ZM60.7657 7.44197C60.8301 7.86567 61.3043 9.0739 61.8194 10.127C62.3345 11.1802 62.8444 12.3614 62.9522 12.752C63.0601 13.1425 63.0631 14.0173 62.9591 14.6959C62.8549 15.3746 62.7201 15.9436 62.6595 15.9604C62.5988 15.9771 62.3421 15.735 62.0887 15.4221C61.8354 15.1094 60.975 14.2799 60.1766 13.5787C59.3782 12.8775 58.5379 11.9702 58.3092 11.5623C58.0807 11.1544 57.8755 10.5668 57.8534 10.2562C57.8232 9.83372 58.1178 9.32566 59.0213 8.2413C59.6859 7.4438 60.3239 6.76427 60.4392 6.73158C60.5761 6.69247 60.6892 6.93816 60.7657 7.44197ZM57.6371 11.2228C57.7444 11.6113 58.2598 12.3939 58.8593 13.0788C59.4294 13.7298 60.3397 14.766 60.8821 15.3813C61.729 16.3419 61.8949 16.6436 62.0575 17.5176C62.1764 18.1572 62.1401 19.0733 61.9599 19.9825L61.6731 21.4295L61.0627 20.633C60.727 20.195 59.7448 19.1767 58.8799 18.37C58.015 17.5635 57.0967 16.6585 56.8394 16.3591C56.5822 16.0597 56.1722 15.4235 55.9285 14.9456C55.6847 14.4676 55.4748 13.8393 55.4621 13.5494C55.4493 13.2572 55.7875 12.5034 56.2204 11.8587C56.6504 11.2186 57.1033 10.6626 57.2268 10.6229C57.364 10.5788 57.5238 10.8126 57.6371 11.2228ZM68.6423 9.96966C68.6944 10.1586 68.7988 11.0687 68.8744 11.9921C68.9498 12.9156 68.9362 13.8545 68.8439 14.0786C68.7518 14.3028 68.2977 14.6932 67.8348 14.9458C67.3717 15.1987 66.1771 15.6309 65.1797 15.9064L63.3665 16.4071L63.5212 15.4549C63.6062 14.9313 63.7924 14.2445 63.9354 13.9288C64.0782 13.6131 64.4379 13.1176 64.7346 12.8279C65.0314 12.5383 65.753 11.9626 66.3384 11.5488C66.9238 11.135 67.6008 10.5567 67.8427 10.2635C68.0847 9.97043 68.3422 9.70716 68.4151 9.67846C68.488 9.64977 68.5901 9.78077 68.6423 9.96966ZM55.2594 14.6602C55.3613 15.0292 55.6664 15.6683 55.9374 16.0805C56.2081 16.4926 57.2865 17.7035 58.3331 18.7712C59.5897 20.0531 60.3607 21.0024 60.6023 21.5646C60.8038 22.0332 61.0021 22.7535 61.0432 23.1653C61.0844 23.5772 61.0877 24.1547 61.0505 24.4488C61.0135 24.7427 60.9332 24.9971 60.872 25.014C60.8107 25.0309 60.5151 24.7687 60.2149 24.4315C59.9149 24.0941 59.0475 23.4975 58.2876 23.1056C57.5276 22.7138 56.3976 22.0937 55.7765 21.7276C55.1554 21.3616 54.3986 20.7735 54.0946 20.4209C53.7345 20.0029 53.43 19.3744 53.2207 18.6166C53.044 17.977 52.9632 17.2854 53.0409 17.0797C53.1187 16.874 53.5269 16.1169 53.9483 15.3972C54.3696 14.6776 54.7952 14.0664 54.8943 14.039C54.9932 14.0117 55.1575 14.2912 55.2594 14.6602ZM53.716 20.8636C54.008 21.2567 55.3865 22.2969 56.9373 23.2945C59.0187 24.6333 59.7564 25.22 60.1145 25.8216C60.544 26.5433 60.5654 26.681 60.3829 27.563C60.274 28.0898 60.0409 29.1728 59.8649 29.9697L59.5448 31.4185L58.8515 30.5903C58.4373 30.0956 57.5639 29.4445 56.682 28.9731C55.8701 28.5391 54.5289 27.793 53.7018 27.3153C52.7896 26.7882 51.9218 26.102 51.4955 25.5706C51.0752 25.0462 50.6899 24.3231 50.5358 23.7695C50.2902 22.887 50.3267 22.7346 51.3297 20.4503L52.3809 18.0561L52.7931 19.1163C53.0199 19.6993 53.4351 20.4858 53.716 20.8636ZM69.2858 17.6557C69.3968 19.6138 69.3557 20.2068 69.0803 20.6171C68.8291 20.9914 68.4524 21.2085 67.6856 21.4202C67.1079 21.5798 65.9566 21.7533 65.1274 21.8058C64.2982 21.8582 63.353 21.9748 63.027 22.0649L62.4342 22.2286L62.7609 20.2184C63.0069 18.7042 63.2074 18.0886 63.5727 17.724C63.8825 17.4151 64.8043 16.9735 66.1228 16.5023C67.2586 16.0964 68.3677 15.6191 68.5878 15.4415C68.8078 15.2639 69.0237 15.1385 69.0675 15.163C69.1112 15.1875 69.2094 16.3092 69.2858 17.6557ZM50.455 24.7431C50.6329 25.1989 51.0239 25.8853 51.3237 26.2686C51.6332 26.6644 52.9591 27.6351 54.393 28.5154C55.7811 29.3678 57.2272 30.3648 57.6061 30.731C57.9874 31.0992 58.4751 31.8374 58.698 32.383C59.0483 33.2413 59.0698 33.5067 58.8621 34.4242C58.7307 35.0044 58.5878 35.4888 58.5441 35.5009C58.5007 35.5129 58.1373 35.2862 57.7365 34.9974C57.2338 34.6348 56.3754 34.3682 54.9665 34.1367C53.7278 33.9331 52.5107 33.5767 51.8712 33.2299C51.2916 32.9157 50.5089 32.2947 50.1317 31.85C49.7544 31.4053 49.2127 30.5421 48.9277 29.9319C48.4546 28.9189 48.427 28.7502 48.611 27.9949C48.7219 27.5399 49.0448 26.4533 49.3285 25.5806C49.6123 24.7079 49.909 23.9758 49.9879 23.954C50.067 23.9321 50.2771 24.2874 50.455 24.7431ZM69.5225 23.1477C69.5668 24.1588 69.5215 25.1463 69.4217 25.3425C69.313 25.5555 68.8786 25.7987 68.3425 25.9468C67.7377 26.1138 66.8326 26.1091 65.5665 25.9326C64.5332 25.7882 63.3252 25.7241 62.8818 25.7896C62.4384 25.8551 62.0148 25.8478 61.9404 25.7733C61.8662 25.6988 61.8839 25.3143 61.98 24.9188C62.0761 24.5233 62.2757 24.0434 62.4237 23.8523C62.5717 23.6612 62.9192 23.3724 63.196 23.2104C63.4727 23.0481 64.6843 22.7642 65.8882 22.5792C67.7822 22.2883 68.1605 22.1763 68.695 21.7488C69.0346 21.477 69.3416 21.267 69.3771 21.282C69.4125 21.297 69.4779 22.1367 69.5225 23.1477ZM48.923 31.0961C49.2841 31.7614 49.8574 32.5661 50.1969 32.8842C50.5365 33.2024 51.2158 33.7118 51.7066 34.0164C52.1974 34.3209 53.4568 34.776 54.5053 35.0276C55.5537 35.2792 56.6958 35.6525 57.0429 35.857C57.3903 36.0618 57.7963 36.4703 57.9453 36.7651C58.1608 37.192 58.126 37.7172 57.7746 39.3447L57.3332 41.3881L56.4963 41.0761C56.0362 40.9045 55.0251 40.7102 54.2498 40.6441C53.4746 40.5781 52.4703 40.4339 52.0183 40.3236C51.566 40.2133 50.6495 39.7448 49.9813 39.2826C49.2226 38.7579 48.4515 38.0015 47.927 37.2675C47.4651 36.6212 47.0515 35.9625 47.0075 35.8034C46.9636 35.6443 47.1287 34.4891 47.3748 33.2363C47.6205 31.9833 47.8939 30.6976 47.9821 30.3792C48.0703 30.0608 48.1704 29.8196 48.2046 29.8434C48.2387 29.8669 48.5619 30.4307 48.923 31.0961ZM65.0231 26.9065C66.4956 26.9675 67.5607 26.8903 68.3812 26.6629L69.5827 26.3299L69.5766 28.0554C69.573 29.0042 69.5378 29.9572 69.4981 30.173C69.4584 30.3885 69.2242 30.7663 68.9778 31.0122C68.726 31.2632 68.0575 31.5895 67.452 31.7567C66.7688 31.9454 65.6629 32.015 64.4313 31.947C63.3626 31.888 62.0473 31.9024 61.5086 31.9793L60.5287 32.119L60.9397 30.0519C61.1657 28.915 61.4296 27.7943 61.5263 27.5618C61.6259 27.3222 61.9546 27.069 62.2843 26.9779C62.6045 26.8895 63.837 26.8573 65.0231 26.9065ZM47.6105 37.6814C47.9467 38.1863 48.6825 39.0314 49.2458 39.5596C49.8091 40.0876 50.5965 40.6674 50.9953 40.8481C51.3943 41.0287 52.1918 41.2878 52.7675 41.4237C53.3433 41.5596 54.1589 41.6952 54.58 41.725C55.0011 41.7551 55.6992 41.9706 56.1312 42.204C56.5633 42.4375 56.9437 42.7264 56.9767 42.8459C57.0096 42.9652 56.8807 43.978 56.6901 45.0963C56.4995 46.2147 56.334 47.1559 56.3225 47.188C56.3111 47.2203 55.7524 47.0972 55.081 46.915C54.4097 46.7325 53.0352 46.544 52.0267 46.4957C51.018 46.4475 49.7297 46.2957 49.1637 46.158C48.5977 46.0205 47.8979 45.7473 47.6087 45.5506C47.3194 45.3541 46.9258 44.9655 46.7342 44.6871C46.5424 44.4088 46.331 43.9833 46.2643 43.7419C46.1977 43.5006 46.196 42.5203 46.2606 41.5634C46.3251 40.6068 46.4642 39.15 46.5698 38.3264C46.6753 37.5029 46.8152 36.8142 46.8805 36.7961C46.946 36.7781 47.2746 37.1765 47.6105 37.6814ZM64.5045 32.7847C65.7507 32.7937 67.0681 32.7181 67.4322 32.6169C67.7962 32.5157 68.3824 32.2507 68.7346 32.0278C69.0867 31.8049 69.4114 31.6455 69.4562 31.6736C69.5011 31.7016 69.5046 32.5504 69.4641 33.5595C69.4235 34.5685 69.2632 35.5981 69.1077 35.8469C68.9086 36.1657 68.5086 36.3869 67.7539 36.5953C66.9655 36.813 65.8665 36.8341 63.5902 36.6752C61.8891 36.5565 60.3338 36.5046 60.1336 36.5599C59.9335 36.6151 59.7494 36.5868 59.7246 36.4969C59.6997 36.4069 59.7905 35.7569 59.9263 35.0526C60.0621 34.3481 60.2866 33.646 60.425 33.4922C60.5636 33.3386 61.0283 33.1129 61.4578 32.9906C61.8873 32.8686 63.2583 32.7758 64.5045 32.7847ZM63.7805 37.7186C65.5618 37.7823 66.3982 37.7063 67.6465 37.3669C68.5227 37.1288 69.2557 36.9929 69.2755 37.0646C69.2953 37.1364 69.2085 38.2612 69.0823 39.564C68.9564 40.8669 68.8299 41.9785 68.8016 42.0342C68.7732 42.09 68.4624 42.297 68.1109 42.494C67.7456 42.6989 67.0705 42.8787 66.5347 42.9135C66.019 42.947 64.5475 42.7392 63.2642 42.4516C61.981 42.1642 60.4911 41.9297 59.9531 41.9304C59.4151 41.9313 58.8904 41.8896 58.7869 41.8379C58.6836 41.7862 58.7179 41.1457 58.8629 40.4144C59.008 39.6833 59.1873 38.839 59.2617 38.5386C59.3851 38.0394 59.4884 37.9767 60.4521 37.8145C61.0324 37.717 62.5302 37.6737 63.7805 37.7186ZM46.5838 45.2382C46.7117 45.4459 47.1543 45.8596 47.5671 46.1573C47.98 46.455 48.7801 46.8101 49.3452 46.9463C49.9102 47.0824 51.1152 47.2788 52.0228 47.3825C52.9306 47.4862 53.9686 47.6768 54.3298 47.806C54.6909 47.9352 55.2688 48.1835 55.6136 48.3577L56.2406 48.6744L55.9855 50.2336C55.8452 51.0912 55.7611 51.9049 55.7984 52.0416C55.8358 52.1785 55.7887 52.3118 55.6936 52.338C55.5985 52.3643 55.1039 52.4067 54.5944 52.4326C54.085 52.4583 52.9196 52.6393 52.0048 52.8347C51.09 53.0302 50.0298 53.1773 49.6486 53.1614C49.2675 53.1455 48.6348 53.0258 48.2427 52.8952C47.8328 52.7587 47.2824 52.3413 46.9484 51.9133C46.6286 51.5039 46.3012 50.9377 46.2209 50.6554C46.1405 50.3729 46.0672 48.9985 46.058 47.601C46.0488 46.2036 46.0347 45.0363 46.0266 45.0071C46.0185 44.9778 46.0883 44.9329 46.1816 44.9071C46.2749 44.8814 46.4558 45.0304 46.5838 45.2382ZM63.1178 43.4683C65.5728 43.8464 65.887 43.8467 67.2476 43.4733L68.7202 43.0694L68.6467 43.8387C68.6062 44.2618 68.4331 45.4703 68.262 46.5245C68.0906 47.5787 67.8437 48.6099 67.713 48.8161C67.5503 49.0731 67.0398 49.3089 66.0922 49.5648C64.8803 49.892 64.5463 49.895 63.3965 49.5883C62.6746 49.3957 61.4608 48.9068 60.699 48.5017C59.9371 48.0967 58.9506 47.6959 58.5068 47.6111C57.74 47.4649 57.7034 47.4281 57.7705 46.8726C57.8093 46.551 57.9535 45.6423 58.0908 44.8533L58.3408 43.4187L59.4007 43.239C60.0732 43.1249 61.4317 43.2088 63.1178 43.4683ZM59.0511 49.0411C59.487 49.1476 59.9898 49.3462 60.1684 49.4824C60.3469 49.6187 61.0472 49.9121 61.7246 50.1342C62.402 50.3563 63.5296 50.5728 64.2303 50.6155C64.9312 50.658 65.817 50.6079 66.1991 50.5038C66.581 50.3999 67.0321 50.1726 67.2015 49.9985C67.3708 49.8244 67.5774 49.7247 67.6605 49.7769C67.7435 49.8288 67.7415 50.1502 67.6559 50.491C67.5705 50.8315 67.4342 51.5619 67.3532 52.1139C67.2722 52.6659 67.0943 53.5541 66.958 54.0878C66.7779 54.7922 66.5615 55.1361 66.1679 55.343C65.8699 55.4998 65.3597 55.6373 65.0343 55.6482C64.709 55.6593 63.9628 55.4534 63.376 55.1909C62.7894 54.9284 61.7605 54.321 61.0898 53.8413C60.4191 53.3617 59.4685 52.823 58.9773 52.6445C58.486 52.4658 57.9137 52.3669 57.7049 52.4245C57.4963 52.4821 57.2601 52.4635 57.18 52.3833C57.0999 52.303 57.1225 51.5267 57.2303 50.6585C57.3902 49.3704 57.5029 49.0585 57.8423 48.9637C58.0711 48.8999 58.615 48.9347 59.0511 49.0411ZM47.3791 53.2532C47.627 53.4591 48.319 53.7327 48.917 53.8614C49.515 53.9901 50.4674 54.0179 51.0333 53.923C51.5991 53.8282 52.6879 53.679 53.4526 53.5915C54.2176 53.5039 55.0156 53.478 55.2262 53.5341C55.5903 53.6309 55.6041 53.7026 55.5088 55.0059C55.4538 55.7591 55.3693 56.7577 55.3211 57.2244L55.2333 58.073L54.3361 58.1862C53.8273 58.2503 52.634 58.6689 51.5795 59.1529C50.5505 59.6255 49.3864 60.0358 48.9728 60.0717C48.5617 60.1075 47.9746 59.9987 47.6681 59.83C47.1255 59.5313 47.1042 59.4803 46.8524 57.8828C46.7105 56.9804 46.5219 55.4917 46.4337 54.5744C46.3454 53.6572 46.2805 52.7603 46.2895 52.5813C46.3031 52.31 46.3578 52.3077 46.6172 52.5674C46.7884 52.7388 47.1313 53.0475 47.3791 53.2532ZM58.5614 54.0001C58.9996 54.1695 60.1167 54.7042 61.0438 55.1883C61.9707 55.6725 63.1817 56.1746 63.7348 56.3044C64.3569 56.4503 65.0386 56.4525 65.5235 56.3098C65.9545 56.1831 66.3248 56.1435 66.3465 56.2218C66.3681 56.3002 66.1562 57.2408 65.8755 58.3119L65.3654 60.2598L64.2941 60.6184C63.3515 60.9342 63.0482 60.9315 61.7645 60.5965C60.9625 60.3872 60.248 60.1651 60.1771 60.1031C60.1061 60.041 59.281 59.6847 58.3437 59.3111C57.4065 58.9378 56.6232 58.5732 56.6032 58.501C56.5833 58.4288 56.589 57.843 56.6158 57.1994C56.6427 56.5555 56.7228 55.5552 56.794 54.9766C56.8941 54.1615 57.0181 53.8982 57.344 53.8082C57.5754 53.7443 58.1232 53.8306 58.5614 54.0001ZM51.9517 60.1704C53.688 59.6537 54.7551 59.4199 54.9177 59.5206C55.0986 59.6326 55.1462 60.1897 55.0835 61.4572C55.0349 62.4358 54.9698 63.3387 54.9386 63.4633C54.9074 63.5881 54.6621 63.7526 54.3935 63.8287C54.1249 63.905 53.34 64.3127 52.6493 64.7348C51.9585 65.1569 51.0352 65.6027 50.5975 65.7258C50.112 65.862 49.5273 65.8568 49.0982 65.7123L48.395 65.4755L47.8909 63.3172C47.6136 62.1304 47.3876 61.0421 47.3885 60.8989C47.3899 60.7098 47.643 60.6848 48.3152 60.808C49.1261 60.9564 49.5732 60.878 51.9517 60.1704ZM57.0619 60.0433C57.1185 60.1186 57.9359 60.4407 58.8781 60.7589C59.8204 61.0771 61.1031 61.4166 61.7285 61.5134C62.452 61.6251 63.2468 61.5856 63.9126 61.4049C64.4885 61.2486 64.974 61.1732 64.9917 61.2372C65.0093 61.3011 64.736 62.3014 64.3845 63.4599L63.7452 65.5663L62.8972 65.6694C62.4308 65.7258 61.6613 65.6274 61.1872 65.4506C60.7131 65.2738 59.7669 64.854 59.0849 64.5176C58.4029 64.1812 57.5304 63.8387 57.1461 63.7562C56.7619 63.6738 56.4195 63.5047 56.3852 63.3805C56.3508 63.2562 56.3303 62.6779 56.3394 62.0952C56.3484 61.5128 56.3894 60.81 56.4306 60.534C56.4716 60.2579 56.6071 60.0037 56.732 59.9692C56.8567 59.9348 57.0051 59.9682 57.0619 60.0433ZM51.0042 66.5159C51.5837 66.3558 52.6315 65.895 53.3328 65.4919C54.0342 65.0886 54.6698 64.7978 54.7455 64.8453C54.821 64.8927 54.8502 65.6701 54.81 66.5727L54.737 68.2139L53.5443 69.5431C52.8884 70.2742 52.0672 71.0797 51.7193 71.3332C51.2785 71.6544 50.9316 71.7746 50.5744 71.7299C50.0625 71.6658 50.0615 71.6633 49.3455 69.071L48.6289 66.4762L49.2898 66.6414C49.6769 66.7382 50.3872 66.6863 51.0042 66.5159ZM57.5912 65.2672C58.1767 65.4385 59.234 65.7716 59.9405 66.0076C60.6471 66.2437 61.5393 66.4448 61.9232 66.4545C62.3071 66.4643 62.7645 66.4332 62.9396 66.3855C63.1147 66.3377 63.2845 66.3942 63.3168 66.5109C63.349 66.6276 62.9949 67.7847 62.5297 69.0823C61.899 70.842 61.5794 71.4704 61.2717 71.5554C60.9986 71.6308 60.4979 71.3974 59.7891 70.864C59.2003 70.421 58.153 69.6845 57.4617 69.2273C56.7704 68.7698 56.1829 68.317 56.1563 68.2208C56.1298 68.1248 56.1257 67.4426 56.1474 66.7049C56.1692 65.9672 56.2063 65.2859 56.2301 65.1907C56.2539 65.0958 56.3303 65.0038 56.4 64.9867C56.4696 64.9696 57.0057 65.0957 57.5912 65.2672ZM54.5624 71.3218C54.5085 72.0725 54.4528 73.797 54.4388 75.1545C54.4248 76.5119 54.4062 78.0097 54.3975 78.4828L54.3815 79.3433L53.4354 78.1733C52.915 77.5298 52.1019 76.2135 51.6285 75.2484C51.155 74.283 50.7109 73.2923 50.6417 73.0466C50.5286 72.6454 50.6042 72.5755 51.3832 72.3604C52.0026 72.1893 52.5596 71.826 53.3318 71.0893C53.9264 70.5219 54.4687 70.0351 54.5368 70.0075C54.6051 69.9798 54.6166 70.5714 54.5624 71.3218ZM58.5161 71.2896C59.4427 71.8279 60.4228 72.2681 60.6944 72.2678C60.9659 72.2673 61.2067 72.3347 61.2296 72.4178C61.2525 72.5008 60.8098 73.4255 60.2456 74.4729C59.6815 75.52 58.9442 76.7565 58.607 77.2207C58.27 77.6849 57.596 78.4559 57.109 78.9341C56.6221 79.4125 56.2022 79.7253 56.1758 79.6297C56.1494 79.534 56.0918 77.5987 56.0479 75.3285C56.004 73.0586 55.9875 70.9205 56.0112 70.5774C56.049 70.0279 56.1004 69.975 56.4429 70.1323C56.6565 70.2303 57.5894 70.7512 58.5161 71.2896Z" fill="#BF0F80"/>
<path opacity="0.3" d="M43.9314 83.9288L50.9271 86.8549L52.5697 84.6027L53.1459 78.2817L51.6002 67.2283L48.7926 56.7406L43.5587 45.0673L37.7376 36.3098L30.165 28.7165L22.2117 22.8095L14.0192 18.9043L8.47059 18.3607L8.05734 20.8195L12.2795 34.4621L18.1555 49.2577L29.7652 67.5453L43.9314 83.9288Z" fill="#BF0F80"/>
<path fill-rule="evenodd" clip-rule="evenodd" d="M9.8192 17.2183C10.0321 17.2374 10.7883 17.3926 11.4996 17.5631C12.2111 17.7337 13.8912 18.3296 15.2333 18.8878C16.5755 19.4457 18.4656 20.3074 19.4337 20.8025C20.4018 21.2975 21.7593 22.0303 22.4505 22.4309C23.1417 22.8315 24.3777 23.612 25.1973 24.1657C26.0169 24.7194 27.7475 26.0109 29.0429 27.0357C30.3384 28.0605 32.1971 29.6929 33.1733 30.6634C34.1496 31.634 35.5796 33.1722 36.3509 34.0818C37.1223 34.9916 38.4954 36.7435 39.4022 37.975C40.3089 39.2065 41.7046 41.298 42.5037 42.6226C43.3029 43.9473 44.4979 46.0704 45.1593 47.341C45.8208 48.6113 46.8235 50.7338 47.3876 52.0576C47.9517 53.3813 48.7176 55.3099 49.0897 56.3433C49.4617 57.3766 50.0435 59.1656 50.3824 60.3189C50.7213 61.4721 51.2792 63.6873 51.6221 65.2417C51.965 66.796 52.5049 69.7653 52.8216 71.8401C53.1394 73.9217 53.4281 76.602 53.4657 77.8202C53.5032 79.0342 53.4246 80.7835 53.2913 81.7075C53.1579 82.6314 52.8321 83.9142 52.5674 84.5582L52.0861 85.7294L52.7122 87.3533C53.0567 88.2465 53.7292 90.0848 54.2066 91.4386C54.6843 92.7924 55.8188 96.2635 56.7276 99.152C57.6366 102.041 58.5146 104.73 58.6789 105.128C58.8431 105.526 59.1561 106.481 59.3743 107.251C59.5925 108.021 59.8784 109.011 60.0097 109.45C60.1409 109.889 60.3141 110.392 60.3944 110.569C60.4746 110.745 60.428 111.057 60.2912 111.263C60.1541 111.468 59.8829 111.66 59.6888 111.69C59.4945 111.72 59.2325 111.595 59.1064 111.414C58.9804 111.233 58.7512 110.634 58.5972 110.083C58.4433 109.533 58.229 108.768 58.1214 108.382C58.0135 107.997 57.581 106.561 57.1606 105.191C56.7399 103.82 55.9866 101.447 55.4863 99.9171C54.9862 98.3869 54.0068 95.5789 53.31 93.677C52.6133 91.7752 51.7932 89.5765 51.4879 88.7913C51.1827 88.006 50.8417 87.3773 50.7304 87.3944C50.6193 87.4114 49.8762 87.2016 49.0793 86.928C48.2824 86.6544 47.086 86.1184 46.421 85.7366C45.756 85.3549 44.4402 84.41 43.4973 83.6369C42.5544 82.8638 41.051 81.4893 40.1565 80.5825C39.262 79.6758 37.599 77.9025 36.461 76.6422C35.3232 75.3818 33.7105 73.5629 32.8773 72.6002C32.0441 71.6375 30.7197 70.0092 29.9346 68.9817C29.1493 67.9543 28.14 66.5595 27.6917 65.8821C27.2434 65.2047 26.7827 64.5581 26.6679 64.445C26.553 64.332 25.7819 63.1953 24.9545 61.9193C24.1269 60.6433 22.7955 58.4656 21.9956 57.08C21.1957 55.6946 19.9074 53.3434 19.1328 51.8552C18.358 50.367 17.1988 48.0091 16.5568 46.6154C15.9146 45.2217 14.9218 42.9792 14.3503 41.632C13.779 40.2849 12.7959 37.8061 12.1656 36.1236C11.5353 34.4411 10.6211 31.9048 10.1339 30.4874C9.64672 29.07 8.91487 26.8344 8.5073 25.5195C8.09992 24.2046 7.64218 22.3169 7.49014 21.3245C7.30312 20.1038 7.27524 19.2865 7.40395 18.7974C7.51242 18.3856 7.83966 17.8955 8.16475 17.6581C8.47873 17.4291 8.89209 17.2284 9.08373 17.2124C9.27537 17.1964 9.60631 17.1989 9.8192 17.2183ZM10.738 19.2825C11.2123 19.6975 11.9171 20.4113 12.3045 20.8684C12.6917 21.3256 13.3104 22.2168 13.679 22.849C14.0476 23.4812 14.4446 24.2186 14.5612 24.4877C14.6778 24.7567 15.0085 25.387 15.2962 25.888C15.5836 26.3891 15.8775 26.7902 15.949 26.7793C16.0204 26.7683 16.0533 25.9308 16.0221 24.9185C15.9908 23.906 15.8923 22.6015 15.8032 22.02C15.7141 21.4385 15.4721 20.7118 15.2652 20.4056C15.0371 20.0677 14.4731 19.6937 13.8314 19.455C13.2495 19.2385 12.2796 18.9211 11.676 18.7495C11.0724 18.578 10.4204 18.458 10.2272 18.4826C9.94571 18.5186 10.0476 18.6781 10.738 19.2825ZM8.78274 19.4197C8.90018 19.8 9.31431 20.4789 9.70337 20.928C10.0922 21.3772 11.064 22.2179 11.8626 22.7963C12.6614 23.3747 13.3283 23.7542 13.3449 23.6396C13.3615 23.525 12.9798 22.8547 12.4969 22.1503C12.0139 21.4457 11.0628 20.3675 10.3831 19.7542C9.70366 19.141 9.01739 18.6592 8.85833 18.6835C8.63251 18.7181 8.61597 18.8793 8.78274 19.4197ZM9.19477 23.7931C9.40239 24.4233 9.75811 25.1394 9.98554 25.3844C10.2128 25.6295 10.6372 25.9706 10.9286 26.1423C11.22 26.3141 12.281 26.5472 13.2864 26.6607C14.2918 26.774 15.1401 26.8299 15.1714 26.7849C15.2026 26.7398 14.9964 26.4081 14.713 26.0479C14.4295 25.6875 13.2352 24.675 12.0588 23.798C10.8824 22.9208 9.6319 21.8716 9.2797 21.4663L8.63946 20.7292L8.72837 21.6882C8.7773 22.2156 8.98712 23.1628 9.19477 23.7931ZM16.4163 21.4384C16.5309 21.8514 16.5925 23.1479 16.5533 24.3196C16.5141 25.4913 16.5322 26.7778 16.5935 27.1782C16.6549 27.5787 17.01 28.3782 17.3825 28.9549C17.7553 29.5316 18.1111 29.9956 18.1732 29.9861C18.2355 29.9766 18.3707 29.6505 18.4738 29.2614C18.577 28.8725 19.0228 27.7635 19.4645 26.797C19.9061 25.8305 20.3016 24.6589 20.3435 24.1932C20.3851 23.7275 20.3319 23.1073 20.225 22.8148C20.0797 22.417 19.6031 22.0739 18.335 21.4541C17.4023 20.9983 16.5421 20.6393 16.4236 20.6566C16.2826 20.6769 16.28 20.9474 16.4163 21.4384ZM20.8178 23.6084C20.8789 24.0068 20.7288 24.9317 20.4619 25.8019C20.2081 26.6292 19.8014 27.9472 19.5582 28.7305C19.1784 29.9535 19.1504 30.2967 19.3597 31.1608C19.5129 31.793 19.9207 32.6141 20.4572 33.3699L21.3108 34.5731L21.5419 33.5965C21.669 33.0595 22.1487 31.7285 22.6079 30.6385C23.0671 29.5487 23.5348 28.3472 23.6471 27.9688C23.7593 27.5904 23.8731 26.8421 23.9 26.3063C23.9269 25.7704 23.8614 25.1112 23.7544 24.8415C23.6465 24.5697 23.0295 24.0202 22.3707 23.609C21.7165 23.2009 21.0757 22.8788 20.9468 22.8931C20.8036 22.909 20.7534 23.1878 20.8178 23.6084ZM10.2632 26.9673C10.2928 27.161 10.57 28.0343 10.8788 28.9077C11.1878 29.7813 11.5843 30.6325 11.7602 30.7992C11.936 30.9661 12.51 31.1365 13.0358 31.1776C13.5618 31.2189 14.8287 31.1246 15.8515 30.9678L17.7109 30.683L17.1802 29.8774C16.8884 29.4344 16.4375 28.8839 16.1778 28.6543C15.9184 28.4246 15.3875 28.1197 14.9982 27.9767C14.6089 27.8339 13.7149 27.6038 13.0114 27.4657C12.308 27.3277 11.4537 27.0769 11.113 26.9083C10.7723 26.7399 10.4296 26.605 10.3514 26.6087C10.2731 26.6123 10.2335 26.7736 10.2632 26.9673ZM24.3938 25.7722C24.4518 26.1506 24.4348 26.8585 24.3562 27.3455C24.2777 27.8323 23.7892 29.3784 23.271 30.7808C22.6488 32.4647 22.3336 33.6463 22.3432 34.2582C22.3511 34.7682 22.4648 35.5067 22.5957 35.8992C22.7267 36.2919 22.9599 36.8202 23.1142 37.0733C23.2682 37.3264 23.4455 37.5257 23.5084 37.516C23.5712 37.5064 23.7336 37.1462 23.8696 36.7157C24.0053 36.285 24.5527 35.3859 25.0858 34.7174C25.6189 34.0489 26.3964 33.0207 26.8133 32.4326C27.2303 31.8445 27.6803 30.9983 27.8135 30.5521C27.971 30.0234 27.9918 29.3253 27.8727 28.5483C27.7722 27.8923 27.563 27.2282 27.408 27.0723C27.2528 26.9164 26.5706 26.3925 25.8916 25.9083C25.2128 25.424 24.5744 25.0404 24.4728 25.056C24.3714 25.0715 24.3358 25.3937 24.3938 25.7722ZM28.34 30.8012C28.2345 31.2794 27.4021 32.7926 26.3952 34.3373C25.0436 36.4104 24.6106 37.2476 24.5299 37.943C24.4333 38.7773 24.4701 38.9117 24.9975 39.6419C25.3124 40.078 25.9681 40.9708 26.4548 41.626L27.3396 42.8171L27.6334 41.7777C27.8089 41.1569 28.3395 40.2054 28.9514 39.4144C29.5147 38.6862 30.4332 37.4568 30.9925 36.6824C31.6092 35.8283 32.1203 34.8471 32.2919 34.1878C32.4609 33.5373 32.5166 32.72 32.4307 32.1517C32.2939 31.2459 32.1981 31.1218 30.3484 29.4478L28.4097 27.6932L28.4673 28.8292C28.4989 29.454 28.4417 30.3415 28.34 30.8012ZM12.8205 34.244C13.5203 36.0761 13.8004 36.6004 14.2195 36.8621C14.6019 37.1009 15.0345 37.1449 15.8208 37.0244C16.4132 36.9336 17.5347 36.6209 18.3128 36.3296C19.0909 36.0382 20.001 35.7579 20.3354 35.7066L20.9433 35.6135L19.8228 33.9129C18.9788 32.6319 18.544 32.1522 18.0615 31.969C17.6524 31.8138 16.6307 31.788 15.2348 31.8975C14.0324 31.9918 12.825 32.01 12.5515 31.938C12.2781 31.8659 12.0298 31.8399 11.9999 31.8802C11.97 31.9204 12.3392 32.9841 12.8205 34.244ZM32.9028 33.007C32.9269 33.4958 32.851 34.2821 32.7342 34.7545C32.6137 35.2422 31.801 36.6704 30.8528 38.0603C29.9349 39.4061 29.0232 40.9074 28.8274 41.3965C28.63 41.8886 28.4871 42.7617 28.5069 43.3507C28.5383 44.2772 28.6274 44.5282 29.1922 45.2803C29.5495 45.7561 29.8781 46.1396 29.9229 46.1327C29.9674 46.1259 30.2063 45.7704 30.4538 45.3429C30.7642 44.8064 31.4384 44.2119 32.6292 43.4242C33.6763 42.7317 34.641 41.9086 35.0827 41.3305C35.483 40.8067 35.9431 39.9198 36.1054 39.3597C36.2677 38.7996 36.4089 37.7902 36.4193 37.1169C36.4366 35.999 36.3927 35.8338 35.9158 35.2199C35.6284 34.8501 34.8893 33.9906 34.2734 33.3104C33.6573 32.6301 33.0871 32.0835 33.0062 32.0959C32.9251 32.1083 32.8787 32.5184 32.9028 33.007ZM14.8514 39.3522C15.2246 40.2929 15.6699 41.1755 15.8413 41.3136C16.0276 41.4635 16.5235 41.5077 17.0733 41.4235C17.6935 41.3285 18.5174 40.9539 19.6005 40.2748C20.4843 39.7204 21.5603 39.1676 21.9917 39.046C22.4231 38.9244 22.8066 38.7444 22.844 38.646C22.8813 38.5476 22.7078 38.204 22.4583 37.8825C22.2089 37.5609 21.8304 37.2047 21.6172 37.0908C21.4039 36.977 20.9687 36.8557 20.6498 36.821C20.3309 36.7862 19.1093 37.0229 17.935 37.3466C16.0877 37.856 15.6967 37.9086 15.0342 37.7371C14.613 37.628 14.247 37.562 14.2208 37.5903C14.1946 37.6185 14.4785 38.4114 14.8514 39.3522ZM36.8999 38.1772C36.8426 38.932 36.6486 39.9008 36.469 40.3301C36.2893 40.7593 35.8779 41.502 35.5546 41.9808C35.2314 42.4594 34.2684 43.3899 33.4146 44.0485C32.5609 44.707 31.6714 45.5149 31.4384 45.8436C31.2052 46.1725 31.0018 46.7114 30.9866 47.0413C30.9645 47.5191 31.2111 47.984 32.1976 49.3254L33.4364 51.0093L34.0724 50.3822C34.4221 50.0374 35.2652 49.4464 35.9455 49.069C36.6259 48.6916 37.4833 48.1491 37.8506 47.8635C38.2182 47.5778 38.8628 46.7754 39.2835 46.0803C39.7611 45.2911 40.1553 44.2854 40.3335 43.401C40.4906 42.6223 40.5985 41.8521 40.5736 41.6889C40.5486 41.5258 39.9253 40.5393 39.1882 39.4967C38.4513 38.4539 37.6759 37.3926 37.4651 37.1382C37.2544 36.8837 37.0643 36.7046 37.0429 36.7402C37.0214 36.7757 36.9571 37.4224 36.8999 38.1772ZM20.4948 40.9413C19.1761 41.5993 18.1726 41.9646 17.331 42.0927L16.0984 42.2805L16.8099 43.8525C17.2013 44.7168 17.6233 45.572 17.7478 45.7526C17.8722 45.9331 18.2405 46.1819 18.5659 46.3055C18.8984 46.4315 19.6419 46.4558 20.2628 46.3606C20.9634 46.2533 22.001 45.8644 23.097 45.2985C24.048 44.8074 25.254 44.2825 25.777 44.1322L26.7283 43.8588L25.5076 42.1407C24.8363 41.1958 24.137 40.2812 23.9537 40.1085C23.7648 39.9307 23.3612 39.8341 23.0231 39.8859C22.6947 39.9362 21.5569 40.411 20.4948 40.9413ZM40.7916 43.6493C40.6915 44.2475 40.3658 45.3197 40.0679 46.0321C39.7699 46.7443 39.2887 47.5956 38.9987 47.9236C38.7085 48.2517 38.0868 48.8144 37.617 49.1739C37.1473 49.5334 36.4585 49.9908 36.0864 50.1903C35.7145 50.3901 35.1657 50.8723 34.8669 51.262C34.5683 51.6519 34.3394 52.0711 34.3581 52.1937C34.3769 52.316 34.9089 53.1873 35.5403 54.1298C36.1718 55.0723 36.7079 55.8635 36.7315 55.8881C36.7551 55.9129 37.2146 55.572 37.7526 55.1311C38.2906 54.6899 39.4676 53.9555 40.3681 53.4989C41.2688 53.0422 42.3822 52.3767 42.8424 52.0194C43.3026 51.6624 43.8293 51.1268 44.0127 50.8291C44.1963 50.5313 44.3966 50.0157 44.4575 49.6833C44.5186 49.3509 44.5374 48.8762 44.4995 48.6286C44.4616 48.3811 44.062 47.4859 43.6117 46.6392C43.1614 45.7927 42.4385 44.5203 42.0052 43.8121C41.572 43.1038 41.1626 42.5326 41.0956 42.5428C41.0285 42.5531 40.8916 43.0511 40.7916 43.6493ZM23.3729 46.0928C22.2394 46.6108 21.0064 47.0808 20.6328 47.1374C20.2592 47.194 19.6159 47.192 19.2034 47.1327C18.7908 47.0734 18.4293 47.0608 18.4 47.1047C18.3705 47.1487 18.7146 47.9246 19.1644 48.8288C19.6142 49.733 20.1816 50.6068 20.4254 50.7702C20.7375 50.9797 21.193 51.0178 21.9668 50.8993C22.7754 50.7754 23.7868 50.345 25.7989 49.2687C27.3025 48.4645 28.7005 47.7808 28.9058 47.7493C29.1109 47.7179 29.2674 47.6167 29.2532 47.5246C29.2391 47.4322 28.8904 46.8763 28.4782 46.2892C28.0661 45.7018 27.574 45.1531 27.3848 45.0693C27.1955 44.9859 26.6791 44.97 26.2372 45.0342C25.7953 45.0986 24.5064 45.5748 23.3729 46.0928ZM26.0521 50.2986C24.4527 51.0856 23.6584 51.3584 22.3806 51.5594C21.4836 51.7006 20.7592 51.8764 20.7705 51.9501C20.7818 52.0237 21.3212 53.0145 21.9693 54.1516C22.6172 55.289 23.1874 56.2516 23.236 56.2909C23.2848 56.3301 23.653 56.3918 24.0544 56.4278C24.4716 56.4653 25.1611 56.3532 25.6643 56.1657C26.1485 55.9853 27.4063 55.1937 28.4596 54.4062C29.5129 53.619 30.7765 52.7954 31.2677 52.576C31.7589 52.3567 32.2206 52.104 32.2939 52.0145C32.3671 51.9251 32.0737 51.3546 31.6422 50.7466C31.2107 50.1389 30.7016 49.4419 30.5108 49.1981C30.194 48.7932 30.0742 48.7782 29.1284 49.0245C28.559 49.1729 27.1746 49.7462 26.0521 50.2986ZM44.8201 50.1246C44.7885 50.3665 44.5538 50.925 44.299 51.3656C44.0439 51.8061 43.4591 52.4575 42.9993 52.813C42.5394 53.1683 41.5202 53.8406 40.7344 54.3065C39.9485 54.7725 39.0793 55.3711 38.8026 55.6367C38.526 55.9024 38.1003 56.3654 37.8569 56.6654L37.4143 57.2109L38.2851 58.5293C38.7639 59.2544 39.1736 59.9625 39.1954 60.1025C39.2173 60.2427 39.3148 60.345 39.4123 60.3301C39.5099 60.3152 39.9785 60.1515 40.454 59.9666C40.9294 59.7817 42.0668 59.4701 42.9815 59.2741C43.8962 59.0782 44.9238 58.7787 45.2651 58.6083C45.6064 58.4379 46.1347 58.0698 46.4391 57.7902C46.7573 57.498 47.0887 56.8919 47.2184 56.3647C47.3427 55.8603 47.4098 55.2097 47.3676 54.9193C47.3253 54.6286 46.8299 53.3445 46.2666 52.0656C45.7033 50.7867 45.2386 49.7157 45.234 49.6858C45.2294 49.6558 45.1474 49.6433 45.0517 49.658C44.956 49.6726 44.852 49.8827 44.8201 50.1246ZM29.0092 55.274C26.9236 56.6234 26.637 56.7523 25.2427 56.9682L23.7338 57.2021L24.1156 57.874C24.3257 58.2435 24.9781 59.2755 25.5655 60.1673C26.1531 61.0591 26.8003 61.8991 27.004 62.0338C27.2576 62.2017 27.8199 62.208 28.7892 62.0539C30.0289 61.8566 30.335 61.7227 31.2586 60.9725C31.8386 60.5013 32.7461 59.5586 33.2755 58.8773C33.805 58.1961 34.5411 57.4267 34.9114 57.1678C35.5513 56.7206 35.5697 56.6721 35.2811 56.1927C35.1142 55.9151 34.6109 55.145 34.1628 54.4811L33.3477 53.2744L32.3071 53.544C31.6468 53.7151 30.4415 54.3474 29.0092 55.274ZM34.9998 58.6954C34.6457 58.9708 34.2681 59.3578 34.1609 59.5551C34.0537 59.7525 33.5348 60.3068 33.0075 60.7865C32.4802 61.2663 31.5399 61.9252 30.918 62.2509C30.2959 62.5764 29.4671 62.893 29.0759 62.9544C28.6849 63.0158 28.1802 62.993 27.9544 62.9034C27.7287 62.8138 27.4994 62.8074 27.445 62.889C27.3904 62.9704 27.5238 63.2628 27.7413 63.5387C27.9585 63.8145 28.3817 64.4252 28.6815 64.8957C28.9813 65.3663 29.5069 66.104 29.8497 66.5352C30.3022 67.1043 30.6403 67.3296 31.0841 67.3574C31.4202 67.3785 31.942 67.2952 32.2434 67.172C32.5448 67.0491 33.1414 66.5559 33.5695 66.0763C33.9973 65.5967 34.6877 64.6216 35.1034 63.9095C35.5192 63.1975 36.1662 62.317 36.5414 61.9532C36.9166 61.5892 37.3984 61.2647 37.6124 61.2319C37.8263 61.1991 38.0343 61.0855 38.0746 60.9796C38.1148 60.8734 37.7766 60.1744 37.323 59.4263C36.6501 58.3163 36.4196 58.0778 36.0711 58.1302C35.8363 58.1655 35.3542 58.4199 34.9998 58.6954ZM47.3736 57.7635C47.2316 58.0528 46.7121 58.5857 46.2191 58.9477C45.726 59.3098 44.8684 59.7248 44.3133 59.8697C43.7581 60.0147 42.7036 60.324 41.97 60.557C41.2362 60.7901 40.4974 61.0929 40.3282 61.2303C40.0355 61.4675 40.0523 61.5386 40.6724 62.6888C41.0308 63.3537 41.5164 64.2302 41.7514 64.6364L42.1787 65.3748L43.0436 65.111C43.5341 64.9614 44.7942 64.8552 45.9544 64.8654C47.0868 64.8756 48.3169 64.7737 48.7089 64.6373C49.0987 64.5018 49.5899 64.1624 49.8005 63.883C50.1734 63.3885 50.172 63.3332 49.7482 61.7725C49.5085 60.891 49.0716 59.4554 48.7768 58.5824C48.4821 57.7093 48.1744 56.8643 48.0929 56.7047C47.9695 56.4627 47.9186 56.483 47.7882 56.826C47.7021 57.0525 47.5156 57.4745 47.3736 57.7635ZM37.4755 63.02C37.1449 63.3539 36.3444 64.2987 35.6965 65.1198C35.0488 65.9409 34.1492 66.8944 33.6976 67.2391C33.1896 67.6268 32.5685 67.9077 32.0677 67.9759C31.6225 68.0366 31.2684 68.152 31.2807 68.2323C31.2931 68.3126 31.8712 69.0843 32.5656 69.9468L33.828 71.5155L34.9522 71.4044C35.9415 71.3069 36.2172 71.1803 37.2514 70.3495C37.8977 69.8304 38.4587 69.3354 38.4981 69.2499C38.5374 69.1642 39.1445 68.5014 39.847 67.7772C40.5494 67.0531 41.115 66.3999 41.1037 66.3258C41.0924 66.2518 40.8474 65.7196 40.5597 65.1433C40.2718 64.5668 39.7894 63.6868 39.4878 63.1879C39.0629 62.4851 38.8421 62.2956 38.5079 62.3468C38.2705 62.3832 37.806 62.686 37.4755 63.02ZM46.0311 65.9461C44.2353 66.1849 43.166 66.4082 43.0588 66.5666C42.9396 66.7428 43.1241 67.2707 43.6999 68.4016C44.1445 69.2746 44.5734 70.0718 44.6528 70.1728C44.7324 70.2739 45.0234 70.3236 45.2997 70.2832C45.576 70.243 46.459 70.2938 47.262 70.3964C48.0649 70.4989 49.0899 70.528 49.5396 70.4612C50.0383 70.3869 50.5697 70.1429 50.9022 69.8355L51.447 69.3318L51.024 67.1561C50.7914 65.9597 50.5524 64.8742 50.4929 64.744C50.4143 64.5719 50.1732 64.6527 49.6102 65.0401C48.931 65.5073 48.491 65.6187 46.0311 65.9461ZM41.3162 67.9208C41.2953 68.0127 40.6813 68.641 39.9517 69.3168C39.222 69.9927 38.1905 70.8273 37.6594 71.1714C37.045 71.5694 36.3035 71.8585 35.6221 71.966C35.0327 72.059 34.5588 72.1888 34.5689 72.2545C34.5789 72.3199 35.2375 73.1209 36.0323 74.0342L37.4774 75.6947L38.2933 75.4418C38.742 75.3025 39.4039 74.8979 39.7642 74.5426C40.1244 74.1873 40.816 73.4171 41.3007 72.8312C41.7854 72.2452 42.4414 71.5757 42.7583 71.3433C43.0752 71.1109 43.3185 70.8165 43.299 70.689C43.2794 70.5616 43.0616 70.0255 42.8149 69.4975C42.5684 68.9698 42.2435 68.3453 42.093 68.1102C41.9426 67.8751 41.715 67.6986 41.5869 67.7182C41.459 67.7378 41.3373 67.8291 41.3162 67.9208ZM49.4918 71.3486C48.8975 71.4396 47.7529 71.4478 46.948 71.3668C46.143 71.2859 45.4441 71.2805 45.3944 71.3549C45.3449 71.429 45.6363 72.1503 46.0422 72.9574L46.7803 74.4251L48.4124 75.15C49.31 75.5488 50.389 75.9478 50.8101 76.0369C51.3438 76.1496 51.7095 76.1174 52.0171 75.9304C52.458 75.6626 52.4579 75.6598 52.0506 73.0014L51.643 70.3406L51.1075 70.7617C50.7939 71.0084 50.1245 71.2517 49.4918 71.3486ZM42.9704 72.9041C42.5062 73.2999 41.6777 74.0364 41.1296 74.5409C40.5815 75.0453 39.8496 75.5938 39.5033 75.7598C39.1569 75.9257 38.7268 76.0845 38.5476 76.1126C38.3683 76.1407 38.2364 76.2617 38.2547 76.3814C38.2731 76.5011 39.0696 77.412 40.0249 78.4057C41.3203 79.7534 41.8691 80.196 42.1846 80.1476C42.4647 80.1047 42.8261 79.6869 43.2546 78.9103C43.6106 78.2651 44.2649 77.1647 44.7087 76.4646C45.1524 75.7643 45.5032 75.1108 45.4881 75.0121C45.473 74.9136 45.1976 74.2895 44.876 73.6253C44.5544 72.9611 44.2418 72.3545 44.1811 72.2774C44.1205 72.2005 44.0132 72.1479 43.9426 72.1608C43.8721 72.1737 43.4345 72.508 42.9704 72.9041ZM48.2112 77.1897C48.5675 77.8525 49.3238 79.4034 49.8919 80.6363C50.46 81.8692 51.0899 83.2282 51.2914 83.6565L51.658 84.435L52.0426 82.9804C52.2542 82.1803 52.4576 80.6466 52.4947 79.5722C52.5318 78.4977 52.5317 77.4119 52.4944 77.1595C52.4335 76.7471 52.3359 76.7142 51.537 76.8366C50.9019 76.9339 50.245 76.8303 49.239 76.474C48.4643 76.1995 47.7702 75.9772 47.6968 75.9799C47.6231 75.9826 47.8547 76.527 48.2112 77.1897ZM44.5903 78.7778C43.965 79.648 43.2508 80.4507 43.0028 80.5615C42.7549 80.6721 42.5628 80.8322 42.5759 80.9174C42.5889 81.0025 43.3712 81.6652 44.3145 82.39C45.2577 83.1147 46.4363 83.9414 46.9339 84.227C47.4313 84.5127 48.3618 84.9405 49.0017 85.1776C49.6418 85.4149 50.1529 85.5285 50.1379 85.4305C50.1229 85.3324 49.3836 83.5429 48.4949 81.4534C47.6063 79.3642 46.7466 77.4065 46.5846 77.1031C46.3253 76.6172 46.2568 76.5899 46.0086 76.8735C45.8538 77.0504 45.2156 77.9074 44.5903 78.7778Z" fill="#BF0F80"/>
</g>
<defs>
<clipPath id="clip0_1245_7686">
<rect width="100" height="100" fill="white" transform="matrix(1 0 0 -1 0 100)"/>
</clipPath>
</defs>
</svg>
