<svg width="144" height="60" viewBox="0 0 144 60" fill="none" xmlns="http://www.w3.org/2000/svg">
<rect width="144" height="60" fill="#050606"/>
<path d="M16.0777 15.5294H18.8738V33.8823H16.0777V15.5294Z" fill="white"/>
<path d="M25.1651 21.8823H27.9612V33.8823H25.1651V21.8823Z" fill="white"/>
<path d="M34.2525 21.8823H37.0486V33.8823H34.2525V21.8823Z" fill="white"/>
<path d="M51.0291 26.8235H53.8253V33.8823H51.0291V26.8235Z" fill="white"/>
<path d="M125.825 26.8235H128.621V33.8823H125.825V26.8235Z" fill="white"/>
<path d="M81.7864 15.5294V18.3529H74.7961V15.5294H81.7864Z" fill="white"/>
<path d="M57.3204 18.3529H60.1165V33.8823H57.3204V18.3529Z" fill="white"/>
<path d="M106.951 18.3529H109.748V33.8823H106.951V18.3529Z" fill="white"/>
<path d="M67.1068 17.6471H69.9029V33.8823H67.1068V17.6471Z" fill="white"/>
<path d="M76.1942 13.4118H78.9903V33.8823H76.1942V13.4118Z" fill="white"/>
<path d="M85.2816 12H88.0777V33.8823H85.2816V12Z" fill="white"/>
<path d="M27.9612 22.2353C27.9612 20.644 27.3352 19.1179 26.2209 17.9926C25.1066 16.8674 23.5953 16.2353 22.0194 16.2353C20.4436 16.2353 18.9323 16.8674 17.818 17.9926C16.7037 19.1179 16.0777 20.644 16.0777 22.2353H18.8407C18.8407 21.384 19.1756 20.5675 19.7718 19.9656C20.3679 19.3636 21.1764 19.0254 22.0194 19.0254C22.8625 19.0254 23.671 19.3636 24.2671 19.9656C24.8632 20.5675 25.1981 21.384 25.1981 22.2353H27.9612Z" fill="white"/>
<path d="M37.0486 22.2353C37.0486 20.644 36.4226 19.1179 35.3083 17.9926C34.194 16.8674 32.6827 16.2353 31.1068 16.2353C29.531 16.2353 28.0197 16.8674 26.9054 17.9926C25.7911 19.1179 25.1651 20.644 25.1651 22.2353H27.928C27.928 21.3839 28.2629 20.5675 28.859 19.9655C29.4552 19.3635 30.2637 19.0253 31.1068 19.0253C31.9499 19.0253 32.7585 19.3635 33.3546 19.9655C33.9507 20.5675 34.2857 21.3839 34.2857 22.2353H37.0486Z" fill="white"/>
<path d="M64.9118 18.7261C64.0272 18.3842 63.0711 18.2747 62.1331 18.4081C61.1952 18.5414 60.3061 18.9131 59.5494 19.4884C58.7926 20.0636 58.1929 20.8236 57.8066 21.6969C57.4203 22.5703 57.26 23.5284 57.3408 24.4814L59.9317 24.2575C59.8885 23.7477 59.9743 23.2351 60.1809 22.7678C60.3876 22.3006 60.7084 21.894 61.1133 21.5863C61.5181 21.2785 61.9938 21.0796 62.4956 21.0083C62.9974 20.937 63.5089 20.9955 63.9822 21.1785L64.9118 18.7261Z" fill="white"/>
<path d="M114.543 18.7261C113.658 18.3842 112.702 18.2747 111.764 18.4081C110.826 18.5414 109.937 18.9131 109.18 19.4884C108.424 20.0636 107.824 20.8236 107.438 21.6969C107.051 22.5703 106.891 23.5284 106.972 24.4814L109.563 24.2575C109.52 23.7477 109.605 23.2351 109.812 22.7678C110.019 22.3006 110.339 21.894 110.744 21.5863C111.149 21.2785 111.625 21.0796 112.127 21.0083C112.628 20.937 113.14 20.9955 113.613 21.1785L114.543 18.7261Z" fill="white"/>
<path d="M82.1065 8.47983C81.3733 8.4374 80.639 8.54121 79.9456 8.78533C79.2521 9.02945 78.6131 9.40911 78.0649 9.90262C77.5168 10.3961 77.0703 10.9938 76.7509 11.6616C76.4315 12.3294 76.2454 13.0541 76.2034 13.7945L78.9286 13.9522C78.9501 13.5733 79.0453 13.2023 79.2088 12.8604C79.3723 12.5186 79.6009 12.2127 79.8815 11.96C80.1621 11.7074 80.4892 11.5131 80.8442 11.3881C81.1991 11.2632 81.575 11.21 81.9503 11.2317L82.1065 8.47983Z" fill="white"/>
<path fill-rule="evenodd" clip-rule="evenodd" d="M46.835 31.0588C49.1514 31.0588 51.0291 29.1626 51.0291 26.8235C51.0291 24.4844 49.1514 22.5882 46.835 22.5882C44.5186 22.5882 42.6408 24.4844 42.6408 26.8235C42.6408 29.1626 44.5186 31.0588 46.835 31.0588ZM46.835 33.8823C50.6956 33.8823 53.8253 30.722 53.8253 26.8235C53.8253 22.925 50.6956 19.7647 46.835 19.7647C42.9743 19.7647 39.8447 22.925 39.8447 26.8235C39.8447 30.722 42.9743 33.8823 46.835 33.8823Z" fill="white"/>
<path fill-rule="evenodd" clip-rule="evenodd" d="M121.631 31.0588C123.947 31.0588 125.825 29.1626 125.825 26.8235C125.825 24.4844 123.947 22.5882 121.631 22.5882C119.315 22.5882 117.437 24.4844 117.437 26.8235C117.437 29.1626 119.315 31.0588 121.631 31.0588ZM121.631 33.8823C125.492 33.8823 128.621 30.722 128.621 26.8235C128.621 22.925 125.492 19.7647 121.631 19.7647C117.77 19.7647 114.641 22.925 114.641 26.8235C114.641 30.722 117.77 33.8823 121.631 33.8823Z" fill="white"/>
<path fill-rule="evenodd" clip-rule="evenodd" d="M97.8641 31.0588C100.18 31.0588 102.058 29.1626 102.058 26.8235C102.058 24.4844 100.18 22.5882 97.8641 22.5882C95.5477 22.5882 93.6699 24.4844 93.6699 26.8235C93.6699 29.1626 95.5477 31.0588 97.8641 31.0588ZM97.8641 33.8823C101.725 33.8823 104.854 30.722 104.854 26.8235C104.854 22.925 101.725 19.7647 97.8641 19.7647C94.0035 19.7647 90.8738 22.925 90.8738 26.8235C90.8738 30.722 94.0035 33.8823 97.8641 33.8823Z" fill="white"/>
<path d="M69.9029 12.7059C69.9029 13.4856 69.277 14.1176 68.5049 14.1176C67.7327 14.1176 67.1068 13.4856 67.1068 12.7059C67.1068 11.9262 67.7327 11.2941 68.5049 11.2941C69.277 11.2941 69.9029 11.9262 69.9029 12.7059Z" fill="white"/>
<path d="M26.6436 45.6425V48H25.8572V41.978H28.0567C28.7093 41.978 29.2199 42.1462 29.5886 42.4826C29.9599 42.819 30.1456 43.2643 30.1456 43.8185C30.1456 44.4031 29.964 44.8539 29.6009 45.171C29.2404 45.4853 28.723 45.6425 28.0485 45.6425H26.6436ZM26.6436 44.9931H28.0567C28.4772 44.9931 28.7994 44.8939 29.0233 44.6953C29.2473 44.4941 29.3592 44.2045 29.3592 43.8268C29.3592 43.4683 29.2473 43.1816 29.0233 42.9665C28.7994 42.7514 28.4922 42.6397 28.1018 42.6315H26.6436V44.9931Z" fill="white"/>
<path d="M33.4614 48H32.7036V43.5249H33.4614V48ZM32.6422 42.3378C32.6422 42.2137 32.6791 42.109 32.7528 42.0235C32.8292 41.938 32.9412 41.8953 33.0886 41.8953C33.2361 41.8953 33.348 41.938 33.4245 42.0235C33.501 42.109 33.5392 42.2137 33.5392 42.3378C33.5392 42.4619 33.501 42.5653 33.4245 42.648C33.348 42.7307 33.2361 42.7721 33.0886 42.7721C32.9412 42.7721 32.8292 42.7307 32.7528 42.648C32.6791 42.5653 32.6422 42.4619 32.6422 42.3378Z" fill="white"/>
<path d="M39.7958 47.2183C39.6019 47.5216 39.3479 47.7477 39.0339 47.8966H39.038L38.8005 48.0828C38.4919 48.3337 38.3376 48.5777 38.3376 48.8148C38.3376 49.0134 38.4441 49.1126 38.6571 49.1126C38.7882 49.1126 38.9247 49.0768 39.0667 49.0051L39.1199 49.5056C38.9288 49.6269 38.7104 49.6875 38.4646 49.6875C38.2216 49.6875 38.0291 49.6158 37.8871 49.4725C37.7478 49.3291 37.6782 49.1388 37.6782 48.9017C37.6782 48.6039 37.812 48.3309 38.0796 48.0828C37.4843 48.0717 37.0037 47.8677 36.6378 47.4706C36.2747 47.0708 36.0931 46.5414 36.0931 45.8824V45.7459C36.0931 45.302 36.1764 44.9063 36.3429 44.5589C36.5122 44.2087 36.7471 43.9357 37.0474 43.7399C37.3505 43.5414 37.6782 43.4421 38.0304 43.4421C38.6066 43.4421 39.0544 43.6338 39.3739 44.017C39.6934 44.4003 39.8531 44.949 39.8531 45.6632V45.9817H36.8508C36.8618 46.4228 36.9887 46.7799 37.2317 47.0529C37.4775 47.3231 37.7888 47.4582 38.1656 47.4582C38.4332 47.4582 38.6598 47.4031 38.8455 47.2928C39.0312 47.1825 39.1937 47.0363 39.3329 46.8544L39.7958 47.2183ZM38.0304 44.0708C37.7246 44.0708 37.4679 44.1839 37.2604 44.41C37.0529 44.6333 36.9246 44.9476 36.8754 45.353H39.0954V45.2951C39.0735 44.9063 38.9698 44.6057 38.7841 44.3934C38.5984 44.1783 38.3472 44.0708 38.0304 44.0708Z" fill="white"/>
<path d="M43.5784 45.9279L43.1033 46.4283V48H42.3456V41.6471H43.1033V45.4895L43.5088 44.9973L44.8891 43.5249H45.8107L44.0863 45.3943L46.0114 48H45.1226L43.5784 45.9279Z" fill="white"/>
<path d="M48.9175 43.5249L48.9421 44.0874C49.2807 43.6572 49.7231 43.4421 50.2692 43.4421C51.2058 43.4421 51.6782 43.9757 51.6864 45.0428V48H50.9286V45.0386C50.9259 44.716 50.8522 44.4775 50.7074 44.3231C50.5655 44.1687 50.3429 44.0915 50.0398 44.0915C49.7941 44.0915 49.5783 44.1577 49.3927 44.29C49.207 44.4224 49.0623 44.5961 48.9585 44.8112V48H48.2008V43.5249H48.9175Z" fill="white"/>
<path d="M54.2362 45.7211C54.2362 45.2827 54.3208 44.8884 54.4901 44.5382C54.6621 44.188 54.8997 43.9178 55.2028 43.7275C55.5086 43.5373 55.8568 43.4421 56.2472 43.4421C56.8507 43.4421 57.3381 43.6531 57.7095 44.0749C58.0836 44.4968 58.2706 45.0579 58.2706 45.7583V45.8121C58.2706 46.2477 58.1873 46.6393 58.0208 46.9867C57.8569 47.3314 57.6207 47.6002 57.3122 47.7932C57.0063 47.9863 56.6541 48.0828 56.2554 48.0828C55.6547 48.0828 55.1673 47.8718 54.7932 47.4499C54.4219 47.0281 54.2362 46.4697 54.2362 45.7749V45.7211ZM54.998 45.8121C54.998 46.3084 55.1113 46.7068 55.338 47.0074C55.5673 47.3079 55.8732 47.4582 56.2554 47.4582C56.6404 47.4582 56.9463 47.3066 57.1729 47.0033C57.3995 46.6972 57.5129 46.2698 57.5129 45.7211C57.5129 45.2303 57.3968 44.8332 57.1647 44.5299C56.9354 44.2238 56.6295 44.0708 56.2472 44.0708C55.8732 44.0708 55.5714 44.2211 55.3421 44.5216C55.1127 44.8222 54.998 45.2523 54.998 45.8121Z" fill="white"/>
<path d="M60.804 49.1995L60.374 48.9017C60.6306 48.5405 60.7644 48.1682 60.7754 47.785V47.0942H61.5167V47.694C61.5167 47.9725 61.4485 48.251 61.3119 48.5294C61.1781 48.8079 61.0088 49.0313 60.804 49.1995Z" fill="white"/>
<path d="M69.0083 45.9279L68.5332 46.4283V48H67.7755V41.6471H68.5332V45.4895L68.9387 44.9973L70.319 43.5249H71.2406L69.5162 45.3943L71.4413 48H70.5525L69.0083 45.9279Z" fill="white"/>
<path d="M74.6587 42.4412V43.5249H75.4861V44.1163H74.6587V46.8916C74.6587 47.0708 74.6956 47.2059 74.7693 47.2969C74.843 47.3851 74.9687 47.4293 75.1461 47.4293C75.2335 47.4293 75.3537 47.4127 75.5066 47.3796V48C75.3072 48.0552 75.1134 48.0828 74.925 48.0828C74.5864 48.0828 74.3311 47.9794 74.159 47.7726C73.987 47.5658 73.901 47.2721 73.901 46.8916V44.1163H73.0941V43.5249H73.901V42.4412H74.6587Z" fill="white"/>
<path d="M77.7001 45.7211C77.7001 45.2827 77.7847 44.8884 77.954 44.5382C78.126 44.188 78.3636 43.9178 78.6667 43.7275C78.9725 43.5373 79.3207 43.4421 79.7111 43.4421C80.3146 43.4421 80.802 43.6531 81.1734 44.0749C81.5474 44.4968 81.7345 45.0579 81.7345 45.7583V45.8121C81.7345 46.2477 81.6512 46.6393 81.4846 46.9867C81.3208 47.3314 81.0846 47.6002 80.7761 47.7932C80.4702 47.9863 80.118 48.0828 79.7193 48.0828C79.1186 48.0828 78.6312 47.8718 78.2571 47.4499C77.8857 47.0281 77.7001 46.4697 77.7001 45.7749V45.7211ZM78.4619 45.8121C78.4619 46.3084 78.5752 46.7068 78.8018 47.0074C79.0312 47.3079 79.337 47.4582 79.7193 47.4582C80.1043 47.4582 80.4102 47.3066 80.6368 47.0033C80.8634 46.6972 80.9768 46.2698 80.9768 45.7211C80.9768 45.2303 80.8607 44.8332 80.6286 44.5299C80.3992 44.2238 80.0934 44.0708 79.7111 44.0708C79.337 44.0708 79.0353 44.2211 78.8059 44.5216C78.5766 44.8222 78.4619 45.2523 78.4619 45.8121ZM80.0552 41.6471H80.9727L79.875 42.8631H79.2647L80.0552 41.6471Z" fill="white"/>
<path d="M86.4346 44.2114C86.32 44.1921 86.1957 44.1825 86.0619 44.1825C85.565 44.1825 85.2277 44.3962 85.0502 44.8236V48H84.2925V43.5249H85.0298L85.042 44.0419C85.2905 43.642 85.6428 43.4421 86.0988 43.4421C86.2462 43.4421 86.3582 43.4614 86.4346 43.5V44.2114Z" fill="white"/>
<path d="M90.4999 48.0828C89.8992 48.0828 89.4104 47.8842 89.0336 47.4872C88.6568 47.0874 88.4684 46.5538 88.4684 45.8865V45.7459C88.4684 45.302 88.5517 44.9063 88.7182 44.5589C88.8875 44.2087 89.1224 43.9357 89.4227 43.7399C89.7258 43.5414 90.0535 43.4421 90.4057 43.4421C90.9819 43.4421 91.4297 43.6338 91.7492 44.017C92.0686 44.4003 92.2284 44.949 92.2284 45.6632V45.9817H89.2261C89.237 46.4228 89.364 46.7799 89.607 47.0529C89.8528 47.3231 90.1641 47.4582 90.5409 47.4582C90.8085 47.4582 91.0351 47.4031 91.2208 47.2928C91.4065 47.1825 91.569 47.0363 91.7082 46.8544L92.171 47.2183C91.7997 47.7946 91.2426 48.0828 90.4999 48.0828ZM90.4057 44.0708C90.0999 44.0708 89.8432 44.1839 89.6357 44.41C89.4282 44.6333 89.2998 44.9476 89.2507 45.353H91.4706V45.2951C91.4488 44.9063 91.345 44.6057 91.1594 44.3934C90.9737 44.1783 90.7225 44.0708 90.4057 44.0708Z" fill="white"/>
<path d="M99.4333 42.4412V43.5249H100.261V44.1163H99.4333V46.8916C99.4333 47.0708 99.4702 47.2059 99.5439 47.2969C99.6176 47.3851 99.7432 47.4293 99.9207 47.4293C100.008 47.4293 100.128 47.4127 100.281 47.3796V48C100.082 48.0552 99.8879 48.0828 99.6995 48.0828C99.3609 48.0828 99.1056 47.9794 98.9336 47.7726C98.7616 47.5658 98.6756 47.2721 98.6756 46.8916V44.1163H97.8687V43.5249H98.6756V42.4412H99.4333Z" fill="white"/>
<path d="M104.899 44.2114C104.785 44.1921 104.66 44.1825 104.527 44.1825C104.03 44.1825 103.692 44.3962 103.515 44.8236V48H102.757V43.5249H103.494L103.507 44.0419C103.755 43.642 104.108 43.4421 104.564 43.4421C104.711 43.4421 104.823 43.4614 104.899 43.5V44.2114Z" fill="white"/>
<path d="M111.205 46.9453L112.057 43.5249H112.815L111.525 48H110.91L109.833 44.6085L108.784 48H108.17L106.884 43.5249H107.638L108.51 46.875L109.542 43.5249H110.152L111.205 46.9453Z" fill="white"/>
<path d="M117.933 48C117.889 47.9118 117.854 47.7546 117.826 47.5285C117.474 47.898 117.053 48.0828 116.565 48.0828C116.128 48.0828 115.769 47.9587 115.487 47.7105C115.209 47.4596 115.07 47.1425 115.07 46.7592C115.07 46.2932 115.244 45.932 115.594 45.6756C115.946 45.4164 116.44 45.2868 117.077 45.2868H117.814V44.9352C117.814 44.6678 117.735 44.4555 117.576 44.2983C117.418 44.1384 117.185 44.0584 116.876 44.0584C116.606 44.0584 116.379 44.1273 116.196 44.2652C116.013 44.4031 115.922 44.5699 115.922 44.7657H115.16C115.16 44.5423 115.238 44.3272 115.393 44.1204C115.552 43.9109 115.765 43.7454 116.032 43.6241C116.303 43.5028 116.599 43.4421 116.921 43.4421C117.432 43.4421 117.832 43.5717 118.121 43.8309C118.411 44.0874 118.561 44.4417 118.572 44.8939V46.9536C118.572 47.3645 118.624 47.6912 118.727 47.9339V48H117.933ZM116.675 47.4169C116.913 47.4169 117.138 47.3548 117.351 47.2307C117.564 47.1067 117.718 46.9453 117.814 46.7468V45.8286H117.22C116.292 45.8286 115.827 46.103 115.827 46.6517C115.827 46.8916 115.907 47.0791 116.065 47.2142C116.223 47.3493 116.427 47.4169 116.675 47.4169Z" fill="white"/>
</svg>
