<svg width="97" height="40" viewBox="0 0 97 40" fill="none" xmlns="http://www.w3.org/2000/svg">
<rect width="97" height="40" rx="2" fill="#050606"/>
<path d="M10.8301 10.353H12.7136V22.5883H10.8301V10.353Z" fill="white"/>
<path d="M16.9514 14.5883H18.8349V22.5883H16.9514V14.5883Z" fill="white"/>
<path d="M23.0728 14.5883H24.9563V22.5883H23.0728V14.5883Z" fill="white"/>
<path d="M34.3738 17.8824H36.2573V22.5883H34.3738V17.8824Z" fill="white"/>
<path d="M84.7572 17.8824H86.6407V22.5883H84.7572V17.8824Z" fill="white"/>
<path d="M55.0922 10.353V12.2353H50.3835V10.353H55.0922Z" fill="white"/>
<path d="M38.6116 12.2353H40.4951V22.5883H38.6116V12.2353Z" fill="white"/>
<path d="M72.0437 12.2353H73.9272V22.5883H72.0437V12.2353Z" fill="white"/>
<path d="M45.2039 11.7647H47.0874V22.5883H45.2039V11.7647Z" fill="white"/>
<path d="M51.3252 8.94121H53.2087V22.5883H51.3252V8.94121Z" fill="white"/>
<path d="M57.4466 8.00004H59.3301V22.5883H57.4466V8.00004Z" fill="white"/>
<path d="M18.8349 14.8236C18.8349 13.7627 18.4132 12.7453 17.6626 11.9951C16.912 11.245 15.894 10.8236 14.8325 10.8236C13.771 10.8236 12.753 11.245 12.0024 11.9951C11.2518 12.7453 10.8301 13.7627 10.8301 14.8236H12.6913C12.6913 14.256 12.9169 13.7117 13.3184 13.3104C13.72 12.9091 14.2646 12.6837 14.8325 12.6837C15.4004 12.6837 15.945 12.9091 16.3466 13.3104C16.7481 13.7117 16.9737 14.256 16.9737 14.8236H18.8349Z" fill="white"/>
<path d="M24.9563 14.8236C24.9563 13.7627 24.5346 12.7453 23.784 11.9951C23.0334 11.245 22.0154 10.8236 20.9539 10.8236C19.8924 10.8236 18.8743 11.245 18.1237 11.9951C17.3731 12.7453 16.9514 13.7627 16.9514 14.8236H18.8126C18.8126 14.256 19.0382 13.7117 19.4397 13.3104C19.8413 12.909 20.386 12.6836 20.9539 12.6836C21.5218 12.6836 22.0664 12.909 22.468 13.3104C22.8696 13.7117 23.0952 14.256 23.0952 14.8236H24.9563Z" fill="white"/>
<path d="M43.7253 12.4841C43.1294 12.2562 42.4854 12.1832 41.8535 12.2721C41.2217 12.361 40.6228 12.6088 40.1131 12.9923C39.6033 13.3758 39.1994 13.8824 38.9391 14.4647C38.6789 15.0469 38.5709 15.6856 38.6253 16.321L40.3706 16.1717C40.3415 15.8318 40.3993 15.4901 40.5385 15.1786C40.6777 14.8671 40.8938 14.5961 41.1665 14.3909C41.4393 14.1857 41.7597 14.0531 42.0977 14.0056C42.4357 13.958 42.7803 13.9971 43.0991 14.119L43.7253 12.4841Z" fill="white"/>
<path d="M77.1573 12.4841C76.5614 12.2562 75.9174 12.1832 75.2856 12.2721C74.6537 12.361 74.0549 12.6088 73.5451 12.9923C73.0353 13.3758 72.6314 13.8824 72.3712 14.4647C72.111 15.0469 72.003 15.6856 72.0574 16.321L73.8026 16.1717C73.7735 15.8318 73.8313 15.4901 73.9705 15.1786C74.1098 14.8671 74.3259 14.5961 74.5986 14.3909C74.8713 14.1857 75.1917 14.0531 75.5297 14.0056C75.8678 13.958 76.2123 13.9971 76.5311 14.119L77.1573 12.4841Z" fill="white"/>
<path d="M55.3078 5.65326C54.8139 5.62497 54.3193 5.69418 53.8522 5.85693C53.3851 6.01968 52.9546 6.27278 52.5854 6.60179C52.2161 6.9308 51.9153 7.32927 51.7002 7.77445C51.485 8.21963 51.3597 8.7028 51.3314 9.19638L53.1671 9.30153C53.1816 9.04888 53.2458 8.80155 53.3559 8.57367C53.466 8.34579 53.62 8.14182 53.809 7.97341C53.998 7.80499 54.2184 7.67543 54.4575 7.59212C54.6966 7.50882 54.9498 7.47339 55.2026 7.48787L55.3078 5.65326Z" fill="white"/>
<path fill-rule="evenodd" clip-rule="evenodd" d="M31.5485 20.7059C33.1089 20.7059 34.3738 19.4418 34.3738 17.8824C34.3738 16.323 33.1089 15.0589 31.5485 15.0589C29.9882 15.0589 28.7233 16.323 28.7233 17.8824C28.7233 19.4418 29.9882 20.7059 31.5485 20.7059ZM31.5485 22.5883C34.1491 22.5883 36.2573 20.4814 36.2573 17.8824C36.2573 15.2834 34.1491 13.1765 31.5485 13.1765C28.948 13.1765 26.8398 15.2834 26.8398 17.8824C26.8398 20.4814 28.948 22.5883 31.5485 22.5883Z" fill="white"/>
<path fill-rule="evenodd" clip-rule="evenodd" d="M81.932 20.7059C83.4923 20.7059 84.7572 19.4418 84.7572 17.8824C84.7572 16.323 83.4923 15.0589 81.932 15.0589C80.3717 15.0589 79.1068 16.323 79.1068 17.8824C79.1068 19.4418 80.3717 20.7059 81.932 20.7059ZM81.932 22.5883C84.5326 22.5883 86.6407 20.4814 86.6407 17.8824C86.6407 15.2834 84.5326 13.1765 81.932 13.1765C79.3314 13.1765 77.2233 15.2834 77.2233 17.8824C77.2233 20.4814 79.3314 22.5883 81.932 22.5883Z" fill="white"/>
<path fill-rule="evenodd" clip-rule="evenodd" d="M65.9223 20.7059C67.4826 20.7059 68.7475 19.4418 68.7475 17.8824C68.7475 16.323 67.4826 15.0589 65.9223 15.0589C64.362 15.0589 63.0971 16.323 63.0971 17.8824C63.0971 19.4418 64.362 20.7059 65.9223 20.7059ZM65.9223 22.5883C68.5229 22.5883 70.631 20.4814 70.631 17.8824C70.631 15.2834 68.5229 13.1765 65.9223 13.1765C63.3217 13.1765 61.2136 15.2834 61.2136 17.8824C61.2136 20.4814 63.3217 22.5883 65.9223 22.5883Z" fill="white"/>
<path d="M47.0874 8.47062C47.0874 8.99042 46.6657 9.4118 46.1456 9.4118C45.6255 9.4118 45.2039 8.99042 45.2039 8.47062C45.2039 7.95083 45.6255 7.52945 46.1456 7.52945C46.6657 7.52945 47.0874 7.95083 47.0874 8.47062Z" fill="white"/>
<path d="M17.9476 30.4284V32.0001H17.4178V27.9854H18.8994C19.339 27.9854 19.683 28.0975 19.9313 28.3218C20.1815 28.546 20.3065 28.8429 20.3065 29.2124C20.3065 29.6021 20.1842 29.9026 19.9396 30.114C19.6968 30.3236 19.3482 30.4284 18.8939 30.4284H17.9476ZM17.9476 29.9955H18.8994C19.1827 29.9955 19.3997 29.9293 19.5506 29.7969C19.7014 29.6627 19.7768 29.4697 19.7768 29.2179C19.7768 28.9789 19.7014 28.7877 19.5506 28.6444C19.3997 28.501 19.1928 28.4265 18.9298 28.421H17.9476V29.9955Z" fill="white"/>
<path d="M22.5401 32.0001H22.0297V29.0166H22.5401V32.0001ZM21.9883 28.2252C21.9883 28.1425 22.0131 28.0727 22.0628 28.0157C22.1143 27.9587 22.1897 27.9302 22.289 27.9302C22.3883 27.9302 22.4637 27.9587 22.5152 28.0157C22.5667 28.0727 22.5925 28.1425 22.5925 28.2252C22.5925 28.308 22.5667 28.3769 22.5152 28.432C22.4637 28.4872 22.3883 28.5148 22.289 28.5148C22.1897 28.5148 22.1143 28.4872 22.0628 28.432C22.0131 28.3769 21.9883 28.308 21.9883 28.2252Z" fill="white"/>
<path d="M26.807 31.4789C26.6764 31.6811 26.5053 31.8319 26.2938 31.9311H26.2966L26.1366 32.0552C25.9287 32.2225 25.8248 32.3852 25.8248 32.5433C25.8248 32.6756 25.8965 32.7418 26.04 32.7418C26.1283 32.7418 26.2202 32.7179 26.3159 32.6701L26.3518 33.0037C26.223 33.0846 26.0759 33.1251 25.9103 33.1251C25.7466 33.1251 25.6169 33.0773 25.5213 32.9817C25.4275 32.8861 25.3806 32.7593 25.3806 32.6012C25.3806 32.4026 25.4707 32.2207 25.651 32.0552C25.25 32.0479 24.9263 31.9118 24.6798 31.6471C24.4352 31.3806 24.3128 31.0276 24.3128 30.5883V30.4973C24.3128 30.2014 24.3689 29.9376 24.4811 29.7059C24.5952 29.4725 24.7534 29.2905 24.9557 29.16C25.1599 29.0276 25.3806 28.9615 25.6179 28.9615C26.006 28.9615 26.3076 29.0892 26.5228 29.3447C26.738 29.6002 26.8456 29.9661 26.8456 30.4422V30.6545H24.8233C24.8306 30.9486 24.9161 31.1866 25.0798 31.3686C25.2454 31.5488 25.4551 31.6389 25.7089 31.6389C25.8892 31.6389 26.0418 31.6021 26.1669 31.5286C26.292 31.455 26.4014 31.3576 26.4952 31.2363L26.807 31.4789ZM25.6179 29.3806C25.4118 29.3806 25.239 29.4559 25.0992 29.6067C24.9594 29.7556 24.8729 29.9651 24.8398 30.2354H26.3352V30.1968C26.3205 29.9376 26.2506 29.7372 26.1255 29.5957C26.0004 29.4523 25.8312 29.3806 25.6179 29.3806Z" fill="white"/>
<path d="M29.3551 30.6186L29.035 30.9523V32.0001H28.5246V27.7648H29.035V30.3264L29.3081 29.9982L30.2379 29.0166H30.8587L29.6972 30.2629L30.9939 32.0001H30.3952L29.3551 30.6186Z" fill="white"/>
<path d="M32.9515 29.0166L32.9681 29.3916C33.1962 29.1048 33.4941 28.9615 33.862 28.9615C34.4929 28.9615 34.8111 29.3172 34.8166 30.0286V32.0001H34.3062V30.0258C34.3044 29.8107 34.2547 29.6517 34.1572 29.5488C34.0616 29.4458 33.9117 29.3944 33.7075 29.3944C33.542 29.3944 33.3967 29.4385 33.2716 29.5267C33.1465 29.615 33.049 29.7308 32.9791 29.8741V32.0001H32.4687V29.0166H32.9515Z" fill="white"/>
<path d="M36.5342 30.4808C36.5342 30.1885 36.5912 29.9256 36.7053 29.6922C36.8212 29.4587 36.9812 29.2786 37.1854 29.1517C37.3914 29.0249 37.6259 28.9615 37.8889 28.9615C38.2954 28.9615 38.6237 29.1021 38.8739 29.3833C39.1259 29.6646 39.2519 30.0387 39.2519 30.5056V30.5414C39.2519 30.8319 39.1958 31.0929 39.0836 31.3245C38.9732 31.5543 38.8141 31.7335 38.6062 31.8622C38.4002 31.9909 38.163 32.0552 37.8944 32.0552C37.4898 32.0552 37.1614 31.9146 36.9094 31.6333C36.6593 31.3521 36.5342 30.9798 36.5342 30.5166V30.4808ZM37.0474 30.5414C37.0474 30.8723 37.1237 31.1379 37.2764 31.3383C37.4309 31.5387 37.6369 31.6389 37.8944 31.6389C38.1538 31.6389 38.3598 31.5377 38.5124 31.3355C38.6651 31.1315 38.7414 30.8466 38.7414 30.4808C38.7414 30.1536 38.6633 29.8889 38.5069 29.6866C38.3524 29.4826 38.1464 29.3806 37.8889 29.3806C37.6369 29.3806 37.4337 29.4808 37.2792 29.6811C37.1247 29.8815 37.0474 30.1683 37.0474 30.5414Z" fill="white"/>
<path d="M40.9584 32.7997L40.6687 32.6012C40.8416 32.3604 40.9317 32.1122 40.9391 31.8567V31.3962H41.4385V31.796C41.4385 31.9817 41.3925 32.1673 41.3005 32.353C41.2104 32.5387 41.0964 32.6876 40.9584 32.7997Z" fill="white"/>
<path d="M46.4849 30.6186L46.1649 30.9523V32.0001H45.6545V27.7648H46.1649V30.3264L46.438 29.9982L47.3678 29.0166H47.9886L46.827 30.2629L48.1238 32.0001H47.5251L46.4849 30.6186Z" fill="white"/>
<path d="M50.2911 28.2942V29.0166H50.8484V29.4109H50.2911V31.2611C50.2911 31.3806 50.3159 31.4707 50.3656 31.5313C50.4152 31.5901 50.4999 31.6195 50.6194 31.6195C50.6783 31.6195 50.7592 31.6085 50.8622 31.5865V32.0001C50.7279 32.0368 50.5973 32.0552 50.4704 32.0552C50.2424 32.0552 50.0704 31.9863 49.9545 31.8484C49.8386 31.7105 49.7807 31.5148 49.7807 31.2611V29.4109H49.2371V29.0166H49.7807V28.2942H50.2911Z" fill="white"/>
<path d="M52.3398 30.4808C52.3398 30.1885 52.3968 29.9256 52.5108 29.6922C52.6267 29.4587 52.7867 29.2786 52.9909 29.1517C53.1969 29.0249 53.4314 28.9615 53.6944 28.9615C54.1009 28.9615 54.4293 29.1021 54.6794 29.3833C54.9314 29.6646 55.0574 30.0387 55.0574 30.5056V30.5414C55.0574 30.8319 55.0013 31.0929 54.8891 31.3245C54.7787 31.5543 54.6196 31.7335 54.4118 31.8622C54.2058 31.9909 53.9685 32.0552 53.7 32.0552C53.2953 32.0552 52.967 31.9146 52.715 31.6333C52.4648 31.3521 52.3398 30.9798 52.3398 30.5166V30.4808ZM52.8529 30.5414C52.8529 30.8723 52.9293 31.1379 53.0819 31.3383C53.2364 31.5387 53.4425 31.6389 53.7 31.6389C53.9593 31.6389 54.1653 31.5377 54.318 31.3355C54.4706 31.1315 54.547 30.8466 54.547 30.4808C54.547 30.1536 54.4688 29.8889 54.3125 29.6866C54.158 29.4826 53.952 29.3806 53.6944 29.3806C53.4425 29.3806 53.2392 29.4808 53.0847 29.6811C52.9302 29.8815 52.8529 30.1683 52.8529 30.5414ZM53.9262 27.7648H54.5442L53.8048 28.5754H53.3937L53.9262 27.7648Z" fill="white"/>
<path d="M58.2235 29.4743C58.1462 29.4615 58.0625 29.455 57.9724 29.455C57.6376 29.455 57.4105 29.5975 57.2909 29.8824V32.0001H56.7805V29.0166H57.2771L57.2854 29.3613C57.4528 29.0947 57.6901 28.9615 57.9972 28.9615C58.0966 28.9615 58.172 28.9743 58.2235 29.0001V29.4743Z" fill="white"/>
<path d="M60.9619 32.0552C60.5572 32.0552 60.228 31.9229 59.9742 31.6582C59.7203 31.3916 59.5934 31.0359 59.5934 30.5911V30.4973C59.5934 30.2014 59.6495 29.9376 59.7617 29.7059C59.8758 29.4725 60.034 29.2905 60.2363 29.16C60.4404 29.0276 60.6612 28.9615 60.8984 28.9615C61.2865 28.9615 61.5882 29.0892 61.8034 29.3447C62.0186 29.6002 62.1262 29.9661 62.1262 30.4422V30.6545H60.1038C60.1112 30.9486 60.1967 31.1866 60.3604 31.3686C60.526 31.5488 60.7357 31.6389 60.9895 31.6389C61.1698 31.6389 61.3224 31.6021 61.4475 31.5286C61.5726 31.455 61.682 31.3576 61.7758 31.2363L62.0876 31.4789C61.8374 31.8631 61.4622 32.0552 60.9619 32.0552ZM60.8984 29.3806C60.6924 29.3806 60.5195 29.4559 60.3797 29.6067C60.24 29.7556 60.1535 29.9651 60.1204 30.2354H61.6158V30.1968C61.6011 29.9376 61.5312 29.7372 61.4061 29.5957C61.281 29.4523 61.1118 29.3806 60.8984 29.3806Z" fill="white"/>
<path d="M66.9795 28.2942V29.0166H67.5368V29.4109H66.9795V31.2611C66.9795 31.3806 67.0044 31.4707 67.054 31.5313C67.1037 31.5901 67.1883 31.6195 67.3078 31.6195C67.3667 31.6195 67.4476 31.6085 67.5506 31.5865V32.0001C67.4164 32.0368 67.2858 32.0552 67.1589 32.0552C66.9308 32.0552 66.7588 31.9863 66.6429 31.8484C66.527 31.7105 66.4691 31.5148 66.4691 31.2611V29.4109H65.9256V29.0166H66.4691V28.2942H66.9795Z" fill="white"/>
<path d="M70.6615 29.4743C70.5843 29.4615 70.5006 29.455 70.4105 29.455C70.0757 29.455 69.8485 29.5975 69.729 29.8824V32.0001H69.2186V29.0166H69.7152L69.7235 29.3613C69.8909 29.0947 70.1281 28.9615 70.4353 28.9615C70.5346 28.9615 70.61 28.9743 70.6615 29.0001V29.4743Z" fill="white"/>
<path d="M74.9092 31.2969L75.483 29.0166H75.9935L75.1244 32.0001H74.7105L73.9849 29.739L73.2786 32.0001H72.8647L71.9984 29.0166H72.506L73.0937 31.2501L73.789 29.0166H74.2001L74.9092 31.2969Z" fill="white"/>
<path d="M79.4409 32.0001C79.4115 31.9412 79.3876 31.8365 79.3692 31.6857C79.1319 31.932 78.8487 32.0552 78.5194 32.0552C78.2251 32.0552 77.9833 31.9725 77.7938 31.807C77.6062 31.6398 77.5124 31.4284 77.5124 31.1729C77.5124 30.8622 77.6301 30.6214 77.8655 30.4504C78.1028 30.2776 78.4357 30.1912 78.8643 30.1912H79.3609V29.9569C79.3609 29.7786 79.3076 29.637 79.2009 29.5322C79.0942 29.4256 78.937 29.3723 78.7291 29.3723C78.547 29.3723 78.3944 29.4183 78.2711 29.5102C78.1479 29.6021 78.0863 29.7133 78.0863 29.8438H77.5731C77.5731 29.6949 77.6255 29.5515 77.7304 29.4137C77.837 29.274 77.9805 29.1637 78.1608 29.0828C78.3429 29.0019 78.5424 28.9615 78.7595 28.9615C79.1034 28.9615 79.3729 29.0479 79.5679 29.2207C79.7628 29.3916 79.864 29.6278 79.8714 29.9293V31.3025C79.8714 31.5764 79.9063 31.7942 79.9762 31.9559V32.0001H79.4409ZM78.5939 31.6113C78.7539 31.6113 78.9057 31.5699 79.0492 31.4872C79.1926 31.4045 79.2966 31.2969 79.3609 31.1646V30.5525H78.9609C78.3355 30.5525 78.0228 30.7354 78.0228 31.1012C78.0228 31.2611 78.0761 31.3861 78.1828 31.4762C78.2895 31.5662 78.4265 31.6113 78.5939 31.6113Z" fill="white"/>
</svg>
