<svg width="97" height="40" viewBox="0 0 97 40" fill="none" xmlns="http://www.w3.org/2000/svg">
<rect width="97" height="40" rx="2" fill="#050606"/>
<path d="M10.8301 10.3529H12.7136V22.5882H10.8301V10.3529Z" fill="white"/>
<path d="M16.9514 14.5882H18.8349V22.5882H16.9514V14.5882Z" fill="white"/>
<path d="M23.0728 14.5882H24.9563V22.5882H23.0728V14.5882Z" fill="white"/>
<path d="M34.3738 17.8823H36.2573V22.5882H34.3738V17.8823Z" fill="white"/>
<path d="M84.7572 17.8823H86.6407V22.5882H84.7572V17.8823Z" fill="white"/>
<path d="M55.0922 10.3529V12.2353H50.3835V10.3529H55.0922Z" fill="white"/>
<path d="M38.6116 12.2353H40.4951V22.5882H38.6116V12.2353Z" fill="white"/>
<path d="M72.0437 12.2353H73.9272V22.5882H72.0437V12.2353Z" fill="white"/>
<path d="M45.2039 11.7647H47.0874V22.5882H45.2039V11.7647Z" fill="white"/>
<path d="M51.3252 8.94115H53.2087V22.5882H51.3252V8.94115Z" fill="white"/>
<path d="M57.4466 7.99997H59.3301V22.5882H57.4466V7.99997Z" fill="white"/>
<path d="M18.8349 14.8235C18.8349 13.7626 18.4132 12.7452 17.6626 11.9951C16.912 11.2449 15.894 10.8235 14.8325 10.8235C13.771 10.8235 12.753 11.2449 12.0024 11.9951C11.2518 12.7452 10.8301 13.7626 10.8301 14.8235H12.6913C12.6913 14.256 12.9169 13.7117 13.3184 13.3104C13.72 12.909 14.2646 12.6836 14.8325 12.6836C15.4004 12.6836 15.945 12.909 16.3466 13.3104C16.7481 13.7117 16.9737 14.256 16.9737 14.8235H18.8349Z" fill="white"/>
<path d="M24.9563 14.8235C24.9563 13.7626 24.5346 12.7452 23.784 11.9951C23.0334 11.2449 22.0154 10.8235 20.9539 10.8235C19.8924 10.8235 18.8743 11.2449 18.1237 11.9951C17.3731 12.7452 16.9514 13.7626 16.9514 14.8235H18.8126C18.8126 14.2559 19.0382 13.7116 19.4397 13.3103C19.8413 12.909 20.386 12.6835 20.9539 12.6835C21.5218 12.6835 22.0664 12.909 22.468 13.3103C22.8696 13.7116 23.0952 14.2559 23.0952 14.8235H24.9563Z" fill="white"/>
<path d="M43.7253 12.4841C43.1294 12.2561 42.4854 12.1831 41.8535 12.272C41.2217 12.3609 40.6228 12.6087 40.1131 12.9922C39.6033 13.3757 39.1994 13.8824 38.9391 14.4646C38.6789 15.0468 38.5709 15.6856 38.6253 16.3209L40.3706 16.1717C40.3415 15.8318 40.3993 15.49 40.5385 15.1785C40.6777 14.8671 40.8938 14.596 41.1665 14.3908C41.4393 14.1857 41.7597 14.0531 42.0977 14.0055C42.4357 13.958 42.7803 13.997 43.0991 14.119L43.7253 12.4841Z" fill="white"/>
<path d="M77.1573 12.4841C76.5614 12.2561 75.9174 12.1831 75.2856 12.272C74.6537 12.3609 74.0549 12.6087 73.5451 12.9922C73.0353 13.3757 72.6314 13.8824 72.3712 14.4646C72.111 15.0468 72.003 15.6856 72.0574 16.3209L73.8026 16.1717C73.7735 15.8318 73.8313 15.49 73.9705 15.1785C74.1098 14.8671 74.3259 14.596 74.5986 14.3908C74.8713 14.1857 75.1917 14.0531 75.5297 14.0055C75.8678 13.958 76.2123 13.997 76.5311 14.119L77.1573 12.4841Z" fill="white"/>
<path d="M55.3078 5.6532C54.8139 5.62491 54.3193 5.69412 53.8522 5.85687C53.3851 6.01961 52.9546 6.27272 52.5854 6.60173C52.2161 6.93074 51.9153 7.32921 51.7002 7.77439C51.485 8.21957 51.3597 8.70274 51.3314 9.19632L53.1671 9.30147C53.1816 9.04882 53.2458 8.80149 53.3559 8.57361C53.466 8.34573 53.62 8.14176 53.809 7.97334C53.998 7.80493 54.2184 7.67537 54.4575 7.59206C54.6966 7.50876 54.9498 7.47333 55.2026 7.48781L55.3078 5.6532Z" fill="white"/>
<path fill-rule="evenodd" clip-rule="evenodd" d="M31.5485 20.7059C33.1089 20.7059 34.3738 19.4417 34.3738 17.8823C34.3738 16.3229 33.1089 15.0588 31.5485 15.0588C29.9882 15.0588 28.7233 16.3229 28.7233 17.8823C28.7233 19.4417 29.9882 20.7059 31.5485 20.7059ZM31.5485 22.5882C34.1491 22.5882 36.2573 20.4813 36.2573 17.8823C36.2573 15.2833 34.1491 13.1764 31.5485 13.1764C28.948 13.1764 26.8398 15.2833 26.8398 17.8823C26.8398 20.4813 28.948 22.5882 31.5485 22.5882Z" fill="white"/>
<path fill-rule="evenodd" clip-rule="evenodd" d="M81.932 20.7059C83.4923 20.7059 84.7572 19.4417 84.7572 17.8823C84.7572 16.3229 83.4923 15.0588 81.932 15.0588C80.3717 15.0588 79.1068 16.3229 79.1068 17.8823C79.1068 19.4417 80.3717 20.7059 81.932 20.7059ZM81.932 22.5882C84.5326 22.5882 86.6407 20.4813 86.6407 17.8823C86.6407 15.2833 84.5326 13.1764 81.932 13.1764C79.3314 13.1764 77.2233 15.2833 77.2233 17.8823C77.2233 20.4813 79.3314 22.5882 81.932 22.5882Z" fill="white"/>
<path fill-rule="evenodd" clip-rule="evenodd" d="M65.9223 20.7059C67.4826 20.7059 68.7475 19.4417 68.7475 17.8823C68.7475 16.3229 67.4826 15.0588 65.9223 15.0588C64.362 15.0588 63.0971 16.3229 63.0971 17.8823C63.0971 19.4417 64.362 20.7059 65.9223 20.7059ZM65.9223 22.5882C68.5229 22.5882 70.631 20.4813 70.631 17.8823C70.631 15.2833 68.5229 13.1764 65.9223 13.1764C63.3217 13.1764 61.2136 15.2833 61.2136 17.8823C61.2136 20.4813 63.3217 22.5882 65.9223 22.5882Z" fill="white"/>
<path d="M47.0874 8.47056C47.0874 8.99036 46.6657 9.41174 46.1456 9.41174C45.6255 9.41174 45.2039 8.99036 45.2039 8.47056C45.2039 7.95077 45.6255 7.52939 46.1456 7.52939C46.6657 7.52939 47.0874 7.95077 47.0874 8.47056Z" fill="white"/>
<path d="M17.9477 30.4283V32H17.418V27.9853H18.8996C19.3392 27.9853 19.6831 28.0974 19.9314 28.3217C20.1816 28.546 20.3067 28.8428 20.3067 29.2123C20.3067 29.602 20.1844 29.9026 19.9397 30.114C19.6969 30.3235 19.3484 30.4283 18.894 30.4283H17.9477ZM17.9477 29.9954H18.8996C19.1828 29.9954 19.3999 29.9292 19.5507 29.7969C19.7015 29.6627 19.7769 29.4697 19.7769 29.2178C19.7769 28.9789 19.7015 28.7877 19.5507 28.6443C19.3999 28.5009 19.1929 28.4265 18.9299 28.421H17.9477V29.9954Z" fill="white"/>
<path d="M22.5402 32H22.0298V29.0165H22.5402V32ZM21.9884 28.2252C21.9884 28.1425 22.0132 28.0726 22.0629 28.0156C22.1144 27.9586 22.1898 27.9302 22.2891 27.9302C22.3884 27.9302 22.4639 27.9586 22.5154 28.0156C22.5669 28.0726 22.5926 28.1425 22.5926 28.2252C22.5926 28.3079 22.5669 28.3768 22.5154 28.432C22.4639 28.4871 22.3884 28.5147 22.2891 28.5147C22.1898 28.5147 22.1144 28.4871 22.0629 28.432C22.0132 28.3768 21.9884 28.3079 21.9884 28.2252Z" fill="white"/>
<path d="M26.8071 31.4789C26.6765 31.6811 26.5055 31.8318 26.2939 31.9311H26.2967L26.1367 32.0551C25.9288 32.2224 25.8249 32.3851 25.8249 32.5432C25.8249 32.6756 25.8966 32.7417 26.0401 32.7417C26.1284 32.7417 26.2204 32.7178 26.316 32.67L26.3519 33.0037C26.2231 33.0846 26.076 33.125 25.9104 33.125C25.7467 33.125 25.6171 33.0772 25.5214 32.9816C25.4276 32.886 25.3807 32.7592 25.3807 32.6011C25.3807 32.4026 25.4708 32.2206 25.6511 32.0551C25.2501 32.0478 24.9264 31.9118 24.6799 31.6471C24.4353 31.3805 24.313 31.0276 24.313 30.5882V30.4972C24.313 30.2013 24.3691 29.9375 24.4813 29.7059C24.5953 29.4724 24.7535 29.2904 24.9558 29.1599C25.16 29.0276 25.3807 28.9614 25.618 28.9614C26.0061 28.9614 26.3077 29.0892 26.5229 29.3447C26.7381 29.6002 26.8457 29.966 26.8457 30.4421V30.6544H24.8234C24.8307 30.9485 24.9163 31.1866 25.08 31.3686C25.2455 31.5487 25.4552 31.6388 25.709 31.6388C25.8893 31.6388 26.0419 31.602 26.167 31.5285C26.2921 31.455 26.4015 31.3575 26.4953 31.2362L26.8071 31.4789ZM25.618 29.3805C25.412 29.3805 25.2391 29.4559 25.0993 29.6066C24.9595 29.7555 24.873 29.9651 24.8399 30.2353H26.3353V30.1967C26.3206 29.9375 26.2507 29.7371 26.1256 29.5956C26.0006 29.4522 25.8313 29.3805 25.618 29.3805Z" fill="white"/>
<path d="M29.3552 30.6186L29.0351 30.9522V32H28.5247V27.7647H29.0351V30.3263L29.3083 29.9982L30.2381 29.0165H30.8588L29.6973 30.2629L30.994 32H30.3953L29.3552 30.6186Z" fill="white"/>
<path d="M32.9517 29.0165L32.9682 29.3915C33.1963 29.1048 33.4943 28.9614 33.8621 28.9614C34.493 28.9614 34.8112 29.3171 34.8168 30.0285V32H34.3063V30.0257C34.3045 29.8107 34.2548 29.6517 34.1574 29.5487C34.0617 29.4458 33.9118 29.3943 33.7076 29.3943C33.5421 29.3943 33.3968 29.4384 33.2717 29.5267C33.1466 29.6149 33.0491 29.7307 32.9792 29.8741V32H32.4688V29.0165H32.9517Z" fill="white"/>
<path d="M36.5343 30.4807C36.5343 30.1884 36.5914 29.9256 36.7054 29.6921C36.8213 29.4586 36.9813 29.2785 37.1855 29.1517C37.3915 29.0248 37.626 28.9614 37.889 28.9614C38.2955 28.9614 38.6238 29.102 38.874 29.3833C39.126 29.6645 39.252 30.0386 39.252 30.5055V30.5414C39.252 30.8318 39.1959 31.0928 39.0837 31.3245C38.9733 31.5542 38.8142 31.7335 38.6064 31.8621C38.4004 31.9908 38.1631 32.0551 37.8945 32.0551C37.4899 32.0551 37.1616 31.9145 36.9096 31.6333C36.6594 31.352 36.5343 30.9798 36.5343 30.5165V30.4807ZM37.0475 30.5414C37.0475 30.8722 37.1239 31.1379 37.2765 31.3382C37.431 31.5386 37.637 31.6388 37.8945 31.6388C38.1539 31.6388 38.3599 31.5377 38.5126 31.3355C38.6652 31.1314 38.7416 30.8465 38.7416 30.4807C38.7416 30.1535 38.6634 29.8888 38.507 29.6866C38.3525 29.4825 38.1465 29.3805 37.889 29.3805C37.637 29.3805 37.4338 29.4807 37.2793 29.6811C37.1248 29.8814 37.0475 30.1682 37.0475 30.5414Z" fill="white"/>
<path d="M40.9585 32.7996L40.6688 32.6011C40.8417 32.3603 40.9319 32.1121 40.9392 31.8566V31.3961H41.4386V31.796C41.4386 31.9816 41.3926 32.1673 41.3007 32.3529C41.2105 32.5386 41.0965 32.6875 40.9585 32.7996Z" fill="white"/>
<path d="M46.485 30.6186L46.165 30.9522V32H45.6546V27.7647H46.165V30.3263L46.4381 29.9982L47.3679 29.0165H47.9887L46.8272 30.2629L48.1239 32H47.5252L46.485 30.6186Z" fill="white"/>
<path d="M50.2912 28.2941V29.0165H50.8485V29.4108H50.2912V31.261C50.2912 31.3805 50.316 31.4706 50.3657 31.5313C50.4154 31.5901 50.5 31.6195 50.6195 31.6195C50.6784 31.6195 50.7593 31.6085 50.8623 31.5864V32C50.7281 32.0368 50.5975 32.0551 50.4706 32.0551C50.2425 32.0551 50.0705 31.9862 49.9546 31.8483C49.8387 31.7105 49.7808 31.5147 49.7808 31.261V29.4108H49.2373V29.0165H49.7808V28.2941H50.2912Z" fill="white"/>
<path d="M52.3399 30.4807C52.3399 30.1884 52.3969 29.9256 52.5109 29.6921C52.6268 29.4586 52.7868 29.2785 52.991 29.1517C53.197 29.0248 53.4315 28.9614 53.6946 28.9614C54.1011 28.9614 54.4294 29.102 54.6795 29.3833C54.9315 29.6645 55.0575 30.0386 55.0575 30.5055V30.5414C55.0575 30.8318 55.0014 31.0928 54.8892 31.3245C54.7789 31.5542 54.6198 31.7335 54.4119 31.8621C54.2059 31.9908 53.9686 32.0551 53.7001 32.0551C53.2954 32.0551 52.9671 31.9145 52.7151 31.6333C52.465 31.352 52.3399 30.9798 52.3399 30.5165V30.4807ZM52.8531 30.5414C52.8531 30.8722 52.9294 31.1379 53.0821 31.3382C53.2366 31.5386 53.4426 31.6388 53.7001 31.6388C53.9594 31.6388 54.1654 31.5377 54.3181 31.3355C54.4708 31.1314 54.5471 30.8465 54.5471 30.4807C54.5471 30.1535 54.4689 29.8888 54.3126 29.6866C54.1581 29.4825 53.9521 29.3805 53.6946 29.3805C53.4426 29.3805 53.2393 29.4807 53.0848 29.6811C52.9303 29.8814 52.8531 30.1682 52.8531 30.5414ZM53.9263 27.7647H54.5443L53.8049 28.5754H53.3938L53.9263 27.7647Z" fill="white"/>
<path d="M58.2236 29.4743C58.1464 29.4614 58.0627 29.455 57.9725 29.455C57.6378 29.455 57.4106 29.5974 57.291 29.8824V32H56.7806V29.0165H57.2773L57.2855 29.3612C57.4529 29.0947 57.6902 28.9614 57.9974 28.9614C58.0967 28.9614 58.1721 28.9743 58.2236 29V29.4743Z" fill="white"/>
<path d="M60.962 32.0551C60.5574 32.0551 60.2281 31.9228 59.9743 31.6581C59.7205 31.3915 59.5935 31.0358 59.5935 30.591V30.4972C59.5935 30.2013 59.6497 29.9375 59.7618 29.7059C59.8759 29.4724 60.0341 29.2904 60.2364 29.1599C60.4406 29.0276 60.6613 28.9614 60.8986 28.9614C61.2867 28.9614 61.5883 29.0892 61.8035 29.3447C62.0187 29.6002 62.1263 29.966 62.1263 30.4421V30.6544H60.104C60.1113 30.9485 60.1969 31.1866 60.3606 31.3686C60.5261 31.5487 60.7358 31.6388 60.9896 31.6388C61.1699 31.6388 61.3225 31.602 61.4476 31.5285C61.5727 31.455 61.6821 31.3575 61.7759 31.2362L62.0877 31.4789C61.8376 31.8631 61.4623 32.0551 60.962 32.0551ZM60.8986 29.3805C60.6926 29.3805 60.5197 29.4559 60.3799 29.6066C60.2401 29.7555 60.1536 29.9651 60.1205 30.2353H61.6159V30.1967C61.6012 29.9375 61.5313 29.7371 61.4062 29.5956C61.2812 29.4522 61.1119 29.3805 60.8986 29.3805Z" fill="white"/>
<path d="M66.9796 28.2941V29.0165H67.537V29.4108H66.9796V31.261C66.9796 31.3805 67.0045 31.4706 67.0541 31.5313C67.1038 31.5901 67.1884 31.6195 67.308 31.6195C67.3668 31.6195 67.4478 31.6085 67.5508 31.5864V32C67.4165 32.0368 67.2859 32.0551 67.159 32.0551C66.9309 32.0551 66.7589 31.9862 66.643 31.8483C66.5272 31.7105 66.4692 31.5147 66.4692 31.261V29.4108H65.9257V29.0165H66.4692V28.2941H66.9796Z" fill="white"/>
<path d="M70.6617 29.4743C70.5844 29.4614 70.5007 29.455 70.4106 29.455C70.0758 29.455 69.8487 29.5974 69.7291 29.8824V32H69.2187V29.0165H69.7153L69.7236 29.3612C69.891 29.0947 70.1282 28.9614 70.4354 28.9614C70.5347 28.9614 70.6102 28.9743 70.6617 29V29.4743Z" fill="white"/>
<path d="M74.9093 31.2969L75.4832 29.0165H75.9936L75.1245 32H74.7106L73.985 29.739L73.2787 32H72.8648L71.9985 29.0165H72.5062L73.0938 31.25L73.7891 29.0165H74.2002L74.9093 31.2969Z" fill="white"/>
<path d="M79.4411 32C79.4116 31.9412 79.3877 31.8364 79.3693 31.6857C79.1321 31.932 78.8488 32.0551 78.5196 32.0551C78.2253 32.0551 77.9834 31.9724 77.7939 31.807C77.6063 31.6397 77.5125 31.4283 77.5125 31.1728C77.5125 30.8621 77.6302 30.6213 77.8657 30.4504C78.1029 30.2776 78.4359 30.1912 78.8644 30.1912H79.3611V29.9568C79.3611 29.7785 79.3077 29.637 79.201 29.5322C79.0943 29.4256 78.9371 29.3722 78.7292 29.3722C78.5471 29.3722 78.3945 29.4182 78.2712 29.5101C78.148 29.602 78.0864 29.7132 78.0864 29.8438H77.5732C77.5732 29.6949 77.6256 29.5515 77.7305 29.4136C77.8372 29.2739 77.9806 29.1636 78.1609 29.0827C78.343 29.0018 78.5425 28.9614 78.7596 28.9614C79.1035 28.9614 79.373 29.0478 79.568 29.2206C79.763 29.3915 79.8641 29.6278 79.8715 29.9292V31.3024C79.8715 31.5763 79.9064 31.7941 79.9763 31.9559V32H79.4411ZM78.594 31.6112C78.7541 31.6112 78.9058 31.5699 79.0493 31.4871C79.1928 31.4044 79.2967 31.2969 79.3611 31.1645V30.5524H78.961C78.3356 30.5524 78.0229 30.7353 78.0229 31.1011C78.0229 31.261 78.0763 31.386 78.183 31.4761C78.2896 31.5662 78.4267 31.6112 78.594 31.6112Z" fill="white"/>
</svg>
