<svg width="121" height="50" viewBox="0 0 121 50" fill="none" xmlns="http://www.w3.org/2000/svg">
<rect width="121" height="50" fill="#050606"/>
<path d="M13.5098 12.9412H15.8593V28.2353H13.5098V12.9412Z" fill="white"/>
<path d="M21.1457 18.2353H23.4952V28.2353H21.1457V18.2353Z" fill="white"/>
<path d="M28.7816 18.2353H31.1311V28.2353H28.7816V18.2353Z" fill="white"/>
<path d="M42.8787 22.353H45.2282V28.2353H42.8787V22.353Z" fill="white"/>
<path d="M105.728 22.353H108.078V28.2353H105.728V22.353Z" fill="white"/>
<path d="M68.7234 12.9412V15.2941H62.8496V12.9412H68.7234Z" fill="white"/>
<path d="M48.1651 15.2941H50.5146V28.2353H48.1651V15.2941Z" fill="white"/>
<path d="M89.869 15.2941H92.2185V28.2353H89.869V15.2941Z" fill="white"/>
<path d="M56.3884 14.7059H58.7379V28.2353H56.3884V14.7059Z" fill="white"/>
<path d="M64.0243 11.1765H66.3738V28.2353H64.0243V11.1765Z" fill="white"/>
<path d="M71.6602 10H74.0098V28.2353H71.6602V10Z" fill="white"/>
<path d="M23.4952 18.5294C23.4952 17.2033 22.9692 15.9316 22.0329 14.9939C21.0966 14.0562 19.8266 13.5294 18.5025 13.5294C17.1783 13.5294 15.9084 14.0562 14.9721 14.9939C14.0358 15.9316 13.5098 17.2033 13.5098 18.5294H15.8315C15.8315 17.82 16.1129 17.1396 16.6138 16.638C17.1147 16.1364 17.7941 15.8545 18.5025 15.8545C19.2109 15.8545 19.8903 16.1364 20.3912 16.638C20.8921 17.1396 21.1735 17.82 21.1735 18.5294H23.4952Z" fill="white"/>
<path d="M31.1311 18.5294C31.1311 17.2033 30.6051 15.9316 29.6688 14.9939C28.7325 14.0562 27.4626 13.5294 26.1384 13.5294C24.8143 13.5294 23.5443 14.0562 22.608 14.9939C21.6717 15.9316 21.1457 17.2033 21.1457 18.5294H23.4673C23.4673 17.82 23.7487 17.1396 24.2496 16.6379C24.7506 16.1363 25.43 15.8544 26.1384 15.8544C26.8468 15.8544 27.5262 16.1363 28.0272 16.6379C28.5281 17.1396 28.8095 17.82 28.8095 18.5294H31.1311Z" fill="white"/>
<path d="M54.544 15.6051C53.8007 15.3202 52.9973 15.229 52.2091 15.3401C51.421 15.4512 50.6739 15.761 50.038 16.2403C49.4021 16.7197 48.8983 17.353 48.5737 18.0808C48.2491 18.8086 48.1144 19.607 48.1822 20.4012L50.3593 20.2146C50.323 19.7897 50.3951 19.3626 50.5687 18.9732C50.7424 18.5839 51.012 18.2451 51.3522 17.9886C51.6924 17.7321 52.092 17.5664 52.5137 17.5069C52.9354 17.4475 53.3652 17.4963 53.7629 17.6487L54.544 15.6051Z" fill="white"/>
<path d="M96.2479 15.6051C95.5046 15.3202 94.7011 15.229 93.913 15.3401C93.1248 15.4512 92.3778 15.761 91.7419 16.2403C91.106 16.7197 90.6021 17.353 90.2775 18.0808C89.9529 18.8086 89.8182 19.607 89.8861 20.4012L92.0632 20.2146C92.0269 19.7897 92.0989 19.3626 92.2726 18.9732C92.4463 18.5839 92.7159 18.2451 93.056 17.9886C93.3962 17.7321 93.7959 17.5664 94.2176 17.5069C94.6392 17.4475 95.0691 17.4963 95.4668 17.6487L96.2479 15.6051Z" fill="white"/>
<path d="M68.9923 7.06655C68.3762 7.03119 67.7592 7.11769 67.1765 7.32113C66.5938 7.52456 66.0569 7.84094 65.5963 8.2522C65.1357 8.66347 64.7605 9.16155 64.4921 9.71803C64.2237 10.2745 64.0674 10.8785 64.0321 11.4954L66.322 11.6269C66.3401 11.3111 66.4201 11.0019 66.5575 10.7171C66.6948 10.4322 66.8869 10.1772 67.1227 9.96673C67.3584 9.75621 67.6333 9.59426 67.9316 9.49013C68.2298 9.38599 68.5457 9.34171 68.861 9.35981L68.9923 7.06655Z" fill="white"/>
<path fill-rule="evenodd" clip-rule="evenodd" d="M39.3544 25.8824C41.3008 25.8824 42.8787 24.3022 42.8787 22.353C42.8787 20.4037 41.3008 18.8235 39.3544 18.8235C37.408 18.8235 35.8302 20.4037 35.8302 22.353C35.8302 24.3022 37.408 25.8824 39.3544 25.8824ZM39.3544 28.2353C42.5984 28.2353 45.2282 25.6017 45.2282 22.353C45.2282 19.1042 42.5984 16.4706 39.3544 16.4706C36.1104 16.4706 33.4806 19.1042 33.4806 22.353C33.4806 25.6017 36.1104 28.2353 39.3544 28.2353Z" fill="white"/>
<path fill-rule="evenodd" clip-rule="evenodd" d="M102.204 25.8824C104.15 25.8824 105.728 24.3022 105.728 22.353C105.728 20.4037 104.15 18.8235 102.204 18.8235C100.258 18.8235 98.6797 20.4037 98.6797 22.353C98.6797 24.3022 100.258 25.8824 102.204 25.8824ZM102.204 28.2353C105.448 28.2353 108.078 25.6017 108.078 22.353C108.078 19.1042 105.448 16.4706 102.204 16.4706C98.9599 16.4706 96.3301 19.1042 96.3301 22.353C96.3301 25.6017 98.9599 28.2353 102.204 28.2353Z" fill="white"/>
<path fill-rule="evenodd" clip-rule="evenodd" d="M82.2331 25.8824C84.1795 25.8824 85.7573 24.3022 85.7573 22.353C85.7573 20.4037 84.1795 18.8235 82.2331 18.8235C80.2867 18.8235 78.7088 20.4037 78.7088 22.353C78.7088 24.3022 80.2867 25.8824 82.2331 25.8824ZM82.2331 28.2353C85.4771 28.2353 88.1068 25.6017 88.1068 22.353C88.1068 19.1042 85.4771 16.4706 82.2331 16.4706C78.9891 16.4706 76.3593 19.1042 76.3593 22.353C76.3593 25.6017 78.9891 28.2353 82.2331 28.2353Z" fill="white"/>
<path d="M58.7379 10.5882C58.7379 11.238 58.212 11.7647 57.5632 11.7647C56.9144 11.7647 56.3884 11.238 56.3884 10.5882C56.3884 9.9385 56.9144 9.41178 57.5632 9.41178C58.212 9.41178 58.7379 9.9385 58.7379 10.5882Z" fill="white"/>
<path d="M22.3881 38.0354V40.0001H21.7273V34.9817H23.5755C24.1238 34.9817 24.5529 35.1218 24.8627 35.4022C25.1747 35.6825 25.3307 36.0536 25.3307 36.5154C25.3307 37.0026 25.1781 37.3783 24.873 37.6425C24.5701 37.9045 24.1353 38.0354 23.5686 38.0354H22.3881ZM22.3881 37.4943H23.5755C23.9288 37.4943 24.1996 37.4116 24.3877 37.2461C24.5759 37.0784 24.6699 36.8371 24.6699 36.5223C24.6699 36.2236 24.5759 35.9847 24.3877 35.8054C24.1996 35.6262 23.9414 35.5331 23.6133 35.5262H22.3881V37.4943Z" fill="white"/>
<path d="M28.1169 40.0001H27.4802V36.2707H28.1169V40.0001ZM27.4285 35.2815C27.4285 35.1781 27.4595 35.0908 27.5215 35.0196C27.5857 34.9483 27.6798 34.9127 27.8037 34.9127C27.9276 34.9127 28.0217 34.9483 28.0859 35.0196C28.1501 35.0908 28.1823 35.1781 28.1823 35.2815C28.1823 35.3849 28.1501 35.4711 28.0859 35.54C28.0217 35.609 27.9276 35.6434 27.8037 35.6434C27.6798 35.6434 27.5857 35.609 27.5215 35.54C27.4595 35.4711 27.4285 35.3849 27.4285 35.2815Z" fill="white"/>
<path d="M33.4395 39.3486C33.2766 39.6014 33.0632 39.7898 32.7994 39.9139H32.8028L32.6032 40.069C32.3439 40.2781 32.2143 40.4814 32.2143 40.679C32.2143 40.8445 32.3038 40.9272 32.4827 40.9272C32.5929 40.9272 32.7076 40.8973 32.8269 40.8376L32.8717 41.2546C32.711 41.3557 32.5275 41.4063 32.321 41.4063C32.1168 41.4063 31.955 41.3466 31.8357 41.2271C31.7187 41.1076 31.6602 40.949 31.6602 40.7514C31.6602 40.5033 31.7726 40.2758 31.9975 40.069C31.4973 40.0598 31.0935 39.8898 30.786 39.5589C30.4808 39.2257 30.3283 38.7845 30.3283 38.2353V38.1216C30.3283 37.7517 30.3982 37.4219 30.5382 37.1324C30.6805 36.8406 30.8778 36.6131 31.1302 36.45C31.3849 36.2845 31.6602 36.2018 31.9562 36.2018C32.4403 36.2018 32.8166 36.3615 33.085 36.6809C33.3535 37.0003 33.4877 37.4575 33.4877 38.0527V38.3181H30.965C30.9741 38.6857 31.0808 38.9833 31.285 39.2108C31.4915 39.4359 31.7531 39.5485 32.0697 39.5485C32.2946 39.5485 32.485 39.5026 32.6411 39.4107C32.7971 39.3188 32.9336 39.197 33.0506 39.0453L33.4395 39.3486ZM31.9562 36.7257C31.6992 36.7257 31.4835 36.8199 31.3091 37.0083C31.1348 37.1944 31.0269 37.4564 30.9856 37.7942H32.851V37.7459C32.8327 37.4219 32.7455 37.1715 32.5894 36.9945C32.4334 36.8153 32.2223 36.7257 31.9562 36.7257Z" fill="white"/>
<path d="M36.618 38.2733L36.2188 38.6903V40.0001H35.5821V34.7059H36.2188V37.9079L36.5595 37.4978L37.7194 36.2707H38.4937L37.0448 37.8286L38.6624 40.0001H37.9155L36.618 38.2733Z" fill="white"/>
<path d="M41.1044 36.2707L41.125 36.7395C41.4095 36.381 41.7812 36.2018 42.2401 36.2018C43.0271 36.2018 43.424 36.6464 43.4309 37.5357V40.0001H42.7942V37.5322C42.7919 37.2634 42.73 37.0646 42.6084 36.9359C42.4891 36.8073 42.3021 36.7429 42.0474 36.7429C41.8409 36.7429 41.6596 36.7981 41.5036 36.9084C41.3476 37.0187 41.226 37.1634 41.1388 37.3427V40.0001H40.5021V36.2707H41.1044Z" fill="white"/>
<path d="M45.5735 38.1009C45.5735 37.7356 45.6446 37.407 45.7869 37.1152C45.9314 36.8233 46.131 36.5982 46.3857 36.4396C46.6427 36.2811 46.9352 36.2018 47.2633 36.2018C47.7704 36.2018 48.18 36.3776 48.492 36.7291C48.8064 37.0807 48.9635 37.5483 48.9635 38.1319V38.1768C48.9635 38.5398 48.8936 38.8661 48.7536 39.1556C48.6159 39.4428 48.4175 39.6669 48.1582 39.8277C47.9012 39.9886 47.6052 40.069 47.2702 40.069C46.7655 40.069 46.3559 39.8932 46.0416 39.5416C45.7295 39.1901 45.5735 38.7248 45.5735 38.1457V38.1009ZM46.2136 38.1768C46.2136 38.5904 46.3089 38.9224 46.4993 39.1728C46.692 39.4233 46.949 39.5485 47.2702 39.5485C47.5937 39.5485 47.8507 39.4222 48.0412 39.1694C48.2316 38.9143 48.3268 38.5582 48.3268 38.1009C48.3268 37.6919 48.2293 37.361 48.0343 37.1083C47.8415 36.8532 47.5846 36.7257 47.2633 36.7257C46.949 36.7257 46.6955 36.8509 46.5027 37.1014C46.31 37.3518 46.2136 37.7103 46.2136 38.1768Z" fill="white"/>
<path d="M51.0923 40.9996L50.7309 40.7514C50.9466 40.4504 51.0591 40.1402 51.0682 39.8208V39.2452H51.6912V39.745C51.6912 39.9771 51.6338 40.2091 51.5191 40.4412C51.4067 40.6733 51.2644 40.8594 51.0923 40.9996Z" fill="white"/>
<path d="M57.9862 38.2733L57.587 38.6903V40.0001H56.9503V34.7059H57.587V37.9079L57.9277 37.4978L59.0876 36.2707H59.8619L58.413 37.8286L60.0306 40.0001H59.2837L57.9862 38.2733Z" fill="white"/>
<path d="M62.7341 35.3677V36.2707H63.4293V36.7636H62.7341V39.0763C62.7341 39.2257 62.7651 39.3383 62.827 39.4141C62.889 39.4876 62.9945 39.5244 63.1437 39.5244C63.2171 39.5244 63.3181 39.5106 63.4465 39.483V40.0001C63.279 40.046 63.1161 40.069 62.9578 40.069C62.6733 40.069 62.4588 39.9828 62.3142 39.8105C62.1697 39.6381 62.0974 39.3934 62.0974 39.0763V36.7636H61.4194V36.2707H62.0974V35.3677H62.7341Z" fill="white"/>
<path d="M65.2897 38.1009C65.2897 37.7356 65.3608 37.407 65.5031 37.1152C65.6476 36.8233 65.8472 36.5982 66.1019 36.4396C66.3589 36.2811 66.6514 36.2018 66.9795 36.2018C67.4866 36.2018 67.8962 36.3776 68.2082 36.7291C68.5226 37.0807 68.6797 37.5483 68.6797 38.1319V38.1768C68.6797 38.5398 68.6097 38.8661 68.4698 39.1556C68.3321 39.4428 68.1336 39.6669 67.8744 39.8277C67.6174 39.9886 67.3214 40.069 66.9864 40.069C66.4816 40.069 66.0721 39.8932 65.7577 39.5416C65.4457 39.1901 65.2897 38.7248 65.2897 38.1457V38.1009ZM65.9298 38.1768C65.9298 38.5904 66.025 38.9224 66.2155 39.1728C66.4082 39.4233 66.6652 39.5485 66.9864 39.5485C67.3099 39.5485 67.5669 39.4222 67.7574 39.1694C67.9478 38.9143 68.043 38.5582 68.043 38.1009C68.043 37.6919 67.9455 37.361 67.7505 37.1083C67.5577 36.8532 67.3008 36.7257 66.9795 36.7257C66.6652 36.7257 66.4117 36.8509 66.2189 37.1014C66.0262 37.3518 65.9298 37.7103 65.9298 38.1768ZM67.2686 34.7059H68.0396L67.1172 35.7193H66.6044L67.2686 34.7059Z" fill="white"/>
<path d="M72.6292 36.8429C72.5328 36.8268 72.4284 36.8188 72.316 36.8188C71.8984 36.8188 71.615 36.9968 71.4659 37.353V40.0001H70.8292V36.2707H71.4487L71.459 36.7016C71.6678 36.3684 71.9638 36.2018 72.3469 36.2018C72.4708 36.2018 72.5649 36.2179 72.6292 36.2501V36.8429Z" fill="white"/>
<path d="M76.0451 40.069C75.5403 40.069 75.1296 39.9035 74.813 39.5727C74.4964 39.2395 74.3381 38.7949 74.3381 38.2388V38.1216C74.3381 37.7517 74.408 37.4219 74.548 37.1324C74.6903 36.8406 74.8876 36.6131 75.14 36.45C75.3946 36.2845 75.67 36.2018 75.966 36.2018C76.4501 36.2018 76.8264 36.3615 77.0948 36.6809C77.3633 37.0003 77.4975 37.4575 77.4975 38.0527V38.3181H74.9748C74.9839 38.6857 75.0906 38.9833 75.2948 39.2108C75.5013 39.4359 75.7629 39.5485 76.0795 39.5485C76.3044 39.5485 76.4948 39.5026 76.6509 39.4107C76.8069 39.3188 76.9434 39.197 77.0604 39.0453L77.4493 39.3486C77.1373 39.8289 76.6692 40.069 76.0451 40.069ZM75.966 36.7257C75.709 36.7257 75.4933 36.8199 75.3189 37.0083C75.1446 37.1944 75.0367 37.4564 74.9954 37.7942H76.8608V37.7459C76.8424 37.4219 76.7553 37.1715 76.5992 36.9945C76.4432 36.8153 76.2321 36.7257 75.966 36.7257Z" fill="white"/>
<path d="M83.5516 35.3677V36.2707H84.2469V36.7636H83.5516V39.0763C83.5516 39.2257 83.5826 39.3383 83.6446 39.4141C83.7065 39.4876 83.8121 39.5244 83.9612 39.5244C84.0346 39.5244 84.1356 39.5106 84.2641 39.483V40.0001C84.0966 40.046 83.9337 40.069 83.7753 40.069C83.4908 40.069 83.2763 39.9828 83.1318 39.8105C82.9872 39.6381 82.9149 39.3934 82.9149 39.0763V36.7636H82.2369V36.2707H82.9149V35.3677H83.5516Z" fill="white"/>
<path d="M88.1447 36.8429C88.0483 36.8268 87.9439 36.8188 87.8315 36.8188C87.4139 36.8188 87.1305 36.9968 86.9814 37.353V40.0001H86.3447V36.2707H86.9642L86.9745 36.7016C87.1833 36.3684 87.4793 36.2018 87.8624 36.2018C87.9864 36.2018 88.0804 36.2179 88.1447 36.2501V36.8429Z" fill="white"/>
<path d="M93.4432 39.1211L94.1591 36.2707H94.7958L93.7117 40.0001H93.1954L92.2903 37.1738L91.4092 40.0001H90.893L89.8123 36.2707H90.4455L91.1786 39.0626L92.0459 36.2707H92.5587L93.4432 39.1211Z" fill="white"/>
<path d="M99.0963 40.0001C99.0596 39.9265 99.0298 39.7955 99.0068 39.6071C98.7108 39.915 98.3575 40.069 97.9468 40.069C97.5797 40.069 97.2779 39.9656 97.0416 39.7588C96.8076 39.5497 96.6906 39.2854 96.6906 38.966C96.6906 38.5777 96.8374 38.2767 97.1311 38.063C97.4271 37.847 97.8424 37.739 98.377 37.739H98.9965V37.4461C98.9965 37.2232 98.9299 37.0462 98.7969 36.9153C98.6638 36.782 98.4676 36.7154 98.2083 36.7154C97.9812 36.7154 97.7908 36.7728 97.637 36.8877C97.4833 37.0026 97.4064 37.1416 97.4064 37.3047H96.7663C96.7663 37.1186 96.8317 36.9394 96.9625 36.7671C97.0955 36.5924 97.2745 36.4546 97.4994 36.3535C97.7265 36.2523 97.9755 36.2018 98.2462 36.2018C98.6753 36.2018 99.0114 36.3098 99.2546 36.5258C99.4978 36.7395 99.624 37.0347 99.6332 37.4116V39.128C99.6332 39.4704 99.6768 39.7427 99.764 39.9449V40.0001H99.0963ZM98.0397 39.5141C98.2393 39.5141 98.4286 39.4624 98.6076 39.359C98.7865 39.2556 98.9162 39.1211 98.9965 38.9557V38.1905H98.4974C97.7173 38.1905 97.3273 38.4192 97.3273 38.8764C97.3273 39.0763 97.3938 39.2326 97.5269 39.3452C97.66 39.4578 97.8309 39.5141 98.0397 39.5141Z" fill="white"/>
</svg>
