<svg width="182" height="75" viewBox="0 0 182 75" fill="none" xmlns="http://www.w3.org/2000/svg">
<rect width="182" height="75" fill="#050606"/>
<path d="M20.3204 19.4118H23.8544V42.353H20.3204V19.4118Z" fill="white"/>
<path d="M31.8058 27.353H35.3398V42.353H31.8058V27.353Z" fill="white"/>
<path d="M43.2913 27.353H46.8253V42.353H43.2913V27.353Z" fill="white"/>
<path d="M64.4952 33.5294H68.0291V42.353H64.4952V33.5294Z" fill="white"/>
<path d="M159.029 33.5294H162.563V42.353H159.029V33.5294Z" fill="white"/>
<path d="M103.369 19.4118V22.9412H94.534V19.4118H103.369Z" fill="white"/>
<path d="M72.4466 22.9412H75.9806V42.353H72.4466V22.9412Z" fill="white"/>
<path d="M135.175 22.9412H138.709V42.353H135.175V22.9412Z" fill="white"/>
<path d="M84.8155 22.0588H88.3495V42.353H84.8155V22.0588Z" fill="white"/>
<path d="M96.301 16.7647H99.835V42.353H96.301V16.7647Z" fill="white"/>
<path d="M107.786 15H111.32V42.353H107.786V15Z" fill="white"/>
<path d="M35.3398 27.7941C35.3398 25.805 34.5486 23.8974 33.1403 22.4908C31.7319 21.0843 29.8218 20.2941 27.8301 20.2941C25.8384 20.2941 23.9283 21.0843 22.5199 22.4908C21.1116 23.8974 20.3204 25.805 20.3204 27.7941H23.8126C23.8126 26.73 24.2359 25.7095 24.9893 24.957C25.7427 24.2045 26.7646 23.7818 27.8301 23.7818C28.8956 23.7818 29.9175 24.2045 30.6709 24.957C31.4244 25.7095 31.8476 26.73 31.8476 27.7941H35.3398Z" fill="white"/>
<path d="M46.8253 27.7941C46.8253 25.805 46.0341 23.8974 44.6257 22.4908C43.2174 21.0843 41.3072 20.2941 39.3155 20.2941C37.3239 20.2941 35.4137 21.0843 34.0054 22.4908C32.597 23.8974 31.8058 25.805 31.8058 27.7941H35.2979C35.2979 26.73 35.7211 25.7094 36.4746 24.9569C37.2281 24.2044 38.25 23.7816 39.3155 23.7816C40.3811 23.7816 41.403 24.2044 42.1565 24.9569C42.91 25.7094 43.3332 26.73 43.3332 27.7941H46.8253Z" fill="white"/>
<path d="M82.0413 23.4077C80.9233 22.9803 79.7148 22.8435 78.5294 23.0101C77.3439 23.1768 76.2202 23.6414 75.2637 24.3605C74.3073 25.0796 73.5494 26.0295 73.0611 27.1212C72.5729 28.2129 72.3703 29.4105 72.4723 30.6018L75.747 30.322C75.6924 29.6846 75.8008 29.0439 76.062 28.4598C76.3232 27.8758 76.7287 27.3676 77.2404 26.9829C77.7521 26.5982 78.3533 26.3496 78.9875 26.2604C79.6217 26.1713 80.2682 26.2444 80.8664 26.4731L82.0413 23.4077Z" fill="white"/>
<path d="M144.769 23.4077C143.651 22.9803 142.443 22.8435 141.258 23.0101C140.072 23.1768 138.948 23.6414 137.992 24.3605C137.035 25.0796 136.278 26.0295 135.789 27.1212C135.301 28.2129 135.098 29.4105 135.201 30.6018L138.475 30.322C138.421 29.6846 138.529 29.0439 138.79 28.4598C139.051 27.8758 139.457 27.3676 139.969 26.9829C140.48 26.5982 141.081 26.3496 141.716 26.2604C142.35 26.1713 142.996 26.2444 143.595 26.4731L144.769 23.4077Z" fill="white"/>
<path d="M103.773 10.5998C102.847 10.5468 101.919 10.6765 101.042 10.9817C100.166 11.2868 99.3582 11.7614 98.6654 12.3783C97.9726 12.9952 97.4082 13.7423 97.0045 14.577C96.6009 15.4118 96.3657 16.3177 96.3126 17.2432L99.757 17.4403C99.7842 16.9666 99.9045 16.5029 100.111 16.0756C100.318 15.6483 100.607 15.2659 100.961 14.9501C101.316 14.6343 101.729 14.3914 102.178 14.2352C102.627 14.079 103.102 14.0126 103.576 14.0397L103.773 10.5998Z" fill="white"/>
<path fill-rule="evenodd" clip-rule="evenodd" d="M59.1942 38.8235C62.1218 38.8235 64.4952 36.4533 64.4952 33.5294C64.4952 30.6056 62.1218 28.2353 59.1942 28.2353C56.2665 28.2353 53.8932 30.6056 53.8932 33.5294C53.8932 36.4533 56.2665 38.8235 59.1942 38.8235ZM59.1942 42.353C64.0736 42.353 68.0291 38.4025 68.0291 33.5294C68.0291 28.6563 64.0736 24.7059 59.1942 24.7059C54.3148 24.7059 50.3592 28.6563 50.3592 33.5294C50.3592 38.4025 54.3148 42.353 59.1942 42.353Z" fill="white"/>
<path fill-rule="evenodd" clip-rule="evenodd" d="M153.728 38.8235C156.656 38.8235 159.029 36.4533 159.029 33.5294C159.029 30.6056 156.656 28.2353 153.728 28.2353C150.801 28.2353 148.427 30.6056 148.427 33.5294C148.427 36.4533 150.801 38.8235 153.728 38.8235ZM153.728 42.353C158.608 42.353 162.563 38.4025 162.563 33.5294C162.563 28.6563 158.608 24.7059 153.728 24.7059C148.849 24.7059 144.893 28.6563 144.893 33.5294C144.893 38.4025 148.849 42.353 153.728 42.353Z" fill="white"/>
<path fill-rule="evenodd" clip-rule="evenodd" d="M123.689 38.8235C126.617 38.8235 128.99 36.4533 128.99 33.5294C128.99 30.6056 126.617 28.2353 123.689 28.2353C120.762 28.2353 118.388 30.6056 118.388 33.5294C118.388 36.4533 120.762 38.8235 123.689 38.8235ZM123.689 42.353C128.569 42.353 132.524 38.4025 132.524 33.5294C132.524 28.6563 128.569 24.7059 123.689 24.7059C118.81 24.7059 114.854 28.6563 114.854 33.5294C114.854 38.4025 118.81 42.353 123.689 42.353Z" fill="white"/>
<path d="M88.3495 15.8824C88.3495 16.857 87.5584 17.6471 86.5825 17.6471C85.6067 17.6471 84.8155 16.857 84.8155 15.8824C84.8155 14.9078 85.6067 14.1177 86.5825 14.1177C87.5584 14.1177 88.3495 14.9078 88.3495 15.8824Z" fill="white"/>
<path d="M33.6746 57.0531V60H32.6807V52.4724H35.4606C36.2854 52.4724 36.9308 52.6827 37.3967 53.1032C37.866 53.5237 38.1007 54.0803 38.1007 54.7731C38.1007 55.5038 37.8712 56.0673 37.4122 56.4637C36.9566 56.8566 36.3026 57.0531 35.4502 57.0531H33.6746ZM33.6746 56.2414H35.4606C35.992 56.2414 36.3993 56.1173 36.6823 55.8692C36.9653 55.6175 37.1068 55.2556 37.1068 54.7834C37.1068 54.3354 36.9653 53.9769 36.6823 53.7081C36.3993 53.4392 36.011 53.2996 35.5175 53.2893H33.6746V56.2414Z" fill="white"/>
<path d="M42.2914 60H41.3337V54.406H42.2914V60ZM41.2561 52.9222C41.2561 52.7671 41.3027 52.6362 41.3959 52.5293C41.4925 52.4225 41.634 52.369 41.8204 52.369C42.0067 52.369 42.1482 52.4225 42.2448 52.5293C42.3415 52.6362 42.3898 52.7671 42.3898 52.9222C42.3898 53.0773 42.3415 53.2066 42.2448 53.31C42.1482 53.4134 42.0067 53.4651 41.8204 53.4651C41.634 53.4651 41.4925 53.4134 41.3959 53.31C41.3027 53.2066 41.2561 53.0773 41.2561 52.9222Z" fill="white"/>
<path d="M50.2974 59.0229C50.0524 59.402 49.7314 59.6846 49.3345 59.8708H49.3397L49.0395 60.1034C48.6495 60.4171 48.4545 60.7221 48.4545 61.0185C48.4545 61.2667 48.5891 61.3908 48.8583 61.3908C49.0239 61.3908 49.1965 61.3459 49.376 61.2563L49.4433 61.8819C49.2017 62.0336 48.9256 62.1094 48.615 62.1094C48.3078 62.1094 48.0645 62.0198 47.8851 61.8405C47.7091 61.6613 47.621 61.4235 47.621 61.1271C47.621 60.7548 47.7902 60.4136 48.1284 60.1034C47.376 60.0896 46.7686 59.8346 46.3062 59.3383C45.8472 58.8385 45.6177 58.1767 45.6177 57.353V57.1823C45.6177 56.6274 45.7229 56.1328 45.9334 55.6985C46.1474 55.2608 46.4442 54.9196 46.8238 54.6749C47.2069 54.4267 47.621 54.3026 48.0662 54.3026C48.7944 54.3026 49.3604 54.5422 49.7642 55.0213C50.168 55.5004 50.3699 56.1863 50.3699 57.0789V57.477H46.5753C46.5892 58.0285 46.7496 58.4749 47.0568 58.8161C47.3674 59.1539 47.7608 59.3227 48.2371 59.3227C48.5753 59.3227 48.8617 59.2538 49.0964 59.1159C49.3311 58.9781 49.5364 58.7954 49.7124 58.5679L50.2974 59.0229ZM48.0662 55.0885C47.6797 55.0885 47.3553 55.2298 47.093 55.5124C46.8307 55.7916 46.6685 56.1845 46.6064 56.6912H49.4122V56.6188C49.3846 56.1328 49.2534 55.7571 49.0188 55.4917C48.7841 55.2229 48.4666 55.0885 48.0662 55.0885Z" fill="white"/>
<path d="M55.0783 57.4098L54.4778 58.0354V60H53.5201V52.0588H54.4778V56.8618L54.9903 56.2466L56.7349 54.406H57.8996L55.7202 56.7429L58.1533 60H57.0299L55.0783 57.4098Z" fill="white"/>
<path d="M61.8263 54.406L61.8574 55.1092C62.2853 54.5715 62.8444 54.3026 63.5347 54.3026C64.7184 54.3026 65.3155 54.9696 65.3258 56.3034V60H64.3681V56.2983C64.3647 55.895 64.2715 55.5969 64.0886 55.4039C63.9091 55.2108 63.6278 55.1143 63.2448 55.1143C62.9342 55.1143 62.6615 55.1971 62.4268 55.3625C62.1922 55.5279 62.0092 55.7451 61.8781 56.0139V60H60.9204V54.406H61.8263Z" fill="white"/>
<path d="M68.5485 57.1513C68.5485 56.6033 68.6555 56.1104 68.8694 55.6727C69.0869 55.235 69.3871 54.8972 69.7702 54.6594C70.1567 54.4215 70.5968 54.3026 71.0903 54.3026C71.853 54.3026 72.469 54.5663 72.9384 55.0936C73.4112 55.621 73.6476 56.3224 73.6476 57.1979V57.2651C73.6476 57.8096 73.5423 58.2991 73.3318 58.7334C73.1247 59.1642 72.8262 59.5002 72.4362 59.7415C72.0497 59.9828 71.6045 60.1034 71.1006 60.1034C70.3414 60.1034 69.7253 59.8397 69.2525 59.3124C68.7832 58.7851 68.5485 58.0871 68.5485 57.2185V57.1513ZM69.5114 57.2651C69.5114 57.8855 69.6546 58.3835 69.941 58.7592C70.2309 59.1349 70.6175 59.3227 71.1006 59.3227C71.5872 59.3227 71.9738 59.1332 72.2602 58.754C72.5467 58.3715 72.6899 57.8372 72.6899 57.1513C72.6899 56.5378 72.5432 56.0415 72.2499 55.6624C71.96 55.2798 71.5734 55.0885 71.0903 55.0885C70.6175 55.0885 70.2361 55.2763 69.9462 55.652C69.6563 56.0277 69.5114 56.5654 69.5114 57.2651Z" fill="white"/>
<path d="M76.8495 61.4993L76.306 61.1271C76.6304 60.6756 76.7995 60.2103 76.8133 59.7312V58.8678H77.7503V59.6174C77.7503 59.9655 77.664 60.3137 77.4915 60.6618C77.3224 61.0099 77.1084 61.2891 76.8495 61.4993Z" fill="white"/>
<path d="M87.2189 57.4098L86.6184 58.0354V60H85.6607V52.0588H86.6184V56.8618L87.1309 56.2466L88.8754 54.406H90.0402L87.8608 56.7429L90.2939 60H89.1705L87.2189 57.4098Z" fill="white"/>
<path d="M94.3603 53.0515V54.406H95.406V55.1453H94.3603V58.6144C94.3603 58.8385 94.4069 59.0074 94.5001 59.1211C94.5933 59.2314 94.7521 59.2866 94.9764 59.2866C95.0868 59.2866 95.2387 59.2659 95.4319 59.2245V60C95.18 60.0689 94.935 60.1034 94.6968 60.1034C94.2689 60.1034 93.9462 59.9742 93.7288 59.7157C93.5114 59.4572 93.4027 59.0901 93.4027 58.6144V55.1453H92.3828V54.406H93.4027V53.0515H94.3603Z" fill="white"/>
<path d="M98.2042 57.1513C98.2042 56.6033 98.3112 56.1104 98.5252 55.6727C98.7426 55.235 99.0429 54.8972 99.4259 54.6594C99.8125 54.4215 100.253 54.3026 100.746 54.3026C101.509 54.3026 102.125 54.5663 102.594 55.0936C103.067 55.621 103.303 56.3224 103.303 57.1979V57.2651C103.303 57.8096 103.198 58.2991 102.988 58.7334C102.78 59.1642 102.482 59.5002 102.092 59.7415C101.705 59.9828 101.26 60.1034 100.756 60.1034C99.9971 60.1034 99.3811 59.8397 98.9083 59.3124C98.4389 58.7851 98.2042 58.0871 98.2042 57.2185V57.1513ZM99.1671 57.2651C99.1671 57.8855 99.3103 58.3835 99.5968 58.7592C99.8867 59.1349 100.273 59.3227 100.756 59.3227C101.243 59.3227 101.63 59.1332 101.916 58.754C102.202 58.3715 102.346 57.8372 102.346 57.1513C102.346 56.5378 102.199 56.0415 101.906 55.6624C101.616 55.2798 101.229 55.0885 100.746 55.0885C100.273 55.0885 99.8919 55.2763 99.602 55.652C99.3121 56.0277 99.1671 56.5654 99.1671 57.2651ZM101.181 52.0588H102.34L100.953 53.5788H100.182L101.181 52.0588Z" fill="white"/>
<path d="M109.244 55.2643C109.099 55.2401 108.942 55.2281 108.773 55.2281C108.145 55.2281 107.718 55.4952 107.494 56.0294V60H106.536V54.406H107.468L107.484 55.0523C107.798 54.5525 108.243 54.3026 108.819 54.3026C109.006 54.3026 109.147 54.3268 109.244 54.375V55.2643Z" fill="white"/>
<path d="M114.382 60.1034C113.623 60.1034 113.005 59.8553 112.529 59.3589C112.052 58.8592 111.814 58.1922 111.814 57.3581V57.1823C111.814 56.6274 111.919 56.1328 112.13 55.6985C112.344 55.2608 112.641 54.9196 113.02 54.6749C113.403 54.4267 113.818 54.3026 114.263 54.3026C114.991 54.3026 115.557 54.5422 115.961 55.0213C116.365 55.5004 116.566 56.1863 116.566 57.0789V57.477H112.772C112.786 58.0285 112.946 58.4749 113.253 58.8161C113.564 59.1539 113.957 59.3227 114.434 59.3227C114.772 59.3227 115.058 59.2538 115.293 59.1159C115.528 58.9781 115.733 58.7954 115.909 58.5679L116.494 59.0229C116.025 59.7432 115.321 60.1034 114.382 60.1034ZM114.263 55.0885C113.876 55.0885 113.552 55.2298 113.29 55.5124C113.027 55.7916 112.865 56.1845 112.803 56.6912H115.609V56.6188C115.581 56.1328 115.45 55.7571 115.215 55.4917C114.981 55.2229 114.663 55.0885 114.263 55.0885Z" fill="white"/>
<path d="M125.673 53.0515V54.406H126.718V55.1453H125.673V58.6144C125.673 58.8385 125.719 59.0074 125.812 59.1211C125.906 59.2314 126.064 59.2866 126.289 59.2866C126.399 59.2866 126.551 59.2659 126.744 59.2245V60C126.492 60.0689 126.247 60.1034 126.009 60.1034C125.581 60.1034 125.259 59.9742 125.041 59.7157C124.824 59.4572 124.715 59.0901 124.715 58.6144V55.1453H123.695V54.406H124.715V53.0515H125.673Z" fill="white"/>
<path d="M132.581 55.2643C132.436 55.2401 132.279 55.2281 132.11 55.2281C131.482 55.2281 131.056 55.4952 130.831 56.0294V60H129.874V54.406H130.806L130.821 55.0523C131.135 54.5525 131.58 54.3026 132.157 54.3026C132.343 54.3026 132.485 54.3268 132.581 54.375V55.2643Z" fill="white"/>
<path d="M140.551 58.6817L141.628 54.406H142.585L140.955 60H140.178L138.817 55.7606L137.491 60H136.715L135.089 54.406H136.042L137.145 58.5938L138.449 54.406H139.221L140.551 58.6817Z" fill="white"/>
<path d="M149.054 60C148.999 59.8897 148.954 59.6933 148.919 59.4106C148.474 59.8725 147.943 60.1034 147.325 60.1034C146.773 60.1034 146.319 59.9483 145.963 59.6381C145.611 59.3245 145.435 58.9281 145.435 58.449C145.435 57.8665 145.656 57.415 146.098 57.0945C146.543 56.7705 147.168 56.6085 147.972 56.6085H148.904V56.169C148.904 55.8347 148.804 55.5693 148.604 55.3728C148.403 55.1729 148.108 55.073 147.718 55.073C147.377 55.073 147.09 55.1591 146.859 55.3315C146.628 55.5038 146.512 55.7123 146.512 55.957H145.549C145.549 55.6779 145.648 55.409 145.844 55.1505C146.044 54.8886 146.314 54.6818 146.652 54.5301C146.994 54.3785 147.368 54.3026 147.775 54.3026C148.421 54.3026 148.926 54.4646 149.292 54.7886C149.658 55.1092 149.848 55.5521 149.861 56.1173V58.692C149.861 59.2056 149.927 59.614 150.058 59.9173V60H149.054ZM147.465 59.271C147.765 59.271 148.05 59.1935 148.319 59.0384C148.588 58.8833 148.783 58.6817 148.904 58.4335V57.2857H148.153C146.98 57.2857 146.393 57.6287 146.393 58.3146C146.393 58.6144 146.493 58.8488 146.693 59.0177C146.893 59.1866 147.151 59.271 147.465 59.271Z" fill="white"/>
</svg>
