<svg width="158" height="65" viewBox="0 0 158 65" fill="none" xmlns="http://www.w3.org/2000/svg">
<rect width="158" height="65" fill="#19191D"/>
<path d="M17.6407 16.8234H20.7087V36.7058H17.6407V16.8234Z" fill="white"/>
<path d="M27.6116 23.7058H30.6796V36.7058H27.6116V23.7058Z" fill="white"/>
<path d="M37.5825 23.7058H40.6505V36.7058H37.5825V23.7058Z" fill="white"/>
<path d="M55.9903 29.0587H59.0582V36.7058H55.9903V29.0587Z" fill="white"/>
<path d="M138.058 29.0587H141.126V36.7058H138.058V29.0587Z" fill="white"/>
<path d="M89.7378 16.8234V19.8823H82.0679V16.8234H89.7378Z" fill="white"/>
<path d="M62.8932 19.8823H65.9611V36.7058H62.8932V19.8823Z" fill="white"/>
<path d="M117.349 19.8823H120.417V36.7058H117.349V19.8823Z" fill="white"/>
<path d="M73.631 19.1176H76.699V36.7058H73.631V19.1176Z" fill="white"/>
<path d="M83.6019 14.5293H86.6699V36.7058H83.6019V14.5293Z" fill="white"/>
<path d="M93.5728 12.9999H96.6407V36.7058H93.5728V12.9999Z" fill="white"/>
<path d="M30.6796 24.0882C30.6796 22.3642 29.9927 20.7109 28.7701 19.492C27.5475 18.273 25.8892 17.5882 24.1602 17.5882C22.4311 17.5882 20.7729 18.273 19.5502 19.492C18.3276 20.7109 17.6407 22.3642 17.6407 24.0882H20.6724C20.6724 23.1659 21.0399 22.2814 21.694 21.6293C22.348 20.9772 23.2352 20.6108 24.1602 20.6108C25.0852 20.6108 25.9723 20.9772 26.6264 21.6293C27.2804 22.2814 27.6479 23.1659 27.6479 24.0882H30.6796Z" fill="white"/>
<path d="M40.6505 24.0882C40.6505 22.3642 39.9636 20.7109 38.741 19.492C37.5183 18.273 35.8601 17.5882 34.131 17.5882C32.402 17.5882 30.7437 18.273 29.5211 19.492C28.2985 20.7109 27.6116 22.3642 27.6116 24.0882H30.6431C30.6431 23.1659 31.0106 22.2813 31.6647 21.6292C32.3188 20.977 33.206 20.6107 34.131 20.6107C35.0561 20.6107 35.9432 20.977 36.5973 21.6292C37.2515 22.2813 37.6189 23.1659 37.6189 24.0882H40.6505Z" fill="white"/>
<path d="M71.2227 20.2866C70.252 19.9161 69.203 19.7976 68.1738 19.942C67.1446 20.0864 66.1691 20.4891 65.3388 21.1123C64.5085 21.7355 63.8505 22.5588 63.4267 23.5049C63.0028 24.451 62.8269 25.489 62.9155 26.5214L65.7583 26.2789C65.7109 25.7266 65.805 25.1713 66.0318 24.6651C66.2586 24.1589 66.6106 23.7185 67.0548 23.3851C67.499 23.0517 68.0209 22.8362 68.5715 22.7589C69.1221 22.6817 69.6834 22.7451 70.2027 22.9433L71.2227 20.2866Z" fill="white"/>
<path d="M125.679 20.2866C124.708 19.9161 123.659 19.7976 122.63 19.942C121.601 20.0864 120.625 20.4891 119.795 21.1123C118.965 21.7355 118.307 22.5588 117.883 23.5049C117.459 24.451 117.283 25.489 117.372 26.5214L120.215 26.2789C120.167 25.7266 120.261 25.1713 120.488 24.6651C120.715 24.1589 121.067 23.7185 121.511 23.3851C121.955 23.0517 122.477 22.8362 123.028 22.7589C123.578 22.6817 124.14 22.7451 124.659 22.9433L125.679 20.2866Z" fill="white"/>
<path d="M90.089 9.18642C89.2845 9.14045 88.4789 9.2529 87.718 9.51737C86.9571 9.78183 86.256 10.1931 85.6545 10.7278C85.0531 11.2624 84.5631 11.9099 84.2127 12.6333C83.8622 13.3568 83.6581 14.1419 83.612 14.944L86.6022 15.1149C86.6258 14.7043 86.7302 14.3024 86.9096 13.9321C87.089 13.5618 87.3398 13.2303 87.6477 12.9566C87.9556 12.683 88.3145 12.4724 88.7039 12.3371C89.0934 12.2017 89.5058 12.1441 89.9176 12.1677L90.089 9.18642Z" fill="white"/>
<path fill-rule="evenodd" clip-rule="evenodd" d="M51.3883 33.647C53.9299 33.647 55.9903 31.5928 55.9903 29.0587C55.9903 26.5247 53.9299 24.4705 51.3883 24.4705C48.8467 24.4705 46.7864 26.5247 46.7864 29.0587C46.7864 31.5928 48.8467 33.647 51.3883 33.647ZM51.3883 36.7058C55.6243 36.7058 59.0582 33.2821 59.0582 29.0587C59.0582 24.8354 55.6243 21.4117 51.3883 21.4117C47.1523 21.4117 43.7184 24.8354 43.7184 29.0587C43.7184 33.2821 47.1523 36.7058 51.3883 36.7058Z" fill="white"/>
<path fill-rule="evenodd" clip-rule="evenodd" d="M133.456 33.647C135.998 33.647 138.058 31.5928 138.058 29.0587C138.058 26.5247 135.998 24.4705 133.456 24.4705C130.915 24.4705 128.854 26.5247 128.854 29.0587C128.854 31.5928 130.915 33.647 133.456 33.647ZM133.456 36.7058C137.692 36.7058 141.126 33.2821 141.126 29.0587C141.126 24.8354 137.692 21.4117 133.456 21.4117C129.22 21.4117 125.786 24.8354 125.786 29.0587C125.786 33.2821 129.22 36.7058 133.456 36.7058Z" fill="white"/>
<path fill-rule="evenodd" clip-rule="evenodd" d="M107.379 33.647C109.92 33.647 111.981 31.5928 111.981 29.0587C111.981 26.5247 109.92 24.4705 107.379 24.4705C104.837 24.4705 102.777 26.5247 102.777 29.0587C102.777 31.5928 104.837 33.647 107.379 33.647ZM107.379 36.7058C111.615 36.7058 115.049 33.2821 115.049 29.0587C115.049 24.8354 111.615 21.4117 107.379 21.4117C103.143 21.4117 99.7087 24.8354 99.7087 29.0587C99.7087 33.2821 103.143 36.7058 107.379 36.7058Z" fill="white"/>
<path d="M76.699 13.7646C76.699 14.6093 76.0122 15.294 75.165 15.294C74.3178 15.294 73.631 14.6093 73.631 13.7646C73.631 12.92 74.3178 12.2352 75.165 12.2352C76.0122 12.2352 76.699 12.92 76.699 13.7646Z" fill="white"/>
<path d="M29.234 49.446V52H28.3711V45.4761H30.7844C31.5005 45.4761 32.0607 45.6583 32.4652 46.0228C32.8727 46.3872 33.0764 46.8696 33.0764 47.47C33.0764 48.1033 32.8772 48.5917 32.4787 48.9352C32.0832 49.2758 31.5155 49.446 30.7754 49.446H29.234ZM29.234 48.7426H30.7844C31.2458 48.7426 31.5993 48.635 31.845 48.4199C32.0907 48.2019 32.2135 47.8882 32.2135 47.479C32.2135 47.0907 32.0907 46.78 31.845 46.547C31.5993 46.314 31.2623 46.193 30.8339 46.1841H29.234V48.7426Z" fill="white"/>
<path d="M36.7145 52H35.8831V47.1519H36.7145V52ZM35.8157 45.866C35.8157 45.7315 35.8561 45.618 35.937 45.5254C36.0209 45.4328 36.1438 45.3865 36.3055 45.3865C36.4673 45.3865 36.5902 45.4328 36.6741 45.5254C36.758 45.618 36.7999 45.7315 36.7999 45.866C36.7999 46.0004 36.758 46.1124 36.6741 46.202C36.5902 46.2916 36.4673 46.3364 36.3055 46.3364C36.1438 46.3364 36.0209 46.2916 35.937 46.202C35.8561 46.1124 35.8157 46.0004 35.8157 45.866Z" fill="white"/>
<path d="M43.6648 51.1532C43.452 51.4818 43.1734 51.7267 42.8289 51.888H42.8334L42.5727 52.0896C42.2341 52.3615 42.0649 52.6258 42.0649 52.8827C42.0649 53.0978 42.1817 53.2053 42.4154 53.2053C42.5592 53.2053 42.709 53.1665 42.8648 53.0888L42.9232 53.631C42.7135 53.7624 42.4738 53.8282 42.2042 53.8282C41.9375 53.8282 41.7263 53.7505 41.5705 53.5952C41.4177 53.4398 41.3413 53.2337 41.3413 52.9768C41.3413 52.6542 41.4881 52.3585 41.7817 52.0896C41.1286 52.0777 40.6013 51.8566 40.1998 51.4265C39.8013 50.9934 39.6021 50.4198 39.6021 49.7059V49.558C39.6021 49.0771 39.6935 48.6485 39.8762 48.2721C40.062 47.8927 40.3197 47.597 40.6492 47.3849C40.9818 47.1698 41.3413 47.0623 41.7278 47.0623C42.36 47.0623 42.8513 47.2699 43.2019 47.6851C43.5524 48.1003 43.7277 48.6948 43.7277 49.4684V49.8134H40.4335C40.4455 50.2914 40.5848 50.6782 40.8515 50.9739C41.1211 51.2667 41.4627 51.4131 41.8761 51.4131C42.1697 51.4131 42.4184 51.3533 42.6221 51.2338C42.8259 51.1143 43.0041 50.956 43.1569 50.7589L43.6648 51.1532ZM41.7278 47.7434C41.3923 47.7434 41.1106 47.8658 40.8829 48.1108C40.6552 48.3527 40.5144 48.6933 40.4605 49.1324H42.8963V49.0697C42.8723 48.6485 42.7585 48.3229 42.5547 48.0929C42.351 47.8599 42.0754 47.7434 41.7278 47.7434Z" fill="white"/>
<path d="M47.8152 49.7552L47.2939 50.2974V52H46.4625V45.1177H47.2939V49.2802L47.7388 48.747L49.2533 47.1519H50.2645L48.3725 49.1772L50.4847 52H49.5095L47.8152 49.7552Z" fill="white"/>
<path d="M53.6734 47.1519L53.7003 47.7613C54.0719 47.2953 54.5572 47.0623 55.1564 47.0623C56.1841 47.0623 56.7024 47.6403 56.7114 48.7963V52H55.88V48.7918C55.877 48.4424 55.7961 48.184 55.6373 48.0167C55.4815 47.8494 55.2373 47.7658 54.9048 47.7658C54.6351 47.7658 54.3984 47.8375 54.1947 47.9808C53.991 48.1242 53.8322 48.3124 53.7183 48.5454V52H52.8869V47.1519H53.6734Z" fill="white"/>
<path d="M59.5091 49.5312C59.5091 49.0562 59.602 48.629 59.7877 48.2497C59.9765 47.8703 60.2371 47.5776 60.5697 47.3715C60.9053 47.1654 61.2873 47.0623 61.7157 47.0623C62.3778 47.0623 62.9126 47.2908 63.3201 47.7478C63.7305 48.2049 63.9358 48.8128 63.9358 49.5715V49.6297C63.9358 50.1017 63.8444 50.5259 63.6616 50.9023C63.4819 51.2756 63.2227 51.5669 62.8842 51.776C62.5486 51.9851 62.1621 52.0896 61.7247 52.0896C61.0656 52.0896 60.5308 51.8611 60.1203 51.4041C59.7128 50.9471 59.5091 50.3422 59.5091 49.5894V49.5312ZM60.345 49.6297C60.345 50.1674 60.4693 50.5991 60.718 50.9247C60.9697 51.2503 61.3052 51.4131 61.7247 51.4131C62.1471 51.4131 62.4827 51.2488 62.7314 50.9202C62.98 50.5886 63.1044 50.1256 63.1044 49.5312C63.1044 48.9995 62.977 48.5693 62.7224 48.2407C62.4707 47.9092 62.1351 47.7434 61.7157 47.7434C61.3052 47.7434 60.9742 47.9062 60.7225 48.2318C60.4708 48.5574 60.345 49.0234 60.345 49.6297Z" fill="white"/>
<path d="M66.7155 53.2994L66.2436 52.9768C66.5253 52.5855 66.6721 52.1822 66.6841 51.767V51.0188H67.4975V51.6685C67.4975 51.9702 67.4226 52.2719 67.2728 52.5736C67.126 52.8753 66.9402 53.1172 66.7155 53.2994Z" fill="white"/>
<path d="M75.7175 49.7552L75.1961 50.2974V52H74.3647V45.1177H75.1961V49.2802L75.6411 48.747L77.1556 47.1519H78.1667L76.2747 49.1772L78.3869 52H77.4117L75.7175 49.7552Z" fill="white"/>
<path d="M81.9172 45.978V47.1519H82.825V47.7927H81.9172V50.7992C81.9172 50.9934 81.9576 51.1397 82.0385 51.2383C82.1194 51.3339 82.2572 51.3817 82.452 51.3817C82.5479 51.3817 82.6797 51.3638 82.8475 51.3279V52C82.6288 52.0598 82.416 52.0896 82.2093 52.0896C81.8378 52.0896 81.5577 51.9776 81.3689 51.7536C81.1802 51.5296 81.0858 51.2114 81.0858 50.7992V47.7927H80.2005V47.1519H81.0858V45.978H81.9172Z" fill="white"/>
<path d="M85.2542 49.5312C85.2542 49.0562 85.3471 48.629 85.5328 48.2497C85.7216 47.8703 85.9822 47.5776 86.3148 47.3715C86.6504 47.1654 87.0324 47.0623 87.4608 47.0623C88.1229 47.0623 88.6577 47.2908 89.0652 47.7478C89.4756 48.2049 89.6809 48.8128 89.6809 49.5715V49.6297C89.6809 50.1017 89.5895 50.5259 89.4067 50.9023C89.227 51.2756 88.9678 51.5669 88.6293 51.776C88.2937 51.9851 87.9072 52.0896 87.4698 52.0896C86.8107 52.0896 86.2759 51.8611 85.8654 51.4041C85.4579 50.9471 85.2542 50.3422 85.2542 49.5894V49.5312ZM86.0901 49.6297C86.0901 50.1674 86.2144 50.5991 86.4631 50.9247C86.7148 51.2503 87.0503 51.4131 87.4698 51.4131C87.8922 51.4131 88.2278 51.2488 88.4765 50.9202C88.7251 50.5886 88.8495 50.1256 88.8495 49.5312C88.8495 48.9995 88.7221 48.5693 88.4675 48.2407C88.2158 47.9092 87.8802 47.7434 87.4608 47.7434C87.0503 47.7434 86.7193 47.9062 86.4676 48.2318C86.2159 48.5574 86.0901 49.0234 86.0901 49.6297ZM87.8383 45.1177H88.845L87.6406 46.435H86.9709L87.8383 45.1177Z" fill="white"/>
<path d="M94.838 47.8957C94.7122 47.8748 94.5758 47.8643 94.429 47.8643C93.8838 47.8643 93.5137 48.0958 93.319 48.5589V52H92.4876V47.1519H93.2965L93.31 47.712C93.5826 47.2789 93.9691 47.0623 94.4695 47.0623C94.6313 47.0623 94.7541 47.0832 94.838 47.125V47.8957Z" fill="white"/>
<path d="M99.2985 52.0896C98.6394 52.0896 98.1031 51.8746 97.6896 51.4444C97.2762 51.0113 97.0695 50.4333 97.0695 49.7104V49.558C97.0695 49.0771 97.1608 48.6485 97.3436 48.2721C97.5293 47.8927 97.787 47.597 98.1166 47.3849C98.4491 47.1698 98.8087 47.0623 99.1952 47.0623C99.8273 47.0623 100.319 47.2699 100.669 47.6851C101.02 48.1003 101.195 48.6948 101.195 49.4684V49.8134H97.9009C97.9128 50.2914 98.0522 50.6782 98.3188 50.9739C98.5884 51.2667 98.93 51.4131 99.3435 51.4131C99.6371 51.4131 99.8857 51.3533 100.089 51.2338C100.293 51.1143 100.471 50.956 100.624 50.7589L101.132 51.1532C100.725 51.7775 100.113 52.0896 99.2985 52.0896ZM99.1952 47.7434C98.8596 47.7434 98.578 47.8658 98.3503 48.1108C98.1226 48.3527 97.9818 48.6933 97.9278 49.1324H100.364V49.0697C100.34 48.6485 100.226 48.3229 100.022 48.0929C99.8183 47.8599 99.5427 47.7434 99.1952 47.7434Z" fill="white"/>
<path d="M109.1 45.978V47.1519H110.008V47.7927H109.1V50.7992C109.1 50.9934 109.141 51.1397 109.222 51.2383C109.303 51.3339 109.44 51.3817 109.635 51.3817C109.731 51.3817 109.863 51.3638 110.031 51.3279V52C109.812 52.0598 109.599 52.0896 109.393 52.0896C109.021 52.0896 108.741 51.9776 108.552 51.7536C108.363 51.5296 108.269 51.2114 108.269 50.7992V47.7927H107.384V47.1519H108.269V45.978H109.1Z" fill="white"/>
<path d="M115.098 47.8957C114.972 47.8748 114.836 47.8643 114.689 47.8643C114.144 47.8643 113.774 48.0958 113.579 48.5589V52H112.748V47.1519H113.556L113.57 47.712C113.843 47.2789 114.229 47.0623 114.729 47.0623C114.891 47.0623 115.014 47.0832 115.098 47.125V47.8957Z" fill="white"/>
<path d="M122.017 50.8574L122.951 47.1519H123.783L122.367 52H121.693L120.511 48.3259L119.361 52H118.687L117.275 47.1519H118.102L119.06 50.7813L120.192 47.1519H120.862L122.017 50.8574Z" fill="white"/>
<path d="M129.398 52C129.35 51.9044 129.312 51.7342 129.282 51.4892C128.895 51.8895 128.434 52.0896 127.897 52.0896C127.418 52.0896 127.024 51.9552 126.715 51.6864C126.41 51.4145 126.257 51.071 126.257 50.6558C126.257 50.151 126.449 49.7597 126.832 49.4819C127.219 49.2011 127.761 49.0607 128.459 49.0607H129.268V48.6798C129.268 48.3901 129.181 48.1601 129.007 47.9898C128.834 47.8165 128.577 47.7299 128.239 47.7299C127.942 47.7299 127.694 47.8046 127.493 47.954C127.292 48.1033 127.192 48.284 127.192 48.4961H126.356C126.356 48.2542 126.441 48.0212 126.612 47.7971C126.786 47.5701 127.02 47.3909 127.313 47.2594C127.61 47.128 127.935 47.0623 128.288 47.0623C128.849 47.0623 129.288 47.2027 129.605 47.4835C129.923 47.7613 130.087 48.1451 130.099 48.635V50.8664C130.099 51.3115 130.156 51.6655 130.27 51.9283V52H129.398ZM128.019 51.3682C128.279 51.3682 128.527 51.301 128.76 51.1666C128.994 51.0322 129.163 50.8574 129.268 50.6424V49.6477H128.616C127.598 49.6477 127.088 49.9449 127.088 50.5393C127.088 50.7992 127.175 51.0023 127.349 51.1487C127.523 51.2951 127.746 51.3682 128.019 51.3682Z" fill="white"/>
</svg>
