<svg width="63" height="40" viewBox="0 0 63 40" fill="none" xmlns="http://www.w3.org/2000/svg">
<path fill-rule="evenodd" clip-rule="evenodd" d="M27.11 0.135135C27.11 0.21527 26.6179 0.27027 25.9021 0.27027C25.1864 0.27027 24.6943 0.32527 24.6943 0.405405C24.6943 0.482568 24.2916 0.540541 23.7548 0.540541C23.218 0.540541 22.8153 0.598513 22.8153 0.675676C22.8153 0.75 22.5134 0.810811 22.1443 0.810811C21.7752 0.810811 21.4733 0.871622 21.4733 0.945946C21.4733 1.02027 21.1713 1.08108 20.8022 1.08108C20.4332 1.08108 20.1312 1.14189 20.1312 1.21622C20.1312 1.29054 19.8896 1.35135 19.5944 1.35135C19.2991 1.35135 19.0575 1.41216 19.0575 1.48649C19.0575 1.56081 18.8763 1.62162 18.6549 1.62162C18.4335 1.62162 18.2523 1.68243 18.2523 1.75676C18.2523 1.83108 18.0107 1.89189 17.7154 1.89189C17.4202 1.89189 17.1786 1.9527 17.1786 2.02703C17.1786 2.10135 16.9974 2.16216 16.776 2.16216C16.5545 2.16216 16.3734 2.22297 16.3734 2.2973C16.3734 2.37162 16.1922 2.43243 15.9707 2.43243C15.7493 2.43243 15.5681 2.49324 15.5681 2.56757C15.5681 2.64189 15.3869 2.7027 15.1655 2.7027C14.944 2.7027 14.7629 2.76351 14.7629 2.83784C14.7629 2.91216 14.6421 2.97297 14.4945 2.97297C14.3468 2.97297 14.226 3.03378 14.226 3.10811C14.226 3.18243 14.1052 3.24324 13.9576 3.24324C13.81 3.24324 13.6892 3.30405 13.6892 3.37838C13.6892 3.4527 13.508 3.51351 13.2866 3.51351C13.0651 3.51351 12.884 3.57432 12.884 3.64865C12.884 3.72297 12.7632 3.78378 12.6155 3.78378C12.4679 3.78378 12.3471 3.84459 12.3471 3.91892C12.3471 3.99324 12.2263 4.05405 12.0787 4.05405C11.9311 4.05405 11.8103 4.11486 11.8103 4.18919C11.8103 4.26351 11.6895 4.32432 11.5419 4.32432C11.3943 4.32432 11.2735 4.38513 11.2735 4.45946C11.2735 4.53378 11.1527 4.59459 11.005 4.59459C10.8574 4.59459 10.7366 4.65541 10.7366 4.72973C10.7366 4.80405 10.6158 4.86486 10.4682 4.86486C10.3206 4.86486 10.1998 4.92568 10.1998 5C10.1998 5.07432 10.0923 5.13513 9.96104 5.13513C9.82965 5.13513 9.63519 5.25676 9.52876 5.40541C9.42233 5.55405 9.22787 5.67568 9.09648 5.67568C8.96522 5.67568 8.85772 5.73649 8.85772 5.81081C8.85772 5.88513 8.76123 5.94595 8.64312 5.94595C8.52515 5.94595 8.25929 6.12838 8.05247 6.35135C7.84566 6.57432 7.60408 6.75676 7.51564 6.75676C7.4272 6.75676 7.18562 6.93919 6.97881 7.16216C6.772 7.38513 6.53579 7.56757 6.45392 7.56757C6.37206 7.56757 5.55084 8.32716 4.62883 9.2554C3.70696 10.1838 2.95257 11.0216 2.95257 11.1174C2.95257 11.2132 2.83179 11.3793 2.68416 11.4865C2.53653 11.5936 2.41574 11.7761 2.41574 11.8919C2.41574 12.0077 2.29495 12.1901 2.14733 12.2973C1.9997 12.4045 1.87891 12.6003 1.87891 12.7326C1.87891 12.8647 1.81852 12.973 1.7447 12.973C1.67089 12.973 1.61049 13.0946 1.61049 13.2432C1.61049 13.3919 1.5501 13.5135 1.47629 13.5135C1.40247 13.5135 1.34208 13.6351 1.34208 13.7838C1.34208 13.9324 1.28169 14.0541 1.20787 14.0541C1.13406 14.0541 1.07366 14.1757 1.07366 14.3243C1.07366 14.473 1.01327 14.5946 0.939455 14.5946C0.865641 14.5946 0.805247 14.777 0.805247 15C0.805247 15.223 0.744854 15.4054 0.671039 15.4054C0.597225 15.4054 0.536832 15.5878 0.536832 15.8108C0.536832 16.0338 0.476438 16.2162 0.402624 16.2162C0.328809 16.2162 0.268416 16.5203 0.268416 16.8919C0.268416 17.2635 0.208022 17.5676 0.134208 17.5676C0.0511332 17.5676 0 18.2882 0 19.4595C0 20.6307 0.0511332 21.3514 0.134208 21.3514C0.208022 21.3514 0.268416 21.6554 0.268416 22.027C0.268416 22.3986 0.328809 22.7027 0.402624 22.7027C0.476438 22.7027 0.536832 22.9459 0.536832 23.2432C0.536832 23.5405 0.597225 23.7838 0.671039 23.7838C0.744854 23.7838 0.805247 23.9054 0.805247 24.0541C0.805247 24.2027 0.865641 24.3243 0.939455 24.3243C1.01327 24.3243 1.07366 24.5068 1.07366 24.7297C1.07366 24.9527 1.13406 25.1351 1.20787 25.1351C1.28169 25.1351 1.34208 25.2568 1.34208 25.4054C1.34208 25.5541 1.40247 25.6757 1.47629 25.6757C1.5501 25.6757 1.61049 25.7839 1.61049 25.9161C1.61049 26.0484 1.73128 26.2442 1.87891 26.3514C2.02654 26.4585 2.14733 26.6409 2.14733 26.7568C2.14733 26.8726 2.26811 27.055 2.41574 27.1622C2.56337 27.2693 2.68416 27.4354 2.68416 27.5312C2.68416 27.6272 3.37801 28.4042 4.22607 29.2582C5.07427 30.1122 5.84596 30.8108 5.94125 30.8108C6.0364 30.8108 6.20134 30.9324 6.30777 31.0811C6.4142 31.2297 6.59538 31.3514 6.71039 31.3514C6.82541 31.3514 7.00659 31.473 7.11302 31.6216C7.21944 31.7703 7.41391 31.8919 7.5453 31.8919C7.67656 31.8919 7.78406 31.9527 7.78406 32.027C7.78406 32.1014 7.90484 32.1622 8.05247 32.1622C8.2001 32.1622 8.32089 32.223 8.32089 32.2973C8.32089 32.3716 8.44168 32.4324 8.5893 32.4324C8.73693 32.4324 8.85772 32.4932 8.85772 32.5676C8.85772 32.6419 8.97851 32.7027 9.12614 32.7027C9.27377 32.7027 9.39455 32.7635 9.39455 32.8378C9.39455 32.9122 9.51534 32.973 9.66297 32.973C9.8106 32.973 9.93138 33.0338 9.93138 33.1081C9.93138 33.1824 10.1126 33.2432 10.334 33.2432C10.5555 33.2432 10.7366 33.3041 10.7366 33.3784C10.7366 33.4527 10.9178 33.5135 11.1393 33.5135C11.3607 33.5135 11.5419 33.5743 11.5419 33.6486C11.5419 33.723 11.7231 33.7838 11.9445 33.7838C12.1659 33.7838 12.3471 33.8446 12.3471 33.9189C12.3471 33.9932 12.4679 34.0541 12.6155 34.0541C12.7944 34.0541 12.884 34.1442 12.884 34.3243C12.884 34.473 12.8236 34.5946 12.7497 34.5946C12.6759 34.5946 12.6155 34.8986 12.6155 35.2703C12.6155 35.6419 12.5551 35.9459 12.4813 35.9459C12.4067 35.9459 12.3471 36.3064 12.3471 36.7568C12.3471 37.2072 12.2875 37.5676 12.2129 37.5676C12.1391 37.5676 12.0787 37.8716 12.0787 38.2432C12.0787 38.6149 12.0183 38.9189 11.9445 38.9189C11.8707 38.9189 11.8103 39.1622 11.8103 39.4595V40H12.4813C13.1375 40 13.1524 39.9909 13.1524 39.5946C13.1524 39.3716 13.2128 39.1892 13.2866 39.1892C13.3604 39.1892 13.4208 38.8851 13.4208 38.5135C13.4208 38.1419 13.4812 37.8378 13.555 37.8378C13.6288 37.8378 13.6892 37.5338 13.6892 37.1622C13.6892 36.7905 13.7496 36.4865 13.8234 36.4865C13.8972 36.4865 13.9576 36.1824 13.9576 35.8108C13.9576 35.4392 14.018 35.1351 14.0918 35.1351C14.1656 35.1351 14.226 34.9527 14.226 34.7297C14.226 34.4145 14.2856 34.3243 14.4945 34.3243C14.6421 34.3243 14.7629 34.3851 14.7629 34.4595C14.7629 34.5346 15.1208 34.5946 15.5681 34.5946H16.3734V33.9189V33.2432H15.4339H14.4945V32.8378C14.4945 32.6149 14.5548 32.4324 14.6287 32.4324C14.7025 32.4324 14.7629 32.3385 14.7629 32.2236C14.7629 32.1088 14.9112 31.8655 15.0923 31.6831C15.3151 31.4586 15.572 31.3514 15.8863 31.3514C16.1419 31.3514 16.3759 31.4268 16.4065 31.5191C16.4469 31.6411 16.5231 31.6253 16.6861 31.4612C16.8118 31.3346 16.9102 31.0235 16.9102 30.7528C16.9102 30.3604 16.8601 30.2703 16.6418 30.2703C16.4942 30.2703 16.3734 30.2095 16.3734 30.1351C16.3734 30.0608 16.1318 30 15.8365 30C15.5413 30 15.2997 30.0608 15.2997 30.1351C15.2997 30.2095 15.1789 30.2703 15.0313 30.2703C14.8837 30.2703 14.7629 30.3311 14.7629 30.4054C14.7629 30.4797 14.6696 30.5405 14.5555 30.5405C14.4414 30.5405 14.1999 30.6899 14.0187 30.8723C13.8375 31.0547 13.6892 31.298 13.6892 31.4128C13.6892 31.5277 13.6288 31.6216 13.555 31.6216C13.4812 31.6216 13.4208 31.7432 13.4208 31.8919C13.4208 32.0405 13.3604 32.1622 13.2866 32.1622C13.2128 32.1622 13.1524 32.3446 13.1524 32.5676C13.1524 32.8828 13.0928 32.973 12.884 32.973C12.7363 32.973 12.6155 32.9122 12.6155 32.8378C12.6155 32.7635 12.4344 32.7027 12.2129 32.7027C11.9915 32.7027 11.8103 32.6419 11.8103 32.5676C11.8103 32.4932 11.6291 32.4324 11.4077 32.4324C11.1862 32.4324 11.005 32.3716 11.005 32.2973C11.005 32.223 10.8239 32.1622 10.6024 32.1622C10.381 32.1622 10.1998 32.1014 10.1998 32.027C10.1998 31.9527 10.079 31.8919 9.93138 31.8919C9.78376 31.8919 9.66297 31.8311 9.66297 31.7568C9.66297 31.6824 9.54218 31.6216 9.39455 31.6216C9.24692 31.6216 9.12614 31.5608 9.12614 31.4865C9.12614 31.4122 9.00535 31.3514 8.85772 31.3514C8.71009 31.3514 8.5893 31.2905 8.5893 31.2162C8.5893 31.1419 8.4818 31.0811 8.35055 31.0811C8.21916 31.0811 8.02469 30.9595 7.91827 30.8108C7.81184 30.6622 7.63066 30.5405 7.51564 30.5405C7.40063 30.5405 7.21944 30.4189 7.11302 30.2703C7.00659 30.1216 6.84165 30 6.7465 30C6.65121 30 5.87951 29.3014 5.03132 28.4474C4.18326 27.5934 3.48941 26.8163 3.48941 26.7204C3.48941 26.6246 3.36862 26.4585 3.22099 26.3514C3.07336 26.2442 2.95257 26.0484 2.95257 25.9161C2.95257 25.7839 2.89218 25.6757 2.81837 25.6757C2.74455 25.6757 2.68416 25.5541 2.68416 25.4054C2.68416 25.2568 2.62376 25.1351 2.54995 25.1351C2.47614 25.1351 2.41574 25.0135 2.41574 24.8649C2.41574 24.7162 2.35535 24.5946 2.28153 24.5946C2.20772 24.5946 2.14733 24.473 2.14733 24.3243C2.14733 24.1757 2.08693 24.0541 2.01312 24.0541C1.9393 24.0541 1.87891 23.8716 1.87891 23.6486C1.87891 23.4257 1.81852 23.2432 1.7447 23.2432C1.67089 23.2432 1.61049 22.9392 1.61049 22.5676C1.61049 22.1959 1.5501 21.8919 1.47629 21.8919C1.39281 21.8919 1.34208 21.1261 1.34208 19.8649C1.34208 18.6036 1.39281 17.8378 1.47629 17.8378C1.5501 17.8378 1.61049 17.5338 1.61049 17.1622C1.61049 16.7905 1.67089 16.4865 1.7447 16.4865C1.81852 16.4865 1.87891 16.3041 1.87891 16.0811C1.87891 15.8581 1.9393 15.6757 2.01312 15.6757C2.08693 15.6757 2.14733 15.4932 2.14733 15.2703C2.14733 15.0473 2.20772 14.8649 2.28153 14.8649C2.35535 14.8649 2.41574 14.7432 2.41574 14.5946C2.41574 14.4459 2.47614 14.3243 2.54995 14.3243C2.62376 14.3243 2.68416 14.2027 2.68416 14.0541C2.68416 13.9054 2.74455 13.7838 2.81837 13.7838C2.89218 13.7838 2.95257 13.6755 2.95257 13.5434C2.95257 13.4111 3.07336 13.2153 3.22099 13.1081C3.36862 13.0009 3.48941 12.8295 3.48941 12.727C3.48941 12.6247 3.67059 12.3704 3.89203 12.1622C4.11347 11.9539 4.29465 11.7159 4.29465 11.6335C4.29465 11.5511 4.98851 10.785 5.83657 9.93095C6.68476 9.07703 7.44559 8.37838 7.52745 8.37838C7.60932 8.37838 7.84566 8.19595 8.05247 7.97297C8.25929 7.75 8.51187 7.56757 8.61346 7.56757C8.71519 7.56757 8.8855 7.44595 8.99193 7.2973C9.09836 7.14865 9.29282 7.02703 9.42421 7.02703C9.55547 7.02703 9.66297 6.96622 9.66297 6.89189C9.66297 6.81757 9.77047 6.75676 9.90172 6.75676C10.0331 6.75676 10.2276 6.63514 10.334 6.48649C10.4404 6.33784 10.6349 6.21622 10.7663 6.21622C10.8975 6.21622 11.005 6.15541 11.005 6.08108C11.005 6.00676 11.1258 5.94595 11.2735 5.94595C11.4211 5.94595 11.5419 5.88513 11.5419 5.81081C11.5419 5.73649 11.6627 5.67568 11.8103 5.67568C11.9579 5.67568 12.0787 5.61486 12.0787 5.54054C12.0787 5.46622 12.1995 5.40541 12.3471 5.40541C12.4948 5.40541 12.6155 5.34459 12.6155 5.27027C12.6155 5.19595 12.7363 5.13513 12.884 5.13513C13.0316 5.13513 13.1524 5.07432 13.1524 5C13.1524 4.92568 13.2732 4.86486 13.4208 4.86486C13.5684 4.86486 13.6892 4.80405 13.6892 4.72973C13.6892 4.65541 13.8704 4.59459 14.0918 4.59459C14.3133 4.59459 14.4945 4.53378 14.4945 4.45946C14.4945 4.38513 14.6152 4.32432 14.7629 4.32432C14.9105 4.32432 15.0313 4.26351 15.0313 4.18919C15.0313 4.11486 15.2125 4.05405 15.4339 4.05405C15.6554 4.05405 15.8365 3.99324 15.8365 3.91892C15.8365 3.84459 16.0177 3.78378 16.2392 3.78378C16.4606 3.78378 16.6418 3.72297 16.6418 3.64865C16.6418 3.57432 16.823 3.51351 17.0444 3.51351C17.2658 3.51351 17.447 3.4527 17.447 3.37838C17.447 3.30405 17.6282 3.24324 17.8496 3.24324C18.0711 3.24324 18.2523 3.18243 18.2523 3.10811C18.2523 3.03378 18.4938 2.97297 18.7891 2.97297C19.0844 2.97297 19.3259 2.91216 19.3259 2.83784C19.3259 2.76351 19.5675 2.7027 19.8628 2.7027C20.158 2.7027 20.3996 2.64189 20.3996 2.56757C20.3996 2.49324 20.7016 2.43243 21.0706 2.43243C21.4397 2.43243 21.7417 2.37162 21.7417 2.2973C21.7417 2.22297 22.0436 2.16216 22.4127 2.16216C22.7818 2.16216 23.0838 2.10135 23.0838 2.02703C23.0838 1.94986 23.4864 1.89189 24.0232 1.89189C24.56 1.89189 24.9627 1.83392 24.9627 1.75676C24.9627 1.67568 25.4995 1.62162 26.3047 1.62162C27.11 1.62162 27.6468 1.56757 27.6468 1.48649C27.6468 1.39973 28.9442 1.35135 31.2704 1.35135C33.5967 1.35135 34.8941 1.39973 34.8941 1.48649C34.8941 1.56757 35.4309 1.62162 36.2361 1.62162C37.0414 1.62162 37.5782 1.67568 37.5782 1.75676C37.5782 1.83392 37.9808 1.89189 38.5177 1.89189C39.0545 1.89189 39.4571 1.94986 39.4571 2.02703C39.4571 2.10135 39.7591 2.16216 40.1282 2.16216C40.4972 2.16216 40.7992 2.22297 40.7992 2.2973C40.7992 2.37162 41.1012 2.43243 41.4702 2.43243C41.8393 2.43243 42.1413 2.49324 42.1413 2.56757C42.1413 2.64189 42.3829 2.7027 42.6781 2.7027C42.9734 2.7027 43.2149 2.76351 43.2149 2.83784C43.2149 2.91216 43.3961 2.97297 43.6176 2.97297C43.839 2.97297 44.0202 3.03378 44.0202 3.10811C44.0202 3.18243 44.2618 3.24324 44.557 3.24324C44.8523 3.24324 45.0938 3.30405 45.0938 3.37838C45.0938 3.4527 45.275 3.51351 45.4965 3.51351C45.7179 3.51351 45.8991 3.57432 45.8991 3.64865C45.8991 3.72297 46.0199 3.78378 46.1675 3.78378C46.3151 3.78378 46.4359 3.84459 46.4359 3.91892C46.4359 3.99324 46.6171 4.05405 46.8386 4.05405C47.06 4.05405 47.2412 4.11486 47.2412 4.18919C47.2412 4.26351 47.362 4.32432 47.5096 4.32432C47.6572 4.32432 47.778 4.38513 47.778 4.45946C47.778 4.53378 47.9592 4.59459 48.1806 4.59459C48.4021 4.59459 48.5833 4.65541 48.5833 4.72973C48.5833 4.80405 48.704 4.86486 48.8517 4.86486C48.9993 4.86486 49.1201 4.92568 49.1201 5C49.1201 5.07432 49.2409 5.13513 49.3885 5.13513C49.5361 5.13513 49.6569 5.19595 49.6569 5.27027C49.6569 5.34459 49.7777 5.40541 49.9253 5.40541C50.073 5.40541 50.1938 5.46622 50.1938 5.54054C50.1938 5.61486 50.3145 5.67568 50.4622 5.67568C50.6098 5.67568 50.7306 5.73649 50.7306 5.81081C50.7306 5.88513 50.8514 5.94595 50.999 5.94595C51.1466 5.94595 51.2674 6.00676 51.2674 6.08108C51.2674 6.15541 51.3882 6.21622 51.5358 6.21622C51.6835 6.21622 51.8042 6.27703 51.8042 6.35135C51.8042 6.42568 51.9117 6.48649 52.043 6.48649C52.1744 6.48649 52.3689 6.60811 52.4753 6.75676C52.5817 6.9054 52.7629 7.02703 52.8779 7.02703C52.9929 7.02703 53.1741 7.14865 53.2805 7.2973C53.387 7.44595 53.5681 7.56757 53.6832 7.56757C53.7982 7.56757 53.9794 7.68919 54.0858 7.83784C54.1922 7.98649 54.3604 8.10811 54.4597 8.10811C54.5589 8.10811 54.9341 8.41216 55.2937 8.78378C55.6532 9.1554 56.0135 9.45946 56.0946 9.45946C56.1757 9.45946 56.4515 9.67027 56.7073 9.92797C56.9632 10.1855 57.1726 10.4641 57.1726 10.5466C57.1726 10.6293 57.4141 10.9305 57.7094 11.2162C58.0046 11.5019 58.2462 11.8072 58.2462 11.8946C58.2462 11.9822 58.4274 12.2242 58.6488 12.4324C58.8703 12.6407 59.0515 12.9084 59.0515 13.0272C59.0515 13.1461 59.1119 13.2432 59.1857 13.2432C59.2595 13.2432 59.3199 13.3649 59.3199 13.5135C59.3199 13.6622 59.3803 13.7838 59.4541 13.7838C59.5279 13.7838 59.5883 13.9054 59.5883 14.0541C59.5883 14.2027 59.6487 14.3243 59.7225 14.3243C59.7963 14.3243 59.8567 14.4459 59.8567 14.5946C59.8567 14.7432 59.9171 14.8649 59.9909 14.8649C60.0647 14.8649 60.1251 14.9865 60.1251 15.1351C60.1251 15.2838 60.1855 15.4054 60.2593 15.4054C60.3332 15.4054 60.3936 15.6486 60.3936 15.9459C60.3936 16.2432 60.4539 16.4865 60.5278 16.4865C60.6016 16.4865 60.662 16.7905 60.662 17.1622C60.662 17.5338 60.7224 17.8378 60.7962 17.8378C60.8787 17.8378 60.9304 18.5135 60.9304 19.5946C60.9304 20.6757 60.8787 21.3514 60.7962 21.3514C60.7224 21.3514 60.662 21.5946 60.662 21.8919C60.662 22.1892 60.6016 22.4324 60.5278 22.4324C60.4539 22.4324 60.3936 22.6757 60.3936 22.973C60.3936 23.2703 60.3332 23.5135 60.2593 23.5135C60.1855 23.5135 60.1251 23.6351 60.1251 23.7838C60.1251 23.9324 60.0647 24.0541 59.9909 24.0541C59.9171 24.0541 59.8567 24.2365 59.8567 24.4595C59.8567 24.6824 59.7963 24.8649 59.7225 24.8649C59.6487 24.8649 59.5883 24.9731 59.5883 25.1053C59.5883 25.2376 59.4675 25.4334 59.3199 25.5405C59.1723 25.6477 59.0515 25.8301 59.0515 25.9459C59.0515 26.0618 58.9307 26.2442 58.7831 26.3514C58.6354 26.4585 58.5146 26.6246 58.5146 26.7205C58.5146 26.8165 57.8812 27.5328 57.1071 28.3124C56.3328 29.0919 55.6214 29.7297 55.5261 29.7297C55.4308 29.7297 55.2659 29.8513 55.1594 30C55.053 30.1486 54.8718 30.2703 54.7568 30.2703C54.6418 30.2703 54.4606 30.3919 54.3542 30.5405C54.2478 30.6892 54.0533 30.8108 53.9219 30.8108C53.7907 30.8108 53.6832 30.8716 53.6832 30.9459C53.6832 31.0203 53.5624 31.0811 53.4147 31.0811C53.2671 31.0811 53.1463 31.1419 53.1463 31.2162C53.1463 31.2905 53.0388 31.3514 52.9076 31.3514C52.7762 31.3514 52.5817 31.473 52.4753 31.6216C52.3616 31.7803 52.1278 31.8919 51.9088 31.8919C51.7037 31.8919 51.5358 31.9527 51.5358 32.027C51.5358 32.1014 51.3546 32.1622 51.1332 32.1622C50.9118 32.1622 50.7306 32.223 50.7306 32.2973C50.7306 32.3716 50.4286 32.4324 50.0595 32.4324C49.6905 32.4324 49.3885 32.4932 49.3885 32.5676C49.3885 32.6427 49.0306 32.7027 48.5833 32.7027C48.1359 32.7027 47.778 32.7627 47.778 32.8378C47.778 32.9122 47.625 32.973 47.4381 32.973C47.229 32.973 46.9188 33.1535 46.6328 33.4415C46.3551 33.7211 46.1675 34.0434 46.1675 34.2409C46.1675 34.4231 46.0921 34.6076 45.9998 34.6509C45.8655 34.7139 45.8655 34.7455 45.9998 34.8085C46.0921 34.8519 46.1675 35.0647 46.1675 35.2815C46.1675 35.4984 46.2279 35.6757 46.3017 35.6757C46.3755 35.6757 46.4359 35.7712 46.4359 35.888C46.4359 36.0049 46.5222 36.1873 46.6277 36.2934C46.7331 36.3996 46.9142 36.4865 47.0303 36.4865C47.1463 36.4865 47.2412 36.5473 47.2412 36.6216C47.2412 36.6959 47.3361 36.7568 47.452 36.7568C47.5681 36.7568 47.7493 36.8436 47.8546 36.9499C47.9601 37.0559 48.0464 37.3324 48.0464 37.5641C48.0464 37.8311 47.9259 38.1066 47.7169 38.3169C47.4638 38.5719 47.2463 38.6486 46.7775 38.6486C46.442 38.6486 46.1675 38.5878 46.1675 38.5135C46.1675 38.4392 45.9863 38.3784 45.7649 38.3784C45.4518 38.3784 45.3623 38.4384 45.3623 38.6486C45.3623 38.7973 45.3019 38.9189 45.2281 38.9189C45.1542 38.9189 45.0938 39.0405 45.0938 39.1892C45.0938 39.3693 45.1834 39.4595 45.3623 39.4595C45.5099 39.4595 45.6307 39.5203 45.6307 39.5946C45.6307 39.6689 45.8119 39.7297 46.0333 39.7297C46.2547 39.7297 46.4359 39.7905 46.4359 39.8649C46.4359 39.9392 46.6775 40 46.9728 40C47.268 40 47.5096 39.9392 47.5096 39.8649C47.5096 39.7905 47.6908 39.7297 47.9122 39.7297C48.1337 39.7297 48.3148 39.6689 48.3148 39.5946C48.3148 39.5203 48.4097 39.4595 48.5257 39.4595C48.6418 39.4595 48.823 39.3726 48.9283 39.2663C49.0338 39.1603 49.1201 38.9778 49.1201 38.8609C49.1201 38.7442 49.1805 38.6486 49.2543 38.6486C49.3281 38.6486 49.3885 38.527 49.3885 38.3784C49.3885 38.2297 49.4489 38.1081 49.5227 38.1081C49.5965 38.1081 49.6569 37.9257 49.6569 37.7027C49.6569 37.4797 49.5965 37.2973 49.5227 37.2973C49.4489 37.2973 49.3885 37.1432 49.3885 36.955C49.3885 36.7445 49.2092 36.4322 48.9232 36.1442C48.6674 35.8865 48.3928 35.6757 48.3132 35.6757C48.2336 35.6757 48.0203 35.5264 47.8391 35.3439C47.6579 35.1615 47.5096 34.8835 47.5096 34.7262C47.5096 34.5689 47.5959 34.3532 47.7014 34.2472C47.8116 34.1361 48.1538 34.0541 48.5066 34.0541C48.844 34.0541 49.1201 33.9932 49.1201 33.9189C49.1201 33.8438 49.478 33.7838 49.9253 33.7838C50.3726 33.7838 50.7306 33.7238 50.7306 33.6486C50.7306 33.5743 50.9722 33.5135 51.2674 33.5135C51.5627 33.5135 51.8042 33.4527 51.8042 33.3784C51.8042 33.3041 51.9854 33.2432 52.2069 33.2432C52.4283 33.2432 52.6095 33.1824 52.6095 33.1081C52.6095 33.0338 52.7303 32.973 52.8779 32.973C53.0255 32.973 53.1463 32.9122 53.1463 32.8378C53.1463 32.7635 53.2671 32.7027 53.4147 32.7027C53.5624 32.7027 53.6832 32.6419 53.6832 32.5676C53.6832 32.4932 53.7907 32.4324 53.9219 32.4324C54.0533 32.4324 54.2478 32.3108 54.3542 32.1622C54.4606 32.0135 54.6418 31.8919 54.7568 31.8919C54.8718 31.8919 55.053 31.7703 55.1594 31.6216C55.2659 31.473 55.447 31.3514 55.5621 31.3514C55.6771 31.3514 55.8583 31.2297 55.9647 31.0811C56.0711 30.9324 56.2393 30.8108 56.3386 30.8108C56.4378 30.8108 56.813 30.5068 57.1726 30.1351C57.5321 29.7635 57.9206 29.4595 58.0362 29.4595C58.1517 29.4595 58.2462 29.3653 58.2462 29.2503C58.2462 29.1351 58.669 28.6212 59.1857 28.1081C59.7024 27.595 60.1251 27.0945 60.1251 26.9958C60.1251 26.8972 60.2459 26.7288 60.3936 26.6216C60.5412 26.5145 60.662 26.3186 60.662 26.1864C60.662 26.0542 60.7224 25.9459 60.7962 25.9459C60.87 25.9459 60.9304 25.8243 60.9304 25.6757C60.9304 25.527 60.9908 25.4054 61.0646 25.4054C61.1384 25.4054 61.1988 25.2838 61.1988 25.1351C61.1988 24.9865 61.2592 24.8649 61.333 24.8649C61.4068 24.8649 61.4672 24.6824 61.4672 24.4595C61.4672 24.2365 61.5276 24.0541 61.6014 24.0541C61.6752 24.0541 61.7356 23.9324 61.7356 23.7838C61.7356 23.6351 61.796 23.5135 61.8698 23.5135C61.9437 23.5135 62.004 23.2703 62.004 22.973C62.004 22.6757 62.0644 22.4324 62.1383 22.4324C62.2121 22.4324 62.2725 22.1284 62.2725 21.7568C62.2725 21.3851 62.3329 21.0811 62.4067 21.0811C62.4887 21.0811 62.5409 20.4504 62.5409 19.4595C62.5409 18.4685 62.4887 17.8378 62.4067 17.8378C62.3329 17.8378 62.2725 17.5338 62.2725 17.1622C62.2725 16.7905 62.2121 16.4865 62.1383 16.4865C62.0644 16.4865 62.004 16.2432 62.004 15.9459C62.004 15.6486 61.9437 15.4054 61.8698 15.4054C61.796 15.4054 61.7356 15.223 61.7356 15C61.7356 14.777 61.6752 14.5946 61.6014 14.5946C61.5276 14.5946 61.4672 14.473 61.4672 14.3243C61.4672 14.1757 61.4068 14.0541 61.333 14.0541C61.2592 14.0541 61.1988 13.9324 61.1988 13.7838C61.1988 13.6351 61.1384 13.5135 61.0646 13.5135C60.9908 13.5135 60.9304 13.3919 60.9304 13.2432C60.9304 13.0946 60.87 12.973 60.7962 12.973C60.7224 12.973 60.662 12.8647 60.662 12.7326C60.662 12.6003 60.5412 12.4045 60.3936 12.2973C60.2459 12.1901 60.1251 12.0077 60.1251 11.8919C60.1251 11.7761 60.0043 11.5936 59.8567 11.4865C59.7091 11.3793 59.5883 11.2134 59.5883 11.1176C59.5883 11.0219 58.7735 10.1231 57.7777 9.1204C56.7819 8.1177 55.9003 7.2973 55.8184 7.2973C55.7367 7.2973 55.5005 7.11486 55.2937 6.89189C55.0868 6.66892 54.8343 6.48649 54.7327 6.48649C54.6309 6.48649 54.4606 6.36486 54.3542 6.21622C54.2475 6.06716 54.0067 5.94595 53.8174 5.94595C53.628 5.94595 53.3872 5.82473 53.2805 5.67568C53.1741 5.52703 52.9796 5.40541 52.8482 5.40541C52.717 5.40541 52.6095 5.34459 52.6095 5.27027C52.6095 5.19595 52.4887 5.13513 52.3411 5.13513C52.1934 5.13513 52.0727 5.07432 52.0727 5C52.0727 4.92568 51.9652 4.86486 51.8339 4.86486C51.7025 4.86486 51.508 4.74324 51.4016 4.59459C51.2952 4.44595 51.1007 4.32432 50.9693 4.32432C50.8381 4.32432 50.7306 4.26351 50.7306 4.18919C50.7306 4.11486 50.5494 4.05405 50.328 4.05405C50.1065 4.05405 49.9253 3.99324 49.9253 3.91892C49.9253 3.84459 49.8045 3.78378 49.6569 3.78378C49.5093 3.78378 49.3885 3.72297 49.3885 3.64865C49.3885 3.57432 49.2677 3.51351 49.1201 3.51351C48.9725 3.51351 48.8517 3.4527 48.8517 3.37838C48.8517 3.30405 48.7309 3.24324 48.5833 3.24324C48.4356 3.24324 48.3148 3.18243 48.3148 3.10811C48.3148 3.03378 48.1337 2.97297 47.9122 2.97297C47.6908 2.97297 47.5096 2.91216 47.5096 2.83784C47.5096 2.76351 47.3888 2.7027 47.2412 2.7027C47.0935 2.7027 46.9728 2.64189 46.9728 2.56757C46.9728 2.49324 46.7312 2.43243 46.4359 2.43243C46.1407 2.43243 45.8991 2.37162 45.8991 2.2973C45.8991 2.22297 45.7179 2.16216 45.4965 2.16216C45.275 2.16216 45.0938 2.10135 45.0938 2.02703C45.0938 1.9527 44.9127 1.89189 44.6912 1.89189C44.4698 1.89189 44.2886 1.83108 44.2886 1.75676C44.2886 1.68243 44.047 1.62162 43.7518 1.62162C43.4565 1.62162 43.2149 1.56081 43.2149 1.48649C43.2149 1.41216 42.9734 1.35135 42.6781 1.35135C42.3829 1.35135 42.1413 1.29054 42.1413 1.21622C42.1413 1.14189 41.8393 1.08108 41.4702 1.08108C41.1012 1.08108 40.7992 1.02027 40.7992 0.945946C40.7992 0.871622 40.4972 0.810811 40.1282 0.810811C39.7591 0.810811 39.4571 0.75 39.4571 0.675676C39.4571 0.598513 39.0545 0.540541 38.5177 0.540541C37.9808 0.540541 37.5782 0.482568 37.5782 0.405405C37.5782 0.32527 37.0861 0.27027 36.3703 0.27027C35.6546 0.27027 35.1625 0.21527 35.1625 0.135135C35.1625 0.0481081 33.7309 0 31.1362 0C28.5416 0 27.11 0.0481081 27.11 0.135135ZM34.7934 3.44541C34.7012 3.55095 34.6256 3.8527 34.6256 4.11595C34.6256 4.37919 34.5652 4.59459 34.4914 4.59459C34.4176 4.59459 34.3572 4.83784 34.3572 5.13513C34.3572 5.43243 34.2968 5.67568 34.223 5.67568C34.1492 5.67568 34.0888 5.91892 34.0888 6.21622C34.0888 6.51351 34.0284 6.75676 33.9546 6.75676C33.8808 6.75676 33.8204 6.93919 33.8204 7.16216C33.8204 7.38513 33.76 7.56757 33.6862 7.56757C33.6124 7.56757 33.552 7.81081 33.552 8.10811C33.552 8.4054 33.4916 8.64865 33.4178 8.64865C33.3439 8.64865 33.2836 8.89189 33.2836 9.18919C33.2836 9.48649 33.2232 9.72973 33.1493 9.72973C33.0755 9.72973 33.0151 9.97297 33.0151 10.2703C33.0151 10.5676 32.9547 10.8108 32.8809 10.8108C32.8071 10.8108 32.7467 11.0541 32.7467 11.3514C32.7467 11.6486 32.6863 11.8919 32.6125 11.8919C32.5387 11.8919 32.4783 12.1351 32.4783 12.4324C32.4783 12.7297 32.4179 12.973 32.3441 12.973C32.2703 12.973 32.2099 13.1554 32.2099 13.3784C32.2099 13.6014 32.1495 13.7838 32.0757 13.7838C32.0019 13.7838 31.9415 14.027 31.9415 14.3243C31.9415 14.6216 31.8811 14.8649 31.8073 14.8649C31.7335 14.8649 31.6731 15.1081 31.6731 15.4054C31.6731 15.7027 31.6127 15.9459 31.5389 15.9459C31.465 15.9459 31.4046 16.1892 31.4046 16.4865C31.4046 16.7838 31.3443 17.027 31.2704 17.027C31.1966 17.027 31.1362 17.2703 31.1362 17.5676C31.1362 17.8649 31.0758 18.1081 31.002 18.1081C30.9282 18.1081 30.8678 18.3514 30.8678 18.6486C30.8678 18.9459 30.8074 19.1892 30.7336 19.1892C30.6598 19.1892 30.5994 19.3716 30.5994 19.5946C30.5994 19.8176 30.539 20 30.4652 20C30.3914 20 30.331 20.2432 30.331 20.5405C30.331 20.8378 30.2706 21.0811 30.1968 21.0811C30.123 21.0811 30.0626 21.2027 30.0626 21.3514C30.0626 21.5 30.0022 21.6216 29.9284 21.6216C29.8545 21.6216 29.7942 21.3784 29.7942 21.0811C29.7942 20.7838 29.7338 20.5405 29.6599 20.5405C29.5861 20.5405 29.5257 20.3581 29.5257 20.1351C29.5257 19.9122 29.4653 19.7297 29.3915 19.7297C29.3177 19.7297 29.2573 19.4865 29.2573 19.1892C29.2573 18.8919 29.1969 18.6486 29.1231 18.6486C29.0493 18.6486 28.9889 18.4662 28.9889 18.2432C28.9889 18.0203 28.9285 17.8378 28.8547 17.8378C28.7809 17.8378 28.7205 17.5946 28.7205 17.2973C28.7205 17 28.6601 16.7568 28.5863 16.7568C28.5125 16.7568 28.4521 16.5743 28.4521 16.3514C28.4521 16.1284 28.3917 15.9459 28.3179 15.9459C28.2441 15.9459 28.1837 15.7635 28.1837 15.5405C28.1837 15.3176 28.1233 15.1351 28.0494 15.1351C27.9756 15.1351 27.9152 14.8919 27.9152 14.5946C27.9152 14.2973 27.8548 14.0541 27.781 14.0541C27.7072 14.0541 27.6468 13.8716 27.6468 13.6486C27.6468 13.4257 27.5864 13.2432 27.5126 13.2432C27.4388 13.2432 27.3784 13 27.3784 12.7027C27.3784 12.4054 27.318 12.1622 27.2442 12.1622C27.1704 12.1622 27.11 11.9797 27.11 11.7568C27.11 11.5338 27.0496 11.3514 26.9758 11.3514C26.902 11.3514 26.8416 11.1081 26.8416 10.8108C26.8416 10.5135 26.7812 10.2703 26.7074 10.2703C26.6336 10.2703 26.5732 10.0878 26.5732 9.86486C26.5732 9.64189 26.5128 9.45946 26.439 9.45946C26.3651 9.45946 26.3047 9.21622 26.3047 8.91892C26.3047 8.62162 26.2444 8.37838 26.1705 8.37838C26.0967 8.37838 26.0363 8.19595 26.0363 7.97297C26.0363 7.75 25.9759 7.56757 25.9021 7.56757C25.8283 7.56757 25.7679 7.32432 25.7679 7.02703C25.7679 6.72973 25.7075 6.48649 25.6337 6.48649C25.5599 6.48649 25.4995 6.30405 25.4995 6.08108C25.4995 5.85811 25.4391 5.67568 25.3653 5.67568C25.2915 5.67568 25.2311 5.43243 25.2311 5.13513C25.2311 4.83784 25.1707 4.59459 25.0969 4.59459C25.0231 4.59459 24.9627 4.41216 24.9627 4.18919C24.9627 3.80635 24.9329 3.78378 24.4258 3.78378C24.1306 3.78378 23.889 3.84459 23.889 3.91892C23.889 3.99324 23.587 4.05405 23.218 4.05405C22.8489 4.05405 22.5469 4.11486 22.5469 4.18919C22.5469 4.26351 22.3054 4.32432 22.0101 4.32432C21.7148 4.32432 21.4733 4.38513 21.4733 4.45946C21.4733 4.53378 21.2921 4.59459 21.0706 4.59459C20.8492 4.59459 20.668 4.65541 20.668 4.72973C20.668 4.80405 20.4868 4.86486 20.2654 4.86486C20.0439 4.86486 19.8628 4.92568 19.8628 5C19.8628 5.07432 19.6816 5.13513 19.4601 5.13513C19.2387 5.13513 19.0575 5.19595 19.0575 5.27027C19.0575 5.34459 18.9022 5.40541 18.7125 5.40541C18.5226 5.40541 18.281 5.4923 18.1756 5.59851C18.0653 5.70946 17.9839 6.05405 17.9839 6.40932V7.02703H19.0575C19.6839 7.02703 20.1312 7.08338 20.1312 7.16216C20.1312 7.23649 20.252 7.2973 20.3996 7.2973C20.5785 7.2973 20.668 7.38743 20.668 7.56757C20.668 7.71622 20.7284 7.83784 20.8022 7.83784C20.8903 7.83784 20.9364 10.7207 20.9364 16.2162C20.9364 21.7118 20.8903 24.5946 20.8022 24.5946C20.7284 24.5946 20.668 24.7162 20.668 24.8649C20.668 25.045 20.5785 25.1351 20.3996 25.1351C20.252 25.1351 20.1312 25.1959 20.1312 25.2703C20.1312 25.3466 19.7478 25.4054 19.2493 25.4054C18.6639 25.4054 18.3029 25.4703 18.1756 25.5985C18.0702 25.7046 17.9839 26.0086 17.9839 26.2742V26.7568H21.8759H25.7679V26.0811V25.4054H24.8911C24.0695 25.4054 23.985 25.3758 23.5491 24.9369C23.2631 24.6489 23.0838 24.3366 23.0838 24.1261C23.0838 23.9378 23.0234 23.7838 22.9495 23.7838C22.8616 23.7838 22.8153 21.2162 22.8153 16.3514C22.8153 11.4865 22.8616 8.91892 22.9495 8.91892C23.0234 8.91892 23.0838 9.10135 23.0838 9.32432C23.0838 9.5473 23.1441 9.72973 23.218 9.72973C23.2918 9.72973 23.3522 9.91216 23.3522 10.1351C23.3522 10.3581 23.4126 10.5405 23.4864 10.5405C23.5602 10.5405 23.6206 10.723 23.6206 10.9459C23.6206 11.1689 23.681 11.3514 23.7548 11.3514C23.8286 11.3514 23.889 11.5338 23.889 11.7568C23.889 11.9797 23.9494 12.1622 24.0232 12.1622C24.097 12.1622 24.1574 12.3446 24.1574 12.5676C24.1574 12.7905 24.2178 12.973 24.2916 12.973C24.3654 12.973 24.4258 13.1554 24.4258 13.3784C24.4258 13.6014 24.4862 13.7838 24.56 13.7838C24.6339 13.7838 24.6943 14.027 24.6943 14.3243C24.6943 14.6216 24.7546 14.8649 24.8285 14.8649C24.9023 14.8649 24.9627 15.0473 24.9627 15.2703C24.9627 15.4932 25.0231 15.6757 25.0969 15.6757C25.1707 15.6757 25.2311 15.8581 25.2311 16.0811C25.2311 16.3041 25.2915 16.4865 25.3653 16.4865C25.4391 16.4865 25.4995 16.6689 25.4995 16.8919C25.4995 17.1149 25.5599 17.2973 25.6337 17.2973C25.7075 17.2973 25.7679 17.4797 25.7679 17.7027C25.7679 17.9257 25.8283 18.1081 25.9021 18.1081C25.9759 18.1081 26.0363 18.2905 26.0363 18.5135C26.0363 18.7365 26.0967 18.9189 26.1705 18.9189C26.2444 18.9189 26.3047 19.1014 26.3047 19.3243C26.3047 19.5473 26.3651 19.7297 26.439 19.7297C26.5128 19.7297 26.5732 19.9122 26.5732 20.1351C26.5732 20.3581 26.6336 20.5405 26.7074 20.5405C26.7812 20.5405 26.8416 20.7838 26.8416 21.0811C26.8416 21.3784 26.902 21.6216 26.9758 21.6216C27.0496 21.6216 27.11 21.8041 27.11 22.027C27.11 22.25 27.1704 22.4324 27.2442 22.4324C27.318 22.4324 27.3784 22.6149 27.3784 22.8378C27.3784 23.0608 27.4388 23.2432 27.5126 23.2432C27.5864 23.2432 27.6468 23.4257 27.6468 23.6486C27.6468 23.8716 27.7072 24.0541 27.781 24.0541C27.8548 24.0541 27.9152 24.2365 27.9152 24.4595C27.9152 24.6824 27.9756 24.8649 28.0494 24.8649C28.1233 24.8649 28.1837 25.0473 28.1837 25.2703C28.1837 25.4932 28.2441 25.6757 28.3179 25.6757C28.3917 25.6757 28.4521 25.832 28.4521 26.0231C28.4521 26.2143 28.5384 26.4576 28.6439 26.5636C28.7602 26.6809 29.1065 26.7568 29.5257 26.7568C29.945 26.7568 30.2913 26.6809 30.4076 26.5636C30.5131 26.4576 30.5994 26.1535 30.5994 25.888C30.5994 25.6226 30.6598 25.4054 30.7336 25.4054C30.8074 25.4054 30.8678 25.1622 30.8678 24.8649C30.8678 24.5676 30.9282 24.3243 31.002 24.3243C31.0758 24.3243 31.1362 24.0811 31.1362 23.7838C31.1362 23.4865 31.1966 23.2432 31.2704 23.2432C31.3443 23.2432 31.4046 23.0608 31.4046 22.8378C31.4046 22.6149 31.465 22.4324 31.5389 22.4324C31.6127 22.4324 31.6731 22.1892 31.6731 21.8919C31.6731 21.5946 31.7335 21.3514 31.8073 21.3514C31.8811 21.3514 31.9415 21.1081 31.9415 20.8108C31.9415 20.5135 32.0019 20.2703 32.0757 20.2703C32.1495 20.2703 32.2099 20.027 32.2099 19.7297C32.2099 19.4324 32.2703 19.1892 32.3441 19.1892C32.4179 19.1892 32.4783 19.0068 32.4783 18.7838C32.4783 18.5608 32.5387 18.3784 32.6125 18.3784C32.6863 18.3784 32.7467 18.1351 32.7467 17.8378C32.7467 17.5405 32.8071 17.2973 32.8809 17.2973C32.9547 17.2973 33.0151 17.0541 33.0151 16.7568C33.0151 16.4595 33.0755 16.2162 33.1493 16.2162C33.2232 16.2162 33.2836 15.973 33.2836 15.6757C33.2836 15.3784 33.3439 15.1351 33.4178 15.1351C33.4916 15.1351 33.552 14.9527 33.552 14.7297C33.552 14.5068 33.6124 14.3243 33.6862 14.3243C33.76 14.3243 33.8204 14.0811 33.8204 13.7838C33.8204 13.4865 33.8808 13.2432 33.9546 13.2432C34.0284 13.2432 34.0888 13 34.0888 12.7027C34.0888 12.4054 34.1492 12.1622 34.223 12.1622C34.2968 12.1622 34.3572 11.9797 34.3572 11.7568C34.3572 11.5338 34.4176 11.3514 34.4914 11.3514C34.5652 11.3514 34.6256 11.1081 34.6256 10.8108C34.6256 10.5135 34.686 10.2703 34.7598 10.2703C34.8337 10.2703 34.8941 10.027 34.8941 9.72973C34.8941 9.43243 34.9544 9.18919 35.0283 9.18919C35.1021 9.18919 35.1625 9.00676 35.1625 8.78378C35.1625 8.56081 35.2229 8.37838 35.2967 8.37838C35.3847 8.37838 35.4309 11.1957 35.4309 16.5601V24.742L35.1014 25.0736C34.8099 25.3673 34.6556 25.4054 33.7593 25.4054H32.7467V26.0811V26.7568H37.1756H41.6044V26.2742C41.6044 26.0086 41.5182 25.7046 41.4127 25.5985C41.2854 25.4703 40.9244 25.4054 40.339 25.4054C39.8406 25.4054 39.4571 25.3466 39.4571 25.2703C39.4571 25.1959 39.3622 25.1351 39.2463 25.1351C39.1302 25.1351 38.949 25.0482 38.8437 24.942C38.6814 24.7786 38.6519 23.3874 38.6519 15.888C38.6519 10.0708 38.698 7.02703 38.7861 7.02703C38.8599 7.02703 38.9203 6.93311 38.9203 6.81824C38.9203 6.70338 39.0686 6.46014 39.2498 6.2777C39.4726 6.05324 39.7294 5.94595 40.0437 5.94595C40.2993 5.94595 40.5437 5.87 40.5867 5.77703C40.6493 5.64189 40.6807 5.64189 40.7432 5.77703C40.7863 5.87 40.9114 5.94595 41.0213 5.94595C41.1311 5.94595 41.3073 5.85905 41.4127 5.75284C41.523 5.64189 41.6044 5.2973 41.6044 4.94203C41.6044 4.41446 41.5653 4.32432 41.336 4.32432C41.1884 4.32432 41.0676 4.26351 41.0676 4.18919C41.0676 4.11486 40.7656 4.05405 40.3966 4.05405C40.0275 4.05405 39.7255 3.99324 39.7255 3.91892C39.7255 3.84378 39.3676 3.78378 38.9203 3.78378C38.473 3.78378 38.115 3.72378 38.115 3.64865C38.115 3.57149 37.7124 3.51351 37.1756 3.51351C36.6388 3.51351 36.2361 3.45554 36.2361 3.37838C36.2361 3.30405 35.9493 3.24554 35.5986 3.24838C35.2219 3.25149 34.8926 3.33203 34.7934 3.44541ZM42.9465 5.48257C42.9465 5.83784 43.028 6.18243 43.1383 6.29338C43.2437 6.39959 43.4248 6.48649 43.5409 6.48649C43.6569 6.48649 43.7518 6.5473 43.7518 6.62162C43.7518 6.69595 43.8726 6.75676 44.0202 6.75676C44.1678 6.75676 44.2886 6.81757 44.2886 6.89189C44.2886 6.96622 44.3819 7.02703 44.496 7.02703C44.61 7.02703 44.8516 7.17635 45.0328 7.35878C45.214 7.54122 45.3623 7.78446 45.3623 7.89932C45.3623 8.01419 45.4227 8.10811 45.4965 8.10811C45.5703 8.10811 45.6307 8.22973 45.6307 8.37838C45.6307 8.52703 45.6911 8.64865 45.7649 8.64865C45.8528 8.64865 45.8991 11.4209 45.8991 16.6953V24.742L45.5696 25.0736C45.3884 25.2561 45.0865 25.4054 44.8986 25.4054C44.7107 25.4054 44.557 25.4662 44.557 25.5405C44.557 25.6157 44.1991 25.6757 43.7518 25.6757H42.9465V26.2162V26.7568H47.6438H52.3411V26.2742C52.3411 26.0086 52.2548 25.7046 52.1493 25.5985C52.0112 25.4593 51.615 25.4054 50.7306 25.4054C49.8462 25.4054 49.45 25.3515 49.3119 25.2123C49.1699 25.0695 49.1201 24.6486 49.1201 23.5907V22.1622H50.328C51.0437 22.1622 51.5358 22.1072 51.5358 22.027C51.5358 21.9527 51.7774 21.8919 52.0727 21.8919C52.3679 21.8919 52.6095 21.8311 52.6095 21.7568C52.6095 21.6824 52.7907 21.6216 53.0121 21.6216C53.2336 21.6216 53.4147 21.5608 53.4147 21.4865C53.4147 21.4122 53.5355 21.3514 53.6832 21.3514C53.8308 21.3514 53.9516 21.2905 53.9516 21.2162C53.9516 21.1419 54.1085 21.0811 54.3004 21.0811C54.5148 21.0811 54.794 20.925 55.0252 20.6757C55.232 20.4527 55.4704 20.2703 55.555 20.2703C55.6394 20.2703 55.8567 20.1209 56.0378 19.9385C56.219 19.7561 56.3673 19.5264 56.3673 19.4278C56.3673 19.3295 56.4881 19.1612 56.6357 19.0541C56.7834 18.9469 56.9041 18.7511 56.9041 18.6188C56.9041 18.4866 56.9645 18.3784 57.0384 18.3784C57.1122 18.3784 57.1726 18.1959 57.1726 17.973C57.1726 17.75 57.233 17.5676 57.3068 17.5676C57.3881 17.5676 57.441 16.982 57.441 16.0811C57.441 15.1801 57.3881 14.5946 57.3068 14.5946C57.233 14.5946 57.1726 14.4122 57.1726 14.1892C57.1726 13.9662 57.1122 13.7838 57.0384 13.7838C56.9645 13.7838 56.9041 13.6622 56.9041 13.5135C56.9041 13.3649 56.8437 13.2432 56.7699 13.2432C56.6961 13.2432 56.6357 13.1216 56.6357 12.973C56.6357 12.8243 56.5753 12.7027 56.5015 12.7027C56.4277 12.7027 56.3673 12.6107 56.3673 12.4982C56.3673 12.3858 55.7944 11.7169 55.0941 11.0118C54.3938 10.3066 53.7427 9.72973 53.6475 9.72973C53.552 9.72973 53.387 9.60811 53.2805 9.45946C53.1741 9.31081 52.9929 9.18919 52.8779 9.18919C52.7629 9.18919 52.5817 9.06757 52.4753 8.91892C52.3689 8.77027 52.1877 8.64865 52.0727 8.64865C51.9576 8.64865 51.7765 8.52703 51.67 8.37838C51.5636 8.22973 51.3691 8.10811 51.2378 8.10811C51.1065 8.10811 50.999 8.0473 50.999 7.97297C50.999 7.89865 50.8782 7.83784 50.7306 7.83784C50.583 7.83784 50.4622 7.77703 50.4622 7.7027C50.4622 7.62838 50.3414 7.56757 50.1938 7.56757C50.0461 7.56757 49.9253 7.50676 49.9253 7.43243C49.9253 7.35811 49.8045 7.2973 49.6569 7.2973C49.5093 7.2973 49.3885 7.23649 49.3885 7.16216C49.3885 7.08784 49.2677 7.02703 49.1201 7.02703C48.9725 7.02703 48.8517 6.96622 48.8517 6.89189C48.8517 6.81757 48.6705 6.75676 48.449 6.75676C48.2276 6.75676 48.0464 6.69595 48.0464 6.62162C48.0464 6.5473 47.9256 6.48649 47.778 6.48649C47.6304 6.48649 47.5096 6.42568 47.5096 6.35135C47.5096 6.27703 47.3284 6.21622 47.107 6.21622C46.8855 6.21622 46.7043 6.15541 46.7043 6.08108C46.7043 6.00676 46.5836 5.94595 46.4359 5.94595C46.2883 5.94595 46.1675 5.88513 46.1675 5.81081C46.1675 5.73649 45.9863 5.67568 45.7649 5.67568C45.5434 5.67568 45.3623 5.61486 45.3623 5.54054C45.3623 5.46622 45.2415 5.40541 45.0938 5.40541C44.9462 5.40541 44.8254 5.34459 44.8254 5.27027C44.8254 5.19595 44.6443 5.13513 44.4228 5.13513C44.2014 5.13513 44.0202 5.07432 44.0202 5C44.0202 4.92568 43.7786 4.86486 43.4834 4.86486H42.9465V5.48257ZM16.1049 6.62162C16.1049 6.69595 15.9842 6.75676 15.8365 6.75676C15.6889 6.75676 15.5681 6.81757 15.5681 6.89189C15.5681 6.96622 15.4002 7.02703 15.1952 7.02703C14.9761 7.02703 14.7423 7.13865 14.6287 7.2973C14.5222 7.44595 14.3278 7.56757 14.1964 7.56757C14.0651 7.56757 13.9576 7.62838 13.9576 7.7027C13.9576 7.77703 13.8368 7.83784 13.6892 7.83784C13.5416 7.83784 13.4208 7.89865 13.4208 7.97297C13.4208 8.0473 13.3133 8.10811 13.182 8.10811C13.0506 8.10811 12.8562 8.22973 12.7497 8.37838C12.6433 8.52703 12.4621 8.64865 12.3471 8.64865C12.2321 8.64865 12.0509 8.77027 11.9445 8.91892C11.8381 9.06757 11.6569 9.18919 11.5419 9.18919C11.4269 9.18919 11.2457 9.31081 11.1393 9.45946C11.0328 9.60811 10.8625 9.72973 10.7608 9.72973C10.6592 9.72973 10.4066 9.91216 10.1998 10.1351C9.99299 10.3581 9.7553 10.5405 9.67169 10.5405C9.58821 10.5405 9.29765 10.7643 9.02602 11.0377C8.73022 11.3357 8.59749 11.5568 8.69506 11.5896C8.78552 11.6199 8.85772 11.8788 8.85772 12.1734C8.85772 12.4645 8.90483 12.7027 8.96227 12.7027C9.01984 12.7027 9.15392 12.5811 9.26034 12.4324C9.36677 12.2838 9.56124 12.1622 9.69263 12.1622C9.82388 12.1622 9.93138 12.1014 9.93138 12.027C9.93138 11.9527 10.2058 11.8919 10.5414 11.8919C11.0101 11.8919 11.2277 11.9686 11.4808 12.2236L11.8103 12.5553V18.0345C11.8103 21.597 11.7633 23.5135 11.6761 23.5135C11.6023 23.5135 11.5419 23.6826 11.5419 23.8891C11.5419 24.1096 11.431 24.345 11.2735 24.4595C11.1258 24.5666 11.005 24.7364 11.005 24.8368C11.005 24.9372 10.9188 25.1062 10.8133 25.2123C10.7079 25.3185 10.5267 25.4054 10.4106 25.4054C10.2947 25.4054 10.1998 25.4662 10.1998 25.5405C10.1998 25.6149 10.0186 25.6757 9.79718 25.6757C9.57573 25.6757 9.39455 25.7365 9.39455 25.8108C9.39455 25.8859 9.03662 25.9459 8.5893 25.9459C8.14199 25.9459 7.78406 25.8859 7.78406 25.8108C7.78406 25.7365 7.61616 25.6757 7.41109 25.6757C7.19207 25.6757 6.95828 25.5641 6.8446 25.4054C6.73818 25.2568 6.56961 25.1351 6.46989 25.1351C6.37018 25.1351 6.20228 25.0482 6.09693 24.942C5.99144 24.8359 5.90515 24.6535 5.90515 24.5366C5.90515 24.4199 5.84475 24.3243 5.77094 24.3243C5.69713 24.3243 5.63673 24.0811 5.63673 23.7838C5.63673 23.2451 5.63861 23.2432 6.16242 23.2432C6.45164 23.2432 6.72328 23.3192 6.76636 23.4122C6.8289 23.5473 6.8603 23.5473 6.92285 23.4122C6.96593 23.3192 7.14993 23.2432 7.33164 23.2432C7.51336 23.2432 7.81023 23.0939 7.99141 22.9115C8.17259 22.7291 8.32089 22.4858 8.32089 22.3709C8.32089 22.2561 8.38128 22.1622 8.4551 22.1622C8.52891 22.1622 8.5893 21.8581 8.5893 21.4865C8.5893 21.1149 8.52891 20.8108 8.4551 20.8108C8.38128 20.8108 8.32089 20.7176 8.32089 20.6036C8.32089 20.4896 8.11152 20.1855 7.85559 19.928C7.50464 19.5745 7.27675 19.4595 6.92741 19.4595C6.67268 19.4595 6.42909 19.3835 6.38601 19.2905C6.32347 19.1554 6.29207 19.1554 6.22953 19.2905C6.18645 19.3835 6.00366 19.4595 5.82328 19.4595C5.61392 19.4595 5.2784 19.678 4.8951 20.0641C4.56481 20.3965 4.29465 20.7614 4.29465 20.8749C4.29465 20.9882 4.23426 21.0811 4.16044 21.0811C4.08663 21.0811 4.02624 21.2635 4.02624 21.4865C4.02624 21.7095 3.96584 21.8919 3.89203 21.8919C3.81821 21.8919 3.75782 22.1959 3.75782 22.5676C3.75782 22.9392 3.81821 23.2432 3.89203 23.2432C3.96584 23.2432 4.02624 23.4865 4.02624 23.7838C4.02624 24.0811 4.08663 24.3243 4.16044 24.3243C4.23426 24.3243 4.29465 24.4166 4.29465 24.5296C4.29465 24.6424 4.68614 25.1289 5.16445 25.6107C5.6429 26.0923 6.12605 26.4865 6.23812 26.4865C6.35031 26.4865 6.44198 26.5473 6.44198 26.6216C6.44198 26.6959 6.56277 26.7568 6.71039 26.7568C6.85802 26.7568 6.97881 26.8176 6.97881 26.8919C6.97881 26.9662 7.22038 27.027 7.51564 27.027C7.8109 27.027 8.05247 27.0878 8.05247 27.1622C8.05247 27.2423 8.54461 27.2973 9.26034 27.2973C9.97608 27.2973 10.4682 27.2423 10.4682 27.1622C10.4682 27.0878 10.6494 27.027 10.8708 27.027C11.0923 27.027 11.2735 26.9662 11.2735 26.8919C11.2735 26.8176 11.4546 26.7568 11.6761 26.7568C11.8975 26.7568 12.0787 26.6959 12.0787 26.6216C12.0787 26.5473 12.1862 26.4865 12.3175 26.4865C12.4489 26.4865 12.6433 26.3649 12.7497 26.2162C12.8562 26.0676 13.0247 25.9459 13.1245 25.9459C13.2242 25.9459 13.3921 25.8591 13.4974 25.7528C13.6029 25.6468 13.6892 25.4777 13.6892 25.3773C13.6892 25.2769 13.81 25.1072 13.9576 25C14.1052 24.8928 14.226 24.697 14.226 24.5647C14.226 24.4326 14.2864 24.3243 14.3602 24.3243C14.4341 24.3243 14.4945 24.1419 14.4945 23.9189C14.4945 23.6959 14.5548 23.5135 14.6287 23.5135C14.7162 23.5135 14.7629 21.3063 14.7629 17.1622C14.7629 13.018 14.8096 10.8108 14.8971 10.8108C14.9709 10.8108 15.0313 10.6284 15.0313 10.4054C15.0313 10.1824 15.0917 10 15.1655 10C15.2393 10 15.2997 9.87838 15.2997 9.72973C15.2997 9.58108 15.3601 9.45946 15.4339 9.45946C15.5077 9.45946 15.5681 9.36622 15.5681 9.2523C15.5681 9.13824 15.7775 8.83419 16.0334 8.57662C16.2892 8.31892 16.5653 8.10811 16.6469 8.10811C16.7285 8.10811 16.8815 8.02122 16.9868 7.915C17.0971 7.80405 17.1786 7.45946 17.1786 7.10419V6.48649H16.6418C16.3465 6.48649 16.1049 6.5473 16.1049 6.62162ZM49.3885 9.05405C49.3885 9.12838 49.496 9.18919 49.6273 9.18919C49.7586 9.18919 49.9531 9.31081 50.0595 9.45946C50.166 9.60811 50.3604 9.72973 50.4918 9.72973C50.6231 9.72973 50.7306 9.79054 50.7306 9.86486C50.7306 9.93919 50.8221 10 50.934 10C51.046 10 51.5895 10.4551 52.1419 11.0114C52.6943 11.5676 53.1463 12.1149 53.1463 12.2276C53.1463 12.3403 53.2067 12.4324 53.2805 12.4324C53.3543 12.4324 53.4147 12.5541 53.4147 12.7027C53.4147 12.8514 53.4751 12.973 53.5489 12.973C53.6228 12.973 53.6832 13.0946 53.6832 13.2432C53.6832 13.3919 53.7435 13.5135 53.8174 13.5135C53.8912 13.5135 53.9516 13.6351 53.9516 13.7838C53.9516 13.9324 54.012 14.0541 54.0858 14.0541C54.1671 14.0541 54.22 14.6396 54.22 15.5405C54.22 16.4415 54.1671 17.027 54.0858 17.027C54.012 17.027 53.9516 17.2095 53.9516 17.4324C53.9516 17.6554 53.8912 17.8378 53.8174 17.8378C53.7435 17.8378 53.6832 17.9461 53.6832 18.0782C53.6832 18.2105 53.5624 18.4064 53.4147 18.5135C53.2671 18.6207 53.1463 18.7881 53.1463 18.8857C53.1463 18.9832 52.937 19.2739 52.681 19.5315C52.4252 19.7892 52.1233 20 52.01 20C51.8968 20 51.8042 20.0608 51.8042 20.1351C51.8042 20.2095 51.6835 20.2703 51.5358 20.2703C51.3882 20.2703 51.2674 20.3311 51.2674 20.4054C51.2674 20.4797 51.0862 20.5405 50.8648 20.5405C50.6433 20.5405 50.4622 20.6014 50.4622 20.6757C50.4622 20.75 50.1602 20.8108 49.7911 20.8108H49.1201V14.8649C49.1201 10.9909 49.1668 8.91892 49.2543 8.91892C49.3281 8.91892 49.3885 8.97973 49.3885 9.05405ZM17.9839 30.5405C17.9839 30.8378 17.9235 31.0811 17.8496 31.0811C17.7758 31.0811 17.7154 31.3851 17.7154 31.7568C17.7154 32.1284 17.655 32.4324 17.5812 32.4324C17.5074 32.4324 17.447 32.7365 17.447 33.1081C17.447 33.4797 17.3866 33.7838 17.3128 33.7838C17.239 33.7838 17.1786 34.0878 17.1786 34.4595C17.1786 34.8311 17.1182 35.1351 17.0444 35.1351C16.9706 35.1351 16.9102 35.4392 16.9102 35.8108C16.9102 36.1824 16.8498 36.4865 16.776 36.4865C16.7022 36.4865 16.6418 36.7905 16.6418 37.1622C16.6418 37.5338 16.5814 37.8378 16.5076 37.8378C16.4338 37.8378 16.3734 38.1419 16.3734 38.5135C16.3734 38.8851 16.313 39.1892 16.2392 39.1892C16.1653 39.1892 16.1049 39.2847 16.1049 39.4015C16.1049 39.5184 16.1912 39.7008 16.2967 39.8069C16.4021 39.9131 16.7041 40 16.9678 40C17.3575 40 17.447 39.9496 17.447 39.7297C17.447 39.5811 17.5074 39.4595 17.5812 39.4595C17.655 39.4595 17.7154 39.2162 17.7154 38.9189C17.7154 38.6216 17.7758 38.3784 17.8496 38.3784C17.9235 38.3784 17.9839 38.0743 17.9839 37.7027C17.9839 37.3311 18.0443 37.027 18.1181 37.027C18.1919 37.027 18.2523 36.723 18.2523 36.3513C18.2523 35.9797 18.3127 35.6757 18.3865 35.6757C18.4603 35.6757 18.5207 35.3716 18.5207 35C18.5207 34.6284 18.5811 34.3243 18.6549 34.3243C18.7287 34.3243 18.7891 34.0203 18.7891 33.6486C18.7891 33.277 18.8495 32.973 18.9233 32.973C18.9979 32.973 19.0575 32.6126 19.0575 32.1622C19.0575 31.7118 19.1171 31.3514 19.1917 31.3514C19.2655 31.3514 19.3259 31.1081 19.3259 30.8108C19.3259 30.5135 19.3863 30.2703 19.4601 30.2703C19.534 30.2703 19.5944 30.2095 19.5944 30.1351C19.5944 30.06 19.2364 30 18.7891 30H17.9839V30.5405ZM22.2785 32.8378C22.2785 32.9122 22.0973 32.973 21.8759 32.973C21.6544 32.973 21.4733 33.0338 21.4733 33.1081C21.4733 33.1824 21.3811 33.2432 21.2685 33.2432C21.1557 33.2432 20.7934 33.5153 20.4632 33.8478C20.1329 34.1803 19.8628 34.5451 19.8628 34.6586C19.8628 34.772 19.8024 34.8649 19.7286 34.8649C19.6547 34.8649 19.5944 34.9865 19.5944 35.1351C19.5944 35.2838 19.534 35.4054 19.4601 35.4054C19.3863 35.4054 19.3259 35.5878 19.3259 35.8108C19.3259 36.0338 19.2655 36.2162 19.1917 36.2162C19.1151 36.2162 19.0575 36.6216 19.0575 37.1622C19.0575 37.7027 19.1151 38.1081 19.1917 38.1081C19.2655 38.1081 19.3259 38.2297 19.3259 38.3784C19.3259 38.527 19.3863 38.6486 19.4601 38.6486C19.534 38.6486 19.5944 38.7426 19.5944 38.8574C19.5944 38.9723 19.7427 39.2155 19.9238 39.398C20.105 39.5804 20.3466 39.7297 20.4607 39.7297C20.5747 39.7297 20.668 39.7905 20.668 39.8649C20.668 39.945 21.1602 40 21.8759 40C22.5916 40 23.0838 39.945 23.0838 39.8649C23.0838 39.7905 23.2045 39.7297 23.3522 39.7297C23.4998 39.7297 23.6206 39.6689 23.6206 39.5946C23.6206 39.5203 23.7132 39.4595 23.8263 39.4595C23.9396 39.4595 24.2416 39.2486 24.4974 38.9909C24.7533 38.7334 24.9627 38.4293 24.9627 38.3153C24.9627 38.2013 25.0231 38.1081 25.0969 38.1081C25.1707 38.1081 25.2311 37.9865 25.2311 37.8378C25.2311 37.6892 25.2915 37.5676 25.3653 37.5676C25.4391 37.5676 25.4995 37.4459 25.4995 37.2973C25.4995 37.1486 25.5599 37.027 25.6337 37.027C25.712 37.027 25.7679 36.5766 25.7679 35.9459C25.7679 35.3153 25.712 34.8649 25.6337 34.8649C25.5599 34.8649 25.4995 34.7112 25.4995 34.5235C25.4995 34.2993 25.2932 33.9745 24.8991 33.5776C24.5049 33.1807 24.1822 32.973 23.9596 32.973C23.7732 32.973 23.6206 32.9122 23.6206 32.8378C23.6206 32.7635 23.3186 32.7027 22.9495 32.7027C22.5805 32.7027 22.2785 32.7635 22.2785 32.8378ZM38.6519 32.8378C38.6519 32.9122 38.4707 32.973 38.2492 32.973C38.0278 32.973 37.8466 33.0338 37.8466 33.1081C37.8466 33.1824 37.7544 33.2432 37.6418 33.2432C37.5291 33.2432 37.1667 33.5153 36.8366 33.8478C36.5063 34.1803 36.2361 34.5451 36.2361 34.6586C36.2361 34.772 36.1757 34.8649 36.1019 34.8649C36.0281 34.8649 35.9677 34.9865 35.9677 35.1351C35.9677 35.2838 35.9073 35.4054 35.8335 35.4054C35.7597 35.4054 35.6993 35.5878 35.6993 35.8108C35.6993 36.0338 35.6389 36.2162 35.5651 36.2162C35.4905 36.2162 35.4309 36.5766 35.4309 37.027C35.4309 37.4774 35.4905 37.8378 35.5651 37.8378C35.6389 37.8378 35.6993 38.0203 35.6993 38.2432C35.6993 38.4662 35.7597 38.6486 35.8335 38.6486C35.9073 38.6486 35.9677 38.7426 35.9677 38.8574C35.9677 38.9723 36.116 39.2155 36.2972 39.398C36.4784 39.5804 36.7803 39.7297 36.9682 39.7297C37.1561 39.7297 37.3098 39.7905 37.3098 39.8649C37.3098 39.9436 37.7571 40 38.3835 40C39.0098 40 39.4571 39.9436 39.4571 39.8649C39.4571 39.7905 39.5779 39.7297 39.7255 39.7297C39.8732 39.7297 39.9939 39.6689 39.9939 39.5946C39.9939 39.5203 40.1147 39.4595 40.2624 39.4595C40.4712 39.4595 40.5308 39.3693 40.5308 39.0541C40.5308 38.8311 40.4704 38.6486 40.3966 38.6486C40.3228 38.6486 40.2624 38.527 40.2624 38.3784C40.2624 38.2297 40.202 38.1081 40.1282 38.1081C40.0543 38.1081 39.9939 38.1689 39.9939 38.2432C39.9939 38.3176 39.8732 38.3784 39.7255 38.3784C39.5779 38.3784 39.4571 38.4392 39.4571 38.5135C39.4571 38.5899 39.0754 38.6486 38.5803 38.6486C37.7587 38.6486 37.6742 38.6191 37.2383 38.1801C36.8829 37.8224 36.773 37.5989 36.773 37.2342V36.7568H37.9808C38.6966 36.7568 39.1887 36.7018 39.1887 36.6216C39.1887 36.5473 39.3699 36.4865 39.5913 36.4865C39.8128 36.4865 39.9939 36.4257 39.9939 36.3513C39.9939 36.277 40.0866 36.2162 40.1997 36.2162C40.313 36.2162 40.6149 36.0054 40.8707 35.7477C41.2793 35.3365 41.336 35.1957 41.336 34.5946C41.336 33.9935 41.2793 33.8527 40.8707 33.4415C40.6149 33.1838 40.313 32.973 40.1997 32.973C40.0866 32.973 39.9939 32.9122 39.9939 32.8378C39.9939 32.7635 39.692 32.7027 39.3229 32.7027C38.9538 32.7027 38.6519 32.7635 38.6519 32.8378ZM42.6781 33.1081C42.6781 33.3311 42.6177 33.5135 42.5439 33.5135C42.4693 33.5135 42.4097 33.8739 42.4097 34.3243C42.4097 34.7747 42.3501 35.1351 42.2755 35.1351C42.2009 35.1351 42.1413 35.4955 42.1413 35.9459C42.1413 36.3964 42.0817 36.7568 42.0071 36.7568C41.9333 36.7568 41.8729 37 41.8729 37.2973C41.8729 37.5946 41.8125 37.8378 41.7387 37.8378C41.6648 37.8378 41.6044 38.1419 41.6044 38.5135C41.6044 38.8851 41.5441 39.1892 41.4702 39.1892C41.3964 39.1892 41.336 39.3108 41.336 39.4595C41.336 39.6997 41.4255 39.7297 42.1413 39.7297H42.9465V39.0541C42.9465 38.6824 43.0069 38.3784 43.0807 38.3784C43.1545 38.3784 43.2149 38.0743 43.2149 37.7027C43.2149 37.3311 43.2753 37.027 43.3491 37.027C43.423 37.027 43.4834 36.723 43.4834 36.3513C43.4834 35.9797 43.5438 35.6757 43.6176 35.6757C43.6914 35.6757 43.7518 35.5828 43.7518 35.4695C43.7518 35.3559 44.0219 34.9911 44.3522 34.6586C44.8362 34.1712 45.0443 34.0541 45.4259 34.0541H45.8991V33.3784V32.7027H45.2281C44.859 32.7027 44.557 32.7635 44.557 32.8378C44.557 32.9122 44.3758 32.973 44.1544 32.973C43.933 32.973 43.7518 32.9122 43.7518 32.8378C43.7518 32.7635 43.5102 32.7027 43.2149 32.7027C42.7079 32.7027 42.6781 32.7253 42.6781 33.1081ZM26.0363 33.3784C26.0363 33.6013 26.0967 33.7838 26.1705 33.7838C26.2501 33.7838 26.3047 34.2793 26.3047 35C26.3047 35.7207 26.3594 36.2162 26.439 36.2162C26.5185 36.2162 26.5732 36.7118 26.5732 37.4324C26.5732 38.1531 26.6278 38.6486 26.7074 38.6486C26.7812 38.6486 26.8416 38.9527 26.8416 39.3243V40H27.3173C27.6436 40 27.8967 39.8957 28.1226 39.6682C28.3038 39.4858 28.4521 39.2426 28.4521 39.1277C28.4521 39.0128 28.5125 38.9189 28.5863 38.9189C28.6601 38.9189 28.7205 38.7973 28.7205 38.6486C28.7205 38.5 28.7809 38.3784 28.8547 38.3784C28.9285 38.3784 28.9889 38.2701 28.9889 38.138C28.9889 38.0057 29.1097 37.8099 29.2573 37.7027C29.4049 37.5955 29.5257 37.3997 29.5257 37.2674C29.5257 37.1353 29.5861 37.027 29.6599 37.027C29.7338 37.027 29.7942 36.9188 29.7942 36.7866C29.7942 36.6543 29.9149 36.4585 30.0626 36.3513C30.2102 36.2442 30.331 36.0745 30.331 35.9741C30.331 35.8736 30.4173 35.7046 30.5228 35.5985C30.6281 35.4923 30.7489 35.4054 30.7912 35.4054C30.8333 35.4054 30.8678 35.8311 30.8678 36.3513C30.8678 36.8919 30.9254 37.2973 31.002 37.2973C31.0787 37.2973 31.1362 37.7027 31.1362 38.2432C31.1362 38.7838 31.1938 39.1892 31.2704 39.1892C31.3443 39.1892 31.4046 39.3108 31.4046 39.4595C31.4046 39.6936 31.4942 39.7297 32.0757 39.7297C32.6572 39.7297 32.7467 39.6936 32.7467 39.4595C32.7467 39.3108 32.8071 39.1892 32.8809 39.1892C32.9547 39.1892 33.0151 39.0676 33.0151 38.9189C33.0151 38.7703 33.0755 38.6486 33.1493 38.6486C33.2232 38.6486 33.2836 38.527 33.2836 38.3784C33.2836 38.2297 33.3439 38.1081 33.4178 38.1081C33.4916 38.1081 33.552 37.9999 33.552 37.8677C33.552 37.7354 33.6728 37.5396 33.8204 37.4324C33.968 37.3253 34.0888 37.1295 34.0888 36.9972C34.0888 36.865 34.1492 36.7568 34.223 36.7568C34.2968 36.7568 34.3572 36.6351 34.3572 36.4865C34.3572 36.3378 34.4176 36.2162 34.4914 36.2162C34.5652 36.2162 34.6256 36.0946 34.6256 35.9459C34.6256 35.7973 34.686 35.6757 34.7598 35.6757C34.8337 35.6757 34.8941 35.5541 34.8941 35.4054C34.8941 35.2568 34.9544 35.1351 35.0283 35.1351C35.1021 35.1351 35.1625 35.0135 35.1625 34.8649C35.1625 34.7162 35.2229 34.5946 35.2967 34.5946C35.3705 34.5946 35.4309 34.473 35.4309 34.3243C35.4309 34.1757 35.4913 34.0541 35.5651 34.0541C35.6389 34.0541 35.6993 33.9458 35.6993 33.8136C35.6993 33.6813 35.8201 33.4855 35.9677 33.3784C36.1153 33.2712 36.2361 33.1362 36.2361 33.0782C36.2361 33.0204 35.8997 32.973 35.4885 32.973C35.0193 32.973 34.6693 33.0449 34.549 33.1661C34.4435 33.2722 34.3572 33.4546 34.3572 33.5715C34.3572 33.6882 34.2968 33.7838 34.223 33.7838C34.1492 33.7838 34.0888 33.9054 34.0888 34.0541C34.0888 34.2027 34.0284 34.3243 33.9546 34.3243C33.8808 34.3243 33.8204 34.4459 33.8204 34.5946C33.8204 34.7432 33.76 34.8649 33.6862 34.8649C33.6124 34.8649 33.552 34.9865 33.552 35.1351C33.552 35.2838 33.4916 35.4054 33.4178 35.4054C33.3439 35.4054 33.2836 35.527 33.2836 35.6757C33.2836 35.8243 33.2232 35.9459 33.1493 35.9459C33.0755 35.9459 33.0151 36.0676 33.0151 36.2162C33.0151 36.3649 32.9547 36.4865 32.8809 36.4865C32.8071 36.4865 32.7467 36.582 32.7467 36.6988C32.7467 36.8157 32.6604 36.9981 32.5549 37.1042C32.4496 37.2104 32.3288 37.2973 32.2865 37.2973C32.2444 37.2973 32.2099 36.9324 32.2099 36.4865C32.2099 36.0361 32.1503 35.6757 32.0757 35.6757C31.9991 35.6757 31.9415 35.2703 31.9415 34.7297C31.9415 34.1892 31.8839 33.7838 31.8073 33.7838C31.7335 33.7838 31.6731 33.6013 31.6731 33.3784C31.6731 32.987 31.6517 32.973 31.0596 32.973C30.7068 32.973 30.3645 33.055 30.2544 33.1661C30.1489 33.2722 30.0626 33.4546 30.0626 33.5715C30.0626 33.6882 30.0022 33.7838 29.9284 33.7838C29.8545 33.7838 29.7942 33.9054 29.7942 34.0541C29.7942 34.2027 29.7338 34.3243 29.6599 34.3243C29.5861 34.3243 29.5257 34.4326 29.5257 34.5647C29.5257 34.697 29.4049 34.8928 29.2573 35C29.1097 35.1072 28.9889 35.303 28.9889 35.4353C28.9889 35.5674 28.9285 35.6757 28.8547 35.6757C28.7809 35.6757 28.7205 35.7973 28.7205 35.9459C28.7205 36.0946 28.6601 36.2162 28.5863 36.2162C28.5125 36.2162 28.4521 36.3118 28.4521 36.4285C28.4521 36.5454 28.3658 36.7278 28.2603 36.8339C28.1549 36.9401 28.0341 37.027 27.9919 37.027C27.9497 37.027 27.9152 36.8446 27.9152 36.6216C27.9152 36.3986 27.8548 36.2162 27.781 36.2162C27.699 36.2162 27.6468 35.5855 27.6468 34.5946V32.973H26.8416H26.0363V33.3784ZM23.8279 34.3858C24.0538 34.6132 24.1574 34.8681 24.1574 35.1966C24.1574 35.4601 24.2178 35.6757 24.2916 35.6757C24.3654 35.6757 24.4258 35.7973 24.4258 35.9459C24.4258 36.0946 24.3654 36.2162 24.2916 36.2162C24.2178 36.2162 24.1574 36.4461 24.1574 36.7269C24.1574 37.0826 24.076 37.2968 23.889 37.4324C23.7414 37.5396 23.6206 37.7093 23.6206 37.8097C23.6206 37.9101 23.5343 38.0792 23.4288 38.1853C23.3235 38.2915 23.1423 38.3784 23.0262 38.3784C22.9102 38.3784 22.8153 38.4392 22.8153 38.5135C22.8153 38.5878 22.4805 38.6486 22.0712 38.6486C21.4598 38.6486 21.2679 38.5893 20.9975 38.3169C20.8163 38.1345 20.668 37.8912 20.668 37.7764C20.668 37.6615 20.6076 37.5676 20.5338 37.5676C20.46 37.5676 20.3996 37.2635 20.3996 36.8919C20.3996 36.5203 20.46 36.2162 20.5338 36.2162C20.6076 36.2162 20.668 36.0472 20.668 35.8407C20.668 35.6201 20.7789 35.3847 20.9364 35.2703C21.0841 35.1631 21.2048 34.9673 21.2048 34.835C21.2048 34.6946 21.3042 34.5946 21.4436 34.5946C21.575 34.5946 21.7695 34.473 21.8759 34.3243C22.0277 34.1123 22.2234 34.0541 22.7839 34.0541C23.3637 34.0541 23.5607 34.1166 23.8279 34.3858ZM39.8022 34.2472C39.9077 34.3532 39.9939 34.5081 39.9939 34.5911C39.9939 34.6741 39.8457 34.8912 39.6645 35.0737C39.4386 35.3011 39.1855 35.4054 38.8592 35.4054C38.5975 35.4054 38.3835 35.4662 38.3835 35.5405C38.3835 35.6149 38.0815 35.6757 37.7124 35.6757C37.3433 35.6757 37.0414 35.6441 37.0414 35.6054C37.0414 35.5668 37.3585 35.2065 37.746 34.8047C38.3776 34.1499 38.5107 34.0732 39.0305 34.0642C39.3665 34.0582 39.6912 34.1353 39.8022 34.2472Z" fill="black"/>
</svg>
