<svg width="12" height="10" viewBox="0 0 12 10" fill="none" xmlns="http://www.w3.org/2000/svg">
<path fill-rule="evenodd" clip-rule="evenodd" d="M1.29433 7.51371L1.58866 7.80714L6.00003 3.39601L10.4117 7.80743L11.0132 7.20591L8.50666 4.69933L6.00005 2.19275L3.50005 4.69265C2.12503 6.06759 1.00003 7.19882 1.00003 7.20644C1.00003 7.21409 1.13246 7.35235 1.29433 7.51371Z" fill="#BF0F80"/>
<path fill-rule="evenodd" clip-rule="evenodd" d="M1.58866 7.80714L1.29433 7.51371C1.13246 7.35235 1.00003 7.21409 1.00003 7.20644C1.00003 7.19882 2.12503 6.06759 3.50005 4.69265L6.00005 2.19275L8.50666 4.69933L11.0132 7.20591L10.4117 7.80743L6.00003 3.39601L1.58866 7.80714ZM6.00003 3.82027L10.4117 8.23169L11.4375 7.20591L8.71879 4.4872L6.00006 1.76849L3.28793 4.48051C3.28793 4.48051 3.28793 4.48051 3.28793 4.48051C2.60028 5.16811 1.97507 5.79486 1.52169 6.25074C1.29504 6.47864 1.11114 6.66404 0.983792 6.79304C0.920196 6.85747 0.870303 6.90824 0.836125 6.94333C0.819179 6.96074 0.805317 6.97509 0.795351 6.98559C0.790624 6.99057 0.785302 6.99624 0.780553 7.0015C0.778584 7.00368 0.774082 7.0087 0.769075 7.01479C0.767076 7.01722 0.761043 7.02459 0.754181 7.03442C0.751106 7.03883 0.743591 7.04978 0.735621 7.06466C0.731647 7.07234 0.722858 7.09162 0.718294 7.10334C0.712171 7.12193 0.701844 7.17346 0.700027 7.20644C0.700027 7.2856 0.732841 7.34347 0.734267 7.34599C0.734263 7.34598 0.734295 7.34604 0.734267 7.34599C0.742485 7.36177 0.750475 7.3737 0.754138 7.37904C0.762121 7.39068 0.769704 7.40012 0.773552 7.40483C0.782261 7.41551 0.792023 7.42655 0.800542 7.43599C0.818432 7.45581 0.842418 7.48133 0.869825 7.50995C0.925179 7.56774 1.00045 7.64435 1.08253 7.72617C1.08253 7.72617 1.08253 7.72618 1.08253 7.72617L1.58899 8.23107L6.00003 3.82027Z" fill="#BF0F80"/>
</svg>
