<svg width="12" height="10" viewBox="0 0 12 10" fill="none" xmlns="http://www.w3.org/2000/svg">
<path fill-rule="evenodd" clip-rule="evenodd" d="M10.7057 2.48629L10.4113 2.19286L5.99997 6.60399L1.58829 2.19257L0.986764 2.79409L3.49334 5.30067L5.99995 7.80725L8.49995 5.30736C9.87497 3.93241 11 2.80118 11 2.79356C11 2.78591 10.8675 2.64765 10.7057 2.48629Z" fill="#96A3AE"/>
<path fill-rule="evenodd" clip-rule="evenodd" d="M10.4113 2.19286L10.7057 2.48629C10.8675 2.64765 11 2.78591 11 2.79356C11 2.80118 9.87497 3.93241 8.49995 5.30736L5.99995 7.80725L3.49334 5.30067L0.986764 2.79409L1.58829 2.19257L5.99997 6.60399L10.4113 2.19286ZM5.99997 6.17973L1.58828 1.76831L0.5625 2.79409L3.28121 5.5128L5.99994 8.23151L8.71207 5.51949C8.71207 5.51949 8.71207 5.51949 8.71207 5.51949C9.39972 4.83189 10.0249 4.20514 10.4783 3.74926C10.705 3.52136 10.8889 3.33596 11.0162 3.20696C11.0798 3.14253 11.1297 3.09176 11.1639 3.05667C11.1808 3.03926 11.1947 3.02492 11.2046 3.01441C11.2094 3.00943 11.2147 3.00376 11.2194 2.9985C11.2214 2.99632 11.2259 2.9913 11.2309 2.98521C11.2329 2.98278 11.239 2.97541 11.2458 2.96558C11.2489 2.96117 11.2564 2.95022 11.2644 2.93534C11.2684 2.92766 11.2771 2.90838 11.2817 2.89666C11.2878 2.87807 11.2982 2.82654 11.3 2.79356C11.3 2.7144 11.2672 2.65653 11.2657 2.65401C11.2657 2.65402 11.2657 2.65396 11.2657 2.65401C11.2575 2.63823 11.2495 2.6263 11.2459 2.62096C11.2379 2.60932 11.2303 2.59989 11.2264 2.59517C11.2177 2.58449 11.208 2.57345 11.1995 2.56401C11.1816 2.54419 11.1576 2.51867 11.1302 2.49005C11.0748 2.43226 10.9996 2.35565 10.9175 2.27383C10.9175 2.27383 10.9175 2.27382 10.9175 2.27383L10.411 1.76893L5.99997 6.17973Z" fill="#96A3AE"/>
</svg>
