<svg width="20" height="20" viewBox="0 0 20 20" fill="none" xmlns="http://www.w3.org/2000/svg">
<path d="M19.5 1.42859C19.7761 1.42859 20 1.65245 20 1.92859V3.42859C20 3.70473 19.7761 3.92859 19.5 3.92859L5.5 3.92859C5.22386 3.92859 5 3.70473 5 3.42859V1.92859C5 1.65245 5.22386 1.42859 5.5 1.42859L19.5 1.42859Z" fill="black"/>
<path d="M2 1.42859C2.27614 1.42859 2.5 1.65245 2.5 1.92859V3.42859C2.5 3.70473 2.27614 3.92859 2 3.92859H0.5C0.223858 3.92859 9.78514e-09 3.70473 2.18557e-08 3.42859L8.74229e-08 1.92859C9.94935e-08 1.65245 0.223858 1.42859 0.5 1.42859L2 1.42859Z" fill="black"/>
<path d="M19.5 8.75002C19.7761 8.75002 20 8.97387 20 9.25002V10.75C20 11.0262 19.7761 11.25 19.5 11.25L5.5 11.25C5.22386 11.25 5 11.0262 5 10.75V9.25002C5 8.97387 5.22386 8.75002 5.5 8.75002L19.5 8.75002Z" fill="black"/>
<path d="M2 8.75002C2.27614 8.75002 2.5 8.97387 2.5 9.25002V10.75C2.5 11.0262 2.27614 11.25 2 11.25H0.5C0.223858 11.25 9.78514e-09 11.0262 2.18557e-08 10.75L8.74229e-08 9.25002C9.94935e-08 8.97387 0.223858 8.75002 0.5 8.75002H2Z" fill="black"/>
<path d="M15.2143 16.0714C15.4904 16.0714 15.7143 16.2953 15.7143 16.5714V18.0714C15.7143 18.3476 15.4904 18.5714 15.2143 18.5714L5.5 18.5714C5.22386 18.5714 5 18.3476 5 18.0714V16.5714C5 16.2953 5.22386 16.0714 5.5 16.0714L15.2143 16.0714Z" fill="black"/>
<path d="M2 16.0714C2.27614 16.0714 2.5 16.2953 2.5 16.5714V18.0714C2.5 18.3476 2.27614 18.5714 2 18.5714H0.5C0.223858 18.5714 9.78514e-09 18.3476 2.18557e-08 18.0714L8.74229e-08 16.5714C9.94935e-08 16.2953 0.223858 16.0714 0.5 16.0714H2Z" fill="black"/>
</svg>
