<svg width="14" height="15" viewBox="0 0 14 15" fill="none" xmlns="http://www.w3.org/2000/svg">
<path d="M13.5 3C13.7761 3 14 3.22386 14 3.5V4.25C14 4.52614 13.7761 4.75 13.5 4.75L4 4.75C3.72386 4.75 3.5 4.52614 3.5 4.25V3.5C3.5 3.22386 3.72386 3 4 3L13.5 3Z" fill="white"/>
<path d="M1.25 3C1.52614 3 1.75 3.22386 1.75 3.5V4.25C1.75 4.52614 1.52614 4.75 1.25 4.75H0.5C0.223858 4.75 9.78514e-09 4.52614 2.18557e-08 4.25L5.46393e-08 3.5C6.67099e-08 3.22386 0.223858 3 0.5 3L1.25 3Z" fill="white"/>
<path d="M13.5 8.125C13.7761 8.125 14 8.34886 14 8.625V9.375C14 9.65114 13.7761 9.875 13.5 9.875L4 9.875C3.72386 9.875 3.5 9.65114 3.5 9.375V8.625C3.5 8.34886 3.72386 8.125 4 8.125L13.5 8.125Z" fill="white"/>
<path d="M1.25 8.125C1.52614 8.125 1.75 8.34886 1.75 8.625V9.375C1.75 9.65114 1.52614 9.875 1.25 9.875H0.5C0.223858 9.875 9.78514e-09 9.65114 2.18557e-08 9.375L5.46393e-08 8.625C6.67099e-08 8.34886 0.223858 8.125 0.5 8.125H1.25Z" fill="white"/>
<path d="M10.5 13.25C10.7761 13.25 11 13.4739 11 13.75V14.5C11 14.7761 10.7761 15 10.5 15L4 15C3.72386 15 3.5 14.7761 3.5 14.5V13.75C3.5 13.4739 3.72386 13.25 4 13.25L10.5 13.25Z" fill="white"/>
<path d="M1.25 13.25C1.52614 13.25 1.75 13.4739 1.75 13.75V14.5C1.75 14.7761 1.52614 15 1.25 15H0.5C0.223858 15 9.78514e-09 14.7761 2.18557e-08 14.5L5.46393e-08 13.75C6.67099e-08 13.4739 0.223858 13.25 0.5 13.25H1.25Z" fill="white"/>
</svg>
