<svg width="21" height="21" viewBox="0 0 21 21" fill="none" xmlns="http://www.w3.org/2000/svg">
<g opacity="0.5" clip-path="url(#clip0_1482_5521)">
<path d="M15.75 7C15.75 4.10375 13.3962 1.75 10.5 1.75C7.60375 1.75 5.25 4.10375 5.25 7C5.25 10.9375 10.5 16.625 10.5 16.625C10.5 16.625 15.75 10.9375 15.75 7ZM8.75 7C8.75 6.0375 9.5375 5.25 10.5 5.25C11.4625 5.25 12.25 6.0375 12.25 7C12.25 7.9625 11.4713 8.75 10.5 8.75C9.5375 8.75 8.75 7.9625 8.75 7ZM4.375 17.5V19.25H16.625V17.5H4.375Z" fill="#F03A27"/>
</g>
<defs>
<clipPath id="clip0_1482_5521">
<rect width="21" height="21" fill="white"/>
</clipPath>
</defs>
</svg>
