<svg width="21" height="21" viewBox="0 0 21 21" fill="none" xmlns="http://www.w3.org/2000/svg">
<g opacity="0.5" clip-path="url(#clip0_1767_2008)">
<path d="M16.625 2.625H15.75V0.875H14V2.625H7V0.875H5.25V2.625H4.375C3.40375 2.625 2.625 3.4125 2.625 4.375V16.625C2.625 17.5875 3.40375 18.375 4.375 18.375H16.625C17.5875 18.375 18.375 17.5875 18.375 16.625V4.375C18.375 3.4125 17.5875 2.625 16.625 2.625ZM10.5 5.25C11.9525 5.25 13.125 6.4225 13.125 7.875C13.125 9.3275 11.9525 10.5 10.5 10.5C9.0475 10.5 7.875 9.3275 7.875 7.875C7.875 6.4225 9.0475 5.25 10.5 5.25ZM15.75 15.75H5.25V14.875C5.25 13.125 8.75 12.1625 10.5 12.1625C12.25 12.1625 15.75 13.125 15.75 14.875V15.75Z" fill="#F03A27"/>
</g>
<defs>
<clipPath id="clip0_1767_2008">
<rect width="21" height="21" fill="white"/>
</clipPath>
</defs>
</svg>
