<svg width="11" height="11" viewBox="0 0 11 11" fill="none" xmlns="http://www.w3.org/2000/svg">
<path fill-rule="evenodd" clip-rule="evenodd" d="M1.08224 3.152L1.37003 2.86284L5.68336 7.2099L9.99701 2.86255L10.5852 3.45534L8.13429 5.92551L5.68339 8.39569L3.23894 5.9321C1.89447 4.57713 0.794472 3.46232 0.794472 3.45481C0.794472 3.44728 0.923962 3.31102 1.08224 3.152Z" fill="#96A3AE"/>
<path fill-rule="evenodd" clip-rule="evenodd" d="M1.37003 2.86284L1.08224 3.152C0.923962 3.31102 0.794472 3.44728 0.794472 3.45481C0.794472 3.46232 1.89447 4.57713 3.23894 5.9321L5.68339 8.39569L8.13429 5.92551L10.5852 3.45534L9.99701 2.86255L5.68336 7.2099L1.37003 2.86284ZM5.68336 6.79181L9.99701 2.44446L11 3.45534L8.34171 6.13457L5.68339 8.81378L3.03153 6.14116C3.03153 6.14116 3.03153 6.14116 3.03153 6.14116C2.35916 5.46354 1.74784 4.84589 1.30454 4.39663C1.08293 4.17204 0.903113 3.98934 0.778597 3.86221C0.716413 3.79872 0.667629 3.74869 0.634212 3.7141C0.617642 3.69695 0.604088 3.68281 0.594343 3.67246C0.589721 3.66755 0.584517 3.66197 0.579874 3.65678C0.577949 3.65463 0.573546 3.64969 0.568651 3.64369C0.566697 3.64129 0.560798 3.63403 0.554088 3.62434C0.551082 3.61999 0.543734 3.6092 0.535941 3.59454C0.532055 3.58697 0.523461 3.56797 0.518999 3.55642C0.513011 3.53809 0.502914 3.48732 0.501138 3.45481C0.501138 3.3768 0.533223 3.31977 0.534616 3.31729C0.534644 3.31725 0.534614 3.3173 0.534616 3.31729C0.542652 3.30174 0.550465 3.28999 0.554046 3.28472C0.561851 3.27325 0.569266 3.26395 0.573029 3.25931C0.581544 3.24878 0.591088 3.2379 0.599419 3.2286C0.616911 3.20907 0.640364 3.18392 0.667163 3.15572C0.721287 3.09876 0.79488 3.02327 0.875139 2.94263C0.875141 2.94263 0.875137 2.94263 0.875139 2.94263L1.37034 2.44507L5.68336 6.79181Z" fill="#96A3AE"/>
</svg>
