<svg width="10" height="12" viewBox="0 0 10 12" fill="none" xmlns="http://www.w3.org/2000/svg">
<path fill-rule="evenodd" clip-rule="evenodd" d="M7.51372 10.7057L7.80714 10.4113L3.39601 5.99997L7.80743 1.58829L7.20591 0.986764L4.69933 3.49334L2.19275 5.99995L4.69265 8.49995C6.06759 9.87497 7.19882 11 7.20644 11C7.21409 11 7.35235 10.8675 7.51372 10.7057Z" fill="#96A3AE"/>
<path fill-rule="evenodd" clip-rule="evenodd" d="M7.80714 10.4113L7.51372 10.7057C7.35235 10.8675 7.21409 11 7.20644 11C7.19882 11 6.06759 9.87497 4.69265 8.49995L2.19275 5.99995L4.69933 3.49334L7.20591 0.986764L7.80743 1.58829L3.39601 5.99997L7.80714 10.4113ZM3.82027 5.99997L8.23169 1.58828L7.20591 0.5625L4.4872 3.28121L1.76849 5.99994L4.48051 8.71207C4.48051 8.71207 4.48051 8.71207 4.48051 8.71207C5.16811 9.39972 5.79487 10.0249 6.25074 10.4783C6.47865 10.705 6.66404 10.8889 6.79305 11.0162C6.85747 11.0798 6.90824 11.1297 6.94334 11.1639C6.96074 11.1808 6.97509 11.1947 6.98559 11.2046C6.99058 11.2094 6.99624 11.2147 7.0015 11.2194C7.00368 11.2214 7.0087 11.2259 7.01479 11.2309C7.01722 11.2329 7.02459 11.239 7.03442 11.2458C7.03883 11.2489 7.04978 11.2564 7.06466 11.2644C7.07234 11.2684 7.09162 11.2771 7.10334 11.2817C7.12194 11.2878 7.17346 11.2982 7.20644 11.3C7.2856 11.3 7.34348 11.2672 7.34599 11.2657C7.34598 11.2657 7.34604 11.2657 7.34599 11.2657C7.36177 11.2575 7.3737 11.2495 7.37904 11.2459C7.39069 11.2379 7.40012 11.2303 7.40483 11.2264C7.41551 11.2177 7.42655 11.208 7.43599 11.1995C7.45581 11.1816 7.48133 11.1576 7.50995 11.1302C7.56774 11.0748 7.64435 10.9996 7.72618 10.9175C7.72617 10.9175 7.72618 10.9175 7.72618 10.9175L8.23107 10.411L3.82027 5.99997Z" fill="#96A3AE"/>
</svg>
