<svg width="8" height="12" viewBox="0 0 8 12" fill="none" xmlns="http://www.w3.org/2000/svg">
<path fill-rule="evenodd" clip-rule="evenodd" d="M6.5137 10.7057L6.80712 10.4113L2.396 5.99997L6.80742 1.58829L6.20589 0.986764L3.69931 3.49334L1.19274 5.99995L3.69263 8.49995C5.06758 9.87497 6.19881 11 6.20643 11C6.21407 11 6.35234 10.8675 6.5137 10.7057Z" fill="#19191D"/>
<path fill-rule="evenodd" clip-rule="evenodd" d="M6.80712 10.4113L6.5137 10.7057C6.35234 10.8675 6.21407 11 6.20643 11C6.19881 11 5.06758 9.87497 3.69263 8.49995L1.19274 5.99995L3.69931 3.49334L6.20589 0.986764L6.80742 1.58829L2.396 5.99997L6.80712 10.4113ZM2.82025 5.99997L7.23167 1.58828L6.20589 0.5625L3.48718 3.28121L0.768478 5.99994L3.48049 8.71207C3.48049 8.71207 3.48049 8.71207 3.48049 8.71207C4.1681 9.39972 4.79485 10.0249 5.25073 10.4783C5.47863 10.705 5.66402 10.8889 5.79303 11.0162C5.85745 11.0798 5.90822 11.1297 5.94332 11.1639C5.96072 11.1808 5.97507 11.1947 5.98557 11.2046C5.99056 11.2094 5.99622 11.2147 6.00149 11.2194C6.00367 11.2214 6.00868 11.2259 6.01477 11.2309C6.01721 11.2329 6.02457 11.239 6.03441 11.2458C6.03882 11.2489 6.04976 11.2564 6.06464 11.2644C6.07233 11.2684 6.0916 11.2771 6.10332 11.2817C6.12192 11.2878 6.17344 11.2982 6.20643 11.3C6.28559 11.3 6.34346 11.2672 6.34597 11.2657C6.34597 11.2657 6.34602 11.2657 6.34597 11.2657C6.36176 11.2575 6.37368 11.2495 6.37903 11.2459C6.39067 11.2379 6.4001 11.2303 6.40482 11.2264C6.4155 11.2177 6.42653 11.208 6.43597 11.1995C6.45579 11.1816 6.48132 11.1576 6.50993 11.1302C6.56772 11.0748 6.64433 10.9996 6.72616 10.9175C6.72616 10.9175 6.72616 10.9175 6.72616 10.9175L7.23105 10.411L2.82025 5.99997Z" fill="#19191D"/>
</svg>
