<svg width="10" height="12" viewBox="0 0 10 12" fill="none" xmlns="http://www.w3.org/2000/svg">
<path fill-rule="evenodd" clip-rule="evenodd" d="M2.48632 1.29433L2.19289 1.58866L6.60402 6.00003L2.1926 10.4117L2.79412 11.0132L5.3007 8.50666L7.80728 6.00005L5.30739 3.50005C3.93244 2.12503 2.80121 1.00003 2.79359 1.00003C2.78594 1.00003 2.64768 1.13246 2.48632 1.29433Z" fill="#19191D"/>
<path fill-rule="evenodd" clip-rule="evenodd" d="M2.19289 1.58866L2.48632 1.29433C2.64768 1.13246 2.78594 1.00003 2.79359 1.00003C2.80121 1.00003 3.93244 2.12503 5.30739 3.50005L7.80728 6.00005L5.3007 8.50666L2.79412 11.0132L2.1926 10.4117L6.60402 6.00003L2.19289 1.58866ZM6.17976 6.00003L1.76834 10.4117L2.79412 11.4375L5.51283 8.71879L8.23154 6.00006L5.51952 3.28793C5.51952 3.28793 5.51952 3.28793 5.51952 3.28793C4.83192 2.60028 4.20517 1.97507 3.74929 1.52169C3.52139 1.29504 3.33599 1.11114 3.20699 0.983792C3.14256 0.920196 3.09179 0.870303 3.0567 0.836125C3.03929 0.819179 3.02495 0.805317 3.01444 0.795351C3.00946 0.790624 3.00379 0.785302 2.99853 0.780553C2.99635 0.778584 2.99133 0.774082 2.98524 0.769075C2.98281 0.767076 2.97544 0.761043 2.96561 0.754181C2.9612 0.751106 2.95025 0.743591 2.93537 0.735621C2.92769 0.731647 2.90841 0.722858 2.89669 0.718294C2.8781 0.712171 2.82657 0.701844 2.79359 0.700027C2.71443 0.700027 2.65656 0.732841 2.65404 0.734267C2.65405 0.734263 2.65399 0.734295 2.65404 0.734267C2.63826 0.742485 2.62633 0.750475 2.62099 0.754138C2.60935 0.762121 2.59992 0.769704 2.5952 0.773552C2.58452 0.782261 2.57348 0.792023 2.56404 0.800542C2.54422 0.818432 2.5187 0.842418 2.49008 0.869825C2.43229 0.925179 2.35568 1.00045 2.27386 1.08253C2.27386 1.08253 2.27385 1.08253 2.27386 1.08253L1.76896 1.58899L6.17976 6.00003Z" fill="#19191D"/>
</svg>
