<svg width="8" height="12" viewBox="0 0 8 12" fill="none" xmlns="http://www.w3.org/2000/svg">
<path fill-rule="evenodd" clip-rule="evenodd" d="M1.48632 1.29433L1.19289 1.58866L5.60402 6.00003L1.1926 10.4117L1.79412 11.0132L4.3007 8.50666L6.80728 6.00005L4.30739 3.50005C2.93244 2.12503 1.80121 1.00003 1.79359 1.00003C1.78594 1.00003 1.64768 1.13246 1.48632 1.29433Z" fill="#19191D" fill-opacity="0.5"/>
<path fill-rule="evenodd" clip-rule="evenodd" d="M1.19289 1.58866L1.48632 1.29433C1.64768 1.13246 1.78594 1.00003 1.79359 1.00003C1.80121 1.00003 2.93244 2.12503 4.30739 3.50005L6.80728 6.00005L4.3007 8.50666L1.79412 11.0132L1.1926 10.4117L5.60402 6.00003L1.19289 1.58866ZM5.17976 6.00003L0.768341 10.4117L1.79412 11.4375L4.51283 8.71879L7.23154 6.00006L4.51952 3.28793C4.51952 3.28793 4.51952 3.28793 4.51952 3.28793C3.83192 2.60028 3.20517 1.97507 2.74929 1.52169C2.52139 1.29504 2.33599 1.11114 2.20699 0.983792C2.14256 0.920195 2.09179 0.870303 2.0567 0.836125C2.03929 0.81918 2.02495 0.805317 2.01444 0.795351C2.00946 0.790624 2.00379 0.785302 1.99853 0.780553C1.99635 0.778585 1.99133 0.774082 1.98524 0.769075C1.98281 0.767076 1.97544 0.761043 1.96561 0.754181C1.9612 0.751106 1.95025 0.743592 1.93537 0.735621C1.92769 0.731647 1.90841 0.722858 1.89669 0.718294C1.8781 0.71217 1.82657 0.701845 1.79359 0.700027C1.71443 0.700027 1.65656 0.732842 1.65404 0.734267C1.65405 0.734264 1.65399 0.734295 1.65404 0.734267C1.63826 0.742485 1.62633 0.750475 1.62099 0.754138C1.60935 0.762121 1.59992 0.769704 1.5952 0.773552C1.58452 0.782261 1.57348 0.792023 1.56404 0.800542C1.54422 0.818432 1.5187 0.842418 1.49008 0.869825C1.43229 0.92518 1.35568 1.00045 1.27386 1.08253C1.27386 1.08253 1.27385 1.08253 1.27386 1.08253L0.768962 1.58899L5.17976 6.00003Z" fill="#19191D" fill-opacity="0.5"/>
</svg>
