<svg width="20" height="20" viewBox="0 0 20 20" fill="none" xmlns="http://www.w3.org/2000/svg">
<path d="M15.8222 2.04948C14.4456 0.727883 12.5404 0 10.4577 0C7.27626 0 5.31954 1.30411 4.2383 2.39806C2.90574 3.74623 2.1416 5.53633 2.1416 7.30947C2.1416 9.53575 3.07281 11.2445 4.63223 11.8802C4.73692 11.9231 4.84226 11.9447 4.94554 11.9447C5.27452 11.9447 5.53518 11.7295 5.62549 11.3842C5.67813 11.1861 5.80011 10.6974 5.85313 10.4852C5.96666 10.0662 5.87494 9.86473 5.62736 9.57297C5.17634 9.03932 4.96631 8.40826 4.96631 7.58697C4.96631 5.14749 6.78279 2.55481 10.1495 2.55481C12.8208 2.55481 14.4802 4.07308 14.4802 6.51708C14.4802 8.05935 14.148 9.48763 13.5446 10.539C13.1253 11.2695 12.388 12.1404 11.2561 12.1404C10.7667 12.1404 10.327 11.9393 10.0496 11.5888C9.78747 11.2574 9.70109 10.8294 9.80649 10.3832C9.92557 9.87918 10.0879 9.35339 10.2451 8.84509C10.5317 7.91672 10.8026 7.0399 10.8026 6.34033C10.8026 5.14375 10.067 4.33975 8.97224 4.33975C7.58098 4.33975 6.49103 5.75281 6.49103 7.55672C6.49103 8.44141 6.72615 9.10311 6.83259 9.3572C6.65732 10.0998 5.61569 14.5146 5.41811 15.3471C5.30387 15.8331 4.61565 19.6715 5.75476 19.9776C7.03462 20.3215 8.17863 16.5831 8.29506 16.1607C8.38943 15.8171 8.71964 14.518 8.92199 13.7195C9.53983 14.3146 10.5346 14.7169 11.5026 14.7169C13.3274 14.7169 14.9685 13.8958 16.1236 12.4048C17.2439 10.9587 17.8609 8.9432 17.8609 6.72975C17.8609 4.99932 17.1178 3.2934 15.8222 2.04948Z" fill="#050606"/>
</svg>
