<svg width="10" height="12" viewBox="0 0 10 12" fill="none" xmlns="http://www.w3.org/2000/svg">
<path fill-rule="evenodd" clip-rule="evenodd" d="M7.51347 1.29433L7.80689 1.58866L3.39577 6.00003L7.80719 10.4117L7.20566 11.0132L4.69909 8.50666L2.19251 6.00005L4.6924 3.50005C6.06735 2.12503 7.19858 1.00003 7.2062 1.00003C7.21385 1.00003 7.35211 1.13246 7.51347 1.29433Z" fill="#BF0F80"/>
<path fill-rule="evenodd" clip-rule="evenodd" d="M7.80689 1.58866L7.51347 1.29433C7.35211 1.13246 7.21385 1.00003 7.2062 1.00003C7.19858 1.00003 6.06735 2.12503 4.6924 3.50005L2.19251 6.00005L4.69909 8.50666L7.20566 11.0132L7.80719 10.4117L3.39577 6.00003L7.80689 1.58866ZM3.82002 6.00003L8.23145 10.4117L7.20566 11.4375L4.48695 8.71879L1.76825 6.00006L4.48026 3.28793C4.48026 3.28793 4.48026 3.28793 4.48026 3.28793C5.16787 2.60028 5.79462 1.97507 6.2505 1.52169C6.4784 1.29504 6.66379 1.11114 6.7928 0.983792C6.85723 0.920196 6.90799 0.870303 6.94309 0.836125C6.96049 0.819179 6.97484 0.805317 6.98535 0.795351C6.99033 0.790624 6.99599 0.785302 7.00126 0.780553C7.00344 0.778584 7.00845 0.774082 7.01454 0.769075C7.01698 0.767076 7.02434 0.761043 7.03418 0.754181C7.03859 0.751106 7.04954 0.743591 7.06442 0.735621C7.0721 0.731647 7.09138 0.722858 7.10309 0.718294C7.12169 0.712171 7.17321 0.701844 7.2062 0.700027C7.28536 0.700027 7.34323 0.732841 7.34575 0.734267C7.34574 0.734263 7.34579 0.734295 7.34575 0.734267C7.36153 0.742485 7.37346 0.750475 7.3788 0.754138C7.39044 0.762121 7.39987 0.769704 7.40459 0.773552C7.41527 0.782261 7.42631 0.792023 7.43575 0.800542C7.45557 0.818432 7.48109 0.842418 7.5097 0.869825C7.5675 0.925179 7.6441 1.00045 7.72593 1.08253C7.72593 1.08253 7.72593 1.08253 7.72593 1.08253L8.23082 1.58899L3.82002 6.00003Z" fill="#BF0F80"/>
</svg>
