<svg width="10" height="12" viewBox="0 0 10 12" fill="none" xmlns="http://www.w3.org/2000/svg">
<path fill-rule="evenodd" clip-rule="evenodd" d="M2.48653 1.29433L2.19311 1.58866L6.60423 6.00003L2.19281 10.4117L2.79434 11.0132L5.30091 8.50666L7.80749 6.00005L5.3076 3.50005C3.93265 2.12503 2.80142 1.00003 2.7938 1.00003C2.78615 1.00003 2.64789 1.13246 2.48653 1.29433Z" fill="#BF0F80"/>
<path fill-rule="evenodd" clip-rule="evenodd" d="M2.19311 1.58866L2.48653 1.29433C2.64789 1.13246 2.78615 1.00003 2.7938 1.00003C2.80142 1.00003 3.93265 2.12503 5.3076 3.50005L7.80749 6.00005L5.30091 8.50666L2.79434 11.0132L2.19281 10.4117L6.60423 6.00003L2.19311 1.58866ZM6.17998 6.00003L1.76855 10.4117L2.79434 11.4375L5.51305 8.71879L8.23175 6.00006L5.51974 3.28793C5.51974 3.28793 5.51974 3.28793 5.51974 3.28793C4.83213 2.60028 4.20538 1.97507 3.7495 1.52169C3.5216 1.29504 3.33621 1.11114 3.2072 0.983792C3.14277 0.920196 3.09201 0.870303 3.05691 0.836125C3.03951 0.819179 3.02516 0.805317 3.01465 0.795351C3.00967 0.790624 3.00401 0.785302 2.99874 0.780553C2.99656 0.778584 2.99155 0.774082 2.98546 0.769075C2.98302 0.767076 2.97566 0.761043 2.96582 0.754181C2.96141 0.751106 2.95046 0.743591 2.93558 0.735621C2.9279 0.731647 2.90862 0.722858 2.89691 0.718294C2.87831 0.712171 2.82679 0.701844 2.7938 0.700027C2.71464 0.700027 2.65677 0.732841 2.65425 0.734267C2.65426 0.734263 2.65421 0.734295 2.65425 0.734267C2.63847 0.742485 2.62654 0.750475 2.6212 0.754138C2.60956 0.762121 2.60013 0.769704 2.59541 0.773552C2.58473 0.782261 2.57369 0.792023 2.56425 0.800542C2.54443 0.818432 2.51891 0.842418 2.4903 0.869825C2.4325 0.925179 2.3559 1.00045 2.27407 1.08253C2.27407 1.08253 2.27407 1.08253 2.27407 1.08253L1.76918 1.58899L6.17998 6.00003Z" fill="#BF0F80"/>
</svg>
