<svg width="12" height="21" viewBox="0 0 12 21" fill="none" xmlns="http://www.w3.org/2000/svg">
<g clip-path="url(#clip0_926_22431)">
<mask id="path-1-outside-1_926_22431" maskUnits="userSpaceOnUse" x="-1" y="3.00098" width="7" height="17" fill="black">
<rect fill="white" x="-1" y="3.00098" width="7" height="17"/>
<path d="M5.44179 6.37152L3.25429 4.18402C3.01054 3.93996 2.61429 3.93996 2.37054 4.18402L0.183047 6.37152C-0.0610156 6.61559 -0.0610156 7.01121 0.183047 7.25527C0.426796 7.49934 0.823046 7.49934 1.0668 7.25527L2.18742 6.13465V18.3759C2.18742 18.7209 2.46742 19.0009 2.81242 19.0009C3.15742 19.0009 3.43742 18.7209 3.43742 18.3759V6.13465L4.55804 7.25527C4.67992 7.37746 4.83992 7.4384 4.99992 7.4384C5.15992 7.4384 5.31992 7.37746 5.44179 7.25527C5.68585 7.01121 5.68585 6.61559 5.44179 6.37152V6.37152Z"/>
</mask>
<path d="M5.44179 6.37152L3.25429 4.18402C3.01054 3.93996 2.61429 3.93996 2.37054 4.18402L0.183047 6.37152C-0.0610156 6.61559 -0.0610156 7.01121 0.183047 7.25527C0.426796 7.49934 0.823046 7.49934 1.0668 7.25527L2.18742 6.13465V18.3759C2.18742 18.7209 2.46742 19.0009 2.81242 19.0009C3.15742 19.0009 3.43742 18.7209 3.43742 18.3759V6.13465L4.55804 7.25527C4.67992 7.37746 4.83992 7.4384 4.99992 7.4384C5.15992 7.4384 5.31992 7.37746 5.44179 7.25527C5.68585 7.01121 5.68585 6.61559 5.44179 6.37152V6.37152Z" fill="black"/>
<path d="M5.44179 6.37152L3.25429 4.18402C3.01054 3.93996 2.61429 3.93996 2.37054 4.18402L0.183047 6.37152C-0.0610156 6.61559 -0.0610156 7.01121 0.183047 7.25527C0.426796 7.49934 0.823046 7.49934 1.0668 7.25527L2.18742 6.13465V18.3759C2.18742 18.7209 2.46742 19.0009 2.81242 19.0009C3.15742 19.0009 3.43742 18.7209 3.43742 18.3759V6.13465L4.55804 7.25527C4.67992 7.37746 4.83992 7.4384 4.99992 7.4384C5.15992 7.4384 5.31992 7.37746 5.44179 7.25527C5.68585 7.01121 5.68585 6.61559 5.44179 6.37152V6.37152Z" stroke="black" stroke-width="0.2" mask="url(#path-1-outside-1_926_22431)"/>
<mask id="path-2-outside-2_926_22431" maskUnits="userSpaceOnUse" x="4.625" y="3" width="7" height="17" fill="black">
<rect fill="white" x="4.625" y="3" width="7" height="17"/>
<path d="M10.183 15.7456L9.06242 16.8663V4.625C9.06242 4.28 8.78242 4 8.43742 4C8.09242 4 7.81242 4.28 7.81242 4.625V16.8663L6.6918 15.7456C6.44805 15.5016 6.0518 15.5016 5.80805 15.7456C5.56398 15.9897 5.56398 16.3853 5.80805 16.6294L7.99554 18.8169C8.11742 18.9391 8.27742 19 8.43742 19C8.59742 19 8.75742 18.9391 8.87929 18.8169L11.0668 16.6294C11.3109 16.3853 11.3109 15.9897 11.0668 15.7456C10.823 15.5016 10.4268 15.5016 10.183 15.7456Z"/>
</mask>
<path d="M10.183 15.7456L9.06242 16.8663V4.625C9.06242 4.28 8.78242 4 8.43742 4C8.09242 4 7.81242 4.28 7.81242 4.625V16.8663L6.6918 15.7456C6.44805 15.5016 6.0518 15.5016 5.80805 15.7456C5.56398 15.9897 5.56398 16.3853 5.80805 16.6294L7.99554 18.8169C8.11742 18.9391 8.27742 19 8.43742 19C8.59742 19 8.75742 18.9391 8.87929 18.8169L11.0668 16.6294C11.3109 16.3853 11.3109 15.9897 11.0668 15.7456C10.823 15.5016 10.4268 15.5016 10.183 15.7456Z" fill="black"/>
<path d="M10.183 15.7456L9.06242 16.8663V4.625C9.06242 4.28 8.78242 4 8.43742 4C8.09242 4 7.81242 4.28 7.81242 4.625V16.8663L6.6918 15.7456C6.44805 15.5016 6.0518 15.5016 5.80805 15.7456C5.56398 15.9897 5.56398 16.3853 5.80805 16.6294L7.99554 18.8169C8.11742 18.9391 8.27742 19 8.43742 19C8.59742 19 8.75742 18.9391 8.87929 18.8169L11.0668 16.6294C11.3109 16.3853 11.3109 15.9897 11.0668 15.7456C10.823 15.5016 10.4268 15.5016 10.183 15.7456Z" stroke="black" stroke-width="0.2" mask="url(#path-2-outside-2_926_22431)"/>
</g>
<defs>
<clipPath id="clip0_926_22431">
<rect width="12" height="20" fill="white" transform="translate(0 0.5)"/>
</clipPath>
</defs>
</svg>
