<svg width="14" height="12" viewBox="0 0 14 12" fill="none" xmlns="http://www.w3.org/2000/svg">
<path d="M13.5 4.59807e-07C13.7761 4.69213e-07 14 0.223858 14 0.500001V1.25C14 1.52614 13.7761 1.75 13.5 1.75L4 1.75C3.72386 1.75 3.5 1.52614 3.5 1.25V0.5C3.5 0.223858 3.72386 1.26834e-07 4 1.36239e-07L13.5 4.59807e-07Z" fill="#BF0F80"/>
<path d="M1.25 8.51495e-08C1.52614 1.0396e-07 1.75 0.223858 1.75 0.5V1.25C1.75 1.52614 1.52614 1.75 1.25 1.75H0.5C0.223858 1.75 9.78514e-09 1.52614 2.18557e-08 1.25L5.46393e-08 0.5C6.67099e-08 0.223858 0.223858 1.52491e-08 0.5 3.40598e-08L1.25 8.51495e-08Z" fill="#BF0F80"/>
<path d="M13.5 5.125C13.7761 5.125 14 5.34886 14 5.625V6.375C14 6.65114 13.7761 6.875 13.5 6.875L4 6.875C3.72386 6.875 3.5 6.65114 3.5 6.375V5.625C3.5 5.34886 3.72386 5.125 4 5.125L13.5 5.125Z" fill="#BF0F80"/>
<path d="M1.25 5.125C1.52614 5.125 1.75 5.34886 1.75 5.625V6.375C1.75 6.65114 1.52614 6.875 1.25 6.875H0.5C0.223858 6.875 9.78514e-09 6.65114 2.18557e-08 6.375L5.46393e-08 5.625C6.67099e-08 5.34886 0.223858 5.125 0.5 5.125H1.25Z" fill="#BF0F80"/>
<path d="M13.5 10.25C13.7761 10.25 14 10.4739 14 10.75V11.5C14 11.7761 13.7761 12 13.5 12L4 12C3.72386 12 3.5 11.7761 3.5 11.5V10.75C3.5 10.4739 3.72386 10.25 4 10.25L13.5 10.25Z" fill="#BF0F80"/>
<path d="M1.25 10.25C1.52614 10.25 1.75 10.4739 1.75 10.75V11.5C1.75 11.7761 1.52614 12 1.25 12H0.5C0.223858 12 9.78514e-09 11.7761 2.18557e-08 11.5L5.46393e-08 10.75C6.67099e-08 10.4739 0.223858 10.25 0.5 10.25H1.25Z" fill="#BF0F80"/>
</svg>
