<svg width="14" height="14" viewBox="0 0 14 14" fill="none" xmlns="http://www.w3.org/2000/svg">
<path d="M0 1.55556C0 0.696446 0.696446 0 1.55556 0H4.66667C5.52578 0 6.22222 0.696446 6.22222 1.55556V4.66667C6.22222 5.52578 5.52578 6.22222 4.66667 6.22222H1.55556C0.696446 6.22222 0 5.52578 0 4.66667V1.55556Z" fill="#96A3AE"/>
<path d="M0 9.33333C0 8.47422 0.696446 7.77778 1.55556 7.77778H4.66667C5.52578 7.77778 6.22222 8.47422 6.22222 9.33333V12.4444C6.22222 13.3036 5.52578 14 4.66667 14H1.55556C0.696446 14 0 13.3036 0 12.4444V9.33333Z" fill="#96A3AE"/>
<path d="M7.77778 1.55556C7.77778 0.696446 8.47422 0 9.33333 0H12.4444C13.3036 0 14 0.696446 14 1.55556V4.66667C14 5.52578 13.3036 6.22222 12.4444 6.22222H9.33333C8.47422 6.22222 7.77778 5.52578 7.77778 4.66667V1.55556Z" fill="#96A3AE"/>
<path d="M7.77778 9.33333C7.77778 8.47422 8.47422 7.77778 9.33333 7.77778H12.4444C13.3036 7.77778 14 8.47422 14 9.33333V12.4444C14 13.3036 13.3036 14 12.4444 14H9.33333C8.47422 14 7.77778 13.3036 7.77778 12.4444V9.33333Z" fill="#96A3AE"/>
</svg>
