<svg width="28" height="20" viewBox="0 0 28 20" fill="none" xmlns="http://www.w3.org/2000/svg">
<path fill-rule="evenodd" clip-rule="evenodd" d="M7.048 0.0909216C5.508 0.172495 3.87 0.341615 3.408 0.466682C2.946 0.591748 2.28501 0.908335 1.93912 1.17004C1.59323 1.43175 1.15792 1.991 0.971813 2.41287C0.78552 2.83455 0.533333 3.93252 0.411067 4.85241C0.266586 5.94217 0.22216 8.02425 0.283946 10.8257C0.356 14.0999 0.452507 15.3608 0.68808 16.109C0.858133 16.6494 1.25368 17.3835 1.56691 17.7403C1.94341 18.169 2.46291 18.4882 3.09888 18.6816C3.74941 18.8793 5.5136 19.0374 8.54134 19.1694C11.0053 19.2769 14.9953 19.312 17.408 19.2476C19.8207 19.183 22.4021 19.0508 23.1446 18.954C23.887 18.8569 24.8284 18.6071 25.2364 18.3988C25.6986 18.1632 26.1515 17.7208 26.4369 17.2267C26.6932 16.7828 26.9818 15.8572 27.0915 15.1264C27.1996 14.4077 27.3437 12.4757 27.4117 10.833C27.4867 9.02311 27.4516 6.94084 27.3226 5.54793C27.2056 4.28383 26.981 2.94095 26.8233 2.56388C26.6657 2.18663 26.352 1.68002 26.1257 1.43791C25.8997 1.19562 25.5011 0.886495 25.2404 0.750602C24.9794 0.614895 24.1019 0.411429 23.2902 0.298495C22.4784 0.185562 19.122 0.0593752 15.8312 0.0179352C12.5405 -0.0235048 8.588 0.00934827 7.048 0.0909216ZM14.7622 7.54023C16.6281 8.60404 18.1547 9.5398 18.1547 9.61969C18.1547 9.69959 16.6281 10.6353 14.7622 11.6992C12.8963 12.7628 11.3003 13.661 11.2155 13.6952C11.1308 13.7295 11.0613 11.8955 11.0613 9.61969C11.0613 7.34385 11.1308 5.50985 11.2155 5.5442C11.3003 5.57836 12.8963 6.4766 14.7622 7.54023Z" fill="#BF0F80"/>
</svg>
